<?xml version="1.0" encoding="utf-8"?>
<!-- Generator: Adobe Illustrator 26.1.0, SVG Export Plug-In . SVG Version: 6.00 Build 0)  -->
<svg version="1.1" id="Design" xmlns="http://www.w3.org/2000/svg" xmlns:xlink="http://www.w3.org/1999/xlink" x="0px" y="0px"
	 viewBox="0 0 3433 1080" style="enable-background:new 0 0 3433 1080;" xml:space="preserve">
<style type="text/css">
	.st0{fill:#B38F79;}
	.st1{fill:#E55E32;}
	.st2{fill:#E3D6CE;}
	.st3{fill:none;stroke:#D4A589;stroke-width:11.0993;stroke-miterlimit:10;}
</style>
<path id="XMLID_4892_" class="st0" d="M3177.94,295.86c26.99,45.77,61.84,87.14,100.68,123.56c32.66,30.63,78.57,59.69,119.45,41.41
	c21.58-9.65,35.73-30.44,48.23-50.51c40.27-64.67,75.44-132.5,105.07-202.68c20.77-49.19,39.06-100.83,38.93-154.21
	c-0.16-66.71-30.92-132.75-81.88-175.81c-124.81-105.44-304.67-37.51-364.27,105.45c-31.17,74.79-28.44,161.25-1.46,237.65
	C3151.92,246.9,3163.86,271.98,3177.94,295.86"/>
<path id="XMLID_4889_" class="st0" d="M782.55,101.26c-57.49,73.06-169.27,94.27-262.74,63.38
	C426.43,133.3,351.55,50.14,351.03-35.33c-0.52-85.45,73.05-173.02,167.53-204.58c94.93-31.49,210.49-6.79,267.03,67.97
	C842.13-97.17,839.59,28.12,782.55,101.26"/>
<path id="XMLID_4894_" class="st1" d="M954.97,1041.2c85.06,35.36,184.87-54.7,269.75-18.89c44.69,18.85,69.74,68.94,72.95,117.34
	c3.22,48.4-11.38,96-25.81,142.31c-17.24,55.33-34.48,110.66-51.72,165.98c-18.08,58.03-38.22,119.26-84.43,158.74
	c-51.65,44.12-127.93,51.41-192.66,30.81c-64.72-20.6-119.16-65.55-164.39-116.23c-106.24-119.03-214.86-339.72-178.54-505.86
	c15.15-69.31,63.92-113.58,136.43-119.89C855.61,885.14,862.69,1002.83,954.97,1041.2z"/>
<path id="XMLID_4893_" class="st2" d="M522.1,227.75c-31.89,91.6-97.16,166.96-158.64,241.98
	c-61.48,75.02-122.25,155.63-142.05,250.58c-11.65,55.88-8.41,114.01-19.68,169.97c-11.26,55.96-42.21,113.51-96.08,132.38
	C31.3,1048.7-50.79,984.36-70.62,908.11c-19.83-76.26-27.94-153.84,3.39-226.13c31.33-72.3,27.17-164.29,33.65-242.82
	c11.34-137.28,0.14-253.93,23.46-389.69C6.31-46.17,81.69-129.11,175.32-154.56C411.28-218.71,598.89,7.18,522.1,227.75z"/>
<path id="XMLID_4891_" class="st2" d="M3300.12,324.27c-46.39,35.52-64.74,97.45-66.89,155.84c-2.15,58.39,9.01,116.54,8.72,174.97
	c-0.3,58.43-14.35,120.72-57.16,160.49c-62.62,58.17-174.66,58.33-212.34,135.05c-21.02,42.79-9.45,93.66,2.52,139.8
	c26.07,100.48,52.14,200.97,78.2,301.45c16.05,61.87,40.73,133.23,101.76,152.21c65.15,20.26,128.54-31.95,176.92-80.07
	c110.89-110.28,222.87-221.93,304.74-355.18c81.87-133.25,131.96-292.26,106.94-446.63
	C3720.23,518.38,3478.04,188.06,3300.12,324.27z"/>
<path id="XMLID_3009_" class="st0" d="M374.88,397.13c1.14,1.14,1.31,1.44,1.56,1.55c2.49,1.14,4.95,2.38,7.5,3.35
	c16,6.08,29.52,15.8,41.11,28.26c4.57,4.9,8.97,9.97,13.25,15.12c10.32,12.46,19.3,25.89,28.55,39.13
	c18.39,26.28,31.65,54.83,39.31,86.02c3.27,13.33,6.87,26.6,10.8,39.75c5.18,17.35,8.04,35.06,9.06,53.09
	c1.1,19.62-0.22,39.13-6.42,57.85c-8.33,25.11-23.96,43.62-50.15,51.65c-13.71,4.2-27.36,8.58-41.1,12.69
	c-7.3,2.18-14.75,3.86-22.39,4.48c-9.19,0.75-18.31,0.27-27.29-1.73c-7.73-1.72-15.4-3.74-23.05-5.84
	c-4.26-1.17-4.77,0.43-4.93,3.99c-0.09,1.78,0.31,3.65,0.79,5.4c1.05,3.81,1.91,7.75,3.53,11.34c5.29,11.71,8.91,24.02,13.42,36.01
	c4.42,11.71,8.19,23.59,9.72,36.14c1.03,8.46,3,16.8,4.64,25.18c3.65,18.6,6.05,37.32,5.16,56.32c-0.88,18.62-3.61,37.01-7.14,55.28
	c-1.44,7.46-3.69,14.78-5.98,22.05c-2.81,8.89-7.86,16.48-14.59,22.93c-3.81,3.65-8.19,6.5-13.35,7.62
	c-13.13,2.87-25.57,1.28-36.53-6.98c-5.34-4.02-10.28-8.6-15.3-13.07c-8.21-7.29-16.24-14.77-24.51-22
	c-12.62-11.05-25.8-21.42-39.39-31.28c-15.06-10.94-29.91-22.14-44.35-33.91c-13.25-10.78-27.09-20.82-41.17-30.5
	c-21.11-14.52-39.39-31.91-52.08-54.37C80.84,850.11,69.01,827.02,59,803.1c-12.55-29.99-14.02-60.92-6.27-92.36
	c3.52-14.28,8.98-27.85,15.51-41c5.04-10.18,10.93-19.75,19.54-27.37c1.67-1.48,1.64-2.85,0.58-4.76
	c-4.58-8.26-8.82-16.7-11.77-25.75c-4.1-12.56-6.29-25.49-7.02-38.6c-0.95-16.8-0.17-33.51,4.57-49.85
	c3.54-12.25,9.35-23.36,18.13-32.45c4.47-4.64,7.14-9.65,9.06-15.48c3.81-11.6,8.03-23.04,13.07-34.18
	c4.46-9.87,10.46-18.58,18.47-25.88c1.8-1.64,3.61-3.28,5.26-5.07c1.02-1.09,0.62-2.4-0.68-2.93c-3.1-1.27-6.27-2.36-9.44-3.45
	c-28.73-9.84-49.94-28.66-65-54.68c-8.15-14.1-13.06-29.53-17.1-45.22c-1.13-4.43-2.18-8.93-2.67-13.46
	c-3.12-28.75,0.29-56.62,12.18-83.17c5.73-12.82,12.1-25.31,19.37-37.35c10.28-17,21.54-33.3,33.63-49.04
	c10.62-13.81,22.12-26.8,35.32-38.25c13.82-11.99,29.47-20.59,47.23-25.13c8.85-2.26,17.8-4.21,26.74-6.16
	c18.19-3.95,36.4-7.82,54.14-13.52c12.49-4.01,24.96-8.1,37.41-12.19c3.48-1.13,6.97-2.25,10.39-3.57
	c15.97-6.15,32.33-11.04,48.84-15.46c14.19-3.8,28.62-6.13,43.32-6.67c7.02-0.26,14.03-0.11,20.94,1.34
	c14.95,3.13,25.94,11.44,33.18,24.93c3.49,6.51,5.96,13.38,7.69,20.5c2.16,8.89,4.08,17.84,5.9,26.81
	c4.64,23.02,8.44,46.19,10.4,69.62c2.4,28.9-0.22,57.26-9.76,84.78c-4.4,12.7-9.36,25.17-15.15,37.29
	c-16.63,34.8-37.59,67.02-59.16,98.87c-2.9,4.27-6.34,8.2-9.67,12.17C389.91,383.86,383.25,390.92,374.88,397.13 M436.88,37.52
	c-0.22-0.04-0.44-0.09-0.66-0.12c0.43-0.52,0.55-0.42,0.35,0.31c-0.06-2.49,2.71-4.42,1.53-7.19c3.69-4.64,7.43-9.25,11.05-13.93
	c1.06-1.37,0.26-2.82-2.07-4.18c-1.34-0.78-3.1-1.56-3.85,0.28c-2.27,5.54-5.03,10.95-5.28,17.11c-0.01,0.28,0.23,0.55,0.36,0.82
	C435.55,32.45,436.15,34.97,436.88,37.52 M201.84,717.64c-3.49-0.42-5.77-3.1-8.54-4.86c-3.33-2.11-6.5-4.48-9.8-6.63
	c-1.14-0.74-2.36-0.4-3.16,0.72c-0.7,0.98-1.36,2.02-1.85,3.11c-0.53,1.17-0.55,2.54,0.59,3.28c6.22,4.09,13.06,6.2,20.54,5.9
	c0.7-0.03,1.37-1.09,2.04-1.66l-0.2,0.48L201.84,717.64 M325.66,1004.84c3.26,11.5,9.73,20.73,19.46,27.69
	c5.91,4.21,12.21,7.9,17.14,13.07c0.92-0.41,1.66-0.49,1.92-0.89c6.79-10.09,6.75-11.98-2.73-19.41
	c-10.3-8.08-21.53-14.76-33.43-20.25c-0.69-0.32-1.69,0.02-2.54,0.04l-0.16-0.43L325.66,1004.84 M267.55,922.41
	c5.12,12.51,14.22,20.89,26.96,25.1c6.91,2.29,14.05,3.93,21.11,5.76c3.53,0.92,7.1,1.7,10.68,2.39
	c14.16,2.72,27.41,7.95,40.42,13.99c4.7,2.17,8.59,5.61,12.92,7.86c2.09-0.99,1.95-2.61,2.07-4.08c0.51-6.06,1-12.11,1.49-18.17
	c0.24-2.96-0.82-5.2-3.27-7.05c-3.67-2.8-7.73-4.78-11.93-6.61c-20.35-8.89-41.76-12.88-63.81-13.96c-4.25-0.21-8.5-0.42-12.74-0.79
	c-6.37-0.55-12.66-1.57-18.75-3.63c-1.67-0.56-3.37-1.55-5.25-0.55c-0.9-0.83,0.81-0.67-0.41-0.69c-0.19,0-0.55,0.17-0.54,0.21
	C266.62,922.9,266.99,922.98,267.55,922.41 M161.68,515.5c0.59,0.61,1.44,1.03,2,1.7c8,9.58,15.77,19.38,23.99,28.78
	c10.57,12.08,15.87,26.55,19.95,41.67c0.71,2.66,1.13,5.41,2.08,7.96c5.31,14.33,6.38,29.09,5.04,44.16
	c-0.52,5.76-1.14,11.56-0.96,17.33c0.6,18.46,6.55,35.33,16.85,50.5c7.34,10.83,16.16,20.62,23.01,31.84
	c2.84,4.66,8,5.22,12.41,7.05c2.09,0.87,3.4-0.19,3.47-2.7c0.3-8.55-0.37-17.03-1.94-25.47c-2.53-13.53-6.42-26.72-10.83-39.7
	c-4.34-12.79-7.39-25.77-9.67-39.01c-3.2-18.48-9.39-36-17.74-52.7c-8.6-17.18-18.67-33.53-29.18-49.6
	c-2.92-4.45-6.49-7.93-11.24-10.4c-7.58-3.92-15.03-8.09-22.54-12.16c-1.87-1.01-3.48-0.7-4.88,0.88c0.32-0.39,0.64-0.78,0.96-1.17
	C162.2,514.81,161.94,515.15,161.68,515.5 M242.12,553.05c1.38,2.76,3.47,3.56,5.25,4.61c10.76,6.38,21.63,12.57,32.33,19.02
	c2.93,1.76,5.66,1.75,8.72,0.89c9.49-2.68,18.18-7.07,26.24-12.67c6.26-4.34,12.36-8.9,18.47-13.45
	c14.19-10.56,28.52-20.86,44.32-29.02c16.41-8.49,33.8-13.96,51.83-17.44c9.87-1.9,19.88-3.05,29.82-4.58
	c3.26-0.5,6.62-0.68,9.41-2.19c0.29-2.47-0.89-3.94-1.89-5.4c-10.86-15.83-21.56-31.77-33.83-46.59
	c-6.05-7.29-12.51-14.16-19.45-20.59c-2.39-2.22-4.94-3-8.26-2.81c-9,0.54-17.35,3.53-25.61,6.6c-7.13,2.63-13.86,6.23-20.41,10.22
	c-23.68,14.44-43.83,32.86-61.81,53.83c-10.54,12.3-19.95,25.46-28.88,38.93c-6.18,9.3-13.82,16.1-24.51,19.42
	C243.34,552.01,242.89,552.51,242.12,553.05 M193.98,522.7c1.96,3.35,4.64,4.3,6.93,5.72c10.1,6.25,20.34,12.32,30.36,18.71
	c3.35,2.14,6.45,2.79,10.31,1.63c8.44-2.56,15.46-6.79,20.61-14.22c10.25-14.78,20.37-29.65,32.09-43.37
	c17.12-20.07,36.32-37.72,58.5-52.11c13.96-9.07,28.99-15.5,45.22-19.17c1.46-0.34,2.87-0.82,4.25-1.22
	c0.31-2.23-1.35-2.76-2.58-3.41c-4.84-2.56-9.63-5.28-14.67-7.42c-10.37-4.41-20.94-8.38-31.32-12.77c-3.68-1.55-7.02-1.34-10.61,0
	c-7.75,2.89-15.01,6.74-21.95,11.19c-7.7,4.93-15.36,9.91-22.94,15.02c-3.53,2.38-7,4.91-10.18,7.73
	c-18.97,16.88-36.08,35.44-50.81,56.17c-4.06,5.7-8.62,11.05-13.09,16.46c-6.33,7.61-13.98,13.54-23.11,17.51
	C198.76,520.12,196.66,521.34,193.98,522.7 M271.37,298.47c5.83-5.64,9.91-10.48,14-15.32c2.09-2.46,2.55-5.37,2.55-8.55
	c0.02-14.54-2.61-28.54-9.21-41.55c-3.86-7.59-8.31-14.88-12.7-22.19c-9.76-16.26-18.55-32.99-22.77-51.63
	c-3.43-15.14-5.98-30.45-6.91-46.03c-1.05-17.45-0.13-34.68,3.84-51.72c0.67-2.91,1.74-5.81,1.35-8.84
	c-0.63-0.31-1.16-0.83-1.58-0.74c-14.03,2.86-28.06,5.77-42.07,8.7c-1.49,0.31-2.94,0.8-4.43,1.11c-2.71,0.57-4.09,2.28-4.75,4.91
	c-2.18,8.64-2.79,17.48-2.53,26.29c0.73,24.41,7.67,47.3,16.99,69.72c7.35,17.66,18.51,32.82,29.21,48.36
	c9.01,13.06,16.96,26.72,24.09,40.88c5.79,11.51,10.09,23.51,12.42,36.19C269.43,291.04,270.28,293.96,271.37,298.47 M496.99,557.58
	c-17.09,0.12-33.55,0.39-50,0.29c-13.35-0.08-25.93,3.53-38.54,7.16c-19.18,5.53-36.91,14.35-54.03,24.46
	c-8.39,4.95-16.96,9.67-24.7,15.64c-2.6,1.99-2.71,3.02-0.45,5.02c8.9,7.89,17.92,15.65,26.77,23.6c3.18,2.86,6.83,3.8,10.9,3.94
	c8.99,0.32,17.62-1.44,25.93-4.7c7.66-3.03,15.19-6.36,22.79-9.53c18.6-7.79,37.41-14.93,57.44-18.15
	c6.62-1.07,13.29-1.77,19.95-2.5c3.64-0.4,7.31-0.42,10.95-0.82c4.31-0.47,5.25-1.81,4.04-6.08
	C504.49,583.32,500.8,570.76,496.99,557.58 M100.23,142.3c-1.83,0-2.55,1.48-3.39,2.68c-8.89,12.77-16.94,26.05-24.88,39.43
	c-2.96,5-2.92,9.76-0.92,14.82c4.64,11.76,11.54,22.14,19.91,31.5c10.63,11.89,22.99,21.8,36.68,29.97
	c8.9,5.31,17.96,10.35,26.91,15.58c14.5,8.47,28.59,17.54,40.98,28.97c12.49,11.51,22.88,24.45,27.98,41.01
	c0.79,2.53,2.25,2.88,3.85,1.05c3-3.44,5.87-7.01,8.88-10.44c2.69-3.08,2.97-6.38,1.8-10.21c-1.88-6.18-4.85-11.83-8.01-17.39
	c-6.22-10.95-14.07-20.66-23.46-29.01c-9.79-8.71-19.64-17.35-29.84-25.58c-23.34-18.81-41.86-41.55-56.34-67.69
	c-7.25-13.1-12.9-26.9-18.05-40.93C101.84,144.69,101.83,143.04,100.23,142.3 M494.99,553.2c0.59-2.56-0.17-4.28-0.79-5.98
	c-5.17-14.38-11.6-28.17-19.4-41.32c-1.39-2.32-3-3.81-5.85-3.3c-18.29,3.23-36.86,4.75-54.89,9.7
	c-21.15,5.8-40.48,15.2-58.39,27.62c-10.02,6.94-19.77,14.26-29.55,21.55c-10.58,7.86-21.63,14.8-34.3,18.85
	c-0.8,0.25-1.99,0.47-1.76,1.65c0.16,0.79,0.69,1.71,1.33,2.15c3,2.09,6.12,4.01,9.18,6.02c6.61,4.38,13.23,8.75,19.8,13.18
	c1.91,1.29,3.49,1.91,5.7,0.23c15.37-11.63,32.05-21.19,49.33-29.59c20.41-9.92,41.8-17.28,64.49-19.41
	c12.7-1.19,25.57-0.4,38.37-0.58C483.7,553.9,489.2,554.46,494.99,553.2 M254.89,313.3c1.48-0.13,1.89-0.05,2.07-0.21
	c12.46-10.76,11.42-8.85,8.55-23.86c-3.77-19.83-12.78-37.37-22.67-54.63c-7.13-12.44-15.29-24.22-23.58-35.89
	c-15.41-21.68-25.75-45.55-31.92-71.34c-2.27-9.5-4.1-19.01-4.66-28.83c-0.57-10.13,0.19-20.08,1.57-30.05
	c0.34-2.53-0.84-3.6-3.03-2.76c-11.19,4.28-21.37,10.33-30.8,17.71c-2.9,2.27-4.23,5.04-4.45,8.57
	c-0.69,11.06,0.48,21.95,3.22,32.63c4.93,19.25,11.32,37.98,19.56,56.09c4.06,8.92,8.86,17.41,14.22,25.54
	c11.93,18.07,24.57,35.62,38.86,51.92c3.42,3.89,6.58,8.01,9.84,12.03C242.12,283.09,251.86,296.32,254.89,313.3 M292.25,272.82
	c1.52-0.07,2.25-1.03,2.99-1.99c3.93-5.05,7.74-10.2,11.82-15.13c3.41-4.1,4.1-8.52,3.06-13.64c-2.19-10.78-5.05-21.39-9.23-31.55
	c-10.76-26.2-16.84-53.36-18.37-81.64c-1.12-20.69-1.45-41.37-0.36-62.07c0.38-7.31,0.28-14.61-0.58-21.89
	c-0.48-3.94-1.36-4.52-5.49-3.36c-7.92,2.22-15.76,4.77-23.74,6.73c-4.18,1.03-6.08,3.39-7.02,7.32
	c-3.51,14.87-5.95,29.86-5.75,45.19c0.27,19.9,2.97,39.5,7.56,58.79c3.76,15.84,10.95,30.32,19.18,44.3
	c4.63,7.87,9.25,15.75,13.77,23.68c6.76,11.87,10.06,24.74,11.15,38.3C291.42,268.16,290.82,270.71,292.25,272.82 M140.69,92.56
	c-1.13,0.93-2.38,1.81-3.44,2.86c-11.04,11.01-20.95,22.97-30.24,35.49c-2.43,3.27-3,6.36-2.06,10.22
	c1.59,6.56,4.24,12.75,6.8,18.92c14.5,34.92,35.39,65.24,64.74,89.47c10.58,8.74,21.03,17.64,31.32,26.71
	c10.13,8.93,18.75,19.17,25.34,31.02c3.27,5.86,6.38,11.8,8.26,18.3c0.72,2.48,2.02,2.62,3.92,0.63c1.04-1.11,1.92-2.38,3.02-3.43
	c2.68-2.58,3.42-5.69,2.71-9.21c-1.13-5.7-2.61-11.24-5.4-16.44c-6.7-12.46-15.51-23.37-24.66-33.98
	c-12.56-14.57-24.03-29.93-35.13-45.62c-16.03-22.64-27.32-47.51-35.15-74.02c-3.19-10.81-6.95-21.51-7.82-32.89
	c-0.33-4.55-0.66-9.11-0.89-13.66C141.94,95.42,142.14,93.89,140.69,92.56 M215.94,360.19c5.12-2.89,5.95-7.25,4.37-12.48
	c-1.51-4.99-3.57-9.7-6.22-14.19c-8.36-14.16-19.8-25.45-32.82-35.23c-9.77-7.33-20-13.95-30.66-19.94
	c-7.98-4.48-15.91-9.04-23.78-13.71c-13.99-8.29-26.62-18.3-37.66-30.26c-8.55-9.25-15.35-19.67-20.57-31.13
	c-0.61-1.35-0.86-2.92-2.28-3.79c-1.64-0.47-2.14,0.83-2.65,1.85c-8.69,17.36-14.3,35.59-16.03,54.99
	c-0.26,2.95,0.43,5.04,2.14,7.49c7.32,10.46,17.1,17.27,29.23,20.75c11.72,3.35,23.61,6.15,35.28,9.65
	c18.71,5.61,37.17,11.89,54.74,20.58c10.77,5.34,20.26,12.44,29.05,20.51c6.12,5.61,11.09,12.12,14.25,19.91
	C213.09,357.1,213.66,359.3,215.94,360.19 M360.24,777.09c-1.27-1.88-2.52-3.85-3.9-5.72c-11.47-15.56-18.12-33.09-20.66-52.1
	c-2.29-17.09-7.36-33.28-14.2-48.96c-2.32-5.32-4.46-10.69-6.17-16.22c-3.14-10.22-7-20.12-12.1-29.53
	c-5.65-10.45-11.26-20.92-16.76-31.43c-3.93-7.51-9.32-13.24-17.07-17.09c-8.41-4.18-16.4-9.18-24.57-13.8
	c-1.89,1.63-0.63,3.03-0.04,4.09c2.93,5.33,5.74,10.77,9.15,15.8c7.69,11.39,14,23.58,19.96,35.88
	c6.24,12.88,10.88,26.51,14.43,40.41c4.06,15.95,8,31.93,11.53,47.99c1.94,8.92,2.73,18.08,5.57,26.82
	c3.01,9.27,6.22,18.47,9.22,27.75c0.65,2.02,2.05,2.93,3.78,3.57c4.85,1.81,9.7,3.64,14.61,5.32c7.49,2.57,15.02,5.03,22.55,7.49
	C356.9,777.79,358.31,778.72,360.24,777.09 M367.25,642.38c0.02,1.38,0.97,2.17,1.88,2.96c9.91,8.59,19.85,17.15,29.72,25.77
	c1.97,1.73,4.1,2.22,6.69,2.22c6.5-0.02,12.71-1.44,18.86-3.33c9.33-2.86,18.62-5.84,27.97-8.69c13.46-4.1,27.24-6.65,41.22-8.18
	c7.63-0.85,15.23-0.13,22.84,0.11c2.98,0.08,3.83-0.87,3.5-3.87c-1.5-13.36-4-26.53-7.84-39.43c-1.45-4.85-2.25-4.91-7.18-4.35
	c-11.49,1.33-23.06,1.81-34.5,3.98c-17.83,3.37-34.59,9.83-51.32,16.46c-6.8,2.69-13.42,5.84-20.18,8.66
	c-8.77,3.66-17.78,6.42-27.43,6.46c-1.19,0-2.39,0.35-3.57,0.61C367.66,641.81,367.47,642.17,367.25,642.38 M162.23,506.99
	c7.91,4.17,14.91,7.83,21.87,11.57c3.31,1.78,6.68,1,9.76-0.14c8.05-2.99,15.5-7.16,21.67-13.25c6.53-6.43,12.45-13.41,17.72-20.9
	c14.79-21.06,31.95-40,51.16-57.08c2.5-2.22,4.95-4.61,7.76-6.37c15-9.31,28.85-20.48,45.22-27.54c0.28-0.12,0.53-0.3,0.81-0.42
	c0.71-0.3,1.04-0.78,0.76-1.41c-0.23-0.52-0.55-1.24-0.99-1.39c-3.46-1.17-6.95-2.28-10.46-3.29c-9.08-2.62-18.32-4.61-27.64-6.25
	c-4.55-0.81-8.43,0-12.05,2.64c-2.23,1.61-4.54,3.12-6.58,4.95c-12.07,10.74-24.19,21.47-33.97,34.45
	c-12.86,17.05-26.75,33.24-40.9,49.21c-9.97,11.25-20.9,21.34-34.48,28.15C168.63,501.55,165.61,503.5,162.23,506.99 M475.98,222.89
	c-1.49-1.37-3.41-1.07-5.12-1.02c-9.75,0.29-19.47-0.3-29.19-1.03c-12.26-0.92-24.21,0.03-36.06,3.88
	c-17.01,5.53-34.55,6.94-52.36,4.57c-5.42-0.72-10.91-0.94-16.38-1.34c-2.26-0.16-4.07,0.63-5.46,2.62
	c-3.48,4.99-7.13,9.87-10.65,14.85c-1.37,1.93-0.78,3.15,1.92,3.61c8.79,1.5,16.91,5.04,25.2,8.09
	c24.53,9.03,49.7,14.16,76.02,12.41c8.85-0.6,17.64,0.15,26.39,1.56c6.1,0.98,6.17,0.86,8.96-4.88c5.99-12.36,11.04-25.1,15.74-38
	C475.6,226.52,476.45,224.84,475.98,222.89 M206.13,539.11c4.21,7.06,8.21,14.2,12.6,21.07c12.57,19.67,21.99,40.72,28.64,63.07
	c2.45,8.22,3.8,16.67,5.12,25.08c1.38,8.8,3.96,17.21,6.74,25.61c4.88,14.77,9.37,29.65,12.24,44.98
	c1.64,8.71,2.27,17.54,1.76,26.38c-0.14,2.4-0.05,4.11,2.55,4.97c10.43,3.41,20.83,6.91,31.27,10.31c2.3,0.74,3.41-0.54,2.61-2.99
	c-1.13-3.48-2.37-6.93-3.71-10.33c-4.15-10.56-6.58-21.55-8.6-32.68c-5.62-30.96-12.69-61.57-24.95-90.67
	c-4.25-10.07-9.57-19.77-15.2-29.16c-6.74-11.24-13.56-22.42-19.34-34.18c-1.68-3.41-3.82-6.08-7.08-8.06
	c-6.77-4.13-13.41-8.46-20.14-12.65C209.45,539.12,208.22,538.07,206.13,539.11 M284.73,39.51c3.02,19.53,0.02,38.96,0.46,58.4
	c0.47,20.39,1.18,40.75,4.46,60.94c2.5,15.42,6.95,30.29,12.57,44.78c4.42,11.39,8.31,22.89,10.77,34.87
	c0.24,1.18,0.55,2.36,0.9,3.52c0.37,1.21,1.96,1.4,2.86,0.3c1.53-1.9,3.06-3.8,4.44-5.79c9.62-13.94,9.06-8.59,4.54-26.53
	c-1.64-6.49-3.51-12.93-5.31-19.38c-7.88-28.17-10.02-56.84-7.51-85.93c1.54-17.89,2.92-35.78,4.42-53.66
	c0.28-3.35,0.51-6.66-0.32-9.98c-2.73-11.08-3.4-11.55-13.96-7.96C297.03,35.11,290.7,36.29,284.73,39.51 M407.59,784.19
	c0.03-1.89-1.28-2.84-2.23-3.89c-7.41-8.1-13.78-17.02-20.59-25.59c-11.15-14.03-18.68-29.91-24.71-46.58
	c-2.8-7.72-5.28-15.58-7.36-23.54c-6.52-24.95-17.01-48.17-29.9-70.39c-2.16-3.74-4.8-6.96-8.53-9.31
	c-6.71-4.21-13.29-8.6-19.96-12.9c-1.23-0.8-2.45-1.82-4.12-1.12c-0.18,1.97,1.06,3.39,1.96,4.97
	c7.82,13.76,15.37,27.66,21.52,42.27c0.94,2.24,1.89,4.5,2.58,6.83c4.22,14.35,10.36,27.96,15.76,41.87
	c2.21,5.7,3.87,11.52,4.77,17.59c1.11,7.52,2.3,15.07,3.91,22.5c4.21,19.41,12.9,36.64,25.9,51.71c1.26,1.45,2.45,2.68,4.3,3.14
	c11.29,2.74,22.68,4.56,34.35,3.46C406.07,785.13,406.85,784.52,407.59,784.19 M453.71,277.02c-1.41-1.9-2.97-1.92-4.46-2.2
	c-8.42-1.56-16.93-2.15-25.44-1.49c-12.53,0.97-24.83-0.04-37.22-2.18c-15.97-2.75-31.55-6.47-46.47-12.93
	c-6.12-2.65-12.43-4.95-19.17-5.77c-3.37-0.42-5.8,0.3-7.87,3.15c-4.8,6.64-9.85,13.09-14.74,19.55c1.15,2.45,3.22,1.68,4.77,1.92
	c7.87,1.21,15.45,3.47,22.8,6.39c10.46,4.15,21.07,8.08,31.19,12.96c19.76,9.55,40.62,12.21,62.18,11.46
	c4.86-0.16,9.72-0.65,14.58-0.85c1.64-0.07,3.02-0.43,3.89-1.84C443.48,295.91,449.18,286.62,453.71,277.02 M247.04,737.15
	c-2.37-5.36-6.04-9.75-9.58-14.22c-6.06-7.64-12.23-15.21-16.43-24.12c-7.94-16.79-12.91-34.17-10.6-53.04
	c0.6-4.82,0.68-9.71,0.95-14.58c0.61-10.78-0.91-21.27-4.36-31.5c-2.81-8.37-4.48-17.08-7.47-25.43
	c-2.81-7.86-6.41-15.15-11.6-21.64c-6.27-7.85-12.7-15.59-19-23.41c-4.21-5.22-8.46-10.4-12.46-15.79
	c-3.63-4.91-8.55-7.22-14.28-8.52c-0.77,2.34,1.01,3.07,1.85,4.11c9.25,11.38,17.29,23.54,24.25,36.46
	c3.22,5.97,5.39,12.25,7.34,18.69c3.99,13.2,5.88,26.74,6.93,40.46c1.51,19.75,3.13,39.52,6.96,58.97
	c3.93,19.97,11.3,38.57,23.74,54.92c1.29,1.71,2.49,3.4,4.39,4.55c8.87,5.38,17.87,10.5,27.41,14.61
	C245.49,737.85,246.12,737.42,247.04,737.15 M432.48,311.09c-2.84,0.08-5.84-0.01-8.8,0.27c-12.22,1.09-24.34,0.18-36.43-1.48
	c-9.44-1.3-18.34-4.31-27.07-8.06c-11.48-4.93-22.97-9.83-34.6-14.39c-6.22-2.43-12.71-4.2-19.15-6.08
	c-2.92-0.85-5.96-1.14-9.04-0.55c-2.46,0.47-4.64,1.23-6.35,3.24c-5.13,6-10.33,11.93-15.29,17.62c0.13,2.83,2.24,3.13,3.7,4.01
	c7.06,4.22,14.28,8.19,21.23,12.59c13.47,8.52,28.14,13.06,44,13.65c6.99,0.26,14-0.07,21-0.11c7-0.05,14.01-0.31,21-0.03
	c9.15,0.37,18.21,1.39,26.76,5.15c3.42,1.49,3.83,1.28,5.96-1.96c4.17-6.37,8.21-12.84,12.26-19.29
	C432.44,314.41,433.36,313.09,432.48,311.09 M204.68,374.37c3.02-0.57,3.82-3.18,5.42-4.92c2.32-2.51,2.6-5.12,1.22-8.33
	c-4.15-9.69-9.99-18.01-17.91-25.04c-12.95-11.52-27.76-19.75-43.86-25.87c-20.24-7.7-40.83-14.31-61.89-19.41
	c-3.56-0.86-7.07-1.88-10.58-2.9c-8.97-2.59-16.75-7.23-23.47-13.67c-1.32-1.26-2.53-2.65-3.89-3.85c-0.35-0.32-1.1-0.31-1.64-0.26
	c-0.75,0.04-0.97,0.57-0.99,1.32c-0.16,10.09,0.91,20.06,2.87,29.96c0.56,2.89,2.03,5.08,4.37,6.67
	c11.16,7.52,22.57,14.41,36.44,15.94c15.44,1.69,30.88,3.47,46.24,5.72c22.5,3.3,41.29,14.07,57.45,29.8
	C198.91,363.8,201.63,369.24,204.68,374.37 M332.34,219.63c3.19-3.01,4.77-5.93,6.79-8.49c1.43-1.82,1.52-3.78,0.99-6.02
	c-0.97-4.14-1.68-8.36-2.52-12.55c-2.35-11.74-2.6-23.63-1.8-35.5c0.8-11.84,2.17-23.64,4.8-35.28c5.8-25.66,8.78-51.64,8.25-77.98
	c-0.15-7.32-0.25-14.64-2.48-21.71c-0.69-2.2-1.95-3.05-4.06-2.38c-7.54,2.42-15.07,4.93-22.57,7.49c-2.04,0.7-2.66,2.32-2.01,4.37
	c0.47,1.45,0.89,2.93,1.51,4.33c2.13,4.9,2.36,9.98,1.9,15.24c-1.48,16.99-2.77,34-4.21,50.99c-1.55,18.26-1.77,36.48,0.49,54.72
	c2.11,17.01,6.63,33.47,11.09,49.95C329.59,210.79,330.52,214.86,332.34,219.63 M408.45,677.77c0.16,0.55,0.14,1.3,0.51,1.63
	c8.99,8.25,18.25,16.16,28,23.51c4.81,3.63,9.66,5.12,16.06,4.42c18.76-2.03,37.46-5.1,56.41-5.26c2.12-0.01,4.25-0.34,6.38-0.51
	c2.54-0.22,3.78-1.73,4.08-4.12c1.53-12.43,2.15-24.89,1.09-37.39c-0.15-1.7-1.14-2.65-2.95-2.82c-11.89-1.12-23.7-0.86-35.54,1.04
	c-16.02,2.57-31.54,7.05-46.92,12.03c-8.43,2.73-16.83,5.43-25.66,6.54C409.39,676.89,408.94,677.44,408.45,677.77 M261.5,317.18
	c2.92,1.48,5.35,2.71,7.77,3.94c10.08,5.11,19.46,11.18,28.33,18.26c15.28,12.18,31.55,22.85,50.14,29.53
	c10.08,3.6,20.27,6.53,31.06,6.92c2.42,0.09,4.84,0.51,7.23,0.95c2.01,0.37,3.56-0.21,4.87-1.69c8.55-9.56,15.95-19.97,22.47-31
	c0.97-1.62,0.2-2.81-1.43-3.57c-5.02-2.36-10.32-3.58-15.81-4.2c-10.01-1.14-20.03-1.19-30.07-0.78
	c-8.52,0.34-17.02,0.56-25.54-0.13c-14.85-1.21-28.55-5.73-41.21-13.6c-7.75-4.82-15.6-9.49-23.51-14.05c-3.6-2.08-3.89-1.96-7,1.23
	C266.49,311.36,263.58,313.2,261.5,317.18 M330.89,620.27c3.41,7.09,6.87,14.18,10.23,21.31c6.13,12.99,11.01,26.42,14.66,40.34
	c4.41,16.84,10.12,33.24,18.08,48.79c2.93,5.7,6.15,11.2,10.01,16.33c7.87,10.47,15.47,21.16,24.43,30.76
	c1.46,1.54,2.86,3.16,4.43,4.6c1.15,1.04,2.61,1.62,4.23,1.17c4.98-1.39,9.98-2.76,14.92-4.28c1.43-0.45,1.53-1.81,0.73-2.94
	c-0.87-1.23-1.9-2.39-3-3.43c-8.31-7.89-14.25-17.42-18.95-27.76c-6.69-14.7-13.62-29.3-19.88-44.19
	c-6.63-15.8-15.1-30.57-23.69-45.32c-5.28-9.05-11.63-17.03-20.05-23.4c-5.29-4.01-10.1-8.62-15.13-12.95
	C331.57,619.64,331.24,619.95,330.89,620.27 M343.71,203.97c3.12-4.27,5.14-6.86,6.97-9.59c4.08-6.08,8-12.26,12.1-18.32
	c1.69-2.51,2.08-4.97,0.74-7.72c-0.66-1.37-1.26-2.78-1.73-4.22c-2.9-8.76-4.56-17.6-3.73-26.97c1.02-11.59,2.97-22.97,6.29-34.12
	c1.91-6.42,3.74-12.89,5.85-19.25c4.34-13.11,6.43-26.66,7.81-40.33c1.03-10.15-0.87-20.05-2.98-29.91
	c-0.36-1.65-1.66-2.61-3.38-2.38c-6.68,0.91-13.08,2.95-19.41,5.19c-2,0.7-2.52,2.48-2.17,4.49c5.97,34.92,0.99,69.21-6.1,103.37
	c-3.85,18.59-5.65,37.36-4.27,56.34C340.22,187.81,341.12,195.06,343.71,203.97 M141.8,498.14c4.32,3.18,9.25,4.58,13.89,6.51
	c1.52,0.63,3.07,0.06,4.26-0.95c5.84-4.98,12.8-8.18,19.18-12.31c9.82-6.35,17.76-14.76,25.48-23.38
	c14.21-15.88,27.83-32.25,40.79-49.17c10.23-13.36,22.86-24.4,35.5-35.39c1.11-0.97,2.69-1.47,3.05-3.36
	c-0.1-1.76-1.72-1.22-2.7-1.28c-6.07-0.36-12.16-0.53-18.22-0.91c-4.12-0.25-7.68,0.84-11.24,2.94
	c-11.38,6.7-21.29,14.94-29.84,25.14c-11.18,13.35-21.05,27.56-30.15,42.36c-4.46,7.26-9.13,14.41-13.41,21.77
	c-6.57,11.28-16.12,18.83-28.08,23.66C147.54,494.87,144.45,495.45,141.8,498.14 M349.1,205.8c9.31,2.19,17.43,1.84,25.47-0.49
	c4.09-1.18,8.16-2.46,12.22-3.75c11.65-3.74,23.64-6,35.71-7.57c10.15-1.32,19.56-4.47,28.53-9.16c10.5-5.52,20.56-11.93,32-15.51
	c2.12-0.65,2.75-2.36,2.73-4.24c-0.09-6.08-0.2-12.16-0.54-18.24c-0.18-3.17-1.42-3.98-4.94-3.59c-7.92,0.91-15.51,3.2-22.79,6.38
	c-7.28,3.16-14.24,6.98-20.63,11.69c-8.62,6.36-18.32,9.27-28.84,10.35c-11.51,1.18-22.97,2.88-34.59,1.98
	c-1.91-0.15-3.59,0.41-4.72,2.16C362.4,185.45,356.1,195.09,349.1,205.8 M406.84,220.68c9.65-3.75,20.51-4.42,31.59-3.76
	c10.63,0.63,21.27,1.62,31.95,1.13c1.21-0.04,2.43,0.06,3.66,0.07c2.81,0.01,4.66-1.31,5.29-4.07c1.28-5.64,2.74-11.26,3.66-16.97
	c1.06-6.6,1.7-13.29,2.34-19.95c0.3-3.16-0.87-4.18-3.58-3.22c-3.71,1.35-7.42,2.79-10.95,4.57c-7.89,3.96-15.67,8.15-23.5,12.25
	c-6.28,3.29-13.01,5.37-19.98,6.3c-16.98,2.25-33.63,5.84-49.88,11.25c-8.59,2.86-17.36,3.18-26.21,1.77
	c-3.37-0.54-5.85,0.09-7.7,3.17c-1.56,2.61-3.51,4.98-5.19,7.52c-1.41,2.14-0.8,3.58,1.59,3.79c16.39,1.42,32.74,3.37,49.2,0.39
	C394.85,223.9,400.43,222.47,406.84,220.68 M104.24,501.44c0.85,10.8,1.27,21.14,2.56,31.39c1.72,13.59,4.09,27.09,6.26,40.62
	c1.84,11.42,3.63,22.84,5.23,34.29c3.27,23.58,11.2,45.43,26.04,64.46c4.06,5.21,9.42,8.54,14.85,11.91
	c0.43,0.27,1.24,0.3,1.71,0.09c1.11-0.51,0.66-1.51,0.35-2.27c-5.72-13.81-10.37-27.99-14.8-42.26c-2.36-7.61-3.95-15.33-5.09-23.17
	c-2.19-15.06-3.5-30.29-6.48-45.19c-3.51-17.6-8.1-35.01-17.2-50.85c-3.02-5.26-5.49-10.85-9.2-15.72
	C107.54,503.51,106.77,502.21,104.24,501.44 M382.9,944.73c0.26-9.23-0.65-17.01-1.74-24.82c-0.37-2.68-2.04-4.15-4.19-5.59
	c-12.7-8.45-26.78-13-41.76-15.16c-19.16-2.75-38.3-1.87-57.41,0.48c-7.59,0.92-15.15,1.43-22.77,0.36
	c-1.17-0.16-2.39,0.08-3.65,0.14c2.35,7.51,7.22,13.66,13.16,16.22c7.3,3.17,14.88,5.51,22.85,6.2c10.93,0.95,21.87,1.62,32.78,2.65
	c18.07,1.71,35.28,6.74,51.85,14.03C375.36,940.71,378.52,942.5,382.9,944.73 M175.65,762.72c0.43,7.6,1.01,14.46,7.13,19.78
	c13.8,11.99,29.47,19.14,47.9,20.42c21.44,1.48,42.69,0.93,63.58-4.49c16.85-4.38,32.89-11.1,48.75-17.54
	c0.21-2.64-1.47-2.89-2.81-3.37c-5.46-1.93-10.83-4.35-16.45-5.56c-5.44-1.19-10.79,1.45-16.15,2.4
	c-13.55,2.41-27.26,3.01-40.9,4.55c-11.5,1.3-22.98,3.07-34.6,3.2c-9.17,0.1-18.27-0.35-27.3-2.16
	c-8.66-1.71-16.07-5.48-22.23-11.85C180.74,766.16,179.14,763.79,175.65,762.72 M469.74,110.62c-5.35,1.48-10.2,4.08-15,6.73
	c-10.4,5.77-21.09,10.95-31.94,15.8c-8.8,3.93-17.72,6.54-27.46,5.27c-2.25-0.29-4.14,0.09-5.46,2.31
	c-5.1,8.67-10.32,17.27-15.45,25.95c-1.21,2.06-0.36,3.51,2.14,3.49c5.18-0.04,10.36-0.13,15.51-0.53
	c5.77-0.44,11.51-1.3,17.27-1.91c8.97-0.95,17.21-3.73,24.61-9.01c9.22-6.59,19.06-12.03,29.91-15.51
	c5.53-1.77,11.13-3.26,16.91-3.91c2.06-0.23,3.56-0.97,3.38-3.32c-0.64-8.2-1.36-16.4-3.21-24.44c-0.49-2.13-1.98-2.93-4.09-2.51
	C474.49,109.52,472.12,110.09,469.74,110.62 M204.72,714.45c-3.93-8.39-7.12-15.19-10.28-22.01c-4.13-8.9-6.64-18.36-8.52-27.91
	c-3.85-19.44-5.32-39.22-7.09-58.92c-0.92-10.32-1.87-20.6-4.13-30.76c-3.35-15.1-9.49-28.86-17.87-41.76
	c-6.82-10.48-14.09-20.59-22.57-29.82c-3.93-4.29-8.72-5.88-14.34-6.25c-0.29,3.47,2.11,4.81,3.76,6.39
	c13.25,12.64,22.41,27.93,29.16,44.79c3.31,8.3,4.11,17.19,5.45,25.89c2.07,13.54,3.56,27.17,5.45,40.75
	c0.72,5.12,1.88,10.18,2.85,15.27c3.68,19.45,7.41,38.9,11.02,58.36c1.06,5.67,3.52,10.21,8.5,13.43
	C191.92,705.68,197.38,710.05,204.72,714.45 M125.47,904.21c8.08-26.78,24-47.56,40.93-67.62c6.32-7.49,11.65-15.59,17.13-23.63
	c1.76-2.56,1.9-4.97,0.65-7.69c-2.13-4.67-4.17-9.39-6.18-13.93c-2.35,0.16-2.78,1.77-3.46,3.06c-0.99,1.89-2.02,3.77-2.82,5.74
	c-4.7,11.63-12.66,20.53-22.48,28.2c-12,9.38-24.27,18.34-36.96,26.75c-4.83,3.21-9.49,6.62-12.73,11.59
	c-1.26,1.93-1.76,3.84-0.42,5.94C106.34,883.88,114.16,894.65,125.47,904.21 M95.54,865.07c5.77-7.42,12.9-12.09,20.02-16.78
	c11.74-7.71,22.86-16.23,33.81-25.01c7.78-6.21,13.99-13.52,18.08-22.63c1.87-4.17,3.93-8.28,6.18-12.25
	c1.64-2.9,1.83-5.66,0.74-8.73c-1.03-2.86-1.75-5.84-2.71-8.73c-0.13-0.43-0.8-0.93-1.24-0.97c-0.5-0.03-1.19,0.32-1.51,0.73
	c-0.56,0.71-0.95,1.56-1.33,2.39c-4.56,9.73-11.9,16.88-20.95,22.38c-12.24,7.44-24.54,14.79-36.82,22.15
	c-4.97,2.98-9.86,6.09-14.1,10.1c-2.23,2.11-4.24,4.34-5.81,7.02c-3.89,6.62-6.36,13.03-0.64,20.19
	C91.48,857.69,92.52,861.43,95.54,865.07 M221.85,859.74c1.54,4.24,4.62,7.61,7.12,11.31c1.31,1.94,3.29,2.65,5.5,2.77
	c4.86,0.27,9.73,0.79,14.58,0.66c22.21-0.59,44.43-1.4,66.65-2.03c7.3-0.2,14.62-0.18,21.92-0.1c11.02,0.13,21.88,1.21,32.28,5.28
	c2.24,0.88,3.67-0.38,3.3-2.7c-1.05-6.62-2.44-13.16-4.35-19.62c-1.19-4.05-3.36-5.89-7.73-6.2c-10.97-0.76-21.92-1.14-32.8,0.67
	c-16.83,2.76-33.63,5.69-50.41,8.75c-9.3,1.7-18.65,2.92-28.07,3.64c-7.67,0.58-15.2,0.02-22.59-2.25
	C225.65,859.44,223.96,858.16,221.85,859.74 M234.49,877.83c2.92,6.53,6.95,10.72,10.14,15.44c1.04,1.53,2.61,2.4,4.6,2.59
	c7.57,0.77,15.11,1.75,22.74,0.7c12.07-1.67,24.19-2.78,36.38-2.87c18.05-0.14,35.84,1.72,52.92,8.2
	c5.46,2.06,10.44,4.95,15.49,7.76c1.13,0.63,2.64-0.39,2.42-1.58c-1.34-7.17-2.73-14.34-4.07-21.52c-0.44-2.37-1.91-3.65-4.08-4.41
	c-7.76-2.75-15.54-5.19-23.9-5.6c-14-0.7-27.97-0.38-41.96-0.05C282.06,877.02,259,878.77,234.49,877.83 M173.53,692
	c0.74-3.41-0.09-6.7-0.73-9.96c-3.58-18.55-7.42-37.06-10.73-55.65c-2.14-12-3.4-24.13-5.21-36.18
	c-1.66-11.15-3.17-22.34-5.43-33.38c-1.82-9.01-5.98-17.26-10.61-25.19c-7.43-12.69-17.22-23.54-27.18-34.24
	c-0.76-0.82-2.06-1.21-3.18-1.6c-0.49-0.17-1.33,0-1.7,0.35c-0.34,0.33-0.53,1.22-0.32,1.64c0.83,1.61,1.78,3.16,2.8,4.66
	c3.12,4.5,5.76,9.3,8.55,14.01c9.45,16.01,14.29,33.63,18.23,51.5c2.42,10.98,3.44,22.27,5.06,33.43c1.02,6.93,1.73,13.91,3.03,20.8
	c3.25,17.13,9.15,33.49,15.21,49.79c1.81,4.86,3.69,9.68,5.71,14.45C168.56,690.01,168.69,689.96,173.53,692 M205.83,834.66
	c2.33,4.24,3.55,6.67,4.94,8.99c5.61,9.33,5.89,9.48,16.71,12.59c6.49,1.86,13.03,2.56,19.83,2.28c16.53-0.69,32.57-4.36,48.76-7.22
	c13.49-2.39,26.93-5,40.62-6.21c7.33-0.65,14.59-0.2,21.88,0.08c6.62,0.25,6.71,0.18,4.56-6.43c-1.22-3.77-2.6-7.48-3.92-11.22
	c-0.82-2.3-2.46-3.22-4.89-3.27c-8.88-0.19-17.63,0.78-26.25,2.88c-14.8,3.6-29.61,7.14-44.35,10.95
	c-11.56,2.98-23.24,5.02-35.16,5.36C234.44,843.85,220.62,842.18,205.83,834.66 M367.7,168.27c6.07-10.09,11.23-18.69,16.42-27.28
	c1-1.67,1.23-3.39,0.61-5.25c-0.68-2.02-1.32-4.05-2.01-6.07c-3.57-10.43-3.77-20.96-0.86-31.52c1.29-4.7,2.85-9.33,4.48-13.93
	c5.23-14.68,9.43-29.63,11.78-45.07c1.44-9.42,1.56-18.83-0.1-28.22c-0.72-4.02-1.45-4.61-5.5-4.06c-3.91,0.54-7.79,1.42-11.65,2.26
	c-1.3,0.29-2.01,1.35-1.84,2.72c0.37,3.02,0.73,6.06,1.28,9.05c1.87,9.97,1.96,19.92,0.79,30.02c-1.97,17.09-6.95,33.4-12.07,49.69
	c-4.24,13.46-6.93,27.16-7.4,41.27C361.33,150.55,363.04,158.76,367.7,168.27 M372.18,656.35c4.93,9.05,10.21,17.95,14.7,27.22
	c5.69,11.79,10.67,23.92,16.13,35.85c5.08,11.07,10.21,22.14,15.64,33.04c4.41,8.85,11.32,15.8,18.45,22.5
	c1.69,1.58,3.64,2.01,5.91,1.3c5.52-1.73,11.1-3.33,16.61-5.08c2.21-0.7,2.45-2.38,0.46-4.07c-10.36-8.84-17.79-19.84-24.67-31.48
	c-10.07-17.03-20.85-33.65-31.32-50.46c-3.09-4.95-6.82-9.3-11.35-13.03c-6.58-5.39-13.06-10.91-19.58-16.38
	C372.84,655.95,372.51,656.16,372.18,656.35 M67.17,346.14c4.66,10.28,10.82,17.37,17.46,24.12c2.35,2.39,5.28,2.84,8.32,3.21
	c10.93,1.33,21.94,2,32.83,0.23c13.58-2.21,25.25,1.99,36.3,9.2c1.28,0.82,2.58,1.65,3.74,2.63c2.18,1.85,4.39,1.71,6.75,0.42
	c1.07-0.59,2.21-1.02,3.31-1.57c1.58-0.79,2.22-2.19,1.67-3.76c-0.7-2-1.56-3.98-2.67-5.78c-3.76-6.08-8.84-10.93-15.07-14.37
	c-19.4-10.7-39.97-16.51-62.32-13.97C87.78,347.6,78.11,347.77,67.17,346.14 M188.01,814.32c-3.03,1.49-4.04,4.16-5.41,6.45
	c-3.61,6.01-7.75,11.63-12.31,16.96c-8.11,9.47-15.7,19.38-22.83,29.62c-6.09,8.78-10.91,18.27-15.02,28.12
	c-1.28,3.06-1.97,6.38-2.81,9.61c-0.4,1.53-0.15,3.14,1.11,4.19c3.99,3.29,8.03,6.51,12.13,9.64c1.24,0.94,2.35,0.07,2.87-1.11
	c10.82-24.78,26.73-46.23,43.61-67.06c3.08-3.8,5.98-7.66,7.92-12.19c1.27-2.95,1.64-5.72-0.2-8.67
	C193.9,824.79,191.82,819.05,188.01,814.32 M170.06,938.26c3.64-14.98,11.51-26.55,19.33-38.14c5.45-8.06,11.02-16.03,16.5-24.07
	c2.94-4.31,4.81-9.08,6.12-14.15c0.9-3.48,0.62-6.53-1.36-9.54c-2.49-3.81-4.8-7.74-7.24-11.59c-0.72-1.15-2.35-1.23-2.98-0.13
	c-8.67,15.08-21.48,27.15-30.37,42.1c-4.51,7.57-9.48,14.86-14.23,22.29c-2.8,4.38-4.79,9.14-6.4,14.07
	c-0.88,2.73-0.11,4.63,2.23,6.23C157.66,929.46,163.57,933.69,170.06,938.26 M72.81,754.2c8.57-2.8,16.73-5.24,25.1-6.94
	c5.67-1.15,11.31-2.46,16.99-3.54c11.32-2.18,21.31-7.09,30.2-14.34c3.76-3.08,7.47-6.24,11.21-9.36c3.28-2.75,6.5-5.79,10.72-6.76
	c4.78-1.08,6.99-4.43,9-8.26c0.73-1.4,1.4-2.82-0.09-4.06c-1.61-1.37-3.32-2.88-5.7-1.86c-1.1,0.48-2.11,1.2-3.09,1.9
	c-6.99,4.93-14.64,8.67-22.14,12.71c-15.95,8.59-33.19,11.98-50.99,12.47c-13.1,0.36-25.15,3.89-36.93,9.19
	c-2.98,1.34-4.13,3.27-4.04,6.32c0.15,5.16,0.07,10.34,0.38,15.49c0.28,4.74,0.68,4.91,4.68,3.23
	C63.16,758.29,68.2,756.15,72.81,754.2 M217.06,862.55c-0.79,0.6-1.55,0.89-1.68,1.34c-2.85,10.18-9.03,18.53-14.86,27.06
	c-6.52,9.54-13.68,18.66-19.04,28.97c-1.82,3.5-3.5,7.08-5.15,10.67c-1.16,2.53-1.62,5.21-1.47,8.01c0.11,1.89,0.44,3.69,2,4.9
	c7.92,6.12,15.88,12.2,23.84,18.26c0.21,0.17,0.6,0.07,0.94,0.09c1.15-1.85,1.17-3.96,1.41-6.05c1.18-10.03,3.8-19.68,7.66-29.03
	c3.94-9.56,7.79-19.17,11.72-28.74c2.22-5.38,3.6-10.97,4.39-16.72c0.34-2.49,0.05-4.74-1.53-6.89
	C222.43,870.56,219.8,866.52,217.06,862.55 M182.92,787.76c2.74,9.99,5.6,17.1,12.68,22.43c18.35,13.79,38.68,16.79,60.68,12.67
	c18.62-3.48,36.71-9.01,54.94-13.96c11.46-3.13,22.85-6.63,34.71-8.01c0.51-0.06,0.98-0.55,1.82-1.04c-0.7-4.3-1.38-8.77-2.17-13.21
	c-0.25-1.41-1.36-2.02-2.71-1.51c-7.12,2.68-14.31,5.24-21.33,8.17c-31.13,12.99-63.47,16.59-96.8,12.69
	c-12.35-1.43-23.73-5.4-33.82-12.8C188.96,791.75,186.91,790.46,182.92,787.76 M136.52,669.03c-2.95-5.64-5.86-11.28-8.84-16.9
	c-7.27-13.65-10.96-28.49-13.08-43.6c-1.7-12.08-3.7-24.09-5.54-36.13c-2.58-16.87-6.27-33.58-7.14-50.69
	c-0.2-3.95-0.35-7.91-0.51-11.87c-0.12-3.03-0.01-6.1-1.79-8.77c-1.5,0.25-1.99,1.34-2.31,2.53c-1.72,6.49-3.16,13.01-3.5,19.76
	c-0.43,8.21-1.02,16.42-1.6,24.63c-0.52,7.31-0.62,14.61,0.19,21.91c1.7,15.13,2.12,30.43,5.49,45.34
	c3.76,16.61,11.41,31.49,21.87,44.85C123.79,665.28,130.17,667.14,136.52,669.03 M191.26,378.63c0.29-0.08,0.58-0.18,0.88-0.25
	c9.52-2.61,9.97-2.97,3.61-11.91c-3.37-4.75-7.9-8.41-12.49-11.96c-14.46-11.18-30.33-19.14-48.72-21.37
	c-10.87-1.32-21.69-3.28-32.59-4.01c-15.21-1-29.38-4.72-42.29-12.94c-1.02-0.65-2.1-1.26-3.21-1.71c-0.48-0.2-1.15-0.06-1.7,0.1
	c-0.65,0.19-0.8,0.77-0.53,1.48c2.68,7.12,5.32,14.25,8.04,21.36c0.82,2.14,2.51,3.35,4.64,4.07c4.37,1.47,8.9,2.23,13.47,2.16
	c5.76-0.09,11.54-0.46,17.29-1.02c22.95-2.25,44.07,3.45,63.93,14.59c8.16,4.57,14.26,11.26,18.49,19.67
	c2.22,4.43,2.31,4.39,6.83,3.12c1.46-0.41,2.93-0.85,4.39-1.27L191.26,378.63 M245.87,378.81c-3.75-1.58-7.66-0.68-11.43-0.76
	c-5.17-0.12-10.34,0.3-15.51,0.43c-4.6,0.1-8.25,1.85-10.66,5.87c-2.18,3.66-4.66,7.17-6.45,11.02
	c-8.74,18.81-19.64,36.42-29.85,54.42c-9.45,16.68-22.8,29.1-40.13,37.27c-1.93,0.91-3.83,1.88-5.69,2.89
	c-0.5,0.28-0.84,0.85-1.24,1.29c4.83,3.65,5.58,4.13,11.03,3.1c14.54-2.74,27.16-9.1,35.86-21.44c5.79-8.19,10.85-16.9,16.1-25.47
	c9.7-15.85,20.13-31.16,32.36-45.23c6.45-7.4,13.32-14.17,21.57-19.51C243.34,381.72,244.98,380.83,245.87,378.81 M60.1,788.07
	c13.18-6.29,27.66-8.93,41.26-14.12c11.93-4.56,23.39-10.29,34.57-16.49c5.16-2.85,9.36-6.7,12.96-11.33
	c5.41-6.95,10.49-14.21,17.64-19.62c0.91-0.69,1.55-1.86,2.04-2.93c1.46-3.16,1.55-6.4,0.29-6.6c-2.32-0.37-4.08,0.95-5.73,2.25
	c-2.64,2.05-5.15,4.27-7.72,6.41c-3.28,2.72-6.51,5.5-9.86,8.13c-7.78,6.06-16.35,10.53-26.05,12.65
	c-6.54,1.42-13.04,3.07-19.62,4.3c-13.25,2.47-25.9,6.75-38.17,12.24c-1.65,0.73-3.18,1.77-4.71,2.75
	c-1.35,0.86-2.07,2.13-2.18,3.77C54.55,773.41,57.05,782.49,60.1,788.07 M393.74,134.1c8.77,2.42,16.11,0.43,23.16-2.54
	c8.14-3.44,16.08-7.35,24.07-11.09c2.21-1.04,4.42-2.11,6.5-3.37c8.93-5.37,18.28-9.7,28.56-11.88c3.66-0.79,3.93-1.39,3.3-5.15
	c-1.07-6.3-2.24-12.59-3.48-18.86c-0.35-1.77-1.85-2.55-3.45-1.99c-4.02,1.42-8.01,2.92-11.86,4.7c-2.75,1.29-5.28,3.04-7.86,4.66
	c-11.11,7-23.18,10.87-36.34,10.51c-3.98-0.11-6.07,0.96-7.74,4.59C404.01,113.6,399.01,123.35,393.74,134.1 M384.58,380.53
	c-1.91-0.36-3.39-0.82-4.88-0.89c-20.65-0.91-39.27-8.22-56.88-18.38c-11.1-6.41-21.65-13.66-31.49-21.96
	c-8.69-7.32-18.67-12.64-28.89-17.48c-4.42-2.08-5.08-1.78-8.62,2.08c-1.03,1.12-2.04,2.26-2.99,3.45
	c-0.57,0.71-0.98,1.53-1.45,2.29c0.91,2.19,3,1.69,4.58,2.07c5.47,1.32,10.16,4.16,14.52,7.53c9.87,7.66,19.94,15.08,29.25,23.46
	c4.98,4.48,10.16,8.74,15.34,13.01c2.6,2.15,5.55,3.66,8.89,4.52c13.89,3.57,27.57,7.89,40.87,13.25c3.47,1.4,6.51,1.34,9.46-0.81
	C376.87,389.33,381.86,386.36,384.58,380.53 M355.5,819.14c-0.4-4.06-2.29-7.85-4.12-11.65c-0.92-1.91-2.6-2.48-4.51-2.49
	c-4.6-0.03-9.08,0.76-13.51,1.96c-19.09,5.16-38.16,10.42-57.31,15.38c-8.24,2.13-16.59,4.11-25,5.2
	c-18.63,2.42-36.44,0.03-52.37-10.94c-0.94-0.64-1.9-1.32-3.14-0.75c2.31,9.07,8.76,14.16,16.82,17.85
	c5.31,2.43,10.85,3.91,16.6,4.78c17.13,2.6,33.98,0.81,50.67-3.25c13.89-3.37,27.77-6.84,41.64-10.33
	c9.76-2.46,19.59-4.39,29.71-4.5C352.39,820.38,353.98,820.67,355.5,819.14 M427.78,5.8c-8.62-1.41-17.29-1.4-25.72,0.28
	c-1.01,1.87-0.44,3.35-0.21,4.84c1.62,10.32,1.35,20.59-0.34,30.9c-2.52,15.41-6.77,30.31-12.11,44.93
	c-2.51,6.89-4.69,13.84-5.54,21.16c-0.88,7.73-0.02,15.18,2.9,22.4c0.5,1.22,2.26,1.4,2.85,0.23c4.96-9.77,9.89-19.56,14.78-29.38
	c0.87-1.74,0.44-3.55-0.06-5.34c-1.7-6.05-1-12.08,0.31-18.08c1.49-6.86,3.48-13.58,6.06-20.1c3.83-9.63,7.81-19.19,11.62-28.83
	c1.78-4.54,3.44-9.14,4.83-13.79C428.01,12.16,429.16,9.21,427.78,5.8 M54.34,730.98c2.34,1.07,3.9-0.11,5.48-0.82
	c10.97-4.98,22.43-7.41,34.5-7.76c10.97-0.32,21.9-1.65,32.37-5.16c13.63-4.58,26.28-11.2,38.29-19.08
	c2.36-1.55,2.16-2.97-0.43-4.73c-0.76-0.52-1.6-0.93-2.3-1.5c-2.95-2.41-5.77-2.34-9.24-0.64c-9.97,4.91-20.75,6.91-31.76,7.68
	c-4.54,0.32-9.11,0.41-13.69,0.51c-7.06,0.15-13.87,1.69-20.59,3.74c-6.7,2.05-13.44,3.94-20.12,6.02
	c-2.31,0.71-4.58,1.63-6.74,2.71c-1.98,0.97-3.31,2.71-3.82,4.89C55.22,721.56,54.09,726.26,54.34,730.98 M167.02,747.24
	c-3.35,1.31-4.28,4.04-5.49,6.38c-5.51,10.66-14,18.02-24.45,23.74c-13.05,7.15-25.76,14.92-38.53,22.59
	c-8.17,4.9-15.02,11.29-20.62,19.05c-2.59,3.59-3.33,6.99-1.09,10.95c1.75,3.11,3.34,6.3,5.17,9.79c1.01-1.02,1.85-1.53,2.17-2.25
	c3.9-9.1,10.96-15.2,19.14-20.2c11.4-6.98,22.87-13.86,34.32-20.77c2.6-1.58,5.18-3.19,7.8-4.72c11.02-6.44,17.93-16.26,22.54-27.84
	C170.19,758.37,168.74,752.86,167.02,747.24 M172.94,744.87c-1.01,5.63,1.08,10.07,5.24,13.73c0.46,0.4,0.85,0.87,1.28,1.31
	c13.02,13.44,19.61,16.66,38.35,18.08c10.33,0.77,20.66,0.33,30.96-0.77c13.6-1.45,27.21-2.79,40.81-4.27
	c7.45-0.81,15.01-1.23,21.93-3.76c0.36-1.18,0.14-1.67-0.52-1.88c-7.2-2.43-14.44-4.77-21.6-7.32c-2.72-0.97-5.39-0.69-8.1-0.37
	c-13.27,1.58-26.59,2.47-39.88,4.06c-23.84,2.87-45.91-2.73-65.18-17.67C175.25,745.26,174.25,744.67,172.94,744.87 M413.55,94.06
	c1.1,1.22,2.17,1.56,3.46,1.56c10.26-0.01,19.9-2.53,28.79-7.52c8.47-4.76,16.6-10.16,26.03-12.99c2.07-0.62,2.82-2.24,2.38-4.28
	c-1.64-7.41-3.3-14.83-5.06-22.22c-0.48-1.99-1.83-3.09-4.03-2.66c-5.67,1.11-11.41,1.94-16.98,3.4
	c-8.81,2.31-16.1,6.56-20.12,15.53c-3.85,8.59-8.56,16.79-12.85,25.18C414.5,91.39,414.04,92.82,413.55,94.06 M266.24,1011.89
	c1.88-14.47,6.24-27.74,10.04-41.16c0.33-1.17,0.67-2.34,0.93-3.52c1.05-4.77,1.56-9.57,1.54-14.48c-0.01-3.51-0.79-6.51-3.04-9.27
	c-4.54-5.58-8.36-11.76-13.61-16.99c-0.36,0.89-0.76,1.44-0.78,2.01c-0.72,14.71-6.54,27.69-13.48,40.3
	c-3.1,5.63-5.33,11.56-6.22,18c-0.57,4.06,0.58,6.89,3.96,9.37c5.89,4.3,11.45,9.05,17.18,13.58
	C263.63,1010.41,264.67,1010.92,266.24,1011.89 M107.97,650.87c-3.14-6.93-6.18-13.79-9.33-20.58c-3.91-8.41-5.52-17.44-6.69-26.48
	c-1.47-11.47-2.24-23.02-3.39-34.52c-0.71-6.99-0.63-13.98-0.14-20.97c0.58-8.49,1.26-16.99,1.69-25.49
	c0.38-7.37,2.26-14.41,4.11-21.47c0.37-1.42,0.71-2.84,1.02-4.13c-1.85-1.41-2.5,0.03-3.16,0.87c-8.86,11.32-13.78,24.39-15.96,38.4
	c-4.39,28.21-2.15,55.89,8.4,82.59c4.27,10.81,9.9,20.91,18.65,28.92C104.49,649.19,105.62,650.77,107.97,650.87 M71.73,818.8
	c2.86-0.76,3.57-2.61,4.63-4.02c5.58-7.38,12.42-13.4,20.32-18.12c12.79-7.66,25.53-15.41,38.58-22.6
	c9.88-5.44,17.94-12.39,23.28-22.45c1.69-3.2,3.95-6.15,6.28-8.95c1.9-2.27,2.78-4.67,2.49-7.53c-0.08-0.82-0.41-1.85-0.99-2.35
	c-0.79-0.67-1.73,0.04-2.29,0.68c-2.97,3.46-6.23,6.74-8.76,10.5c-6.31,9.39-14.78,15.85-24.87,20.79
	c-15.06,7.38-30.2,14.4-46.52,18.62c-6.79,1.76-13.41,4.08-19.73,7.13c-3.34,1.61-3.85,2.47-2.74,5.68
	C64.07,803.97,67.26,811.51,71.73,818.8 M287.24,950.19c3.24,4.38,6.2,8.49,9.29,12.5c1.28,1.67,2.76,3.25,4.32,4.68
	c4.82,4.42,10.66,6.91,16.86,8.66c13.19,3.73,25.88,8.84,38.34,14.49c6.4,2.88,12.44,6.32,17.71,11.07
	c2.84,2.57,3.54,2.19,4.29-1.94c0.54-2.99,1.02-5.98,1.43-9c1.14-8.28,2.32-6.07-5.01-11.85c-3.13-2.46-6.59-4.33-10.16-6.04
	c-12.4-5.91-25.15-10.64-38.66-13.38c-12.21-2.47-24.32-5.38-36.1-9.51C289.11,949.72,288.52,949.99,287.24,950.19 M230.41,883.97
	c-3.73,16.16-11.05,30.93-17.03,46.19c-4.16,10.6-6.22,21.61-7.45,32.85c-0.22,2.01,0.03,3.57,1.71,4.8
	c2.93,2.13,5.83,4.3,9.09,6.72c0.7-1.61,1.41-2.65,1.59-3.79c1.43-8.87,5.31-16.79,9.46-24.61c3.87-7.27,7.71-14.54,10.59-22.27
	c1.05-2.86,2-5.76,2.88-8.67c2.69-8.95,2.74-17.44-4.5-24.57C234.63,888.57,233.98,885.16,230.41,883.97 M305.54,374.94
	c-4.89-4.42-9.03-8.47-13.49-12.11c-8.96-7.33-18-14.56-27.19-21.6c-4.87-3.73-10.19-6.66-16.72-6.49
	c-2.31,0.07-4.15,0.57-5.64,2.33c-4.47,5.33-8.94,10.65-13.26,15.79c0.45,0.81,0.54,1.23,0.76,1.32
	c11.64,4.59,22.26,11.22,33.25,17.08c2.21,1.18,4.43,1.79,6.93,1.92c10.95,0.52,21.88,1.3,32.75,2.84
	C303.41,376.1,303.97,375.61,305.54,374.94 M204.23,381.05c-3.87-0.82-6.34,1.72-8.63,4.02c-8.36,8.42-16.86,16.77-23.02,27.03
	c-4.7,7.81-9.18,15.78-13.5,23.82c-6.2,11.54-12.75,22.85-20.54,33.41c-5.22,7.1-10.76,13.88-18.43,18.57
	c18.97-7.14,35.22-17.94,45.84-35.61c10.5-17.46,21.03-34.93,29.87-53.35c2.23-4.65,4.81-9.14,7.25-13.71
	C203.78,383.93,204.94,382.78,204.23,381.05 M187.21,386.4c-0.77-0.88-1.64-0.57-2.45-0.29c-14.57,5.04-26.09,13.62-34.04,27.23
	c-7.39,12.64-14.09,25.54-19.69,39.05c-4.57,11.01-11.05,20.95-17.99,30.6c-0.68,0.96-1.28,1.99-2.42,3.75
	c8.54-2.55,14.75-6.8,19.77-13.04c9.59-11.9,17.5-24.85,24.66-38.3c2.43-4.56,4.78-9.16,7.29-13.68
	c6.08-10.94,12.9-21.34,21.8-30.25c1.26-1.26,2.22-2.84,3.27-4.32C187.52,387,187.27,386.61,187.21,386.4 M484.84,759.9
	c-0.36-0.71-0.5-1.38-0.91-1.75c-13.12-11.95-23.9-25.99-35.43-39.35c-3.21-3.71-6.78-6.84-10.84-9.67
	c-6.99-4.86-13.55-10.36-20.27-15.61c-1.43-1.1-2.53-2.7-4.54-2.83c-0.48,1.68,0.71,2.75,1.49,4.01
	c9.81,15.77,19.69,31.48,29.33,47.35c4.96,8.16,11.26,15.07,18.14,21.59c4.02,3.81,7.93,5.01,13.04,2.18
	C478.26,763.93,482.25,763.08,484.84,759.9 M60.02,706.87c7.42-1.62,14.24-3.04,20.78-5.5c10.95-4.13,22.25-5.91,33.94-5.91
	c10.06,0,20.03-1.23,29.66-4.39c1.74-0.57,3.51-1.04,5.14-1.83c1.03-0.49,2.22-1.33,2.6-2.31c0.5-1.27-0.94-1.94-1.85-2.67
	c-3.52-2.78-7.25-3.95-11.87-2.79c-5.36,1.34-10.9,0.67-16.34,0.16c-15.16-1.42-30.31-2.16-45.49-0.4c-9.7,1.13-8.71,0.1-12.28,9.27
	c-1.76,4.53-3.15,9.2-4.64,13.83C59.51,704.83,59.81,705.48,60.02,706.87 M246.93,906.54c-1.22,4.94-2.15,9.64-3.57,14.18
	c-2.61,8.44-6.5,16.36-10.61,24.16c-2.4,4.57-4.67,9.21-6.89,13.87c-1.98,4.14-2.95,8.59-3.9,13.06c-0.84,3.97-0.29,7.22,3.48,9.39
	c0.52,0.3,0.97,0.74,1.47,1.08c2.99,2.05,5.99,4.1,8.98,6.14c3.47-2.39,2.03-6.58,3.55-9.72c1.85-3.82,3.28-7.84,5.07-11.68
	c2.31-4.95,4.91-9.77,7.21-14.73c3.88-8.38,5.71-17.22,5.93-26.46c0.11-4.16-0.53-7.79-3.4-10.95
	C251.84,912.27,250.6,908.6,246.93,906.54 M275.4,755.58c-10.05-4-18.63-7.89-27.56-10.74c-4.2-1.35-9.06-1.03-13.59-0.87
	c-7.66,0.29-15.21-0.42-22.77-1.48c-12.6-1.76-24.22-5.97-34.53-13.53c-0.73-0.53-1.57-0.91-2.38-1.31
	c-0.25-0.13-0.57-0.11-1.01-0.18c-2.53,5.72-1.57,10.6,3.47,14.51c2.88,2.24,5.66,4.69,8.82,6.47c17.79,10.11,36.9,14.15,57.23,11.4
	c9.67-1.3,19.26-3.03,29.07-2.9C272.68,756.94,273.23,756.5,275.4,755.58 M452.91,710.86c0.45,1.29,0.46,1.7,0.66,1.84
	c13.8,9.01,27.49,18.28,43.19,23.67c10.17,3.5,9.21,3.32,13.98-5.57c3.63-6.78,5.49-14.19,7.05-21.69c0.54-2.57-0.25-3.65-2.56-3.51
	c-10.95,0.62-21.92,0.61-32.83,2.19c-8.13,1.19-16.37,1.62-24.57,2.41C456.35,710.34,454.88,710.6,452.91,710.86 M283.69,954.56
	c-0.45,0.68-1.01,1.14-1.05,1.64c-1.09,12.54-5.48,24.29-8.58,36.35c-1.29,5-2.22,10.08-3.16,15.15
	c-1.04,5.56,0.44,10.09,5.33,13.52c3.45,2.42,6.49,5.43,9.56,8.05c1.71-0.69,1.97-1.78,1.98-3.06c0.05-6.19,1.81-11.97,3.98-17.71
	c2.16-5.68,4.13-11.45,5.94-17.25c0.9-2.89,1.56-5.91,1.78-8.92c0.26-3.65-0.07-7.35-2.35-10.49
	C292.85,965.95,288.75,959.91,283.69,954.56 M307.96,977.01c5.54,10.9,11.23,19.99,21.86,24.78c8.07,3.64,15.66,8.15,23.13,12.86
	c5.41,3.42,10.75,6.94,15.23,11.57c0.88,0.91,1.85,1.52,3.33,1.55c2.11-4.69,3-9.78,4.2-14.8c0.47-1.95-0.11-3.48-1.36-5.01
	c-4.12-5.05-9.23-8.8-15.03-11.66c-12.85-6.36-26.17-11.55-39.83-15.9C316.06,979.32,312.58,978.36,307.96,977.01 M95.16,378.48
	c6.85,7.76,15.17,13.18,24.42,17.17c4.74,2.05,9.65,3.72,14.5,5.51c3.4,1.24,7.01,3.66,10.2,3.23c3.21-0.43,6.06-3.7,9.01-5.81
	c3.67-2.63,7.3-5.34,10.61-7.77c0.52-2.54-1.14-3.17-2.28-3.96c-5.26-3.68-10.96-6.53-17.11-8.46c-3.53-1.1-7.15-1.78-10.79-1.46
	C121.05,378.03,108.39,379.21,95.16,378.48 M306.61,1048.31c0.75-0.74,1.16-0.95,1.15-1.16c-0.25-11.4,3.38-22.06,6.14-32.89
	c3.87-15.14,2.94-12.98-3.78-23.59c-1.65-2.6-2.32-6.27-6.1-7.15c-1.96,2.47-1.66,5.65-2.65,8.45c-2.22,6.29-4.19,12.66-6.49,18.93
	c-2.12,5.74-3.49,11.54-3.29,17.74c0.14,4.15,1.05,7.67,4.46,10.43C299.71,1042.04,302.72,1045.79,306.61,1048.31 M408.5,90.98
	c0.43-0.4,0.99-0.72,1.24-1.2c6.24-11.86,12.47-23.71,18.61-35.63c0.82-1.58,1.57-3.43,1.62-5.16c0.26-11.8,4.45-22.63,8-33.61
	c0.38-1.16,0.84-2.29,1.18-3.46c0.79-2.76-0.46-4.36-3.72-4.77c-1.33-0.17-2.42,0.28-2.9,1.58c-0.31,0.84-0.41,1.77-0.6,2.65
	c-1.46,6.88-3.85,13.45-6.52,19.95c-3.94,9.57-7.83,19.16-11.59,28.82c-2.87,7.38-5.15,14.96-6.45,22.8
	c-0.4,2.42-0.77,4.83-0.2,7.24C407.25,90.55,408.05,90.73,408.5,90.98 M320.34,1008.06c-0.67,1-1.4,1.65-1.59,2.43
	c-2.14,8.24-4.26,16.49-6.24,24.78c-1.01,4.19-0.67,8.45-0.3,12.71c0.41,4.74,2.7,7.96,7.14,9.67c0.85,0.33,1.67,0.76,2.52,1.06
	c4.56,1.51,6.78,2.84,6.97-4.76c0.14-5.75,1.26-11.49,2.14-17.19c0.72-4.71-0.01-9.07-2.21-13.26c-1.98-3.77-3.83-7.61-5.82-11.37
	C322.25,1010.81,321.32,1009.59,320.34,1008.06 M147.02,411.39c-0.89,0-1.65-0.24-2.02,0.04c-9.64,7.53-18.26,15.96-23.85,27.1
	c-7.24,14.45-12.42,29.69-17.32,45.02c-0.13,0.42,0.16,0.97,0.35,1.92c3.71-1.42,5.99-4.25,7.9-7.23
	c5.57-8.68,11.25-17.32,15.29-26.9c5.3-12.6,10.74-25.15,18.29-36.64C146.3,413.74,146.56,412.57,147.02,411.39 M234.81,738.69
	c-8.09-4.74-15.41-9-22.7-13.33c-1.94-1.16-4.05-1.1-6.17-1.22c-9.49-0.55-18.69-2.3-27.28-6.6c-1.04-0.52-2.24-1.12-3.19,0.25
	c-0.91,1.33-1.32,2.9-0.54,4.27c0.73,1.26,1.9,2.34,3.08,3.27c7.53,5.98,16.22,9.57,25.45,11.8c8.59,2.08,17.37,3.02,26.21,3.23
	C231.2,740.39,232.72,740.32,234.81,738.69 M489.96,756.87c4.77-3.51,9.17-7.44,11.95-13.24c-4.3-1.72-8.22-3.2-12.07-4.85
	c-3.9-1.66-7.8-3.36-11.56-5.3c-3.5-1.8-6.82-3.94-10.22-5.93c-3.53-2.06-6.92-4.4-11.74-6.73
	C464.48,733.58,481.47,751.66,489.96,756.87 M138.11,678.03c-7.23-6.16-14.24-7.61-21.63-7.87c-7.29-0.27-14.58-0.46-21.87-0.62
	c-5.48-0.12-10.97-0.14-16.23-1.95c-2.07-0.71-3.61-0.09-4.5,1.83c-1.12,2.43-3,4.61-2.63,8.1c10.9-0.04,21.68-1.68,32.51-1.08
	C114.61,677.03,125.4,679.18,138.11,678.03 M454.85,19.09c-10.3,7.37-12.96,18.78-17.98,29.65c3.92,0.23,6.2-2.24,9.03-2.7
	c2.69-0.44,5.37-0.96,8.04-1.53c2.97-0.61,5.95-1.2,8.88-1.99c2.95-0.8,3.66-1.98,2.8-4.53C463.28,31.12,460.32,24.57,454.85,19.09
	 M117.2,665.9c-5.1-4.06-8.7-6.81-12.18-9.71c-1.74-1.44-3.66-2.02-5.84-2.17c-2.43-0.17-4.87-0.39-7.25-0.82
	c-7.51-1.31-7.51-1.35-11.59,4.83c-0.34,0.5-0.68,1.01-0.99,1.52c-1.65,2.75-1.29,3.93,1.56,4.72c1.76,0.48,3.55,1.03,5.34,1.13
	c8.2,0.44,16.41,0.78,24.61,1.08C112.32,666.54,113.8,666.22,117.2,665.9 M256.76,372.21c-9.94-5.52-17.63-11.04-26.81-13.73
	c-4.34-1.27-7.37,0.36-9.1,4.92c-0.31,0.82,0.08,1.72,1.12,2.1c2.56,0.94,5.21,1.74,7.65,2.95
	C240.83,373.99,240.81,374.03,256.76,372.21 M341.46,1034.65c-1.42,2.13-0.3,3.39,0.17,4.67c1.78,4.82,3.79,9.56,5.47,14.41
	c1.88,5.43,2.85,5.37,7.52,1.8c1.44-1.1,2.76-2.38,3.92-3.74c1.09-1.27,1.06-2.79-0.08-4.1c-0.98-1.14-1.96-2.33-3.13-3.26
	C350.89,1040.92,346.23,1037.73,341.46,1034.65 M343.19,1059.7c-0.84-5.66-3.08-11.01-4.96-16.43c-0.48-1.41-1.04-3.49-2.59-3.44
	c-2.48,0.09-1.85,2.7-2.03,4.21c-0.55,4.52-0.81,9.08-1.02,13.63c-0.09,2.15,1.12,3.47,3.35,3.4
	C338.29,1061.01,340.8,1061.54,343.19,1059.7 M226.1,373.17c0.33-0.45,0.7-0.83,0.89-1.29c0.08-0.17-0.18-0.61-0.4-0.75
	c-3.2-1.99-6.59-3.06-10.27-1.54c-0.69,0.29-1.22,1.26-1.55,2.04c-0.55,1.35,0.72,1.39,1.47,1.64
	C219.55,374.32,222.84,373.14,226.1,373.17 M94.94,650.2c0.63-0.68,1.04-1.04,1.32-1.47c0.09-0.14-0.12-0.55-0.27-0.77
	c-1.27-1.86-2.86-2.92-5.16-1.83c-0.48,0.24-1.06,0.7-1.19,1.16c-0.11,0.41,0.24,1.28,0.59,1.42
	C91.82,649.33,93.48,649.76,94.94,650.2"/>
<path id="XMLID_2540_" class="st1" d="M3366.08,1026.19c-0.61-5.72-3.25-9.03-5.44-12.49c-4.43-7.03-9.36-13.74-13.68-20.84
	c-3.03-4.97-7.35-6.24-13.41-4.87c-9.01,2.03-18.05,4.55-27.04,5.51c-13.25,1.42-23.49,8.42-32.86,17.47
	c-8.19,7.9-16.1,16.09-23.93,24.34c-9.46,9.96-18.67,20.14-28.04,30.18c-16.24,17.4-35.11,31.97-53.23,47.33
	c-10.19,8.63-21.58,15.46-33.6,21.16c-23.82,11.31-47.73,22.41-70.91,35.3c-4.44,2.47-8.99,5.49-14.21,5.61
	c-0.73,0.02-1.59-0.66-1.97-1.3c-0.35-0.6-0.52-1.84-0.13-2.31c1.52-1.77,3.14-3.53,4.99-4.93c10.25-7.73,20.53-15.41,30.9-22.99
	c10.37-7.59,20.4-15.5,29.57-24.58c13.83-13.68,27.71-27.32,42.03-40.5c7.69-7.09,15.36-14.15,22.37-21.87
	c6.05-6.65,12.05-13.36,18.28-19.85c11.53-12.01,23.66-23.32,38.23-31.73c18.35-10.59,37.03-18.87,57.61-15.76
	c2.51,0.38,5.38-0.18,8.06-0.7c9.93-1.89,19.86-3.88,29.78-5.96c6.54-1.37,7.49-3.07,3.97-7.54c-10.52-13.38-21.09-26.71-31.84-39.9
	c-5.86-7.18-7.05-7.25-17.01-2.39c-8.9,4.33-17.54,9.4-26.61,13.17c-7.36,3.06-12.66,7.39-17.16,13.95
	c-12.27,17.92-27.46,33.68-43.73,48.28c-25.15,22.58-52.08,42.84-81.01,60.39c-16.19,9.82-32.57,19.34-47.9,30.69
	c-6.46,4.78-13.52,8.78-20.45,12.86c-1.43,0.85-3.78,0.7-4.23-1.4c-0.23-1.06,0.07-2.77,0.83-3.6c3.57-3.89,8.19-6.41,12.68-9.04
	c21.19-12.43,39.38-28.07,53.58-48.04c2.99-4.21,6.13-8.33,9.22-12.48c14.57-19.65,29.05-39.35,46.54-56.92
	c19.1-19.2,40.81-32.81,67.32-34.78c8.89-0.66,17.02-3.35,25.14-7.14c7.67-3.59,15.28-7.35,22.91-11.05
	c0.84-0.41,1.65-0.91,2.48-1.39c4.11-2.41,4.77-4.4,2.05-7.17c-3.2-3.26-6.35-6.63-10.04-9.33c-9.79-7.15-20.02-13.76-29.7-21.03
	c-4.32-3.24-8.45-3.17-13.6-0.57c-13.07,6.58-26.38,12.59-40.04,17.4c-4.49,1.58-6.82,4.24-8.9,8.24c-5.76,11.1-11.8,22.1-18.02,33
	c-23.96,41.98-59.46,72.57-101.21,97.04c-27.38,16.05-56.19,29.1-83.33,45.62c-2.74,1.66-6,2.46-9.05,3.44
	c-0.58,0.19-1.47-0.59-2.05-1.09c-1.32-1.12-0.37-2.6,0.56-3.41c1.76-1.55,3.73-3.05,5.82-4c9.36-4.28,16.14-11.61,22.79-19
	c7.27-8.08,14.35-16.34,21.22-24.74c8.07-9.86,16.19-19.71,23.62-29.98c16.06-22.16,33.81-42.76,54.22-61.6
	c18.16-16.78,38.42-29.34,60.35-39.5c3.81-1.76,7.91-3.01,11.93-3.91c19.98-4.48,38.66-13.53,57.55-21.84
	c3.34-1.48,3.75-4.16,0.99-5.87c-10.73-6.68-22.78-11.25-34.07-17.04c-4.62-2.36-8.89-2.3-14.06-0.36
	c-7.88,2.95-15.83,5.68-23.84,8.07c-6.92,2.07-11.39,6.38-14.23,12.64c-1.72,3.78-3.4,7.57-4.88,11.41
	c-4.09,10.62-11.19,18.98-20.25,26.52c-18.42,15.29-38.27,28.09-59.21,39.2c-25.56,13.55-52.15,23.9-79.21,32.78
	c-7.51,2.47-15.03,4.94-22.57,7.24c-1.89,0.57-3.76-0.15-3.95-2.1c-0.08-0.95,1.01-2.6,1.99-3.22c4.77-3.04,10.02-5.02,14.69-8.46
	c25.31-18.7,49.28-38.81,70.3-62.22c12.67-14.11,25.8-27.81,41.85-38.4c17.53-11.57,36.11-18.17,56.18-17.85
	c3.1,0.05,6.38,0.22,9.38-0.68c9.33-2.82,18.59-6.13,27.85-9.28c1.34-0.46,2.61-1.32,2.65-2.81c0.02-0.7-0.49-1.6-1.08-1.94
	c-15.49-8.57-31.07-17.04-46.55-25.64c-3.37-1.88-6.78-1.07-10.36,0.27c-13.14,4.91-26.27,9.9-39.44,14.71
	c-5.07,1.85-8.85,4.78-11.96,9.35c-11.2,16.48-26.46,28.31-44.58,36.26c-21.55,9.44-42.48,20.34-63.37,31.34
	c-24.06,12.67-49.03,21.45-74.97,26.4c-17.16,3.27-34.32,6.48-51.48,9.66c-2.71,0.5-5.44,0.92-8.14,1.04
	c-1.76,0.07-3.64-0.42-3.98-2.42c-0.33-1.96,0.96-3.58,2.82-4.13c18.86-5.56,36.14-15.7,54.24-23.48c9.53-4.1,18.76-8.98,27.36-14.9
	c14.09-9.67,28.04-19.58,41.76-29.78c20.33-15.11,41.96-27.76,64.55-38.52c15.7-7.48,32.02-10.93,47.96-7.61
	c9.92,2.07,19.22,1.22,28.99-3.19c3.41-1.54,7.19-2.12,10.54-3.75c5.2-2.52,11.67-2.24,15.5-7.91c-3.77-3.97-9.15-5.78-13.83-8.49
	c-1.7-0.98-4.18-0.9-6.33-1.18c-29.73-3.9-58.95-9.25-87.53-16.68c-16.83-4.37-33.23-9.51-48.6-16.88
	c-14.58-6.97-30-12.26-45.73-16.98c-16.12-4.83-32.12-9.97-47.98-15.36c-16.3-5.55-32.86-10.4-49.99-13.92
	c-5.99-1.22-11.98-2.43-17.9-3.84c-6.57-1.56-9.39-3.97-7.64-6.2c3.04-3.85,6.76-2.41,10.07-2c11.81,1.48,23.52,3.37,35.33,4.84
	c34.6,4.31,69.55,7.11,104.64,9.28c31,1.92,59.87,9.4,86.01,23.18c24.3,12.81,48.15,26.28,69.76,42.88c6.58,5.05,14.3,8.79,21.59,13
	c0.93,0.53,2.6,0.58,3.71,0.15c1.41-0.57,1.34-2.09,1.29-3.4c-0.38-10.83-0.71-21.68-1.07-32.51c-0.11-3.04-0.33-6.05-0.37-9.1
	c-0.04-4.48-1.17-8.27-4.27-11.49c-5.97-6.21-8.05-14.45-9.04-23.1c-3.87-34.17-7.17-68.45-8.65-103.12
	c-1.43-33.41,0.85-67.22,1.49-100.85c0.03-1.72,0.18-3.57,0.82-5.22c0.41-1.06,1.85-2.52,2.8-2.63c1.06-0.11,2.22,1,3.09,1.81
	c0.56,0.53,0.82,1.45,1,2.27c4.58,19.84,9.81,39.49,13.52,59.6c4.03,21.84,8.34,43.48,16.73,63.71
	c4.17,10.05,7.65,20.44,10.04,31.26c5.95,26.81,1.31,52.68-17.95,77.09c-1.9,2.42-2.86,4.76-2.71,7.44
	c0.98,16.4-0.69,33.2,1.54,49.44c0.52,3.75,1.84,6.09,5.14,7.84c15.3,8.11,30.46,16.47,45.69,24.68c1.01,0.54,2.29,0.69,3.68,1.08
	c2.24-3.18,1.62-6.23,1.46-9.16c-0.6-10.82-0.45-21.72,0.57-32.72c0.51-5.63,1.81-11.34-2.42-15.96c-1.49-1.61-1.25-4.84-1.57-7.39
	c-2.15-17.9-4.43-35.77-6.25-53.75c-0.78-7.68-1.08-15.54-0.74-23.39c1.05-24.54,3.3-49.13,7.92-73.79
	c3.79-20.2,7.52-40.43,7.85-60.62c0.01-0.87,0.14-1.76,0.22-2.63c0.22-2.29,0.79-4.71,3.48-5.33c2.76-0.63,3.79,1.32,4.07,3.65
	c0.4,3.41,0.76,6.84,1.16,10.24c1.63,14.09,3.48,28.13,7.33,41.58c5.82,20.34,9.65,41.32,12.87,62.47
	c2.8,18.32,2.67,37.06-0.54,56.08c-2.92,17.38-9.04,34.01-20.58,48.96c-3.33,4.31-4.84,8.73-5.42,13.76
	c-1.86,16.32-1.56,32.39-1.33,48.49c0.06,3.98,1.85,6.23,5.15,7.83c12.96,6.28,25.86,12.68,38.83,18.97
	c0.63,0.31,1.67-0.06,3.22-0.16c3.61-12.88,6.85-25.92,9.22-39.07c1.04-5.77,1.51-11.38,0.32-16.9c-1.8-8.39-1.48-17.13-0.94-25.93
	c0.89-14.99,3.61-29.87,8.12-44.7c3.97-13.06,6.91-26.24,7.27-39.43c1.03-37.3,9.3-74.73,12.83-112.07
	c0.11-1.23,0.73-2.68,1.56-3.69c0.94-1.12,2.49-1.17,3.6-0.47c0.67,0.41,1.28,1.16,1.49,1.92c4.79,17.97,10.57,35.66,14.01,54.03
	c5.45,29.16,5.21,59.24-2.41,89.87c-4.79,19.24-11.09,38.25-18.23,57.1c-3.74,9.87-8.09,19.7-14.71,28.26
	c-4.03,5.2-5.89,10.25-6.92,16.05c-1.02,5.7-2.53,11.39-3.91,17.07c-1.18,4.81-2.34,9.63-3.75,14.4
	c-1.99,6.77-0.65,11.22,5.45,14.97c14.66,9.04,28.79,18.83,40.85,31c2.17,2.19,4.85,1.5,6.24-1.88c4.38-10.59,8.21-21.34,12.76-31.9
	c3.43-7.97,3.98-15.46,2-23.14c-2.88-11.19-3.19-22.93-1.73-34.87c1.34-10.99,2.67-22.01,4.96-32.95
	c10.03-47.86,16.41-95.79,22.75-143.73c0.23-1.72,0.79-3.48,1.52-5.12c0.24-0.56,1.53-1.07,2.3-1.13c0.8-0.06,1.83,0.23,2.29,0.77
	c1.79,2.05,0.96,4.87,0.99,7.43c0.35,28.29,1.46,56.43,6.54,83.8c1.94,10.47,3.13,21.17,4.42,31.83
	c1.41,11.62,0.67,23.47-2.66,35.35c-2.8,10.01-5.83,20-9.22,29.91c-4.3,12.57-10.5,24.53-18.78,35.52
	c-3.49,4.63-5.78,9.49-7.79,14.64c-4.98,12.79-9.1,25.84-15.72,38.16c-2.4,4.47-1.28,7.3,1.31,10.5
	c10.19,12.57,20.13,25.34,30.17,38.03c1.28,1.63,2.56,3.26,3.96,4.79c1.75,1.89,4.26,1.33,5.27-1.25
	c5.52-14.08,10.87-28.18,16.46-42.22c1.34-3.34,0.55-6.11-0.38-8.86c-3.44-10.19-3.47-20.97-2.43-32.06
	c2.51-26.92,8.74-53.52,16.48-80.14c12.26-42.16,28.01-83.76,37.57-126.34c0.27-1.23,1.11-2.53,2-3.55c0.5-0.57,1.71-0.88,2.49-0.83
	c0.75,0.05,1.84,0.57,1.96,1.15c0.43,2.05,0.74,4.19,0.67,6.34c-0.5,16.22,0.98,32.09,2.26,48.01c0.87,10.74,1.72,21.55,1.42,32.44
	c-0.92,32.93-6.21,65.92-14.1,98.79c-5.83,24.27-19.26,45.44-37.95,63.88c-2.08,2.05-3.98,3.95-5.12,6.55
	c-6.28,14.34-11.9,28.84-16.87,43.52c-1.26,3.74-0.69,6.75,1.37,9.73c6.36,9.22,12.43,18.65,18.72,27.93
	c1.06,1.55,1.81,3.87,5.54,2.84c7.98-11.02,13.73-23.6,20.51-35.7c1.17-2.09,1.05-4.26,0.55-6.42c-3.5-14.97-0.78-30.28,4.16-45.58
	c8.86-27.37,20.52-53.85,37.44-78.45c9.87-14.36,19.13-29.04,24.92-45.01c9.64-26.62,18.83-53.35,23.48-80.74
	c0.36-2.18,0.96-4.37,1.72-6.49c0.24-0.66,1.51-1.66,2.04-1.58c1.18,0.19,2.9,0.7,3.12,1.54c0.52,1.98,0.5,4.22,0.32,6.38
	c-1.29,15.37-2.55,30.74-4.06,46.12c-2.72,27.71-6.41,55.43-13.35,83.02c-8.91,35.4-24.85,68.53-46.26,99.82
	c-5.59,8.17-11.84,15.97-19.89,22.01c-4.79,3.6-7.97,7.88-10.75,12.8c-5.48,9.73-10.76,19.58-16.96,28.93
	c-4.3,6.49-3.74,11.07-0.26,16.68c7.87,12.71,15.14,25.83,22.2,39.05c15.5,29.02,30.79,58.16,46.02,87.34
	c5.59,10.71,10.74,21.67,16.09,32.52c0.93,1.87,1.86,3.8,1,6.12c-0.28,0.75-1.01,1.55-1.72,2.02c-1.32,0.88-2.84,0.78-3.43-0.42
	c-3.28-6.71-6.17-13.65-9.62-20.26c-10.96-21.07-22.28-41.93-33.15-63.05c-13.93-27.05-28.32-53.82-43.6-80.05
	c-3.55-6.12-4.31-6.48-11.63-4.15c-10.2,3.24-20.28,7.11-30.51,10.13c-8.02,2.38-13.95,6.72-19.26,13.4
	c-18.53,23.27-38.51,45.41-60.93,65.37c-7.79,6.94-15.78,13.8-24.25,19.85c-29.21,20.86-61.05,36.12-93.8,49.24
	c-3.72,1.48-9.34,4.9-11.25,1.2c-2.73-5.34,4.47-7.05,7.81-9.55c25.96-19.44,50.96-39.8,70.32-65.96c1.67-2.26,3.64-4.34,5.51-6.48
	c14.06-16.02,28.49-31.62,45.81-44.56c19.98-14.94,41.24-24.95,65.37-25.79c2.66-0.09,5.45-0.49,8.08-1.33
	C3339.54,1034.93,3352.33,1030.68,3366.08,1026.19 M3340.89,697.24c0-0.01,0.43-0.71,0.43-0.71l0.1,0.73
	c-0.88,1.34-1.76,2.68-2.64,4.03c0.46,10-1.78,20.11-3.5,30.14c-3.06,17.98-6.61,35.96-10.04,53.93
	c-2.68,14.03-5.43,28.06-6.21,42.1c-0.6,10.55-0.46,20.93,2.85,30.53c2.98,0.77,4.35-1.25,5.4-3.21c3.27-6.12,6.74-12.2,9.43-18.5
	c5.6-13.11,9.5-26.58,12.81-40.13c2.25-9.23,3.2-18.48,2.03-27.48c-2.8-21.21-5.85-42.36-8.86-63.52c-0.32-2.32-2.01-3.52-4.36-3.88
	C3340.7,700.71,3341.83,699.5,3340.89,697.24 M3008.62,1066.33c8.1-4.09,13.92-6.88,19.6-9.93c20.34-10.95,40.64-21.91,59.77-35.22
	c33.51-23.33,59.65-52.34,77.69-87.92c2.09-4.12,4.5-8.1,6.71-12.18c1.65-3.04,5.64-6.65,3.05-9.23c-2.36-2.35-6.91,0.37-10.3,1.68
	c-14.04,5.45-27.29,12.82-39.53,21.81c-23.84,17.5-45.1,37.67-62.7,61.23c-15.45,20.69-30.78,41.43-48.28,60.69
	C3012.8,1059.27,3011.59,1061.79,3008.62,1066.33 M3410.45,715.65c-4.19,12.89-8.53,25.75-12.52,38.68
	c-6.57,21.2-12.98,42.43-19.31,63.67c-7.26,24.37-11.74,48.87-13.63,73.51c-0.64,8.43,0.03,16.5,2.52,24.2
	c1.03,3.17,3.77,3.58,5.87,0.78c11.88-15.86,23.52-32.04,28.03-50.79c11.82-49.15,19.13-98.16,12.34-146.42
	c-0.17-1.2-0.68-2.31-1.03-3.45C3411.97,715.75,3411.21,715.7,3410.45,715.65 M2864.56,938.71c2.11,2.56,4.4,1.63,6.5,1.28
	c29.57-4.9,58.29-13.23,85.88-27.82c21.68-11.46,43.44-22.77,65.92-32.43c15.38-6.6,28.42-16.93,38.5-30.58
	c1.62-2.2,3.48-4.4,3.21-7.99c-8.56-2.56-17.8-2.52-27.36-0.82c-10.06,1.78-19.6,5.61-28.88,10.37
	c-19.35,9.92-38.08,20.86-55.62,34.11c-13.26,10.01-27.1,19.22-40.71,28.77c-10.94,7.68-22.7,13.65-34.73,19.06
	C2873.09,934.55,2868.94,936.62,2864.56,938.71 M2988.82,978.85c3.95,1.34,6.44-0.08,9-1c29.06-10.48,57.23-23.3,83.77-40.04
	c13.63-8.6,26.24-18.7,38.42-29.32c4.4-3.85,7.62-8.34,9.9-13.46c1.11-2.52,2.24-5.03,3.33-7.56c7.06-16.43,6.29-17.47-10.97-13.82
	c-20.92,4.41-39.2,14.71-55.18,29.67c-5.19,4.86-10.15,9.96-14.91,15.21c-18.45,20.33-37.58,39.95-59.6,56.72
	C2991.46,976.08,2990.53,977.18,2988.82,978.85 M2861.39,733.94c4.63,1.85,6.86,2.87,9.21,3.64c11.8,3.93,23.49,8.15,35.49,11.6
	c22.01,6.31,43.55,13.47,63.72,23.41c1.52,0.75,3.13,1.33,4.71,1.98c19.61,8.16,77.58,22.4,99.51,24.39c3.01,0.28,6,1.41,9.24-0.39
	c0.3-2.66-1.94-3.28-3.53-4.33c-20.91-13.91-42.74-26.56-65.67-37.48c-20.37-9.71-42.58-15.56-66.11-17.63
	c-26.87-2.36-53.84-4.28-80.77-6.35C2866.35,732.71,2865.42,733.11,2861.39,733.94 M3280.21,995.56
	c-10.15-0.54-17.68,2.11-24.87,5.37c-18.14,8.22-34.83,18.78-48.67,33.72c-12.21,13.17-24.32,26.5-37.3,38.93
	c-17.45,16.74-35.16,33.18-52.27,50.25c-7.52,7.51-16.15,13.95-25.69,22.07c3.09-0.76,4.38-0.88,5.54-1.4
	c16.3-7.23,32.48-14.75,48.25-23.3c16.85-9.13,30.55-22.41,44.88-34.82c14.72-12.75,28.52-26.37,41.42-40.91
	C3246.5,1028.59,3262.6,1012.66,3280.21,995.56 M3479.23,779.41c-0.59,1.16-0.87,1.56-1,1.98c-8.18,28.56-22.57,54.75-39.67,80.22
	c-16,23.85-26.59,49.77-33.96,76.47c-2.65,9.61-4.04,19.26-2.79,28.76c0.23,1.72,0.77,3.43,2.5,4.06c1.85,0.68,3.57-0.59,4.77-1.95
	c4.34-4.96,8.93-9.8,12.68-15.13c21.31-30.18,36.96-62.43,46.22-96.71c6.47-23.96,10.21-48.11,12.66-72.27
	C3480.83,783.17,3481.4,781.33,3479.23,779.41 M3108.75,559.71c-2.97,3.8-2.31,7.09-2.45,10.18c-1.06,24.48-0.77,48.79,0.62,72.94
	c1.63,28.45,4.37,56.67,7.65,84.77c0.79,6.83,1.79,13.56,5.83,19.13c3.66,5.05,6.32,5.02,9.89-0.7
	c8.84-14.15,14.06-28.98,13.92-44.71c-0.09-10.5-1.73-20.59-4.68-30.28c-2.09-6.84-4.48-13.56-7.12-20.15
	c-8.62-21.44-14.19-43.95-17.39-67.34C3113.95,575.57,3112.45,567.71,3108.75,559.71 M3194.62,603.59c-3.35,19.6-7,37.07-9.01,54.61
	c-1,8.77-1.58,17.54-2.48,26.3c-2.09,20.3-1.13,40.08,2.02,59.57c1.49,9.25,2.2,18.72,3.29,28.09c0.29,2.55,0.61,5.11,1.08,7.6
	c0.14,0.73,0.94,1.89,1.36,1.8c1.24-0.25,2.96-0.72,3.58-1.64c2.65-3.84,5.32-7.74,7.35-11.85c5.58-11.25,9.38-22.86,11.12-34.83
	c2.56-17.66,2.86-35.06,0.37-52.07c-3.65-24.97-8.9-49.44-15.71-73.39C3197.41,607.04,3196.72,606.49,3194.62,603.59 M3157.18,1173
	c14.9-3.77,28.03-11.05,41-18.6c26.41-15.36,50.09-34.3,71.18-56.38c14.05-14.72,27.89-29.64,40.22-45.73
	c0.78-1.03,2.16-2.33,0.81-3.38c-0.86-0.67-2.31-1.07-3.47-0.9c-14.84,2.13-28.43,8.26-41.04,17.2
	c-17.11,12.12-33.07,25.57-46.58,41.59C3199.84,1129.86,3181.11,1153.55,3157.18,1173 M3258.29,815.16
	c5.62-7.86,9.08-15.87,11.82-24.03c5.65-16.82,11.71-33.61,16.22-50.59c10.93-41.11,9.21-80.54-2.74-118.32
	c-0.21-0.67-1.17-1.04-1.82-1.6c-2.53,1.35-2.15,3.65-2.45,5.62c-4.02,26.37-7.95,52.75-8.89,79.06
	c-0.51,14.54-3.57,29.02-8.06,43.35c-5.06,16.18-7.15,32.38-7.75,48.63c-0.15,4.35,0.31,8.65,0.59,12.95
	C3255.32,811.88,3255.4,813.66,3258.29,815.16 M3237.54,951.71c-16,1.13-29.57,4.96-42.06,13.36
	c-11.85,7.97-22.49,17.34-32.17,27.83c-19.27,20.91-34.75,44.37-51.96,66.66c-0.4,0.53-0.21,1.65,0,2.37c0.29,1,1.15,1.1,2.19,0.42
	c3.56-2.32,7.05-4.77,10.68-6.95c26.95-16.18,50.88-36.29,74.15-57.29C3213.13,984.8,3229.08,965.97,3237.54,951.71"/>
<path id="XMLID_4888_" class="st3" d="M1126.31,1180.42c16.52-7.72,61.53-232.11-31.22-236.3c-65.88-2.98-115.47,44.56-143.85,64.62
	s-63.03,38.21-96.5,28.86c-43.08-12.03-61.38-61.49-75.94-103.78c-16.93-49.17-42.27-102.3-91.22-119.88
	c-50.09-18-108.18,11.06-136.88,55.88c-28.7,44.83-33.25,101.11-28.75,154.14c7.19,84.83,35.69,167.76,82.16,239.09"/>
</svg>
