<?xml version="1.0" encoding="utf-8"?>
<!-- Generator: Adobe Illustrator 26.2.0, SVG Export Plug-In . SVG Version: 6.00 Build 0)  -->
<svg version="1.1" id="Design" xmlns="http://www.w3.org/2000/svg" xmlns:xlink="http://www.w3.org/1999/xlink" x="0px" y="0px"
	 viewBox="0 0 3845.5 1920.2" style="enable-background:new 0 0 3845.5 1920.2;" xml:space="preserve">
<style type="text/css">
	.st0{fill:#F9F9F9;stroke:#F9F9F9;stroke-miterlimit:10;}
	.st1{fill:#F3D0A1;}
	.st2{fill:#E3D6CE;}
	.st3{fill:#B38F79;}
</style>
<path id="XMLID_4892_" class="st0" d="M3266.1,553.9c27,45.8,61.8,87.1,100.7,123.6c32.7,30.6,78.6,59.7,119.4,41.4
	c21.6-9.6,35.7-30.4,48.2-50.5c40.3-64.7,75.4-132.5,105.1-202.7c20.8-49.2,39.1-100.8,38.9-154.2c-0.2-66.7-30.9-132.8-81.9-175.8
	c-124.8-105.4-304.7-37.5-364.3,105.4c-31.2,74.8-28.4,161.2-1.5,237.6C3240.1,505,3252,530,3266.1,553.9"/>
<path id="XMLID_4889_" class="st1" d="M870.7,359.3c-57.5,73.1-169.3,94.3-262.7,63.4c-93.4-31.3-168.3-114.5-168.8-200
	c-0.5-85.4,73.1-173,167.5-204.6c94.9-31.5,210.5-6.8,267,68C930.3,160.9,927.7,286.2,870.7,359.3"/>
<path id="XMLID_4893_" class="st2" d="M610.3,485.8c-31.9,91.6-97.2,167-158.6,242s-122.2,155.6-142,250.6
	c-11.6,55.9-8.4,114-19.7,170c-11.3,56-42.2,113.5-96.1,132.4c-74.3,26-156.4-38.3-176.3-114.6c-19.8-76.3-27.9-153.8,3.4-226.1
	s27.2-164.3,33.7-242.8c11.2-137.4,0-254,23.3-389.8c16.4-95.6,91.8-178.6,185.4-204C499.4,39.4,687,265.2,610.3,485.8z"/>
<path id="XMLID_4891_" class="st0" d="M3388.3,582.3c-46.4,35.5-64.7,97.5-66.9,155.8s9,116.5,8.7,175
	c-0.3,58.4-14.4,120.7-57.2,160.5c-62.6,58.2-174.7,58.3-212.3,135c-21,42.8-9.4,93.7,2.5,139.8c26.1,100.5,52.1,201,78.2,301.4
	c16.1,61.9,40.7,133.2,101.8,152.2c65.1,20.3,128.5-31.9,176.9-80.1c110.9-110.3,222.9-221.9,304.7-355.2
	c81.9-133.2,132-292.3,106.9-446.6C3808.4,776.4,3566.2,446.1,3388.3,582.3z"/>
<path id="XMLID_3009_" class="st3" d="M463,655.2c1.1,1.1,1.3,1.4,1.6,1.5c2.5,1.1,5,2.4,7.5,3.3c16,6.1,29.5,15.8,41.1,28.3
	c4.6,4.9,9,10,13.2,15.1c10.3,12.5,19.3,25.9,28.5,39.1c18.4,26.3,31.6,54.8,39.3,86c3.3,13.3,6.9,26.6,10.8,39.8
	c5.2,17.3,8,35.1,9.1,53.1c1.1,19.6-0.2,39.1-6.4,57.8c-8.3,25.1-24,43.6-50.2,51.7c-13.7,4.2-27.4,8.6-41.1,12.7
	c-7.3,2.2-14.8,3.9-22.4,4.5c-9.2,0.8-18.3,0.3-27.3-1.7c-7.7-1.7-15.4-3.7-23-5.8c-4.3-1.2-4.8,0.4-4.9,4c-0.1,1.8,0.3,3.7,0.8,5.4
	c1,3.8,1.9,7.8,3.5,11.3c5.3,11.7,8.9,24,13.4,36c4.4,11.7,8.2,23.6,9.7,36.1c1,8.5,3,16.8,4.6,25.2c3.6,18.6,6,37.3,5.2,56.3
	c-0.9,18.6-3.6,37-7.1,55.3c-1.4,7.5-3.7,14.8-6,22.1c-2.8,8.9-7.9,16.5-14.6,22.9c-3.8,3.7-8.2,6.5-13.4,7.6
	c-13.1,2.9-25.6,1.3-36.5-7c-5.3-4-10.3-8.6-15.3-13.1c-8.2-7.3-16.2-14.8-24.5-22c-12.6-11.1-25.8-21.4-39.4-31.3
	c-15.1-10.9-29.9-22.1-44.4-33.9c-13.2-10.8-27.1-20.8-41.2-30.5c-21.1-14.5-39.4-31.9-52.1-54.4c-12.7-22.5-24.6-45.6-34.6-69.6
	c-12.6-30-14-60.9-6.3-92.4c3.5-14.3,9-27.8,15.5-41c5-10.2,10.9-19.8,19.5-27.4c1.7-1.5,1.6-2.8,0.6-4.8
	c-4.6-8.3-8.8-16.7-11.8-25.8c-4.1-12.6-6.3-25.5-7-38.6c-0.9-16.8-0.2-33.5,4.6-49.8c3.5-12.2,9.3-23.4,18.1-32.5
	c4.5-4.6,7.1-9.7,9.1-15.5c3.8-11.6,8-23,13.1-34.2c4.5-9.9,10.5-18.6,18.5-25.9c1.8-1.6,3.6-3.3,5.3-5.1c1-1.1,0.6-2.4-0.7-2.9
	c-3.1-1.3-6.3-2.4-9.4-3.5c-28.7-9.8-49.9-28.7-65-54.7c-8.2-14.1-13.1-29.5-17.1-45.2c-1.1-4.4-2.2-8.9-2.7-13.5
	c-3.1-28.8,0.3-56.6,12.2-83.2c5.7-12.8,12.1-25.3,19.4-37.4c10.3-17,21.5-33.3,33.6-49c10.6-13.8,22.1-26.8,35.3-38.2
	c13.8-12,29.5-20.6,47.2-25.1c8.9-2.3,17.8-4.2,26.7-6.2c18.2-4,36.4-7.8,54.1-13.5c12.5-4,25-8.1,37.4-12.2c3.5-1.1,7-2.2,10.4-3.6
	c16-6.1,32.3-11,48.8-15.5c14.2-3.8,28.6-6.1,43.3-6.7c7-0.3,14-0.1,20.9,1.3c15,3.1,25.9,11.4,33.2,24.9c3.5,6.5,6,13.4,7.7,20.5
	c2.2,8.9,4.1,17.8,5.9,26.8c4.6,23,8.4,46.2,10.4,69.6c2.4,28.9-0.2,57.3-9.8,84.8c-4.4,12.7-9.4,25.2-15.2,37.3
	c-16.6,34.8-37.6,67-59.2,98.9c-2.9,4.3-6.3,8.2-9.7,12.2C478.1,641.9,471.4,649,463,655.2 M525,295.6c-0.2,0-0.4-0.1-0.7-0.1
	c0.4-0.5,0.5-0.4,0.4,0.3c-0.1-2.5,2.7-4.4,1.5-7.2c3.7-4.6,7.4-9.2,11-13.9c1.1-1.4,0.3-2.8-2.1-4.2c-1.3-0.8-3.1-1.6-3.8,0.3
	c-2.3,5.5-5,11-5.3,17.1c0,0.3,0.2,0.5,0.4,0.8C523.7,290.5,524.3,293,525,295.6 M290,975.7c-3.5-0.4-5.8-3.1-8.5-4.9
	c-3.3-2.1-6.5-4.5-9.8-6.6c-1.1-0.7-2.4-0.4-3.2,0.7c-0.7,1-1.4,2-1.9,3.1c-0.5,1.2-0.5,2.5,0.6,3.3c6.2,4.1,13.1,6.2,20.5,5.9
	c0.7,0,1.4-1.1,2-1.7l-0.2,0.5L290,975.7 M413.8,1262.9c3.3,11.5,9.7,20.7,19.5,27.7c5.9,4.2,12.2,7.9,17.1,13.1
	c0.9-0.4,1.7-0.5,1.9-0.9c6.8-10.1,6.8-12-2.7-19.4c-10.3-8.1-21.5-14.8-33.4-20.2c-0.7-0.3-1.7,0-2.5,0l-0.2-0.4L413.8,1262.9
	 M355.7,1180.5c5.1,12.5,14.2,20.9,27,25.1c6.9,2.3,14,3.9,21.1,5.8c3.5,0.9,7.1,1.7,10.7,2.4c14.2,2.7,27.4,8,40.4,14
	c4.7,2.2,8.6,5.6,12.9,7.9c2.1-1,2-2.6,2.1-4.1c0.5-6.1,1-12.1,1.5-18.2c0.2-3-0.8-5.2-3.3-7c-3.7-2.8-7.7-4.8-11.9-6.6
	c-20.4-8.9-41.8-12.9-63.8-14c-4.2-0.2-8.5-0.4-12.7-0.8c-6.4-0.6-12.7-1.6-18.8-3.6c-1.7-0.6-3.4-1.6-5.2-0.6
	c-0.9-0.8,0.8-0.7-0.4-0.7c-0.2,0-0.5,0.2-0.5,0.2C354.8,1181,355.1,1181,355.7,1180.5 M249.8,773.6c0.6,0.6,1.4,1,2,1.7
	c8,9.6,15.8,19.4,24,28.8c10.6,12.1,15.9,26.5,19.9,41.7c0.7,2.7,1.1,5.4,2.1,8c5.3,14.3,6.4,29.1,5,44.2c-0.5,5.8-1.1,11.6-1,17.3
	c0.6,18.5,6.5,35.3,16.9,50.5c7.3,10.8,16.2,20.6,23,31.8c2.8,4.7,8,5.2,12.4,7c2.1,0.9,3.4-0.2,3.5-2.7c0.3-8.5-0.4-17-1.9-25.5
	c-2.5-13.5-6.4-26.7-10.8-39.7c-4.3-12.8-7.4-25.8-9.7-39c-3.2-18.5-9.4-36-17.7-52.7c-8.6-17.2-18.7-33.5-29.2-49.6
	c-2.9-4.5-6.5-7.9-11.2-10.4c-7.6-3.9-15-8.1-22.5-12.2c-1.9-1-3.5-0.7-4.9,0.9c0.3-0.4,0.6-0.8,1-1.2
	C250.4,772.9,250.1,773.2,249.8,773.6 M330.3,811.1c1.4,2.8,3.5,3.6,5.2,4.6c10.8,6.4,21.6,12.6,32.3,19c2.9,1.8,5.7,1.8,8.7,0.9
	c9.5-2.7,18.2-7.1,26.2-12.7c6.3-4.3,12.4-8.9,18.5-13.5c14.2-10.6,28.5-20.9,44.3-29c16.4-8.5,33.8-14,51.8-17.4
	c9.9-1.9,19.9-3,29.8-4.6c3.3-0.5,6.6-0.7,9.4-2.2c0.3-2.5-0.9-3.9-1.9-5.4C543.7,735,533,719,520.8,704.2
	c-6-7.3-12.5-14.2-19.5-20.6c-2.4-2.2-4.9-3-8.3-2.8c-9,0.5-17.4,3.5-25.6,6.6c-7.1,2.6-13.9,6.2-20.4,10.2
	c-23.7,14.4-43.8,32.9-61.8,53.8c-10.5,12.3-20,25.5-28.9,38.9c-6.2,9.3-13.8,16.1-24.5,19.4C331.5,810.1,331,810.6,330.3,811.1
	 M282.1,780.8c2,3.3,4.6,4.3,6.9,5.7c10.1,6.2,20.3,12.3,30.4,18.7c3.4,2.1,6.5,2.8,10.3,1.6c8.4-2.6,15.5-6.8,20.6-14.2
	c10.2-14.8,20.4-29.7,32.1-43.4c17.1-20.1,36.3-37.7,58.5-52.1c14-9.1,29-15.5,45.2-19.2c1.5-0.3,2.9-0.8,4.2-1.2
	c0.3-2.2-1.4-2.8-2.6-3.4c-4.8-2.6-9.6-5.3-14.7-7.4c-10.4-4.4-20.9-8.4-31.3-12.8c-3.7-1.5-7-1.3-10.6,0c-7.8,2.9-15,6.7-22,11.2
	c-7.7,4.9-15.4,9.9-22.9,15c-3.5,2.4-7,4.9-10.2,7.7c-19,16.9-36.1,35.4-50.8,56.2c-4.1,5.7-8.6,11-13.1,16.5
	c-6.3,7.6-14,13.5-23.1,17.5C286.9,778.2,284.8,779.4,282.1,780.8 M359.5,556.5c5.8-5.6,9.9-10.5,14-15.3c2.1-2.5,2.5-5.4,2.5-8.5
	c0-14.5-2.6-28.5-9.2-41.5c-3.9-7.6-8.3-14.9-12.7-22.2c-9.8-16.3-18.5-33-22.8-51.6c-3.4-15.1-6-30.5-6.9-46
	c-1.1-17.5-0.1-34.7,3.8-51.7c0.7-2.9,1.7-5.8,1.4-8.8c-0.6-0.3-1.2-0.8-1.6-0.7c-14,2.9-28.1,5.8-42.1,8.7
	c-1.5,0.3-2.9,0.8-4.4,1.1c-2.7,0.6-4.1,2.3-4.8,4.9c-2.2,8.6-2.8,17.5-2.5,26.3c0.7,24.4,7.7,47.3,17,69.7
	c7.4,17.7,18.5,32.8,29.2,48.4c9,13.1,17,26.7,24.1,40.9c5.8,11.5,10.1,23.5,12.4,36.2C357.6,549.1,358.4,552,359.5,556.5
	 M585.1,815.6c-17.1,0.1-33.5,0.4-50,0.3c-13.4-0.1-25.9,3.5-38.5,7.2c-19.2,5.5-36.9,14.3-54,24.5c-8.4,5-17,9.7-24.7,15.6
	c-2.6,2-2.7,3-0.5,5c8.9,7.9,17.9,15.7,26.8,23.6c3.2,2.9,6.8,3.8,10.9,3.9c9,0.3,17.6-1.4,25.9-4.7c7.7-3,15.2-6.4,22.8-9.5
	c18.6-7.8,37.4-14.9,57.4-18.2c6.6-1.1,13.3-1.8,20-2.5c3.6-0.4,7.3-0.4,11-0.8c4.3-0.5,5.2-1.8,4-6.1
	C592.6,841.4,589,828.8,585.1,815.6 M188.4,400.4c-1.8,0-2.6,1.5-3.4,2.7c-8.9,12.8-16.9,26-24.9,39.4c-3,5-2.9,9.8-0.9,14.8
	c4.6,11.8,11.5,22.1,19.9,31.5c10.6,11.9,23,21.8,36.7,30c8.9,5.3,18,10.3,26.9,15.6c14.5,8.5,28.6,17.5,41,29
	c12.5,11.5,22.9,24.5,28,41c0.8,2.5,2.2,2.9,3.9,1c3-3.4,5.9-7,8.9-10.4c2.7-3.1,3-6.4,1.8-10.2c-1.9-6.2-4.9-11.8-8-17.4
	c-6.2-11-14.1-20.7-23.5-29c-9.8-8.7-19.6-17.4-29.8-25.6c-23.3-18.8-41.9-41.6-56.3-67.7c-7.2-13.1-12.9-26.9-18.1-40.9
	C190,402.8,190,401.1,188.4,400.4 M583.1,811.3c0.6-2.6-0.2-4.3-0.8-6c-5.2-14.4-11.6-28.2-19.4-41.3c-1.4-2.3-3-3.8-5.9-3.3
	c-18.3,3.2-36.9,4.8-54.9,9.7c-21.1,5.8-40.5,15.2-58.4,27.6c-10,6.9-19.8,14.3-29.5,21.5c-10.6,7.9-21.6,14.8-34.3,18.8
	c-0.8,0.2-2,0.5-1.8,1.7c0.2,0.8,0.7,1.7,1.3,2.2c3,2.1,6.1,4,9.2,6c6.6,4.4,13.2,8.8,19.8,13.2c1.9,1.3,3.5,1.9,5.7,0.2
	c15.4-11.6,32-21.2,49.3-29.6c20.4-9.9,41.8-17.3,64.5-19.4c12.7-1.2,25.6-0.4,38.4-0.6C571.9,812,577.4,812.5,583.1,811.3
	 M343,571.4c1.5-0.1,1.9,0,2.1-0.2c12.5-10.8,11.4-8.8,8.5-23.9c-3.8-19.8-12.8-37.4-22.7-54.6c-7.1-12.4-15.3-24.2-23.6-35.9
	c-15.4-21.7-25.8-45.6-31.9-71.3c-2.3-9.5-4.1-19-4.7-28.8c-0.6-10.1,0.2-20.1,1.6-30c0.3-2.5-0.8-3.6-3-2.8
	c-11.2,4.3-21.4,10.3-30.8,17.7c-2.9,2.3-4.2,5-4.4,8.6c-0.7,11.1,0.5,22,3.2,32.6c4.9,19.2,11.3,38,19.6,56.1
	c4.1,8.9,8.9,17.4,14.2,25.5c11.9,18.1,24.6,35.6,38.9,51.9c3.4,3.9,6.6,8,9.8,12C330.3,541.2,340,554.4,343,571.4 M380.4,530.9
	c1.5-0.1,2.2-1,3-2c3.9-5,7.7-10.2,11.8-15.1c3.4-4.1,4.1-8.5,3.1-13.6c-2.2-10.8-5-21.4-9.2-31.6c-10.8-26.2-16.8-53.4-18.4-81.6
	c-1.1-20.7-1.5-41.4-0.4-62.1c0.4-7.3,0.3-14.6-0.6-21.9c-0.5-3.9-1.4-4.5-5.5-3.4c-7.9,2.2-15.8,4.8-23.7,6.7c-4.2,1-6.1,3.4-7,7.3
	c-3.5,14.9-5.9,29.9-5.8,45.2c0.3,19.9,3,39.5,7.6,58.8c3.8,15.8,11,30.3,19.2,44.3c4.6,7.9,9.2,15.8,13.8,23.7
	c6.8,11.9,10.1,24.7,11.1,38.3C379.6,526.2,379,528.8,380.4,530.9 M228.8,350.6c-1.1,0.9-2.4,1.8-3.4,2.9c-11,11-20.9,23-30.2,35.5
	c-2.4,3.3-3,6.4-2.1,10.2c1.6,6.6,4.2,12.8,6.8,18.9c14.5,34.9,35.4,65.2,64.7,89.5c10.6,8.7,21,17.6,31.3,26.7
	c10.1,8.9,18.8,19.2,25.3,31c3.3,5.9,6.4,11.8,8.3,18.3c0.7,2.5,2,2.6,3.9,0.6c1-1.1,1.9-2.4,3-3.4c2.7-2.6,3.4-5.7,2.7-9.2
	c-1.1-5.7-2.6-11.2-5.4-16.4c-6.7-12.5-15.5-23.4-24.7-34c-12.6-14.6-24-29.9-35.1-45.6c-16-22.6-27.3-47.5-35.1-74
	c-3.2-10.8-6.9-21.5-7.8-32.9c-0.3-4.6-0.7-9.1-0.9-13.7C230.1,353.5,230.3,352,228.8,350.6 M304.1,618.3c5.1-2.9,6-7.2,4.4-12.5
	c-1.5-5-3.6-9.7-6.2-14.2c-8.4-14.2-19.8-25.5-32.8-35.2c-9.8-7.3-20-14-30.7-19.9c-8-4.5-15.9-9-23.8-13.7
	c-14-8.3-26.6-18.3-37.7-30.3c-8.6-9.2-15.4-19.7-20.6-31.1c-0.6-1.4-0.9-2.9-2.3-3.8c-1.6-0.5-2.1,0.8-2.6,1.9
	c-8.7,17.4-14.3,35.6-16,55c-0.3,3,0.4,5,2.1,7.5c7.3,10.5,17.1,17.3,29.2,20.8c11.7,3.3,23.6,6.1,35.3,9.6
	c18.7,5.6,37.2,11.9,54.7,20.6c10.8,5.3,20.3,12.4,29,20.5c6.1,5.6,11.1,12.1,14.2,19.9C301.2,615.2,301.8,617.4,304.1,618.3
	 M448.4,1035.2c-1.3-1.9-2.5-3.8-3.9-5.7c-11.5-15.6-18.1-33.1-20.7-52.1c-2.3-17.1-7.4-33.3-14.2-49c-2.3-5.3-4.5-10.7-6.2-16.2
	c-3.1-10.2-7-20.1-12.1-29.5c-5.6-10.5-11.3-20.9-16.8-31.4c-3.9-7.5-9.3-13.2-17.1-17.1c-8.4-4.2-16.4-9.2-24.6-13.8
	c-1.9,1.6-0.6,3,0,4.1c2.9,5.3,5.7,10.8,9.1,15.8c7.7,11.4,14,23.6,20,35.9c6.2,12.9,10.9,26.5,14.4,40.4c4.1,16,8,31.9,11.5,48
	c1.9,8.9,2.7,18.1,5.6,26.8c3,9.3,6.2,18.5,9.2,27.8c0.6,2,2,2.9,3.8,3.6c4.9,1.8,9.7,3.6,14.6,5.3c7.5,2.6,15,5,22.5,7.5
	C445.1,1035.9,446.5,1036.8,448.4,1035.2 M455.4,900.4c0,1.4,1,2.2,1.9,3c9.9,8.6,19.9,17.2,29.7,25.8c2,1.7,4.1,2.2,6.7,2.2
	c6.5,0,12.7-1.4,18.9-3.3c9.3-2.9,18.6-5.8,28-8.7c13.5-4.1,27.2-6.7,41.2-8.2c7.6-0.8,15.2-0.1,22.8,0.1c3,0.1,3.8-0.9,3.5-3.9
	c-1.5-13.4-4-26.5-7.8-39.4c-1.5-4.8-2.2-4.9-7.2-4.3c-11.5,1.3-23.1,1.8-34.5,4c-17.8,3.4-34.6,9.8-51.3,16.5
	c-6.8,2.7-13.4,5.8-20.2,8.7c-8.8,3.7-17.8,6.4-27.4,6.5c-1.2,0-2.4,0.3-3.6,0.6C455.8,899.9,455.6,900.2,455.4,900.4 M250.4,765.1
	c7.9,4.2,14.9,7.8,21.9,11.6c3.3,1.8,6.7,1,9.8-0.1c8.1-3,15.5-7.2,21.7-13.2c6.5-6.4,12.4-13.4,17.7-20.9
	c14.8-21.1,31.9-40,51.2-57.1c2.5-2.2,5-4.6,7.8-6.4c15-9.3,28.9-20.5,45.2-27.5c0.3-0.1,0.5-0.3,0.8-0.4c0.7-0.3,1-0.8,0.8-1.4
	c-0.2-0.5-0.5-1.2-1-1.4c-3.5-1.2-7-2.3-10.5-3.3c-9.1-2.6-18.3-4.6-27.6-6.2c-4.5-0.8-8.4,0-12,2.6c-2.2,1.6-4.5,3.1-6.6,5
	c-12.1,10.7-24.2,21.5-34,34.5c-12.9,17-26.8,33.2-40.9,49.2c-10,11.2-20.9,21.3-34.5,28.2C256.8,759.6,253.8,761.6,250.4,765.1
	 M564.1,481c-1.5-1.4-3.4-1.1-5.1-1c-9.8,0.3-19.5-0.3-29.2-1c-12.3-0.9-24.2,0-36.1,3.9c-17,5.5-34.5,6.9-52.4,4.6
	c-5.4-0.7-10.9-0.9-16.4-1.3c-2.3-0.2-4.1,0.6-5.5,2.6c-3.5,5-7.1,9.9-10.6,14.9c-1.4,1.9-0.8,3.1,1.9,3.6c8.8,1.5,16.9,5,25.2,8.1
	c24.5,9,49.7,14.2,76,12.4c8.8-0.6,17.6,0.1,26.4,1.6c6.1,1,6.2,0.9,9-4.9c6-12.4,11-25.1,15.7-38
	C563.8,484.6,564.6,482.9,564.1,481 M294.3,797.2c4.2,7.1,8.2,14.2,12.6,21.1c12.6,19.7,22,40.7,28.6,63.1
	c2.4,8.2,3.8,16.7,5.1,25.1c1.4,8.8,4,17.2,6.7,25.6c4.9,14.8,9.4,29.7,12.2,45c1.6,8.7,2.3,17.5,1.8,26.4c-0.1,2.4,0,4.1,2.5,5
	c10.4,3.4,20.8,6.9,31.3,10.3c2.3,0.7,3.4-0.5,2.6-3c-1.1-3.5-2.4-6.9-3.7-10.3c-4.1-10.6-6.6-21.5-8.6-32.7
	c-5.6-31-12.7-61.6-25-90.7c-4.2-10.1-9.6-19.8-15.2-29.2c-6.7-11.2-13.6-22.4-19.3-34.2c-1.7-3.4-3.8-6.1-7.1-8.1
	c-6.8-4.1-13.4-8.5-20.1-12.7C297.6,797.2,296.4,796.1,294.3,797.2 M372.9,297.6c3,19.5,0,39,0.5,58.4c0.5,20.4,1.2,40.8,4.5,60.9
	c2.5,15.4,7,30.3,12.6,44.8c4.4,11.4,8.3,22.9,10.8,34.9c0.2,1.2,0.5,2.4,0.9,3.5c0.4,1.2,2,1.4,2.9,0.3c1.5-1.9,3.1-3.8,4.4-5.8
	c9.6-13.9,9.1-8.6,4.5-26.5c-1.6-6.5-3.5-12.9-5.3-19.4c-7.9-28.2-10-56.8-7.5-85.9c1.5-17.9,2.9-35.8,4.4-53.7
	c0.3-3.3,0.5-6.7-0.3-10c-2.7-11.1-3.4-11.6-14-8C385.2,293.2,378.9,294.4,372.9,297.6 M495.7,1042.3c0-1.9-1.3-2.8-2.2-3.9
	c-7.4-8.1-13.8-17-20.6-25.6c-11.1-14-18.7-29.9-24.7-46.6c-2.8-7.7-5.3-15.6-7.4-23.5c-6.5-25-17-48.2-29.9-70.4
	c-2.2-3.7-4.8-7-8.5-9.3c-6.7-4.2-13.3-8.6-20-12.9c-1.2-0.8-2.5-1.8-4.1-1.1c-0.2,2,1.1,3.4,2,5c7.8,13.8,15.4,27.7,21.5,42.3
	c0.9,2.2,1.9,4.5,2.6,6.8c4.2,14.3,10.4,28,15.8,41.9c2.2,5.7,3.9,11.5,4.8,17.6c1.1,7.5,2.3,15.1,3.9,22.5
	c4.2,19.4,12.9,36.6,25.9,51.7c1.3,1.4,2.5,2.7,4.3,3.1c11.3,2.7,22.7,4.6,34.4,3.5C494.2,1043.2,495,1042.6,495.7,1042.3
	 M541.9,535.1c-1.4-1.9-3-1.9-4.5-2.2c-8.4-1.6-16.9-2.1-25.4-1.5c-12.5,1-24.8,0-37.2-2.2c-16-2.8-31.5-6.5-46.5-12.9
	c-6.1-2.6-12.4-4.9-19.2-5.8c-3.4-0.4-5.8,0.3-7.9,3.1c-4.8,6.6-9.9,13.1-14.7,19.5c1.1,2.5,3.2,1.7,4.8,1.9
	c7.9,1.2,15.5,3.5,22.8,6.4c10.5,4.1,21.1,8.1,31.2,13c19.8,9.5,40.6,12.2,62.2,11.5c4.9-0.2,9.7-0.7,14.6-0.9
	c1.6-0.1,3-0.4,3.9-1.8C531.6,554,537.3,544.7,541.9,535.1 M335.2,995.2c-2.4-5.4-6-9.8-9.6-14.2c-6.1-7.6-12.2-15.2-16.4-24.1
	c-7.9-16.8-12.9-34.2-10.6-53c0.6-4.8,0.7-9.7,1-14.6c0.6-10.8-0.9-21.3-4.4-31.5c-2.8-8.4-4.5-17.1-7.5-25.4
	c-2.8-7.9-6.4-15.2-11.6-21.6c-6.3-7.8-12.7-15.6-19-23.4c-4.2-5.2-8.5-10.4-12.5-15.8c-3.6-4.9-8.6-7.2-14.3-8.5
	c-0.8,2.3,1,3.1,1.9,4.1c9.2,11.4,17.3,23.5,24.2,36.5c3.2,6,5.4,12.2,7.3,18.7c4,13.2,5.9,26.7,6.9,40.5c1.5,19.8,3.1,39.5,7,59
	c3.9,20,11.3,38.6,23.7,54.9c1.3,1.7,2.5,3.4,4.4,4.5c8.9,5.4,17.9,10.5,27.4,14.6C333.6,995.9,334.3,995.5,335.2,995.2
	 M520.6,569.2c-2.8,0.1-5.8,0-8.8,0.3c-12.2,1.1-24.3,0.2-36.4-1.5c-9.4-1.3-18.3-4.3-27.1-8.1c-11.5-4.9-23-9.8-34.6-14.4
	c-6.2-2.4-12.7-4.2-19.1-6.1c-2.9-0.9-6-1.1-9-0.5c-2.5,0.5-4.6,1.2-6.4,3.2c-5.1,6-10.3,11.9-15.3,17.6c0.1,2.8,2.2,3.1,3.7,4
	c7.1,4.2,14.3,8.2,21.2,12.6c13.5,8.5,28.1,13.1,44,13.7c7,0.3,14-0.1,21-0.1s14-0.3,21,0c9.1,0.4,18.2,1.4,26.8,5.2
	c3.4,1.5,3.8,1.3,6-2c4.2-6.4,8.2-12.8,12.3-19.3C520.6,572.5,521.5,571.2,520.6,569.2 M292.8,632.4c3-0.6,3.8-3.2,5.4-4.9
	c2.3-2.5,2.6-5.1,1.2-8.3c-4.1-9.7-10-18-17.9-25c-13-11.5-27.8-19.8-43.9-25.9c-20.2-7.7-40.8-14.3-61.9-19.4
	c-3.6-0.9-7.1-1.9-10.6-2.9c-9-2.6-16.8-7.2-23.5-13.7c-1.3-1.3-2.5-2.7-3.9-3.9c-0.4-0.3-1.1-0.3-1.6-0.3c-0.8,0-1,0.6-1,1.3
	c-0.2,10.1,0.9,20.1,2.9,30c0.6,2.9,2,5.1,4.4,6.7c11.2,7.5,22.6,14.4,36.4,15.9c15.4,1.7,30.9,3.5,46.2,5.7
	c22.5,3.3,41.3,14.1,57.4,29.8C287.1,621.9,289.8,627.3,292.8,632.4 M420.5,477.7c3.2-3,4.8-5.9,6.8-8.5c1.4-1.8,1.5-3.8,1-6
	c-1-4.1-1.7-8.4-2.5-12.5c-2.4-11.7-2.6-23.6-1.8-35.5c0.8-11.8,2.2-23.6,4.8-35.3c5.8-25.7,8.8-51.6,8.2-78
	c-0.1-7.3-0.2-14.6-2.5-21.7c-0.7-2.2-2-3.1-4.1-2.4c-7.5,2.4-15.1,4.9-22.6,7.5c-2,0.7-2.7,2.3-2,4.4c0.5,1.5,0.9,2.9,1.5,4.3
	c2.1,4.9,2.4,10,1.9,15.2c-1.5,17-2.8,34-4.2,51c-1.5,18.3-1.8,36.5,0.5,54.7c2.1,17,6.6,33.5,11.1,50
	C417.7,468.9,418.7,472.9,420.5,477.7 M496.6,935.8c0.2,0.5,0.1,1.3,0.5,1.6c9,8.2,18.3,16.2,28,23.5c4.8,3.6,9.7,5.1,16.1,4.4
	c18.8-2,37.5-5.1,56.4-5.3c2.1,0,4.3-0.3,6.4-0.5c2.5-0.2,3.8-1.7,4.1-4.1c1.5-12.4,2.2-24.9,1.1-37.4c-0.2-1.7-1.1-2.7-3-2.8
	c-11.9-1.1-23.7-0.9-35.5,1c-16,2.6-31.5,7-46.9,12c-8.4,2.7-16.8,5.4-25.7,6.5C497.5,935,497.1,935.5,496.6,935.8 M349.7,575.2
	c2.9,1.5,5.4,2.7,7.8,3.9c10.1,5.1,19.5,11.2,28.3,18.3c15.3,12.2,31.5,22.8,50.1,29.5c10.1,3.6,20.3,6.5,31.1,6.9
	c2.4,0.1,4.8,0.5,7.2,1c2,0.4,3.6-0.2,4.9-1.7c8.5-9.6,16-20,22.5-31c1-1.6,0.2-2.8-1.4-3.6c-5-2.4-10.3-3.6-15.8-4.2
	c-10-1.1-20-1.2-30.1-0.8c-8.5,0.3-17,0.6-25.5-0.1c-14.9-1.2-28.5-5.7-41.2-13.6c-7.8-4.8-15.6-9.5-23.5-14c-3.6-2.1-3.9-2-7,1.2
	C354.6,569.4,351.7,571.3,349.7,575.2 M419,878.3c3.4,7.1,6.9,14.2,10.2,21.3c6.1,13,11,26.4,14.7,40.3
	c4.4,16.8,10.1,33.2,18.1,48.8c2.9,5.7,6.1,11.2,10,16.3c7.9,10.5,15.5,21.2,24.4,30.8c1.5,1.5,2.9,3.2,4.4,4.6
	c1.1,1,2.6,1.6,4.2,1.2c5-1.4,10-2.8,14.9-4.3c1.4-0.4,1.5-1.8,0.7-2.9c-0.9-1.2-1.9-2.4-3-3.4c-8.3-7.9-14.3-17.4-19-27.8
	c-6.7-14.7-13.6-29.3-19.9-44.2c-6.6-15.8-15.1-30.6-23.7-45.3c-5.3-9-11.6-17-20-23.4c-5.3-4-10.1-8.6-15.1-13
	C419.7,877.7,419.4,878,419,878.3 M431.9,462c3.1-4.3,5.1-6.9,7-9.6c4.1-6.1,8-12.3,12.1-18.3c1.7-2.5,2.1-5,0.7-7.7
	c-0.7-1.4-1.3-2.8-1.7-4.2c-2.9-8.8-4.6-17.6-3.7-27c1-11.6,3-23,6.3-34.1c1.9-6.4,3.7-12.9,5.9-19.2c4.3-13.1,6.4-26.7,7.8-40.3
	c1-10.2-0.9-20.1-3-29.9c-0.4-1.6-1.7-2.6-3.4-2.4c-6.7,0.9-13.1,2.9-19.4,5.2c-2,0.7-2.5,2.5-2.2,4.5c6,34.9,1,69.2-6.1,103.4
	c-3.9,18.6-5.6,37.4-4.3,56.3C428.4,445.9,429.3,453.1,431.9,462 M230,756.2c4.3,3.2,9.2,4.6,13.9,6.5c1.5,0.6,3.1,0.1,4.3-1
	c5.8-5,12.8-8.2,19.2-12.3c9.8-6.4,17.8-14.8,25.5-23.4c14.2-15.9,27.8-32.2,40.8-49.2c10.2-13.4,22.9-24.4,35.5-35.4
	c1.1-1,2.7-1.5,3-3.4c-0.1-1.8-1.7-1.2-2.7-1.3c-6.1-0.4-12.2-0.5-18.2-0.9c-4.1-0.2-7.7,0.8-11.2,2.9
	c-11.4,6.7-21.3,14.9-29.8,25.1c-11.2,13.3-21.1,27.6-30.1,42.4c-4.5,7.3-9.1,14.4-13.4,21.8c-6.6,11.3-16.1,18.8-28.1,23.7
	C235.7,752.9,232.6,753.5,230,756.2 M437.3,463.9c9.3,2.2,17.4,1.8,25.5-0.5c4.1-1.2,8.2-2.5,12.2-3.8c11.6-3.7,23.6-6,35.7-7.6
	c10.1-1.3,19.6-4.5,28.5-9.2c10.5-5.5,20.6-11.9,32-15.5c2.1-0.6,2.8-2.4,2.7-4.2c-0.1-6.1-0.2-12.2-0.5-18.2
	c-0.2-3.2-1.4-4-4.9-3.6c-7.9,0.9-15.5,3.2-22.8,6.4c-7.3,3.2-14.2,7-20.6,11.7c-8.6,6.4-18.3,9.3-28.8,10.4
	c-11.5,1.2-23,2.9-34.6,2c-1.9-0.1-3.6,0.4-4.7,2.2C450.6,443.5,444.3,453.2,437.3,463.9 M495,478.7c9.6-3.8,20.5-4.4,31.6-3.8
	c10.6,0.6,21.3,1.6,32,1.1c1.2,0,2.4,0.1,3.7,0.1c2.8,0,4.7-1.3,5.3-4.1c1.3-5.6,2.7-11.3,3.7-17c1.1-6.6,1.7-13.3,2.3-20
	c0.3-3.2-0.9-4.2-3.6-3.2c-3.7,1.4-7.4,2.8-11,4.6c-7.9,4-15.7,8.1-23.5,12.2c-6.3,3.3-13,5.4-20,6.3c-17,2.2-33.6,5.8-49.9,11.2
	c-8.6,2.9-17.4,3.2-26.2,1.8c-3.4-0.5-5.9,0.1-7.7,3.2c-1.6,2.6-3.5,5-5.2,7.5c-1.4,2.1-0.8,3.6,1.6,3.8c16.4,1.4,32.7,3.4,49.2,0.4
	C483,482,488.6,480.5,495,478.7 M192.4,759.5c0.9,10.8,1.3,21.1,2.6,31.4c1.7,13.6,4.1,27.1,6.3,40.6c1.8,11.4,3.6,22.8,5.2,34.3
	c3.3,23.6,11.2,45.4,26,64.5c4.1,5.2,9.4,8.5,14.9,11.9c0.4,0.3,1.2,0.3,1.7,0.1c1.1-0.5,0.7-1.5,0.4-2.3
	c-5.7-13.8-10.4-28-14.8-42.3c-2.4-7.6-3.9-15.3-5.1-23.2c-2.2-15.1-3.5-30.3-6.5-45.2c-3.5-17.6-8.1-35-17.2-50.8
	c-3-5.3-5.5-10.9-9.2-15.7C195.7,761.6,194.9,760.3,192.4,759.5 M471.1,1202.8c0.3-9.2-0.6-17-1.7-24.8c-0.4-2.7-2-4.2-4.2-5.6
	c-12.7-8.5-26.8-13-41.8-15.2c-19.2-2.8-38.3-1.9-57.4,0.5c-7.6,0.9-15.1,1.4-22.8,0.4c-1.2-0.2-2.4,0.1-3.6,0.1
	c2.4,7.5,7.2,13.7,13.2,16.2c7.3,3.2,14.9,5.5,22.9,6.2c10.9,0.9,21.9,1.6,32.8,2.7c18.1,1.7,35.3,6.7,51.9,14
	C463.5,1198.8,466.7,1200.6,471.1,1202.8 M263.8,1020.8c0.4,7.6,1,14.5,7.1,19.8c13.8,12,29.5,19.1,47.9,20.4
	c21.4,1.5,42.7,0.9,63.6-4.5c16.9-4.4,32.9-11.1,48.8-17.5c0.2-2.6-1.5-2.9-2.8-3.4c-5.5-1.9-10.8-4.3-16.5-5.6
	c-5.4-1.2-10.8,1.5-16.1,2.4c-13.5,2.4-27.3,3-40.9,4.6c-11.5,1.3-23,3.1-34.6,3.2c-9.2,0.1-18.3-0.3-27.3-2.2
	c-8.7-1.7-16.1-5.5-22.2-11.8C268.9,1024.2,267.3,1021.9,263.8,1020.8 M557.9,368.7c-5.4,1.5-10.2,4.1-15,6.7
	c-10.4,5.8-21.1,11-31.9,15.8c-8.8,3.9-17.7,6.5-27.5,5.3c-2.2-0.3-4.1,0.1-5.5,2.3c-5.1,8.7-10.3,17.3-15.5,26
	c-1.2,2.1-0.4,3.5,2.1,3.5c5.2,0,10.4-0.1,15.5-0.5c5.8-0.4,11.5-1.3,17.3-1.9c9-0.9,17.2-3.7,24.6-9c9.2-6.6,19.1-12,29.9-15.5
	c5.5-1.8,11.1-3.3,16.9-3.9c2.1-0.2,3.6-1,3.4-3.3c-0.6-8.2-1.4-16.4-3.2-24.4c-0.5-2.1-2-2.9-4.1-2.5
	C562.6,367.6,560.3,368.2,557.9,368.7 M292.9,972.5c-3.9-8.4-7.1-15.2-10.3-22c-4.1-8.9-6.6-18.4-8.5-27.9
	c-3.9-19.4-5.3-39.2-7.1-58.9c-0.9-10.3-1.9-20.6-4.1-30.8c-3.4-15.1-9.5-28.9-17.9-41.8c-6.8-10.5-14.1-20.6-22.6-29.8
	c-3.9-4.3-8.7-5.9-14.3-6.2c-0.3,3.5,2.1,4.8,3.8,6.4c13.3,12.6,22.4,27.9,29.2,44.8c3.3,8.3,4.1,17.2,5.4,25.9
	c2.1,13.5,3.6,27.2,5.4,40.8c0.7,5.1,1.9,10.2,2.9,15.3c3.7,19.5,7.4,38.9,11,58.4c1.1,5.7,3.5,10.2,8.5,13.4
	C280.1,963.7,285.5,968.1,292.9,972.5 M213.6,1162.3c8.1-26.8,24-47.6,40.9-67.6c6.3-7.5,11.6-15.6,17.1-23.6c1.8-2.6,1.9-5,0.6-7.7
	c-2.1-4.7-4.2-9.4-6.2-13.9c-2.4,0.2-2.8,1.8-3.5,3.1c-1,1.9-2,3.8-2.8,5.7c-4.7,11.6-12.7,20.5-22.5,28.2
	c-12,9.4-24.3,18.3-37,26.8c-4.8,3.2-9.5,6.6-12.7,11.6c-1.3,1.9-1.8,3.8-0.4,5.9C194.5,1141.9,202.3,1152.7,213.6,1162.3
	 M183.7,1123.1c5.8-7.4,12.9-12.1,20-16.8c11.7-7.7,22.9-16.2,33.8-25c7.8-6.2,14-13.5,18.1-22.6c1.9-4.2,3.9-8.3,6.2-12.2
	c1.6-2.9,1.8-5.7,0.7-8.7c-1-2.9-1.8-5.8-2.7-8.7c-0.1-0.4-0.8-0.9-1.2-1c-0.5,0-1.2,0.3-1.5,0.7c-0.6,0.7-1,1.6-1.3,2.4
	c-4.6,9.7-11.9,16.9-20.9,22.4c-12.2,7.4-24.5,14.8-36.8,22.2c-5,3-9.9,6.1-14.1,10.1c-2.2,2.1-4.2,4.3-5.8,7
	c-3.9,6.6-6.4,13-0.6,20.2C179.6,1115.8,180.7,1119.5,183.7,1123.1 M310,1117.8c1.5,4.2,4.6,7.6,7.1,11.3c1.3,1.9,3.3,2.7,5.5,2.8
	c4.9,0.3,9.7,0.8,14.6,0.7c22.2-0.6,44.4-1.4,66.6-2c7.3-0.2,14.6-0.2,21.9-0.1c11,0.1,21.9,1.2,32.3,5.3c2.2,0.9,3.7-0.4,3.3-2.7
	c-1-6.6-2.4-13.2-4.4-19.6c-1.2-4-3.4-5.9-7.7-6.2c-11-0.8-21.9-1.1-32.8,0.7c-16.8,2.8-33.6,5.7-50.4,8.8
	c-9.3,1.7-18.6,2.9-28.1,3.6c-7.7,0.6-15.2,0-22.6-2.2C313.8,1117.5,312.1,1116.2,310,1117.8 M322.6,1135.9
	c2.9,6.5,6.9,10.7,10.1,15.4c1,1.5,2.6,2.4,4.6,2.6c7.6,0.8,15.1,1.8,22.7,0.7c12.1-1.7,24.2-2.8,36.4-2.9c18-0.1,35.8,1.7,52.9,8.2
	c5.5,2.1,10.4,5,15.5,7.8c1.1,0.6,2.6-0.4,2.4-1.6c-1.3-7.2-2.7-14.3-4.1-21.5c-0.4-2.4-1.9-3.7-4.1-4.4c-7.8-2.8-15.5-5.2-23.9-5.6
	c-14-0.7-28-0.4-42,0C370.2,1135.1,347.2,1136.8,322.6,1135.9 M261.7,950.1c0.7-3.4-0.1-6.7-0.7-10c-3.6-18.5-7.4-37.1-10.7-55.7
	c-2.1-12-3.4-24.1-5.2-36.2c-1.7-11.2-3.2-22.3-5.4-33.4c-1.8-9-6-17.3-10.6-25.2c-7.4-12.7-17.2-23.5-27.2-34.2
	c-0.8-0.8-2.1-1.2-3.2-1.6c-0.5-0.2-1.3,0-1.7,0.4c-0.3,0.3-0.5,1.2-0.3,1.6c0.8,1.6,1.8,3.2,2.8,4.7c3.1,4.5,5.8,9.3,8.6,14
	c9.5,16,14.3,33.6,18.2,51.5c2.4,11,3.4,22.3,5.1,33.4c1,6.9,1.7,13.9,3,20.8c3.2,17.1,9.1,33.5,15.2,49.8c1.8,4.9,3.7,9.7,5.7,14.5
	C256.7,948.1,256.8,948,261.7,950.1 M294,1092.7c2.3,4.2,3.5,6.7,4.9,9c5.6,9.3,5.9,9.5,16.7,12.6c6.5,1.9,13,2.6,19.8,2.3
	c16.5-0.7,32.6-4.4,48.8-7.2c13.5-2.4,26.9-5,40.6-6.2c7.3-0.7,14.6-0.2,21.9,0.1c6.6,0.2,6.7,0.2,4.6-6.4
	c-1.2-3.8-2.6-7.5-3.9-11.2c-0.8-2.3-2.5-3.2-4.9-3.3c-8.9-0.2-17.6,0.8-26.2,2.9c-14.8,3.6-29.6,7.1-44.4,11
	c-11.6,3-23.2,5-35.2,5.4C322.6,1101.9,308.8,1100.2,294,1092.7 M455.9,426.3c6.1-10.1,11.2-18.7,16.4-27.3c1-1.7,1.2-3.4,0.6-5.2
	c-0.7-2-1.3-4.1-2-6.1c-3.6-10.4-3.8-21-0.9-31.5c1.3-4.7,2.9-9.3,4.5-13.9c5.2-14.7,9.4-29.6,11.8-45.1c1.4-9.4,1.6-18.8-0.1-28.2
	c-0.7-4-1.5-4.6-5.5-4.1c-3.9,0.5-7.8,1.4-11.6,2.3c-1.3,0.3-2,1.4-1.8,2.7c0.4,3,0.7,6.1,1.3,9c1.9,10,2,19.9,0.8,30
	c-2,17.1-7,33.4-12.1,49.7c-4.2,13.5-6.9,27.2-7.4,41.3C449.5,408.6,451.2,416.8,455.9,426.3 M460.3,914.4c4.9,9,10.2,18,14.7,27.2
	c5.7,11.8,10.7,23.9,16.1,35.8c5.1,11.1,10.2,22.1,15.6,33c4.4,8.8,11.3,15.8,18.5,22.5c1.7,1.6,3.6,2,5.9,1.3
	c5.5-1.7,11.1-3.3,16.6-5.1c2.2-0.7,2.5-2.4,0.5-4.1c-10.4-8.8-17.8-19.8-24.7-31.5c-10.1-17-20.9-33.7-31.3-50.5
	c-3.1-5-6.8-9.3-11.4-13c-6.6-5.4-13.1-10.9-19.6-16.4C461,914,460.7,914.2,460.3,914.4 M155.3,604.2c4.7,10.3,10.8,17.4,17.5,24.1
	c2.4,2.4,5.3,2.8,8.3,3.2c10.9,1.3,21.9,2,32.8,0.2c13.6-2.2,25.2,2,36.3,9.2c1.3,0.8,2.6,1.6,3.7,2.6c2.2,1.8,4.4,1.7,6.7,0.4
	c1.1-0.6,2.2-1,3.3-1.6c1.6-0.8,2.2-2.2,1.7-3.8c-0.7-2-1.6-4-2.7-5.8c-3.8-6.1-8.8-10.9-15.1-14.4c-19.4-10.7-40-16.5-62.3-14
	C175.9,605.7,166.3,605.8,155.3,604.2 M276.2,1072.4c-3,1.5-4,4.2-5.4,6.5c-3.6,6-7.8,11.6-12.3,17c-8.1,9.5-15.7,19.4-22.8,29.6
	c-6.1,8.8-10.9,18.3-15,28.1c-1.3,3.1-2,6.4-2.8,9.6c-0.4,1.5-0.1,3.1,1.1,4.2c4,3.3,8,6.5,12.1,9.6c1.2,0.9,2.4,0.1,2.9-1.1
	c10.8-24.8,26.7-46.2,43.6-67.1c3.1-3.8,6-7.7,7.9-12.2c1.3-3,1.6-5.7-0.2-8.7C282.1,1082.9,280,1077.1,276.2,1072.4 M258.2,1196.3
	c3.6-15,11.5-26.6,19.3-38.1c5.4-8.1,11-16,16.5-24.1c2.9-4.3,4.8-9.1,6.1-14.2c0.9-3.5,0.6-6.5-1.4-9.5c-2.5-3.8-4.8-7.7-7.2-11.6
	c-0.7-1.2-2.4-1.2-3-0.1c-8.7,15.1-21.5,27.2-30.4,42.1c-4.5,7.6-9.5,14.9-14.2,22.3c-2.8,4.4-4.8,9.1-6.4,14.1
	c-0.9,2.7-0.1,4.6,2.2,6.2C245.8,1187.5,251.7,1191.8,258.2,1196.3 M161,1012.3c8.6-2.8,16.7-5.2,25.1-6.9c5.7-1.2,11.3-2.5,17-3.5
	c11.3-2.2,21.3-7.1,30.2-14.3c3.8-3.1,7.5-6.2,11.2-9.4c3.3-2.8,6.5-5.8,10.7-6.8c4.8-1.1,7-4.4,9-8.3c0.7-1.4,1.4-2.8-0.1-4.1
	c-1.6-1.4-3.3-2.9-5.7-1.9c-1.1,0.5-2.1,1.2-3.1,1.9c-7,4.9-14.6,8.7-22.1,12.7c-15.9,8.6-33.2,12-51,12.5
	c-13.1,0.4-25.2,3.9-36.9,9.2c-3,1.3-4.1,3.3-4,6.3c0.1,5.2,0.1,10.3,0.4,15.5c0.3,4.7,0.7,4.9,4.7,3.2
	C151.3,1016.4,156.4,1014.2,161,1012.3 M305.2,1120.6c-0.8,0.6-1.5,0.9-1.7,1.3c-2.9,10.2-9,18.5-14.9,27.1
	c-6.5,9.5-13.7,18.7-19,29c-1.8,3.5-3.5,7.1-5.1,10.7c-1.2,2.5-1.6,5.2-1.5,8c0.1,1.9,0.4,3.7,2,4.9c7.9,6.1,15.9,12.2,23.8,18.3
	c0.2,0.2,0.6,0.1,0.9,0.1c1.1-1.8,1.2-4,1.4-6c1.2-10,3.8-19.7,7.7-29c3.9-9.6,7.8-19.2,11.7-28.7c2.2-5.4,3.6-11,4.4-16.7
	c0.3-2.5,0-4.7-1.5-6.9C310.6,1128.6,308,1124.6,305.2,1120.6 M271.1,1045.8c2.7,10,5.6,17.1,12.7,22.4
	c18.4,13.8,38.7,16.8,60.7,12.7c18.6-3.5,36.7-9,54.9-14c11.5-3.1,22.9-6.6,34.7-8c0.5-0.1,1-0.5,1.8-1c-0.7-4.3-1.4-8.8-2.2-13.2
	c-0.2-1.4-1.4-2-2.7-1.5c-7.1,2.7-14.3,5.2-21.3,8.2c-31.1,13-63.5,16.6-96.8,12.7c-12.4-1.4-23.7-5.4-33.8-12.8
	C277.1,1049.8,275.1,1048.5,271.1,1045.8 M224.7,927.1c-2.9-5.6-5.9-11.3-8.8-16.9c-7.3-13.7-11-28.5-13.1-43.6
	c-1.7-12.1-3.7-24.1-5.5-36.1c-2.6-16.9-6.3-33.6-7.1-50.7c-0.2-4-0.3-7.9-0.5-11.9c-0.1-3,0-6.1-1.8-8.8c-1.5,0.2-2,1.3-2.3,2.5
	c-1.7,6.5-3.2,13-3.5,19.8c-0.4,8.2-1,16.4-1.6,24.6c-0.5,7.3-0.6,14.6,0.2,21.9c1.7,15.1,2.1,30.4,5.5,45.3
	c3.8,16.6,11.4,31.5,21.9,44.8C211.9,923.3,218.3,925.2,224.7,927.1 M279.4,636.7c0.3-0.1,0.6-0.2,0.9-0.2c9.5-2.6,10-3,3.6-11.9
	c-3.4-4.8-7.9-8.4-12.5-12c-14.5-11.2-30.3-19.1-48.7-21.4c-10.9-1.3-21.7-3.3-32.6-4c-15.2-1-29.4-4.7-42.3-12.9
	c-1-0.7-2.1-1.3-3.2-1.7c-0.5-0.2-1.2-0.1-1.7,0.1c-0.7,0.2-0.8,0.8-0.5,1.5c2.7,7.1,5.3,14.2,8,21.4c0.8,2.1,2.5,3.3,4.6,4.1
	c4.4,1.5,8.9,2.2,13.5,2.2c5.8-0.1,11.5-0.5,17.3-1c22.9-2.2,44.1,3.5,63.9,14.6c8.2,4.6,14.3,11.3,18.5,19.7
	c2.2,4.4,2.3,4.4,6.8,3.1c1.5-0.4,2.9-0.9,4.4-1.3V636.7 M334,636.9c-3.8-1.6-7.7-0.7-11.4-0.8c-5.2-0.1-10.3,0.3-15.5,0.4
	c-4.6,0.1-8.2,1.8-10.7,5.9c-2.2,3.7-4.7,7.2-6.5,11c-8.7,18.8-19.6,36.4-29.9,54.4c-9.4,16.7-22.8,29.1-40.1,37.3
	c-1.9,0.9-3.8,1.9-5.7,2.9c-0.5,0.3-0.8,0.9-1.2,1.3c4.8,3.6,5.6,4.1,11,3.1c14.5-2.7,27.2-9.1,35.9-21.4
	c5.8-8.2,10.9-16.9,16.1-25.5c9.7-15.9,20.1-31.2,32.4-45.2c6.5-7.4,13.3-14.2,21.6-19.5C331.5,639.8,333.1,638.9,334,636.9
	 M148.3,1046.1c13.2-6.3,27.7-8.9,41.3-14.1c11.9-4.6,23.4-10.3,34.6-16.5c5.2-2.8,9.4-6.7,13-11.3c5.4-7,10.5-14.2,17.6-19.6
	c0.9-0.7,1.6-1.9,2-2.9c1.5-3.2,1.5-6.4,0.3-6.6c-2.3-0.4-4.1,1-5.7,2.2c-2.6,2-5.1,4.3-7.7,6.4c-3.3,2.7-6.5,5.5-9.9,8.1
	c-7.8,6.1-16.4,10.5-26.1,12.7c-6.5,1.4-13,3.1-19.6,4.3c-13.2,2.5-25.9,6.8-38.2,12.2c-1.6,0.7-3.2,1.8-4.7,2.8
	c-1.4,0.9-2.1,2.1-2.2,3.8C142.7,1031.5,145.2,1040.6,148.3,1046.1 M481.9,392.2c8.8,2.4,16.1,0.4,23.2-2.5
	c8.1-3.4,16.1-7.4,24.1-11.1c2.2-1,4.4-2.1,6.5-3.4c8.9-5.4,18.3-9.7,28.6-11.9c3.7-0.8,3.9-1.4,3.3-5.2c-1.1-6.3-2.2-12.6-3.5-18.9
	c-0.4-1.8-1.9-2.6-3.5-2c-4,1.4-8,2.9-11.9,4.7c-2.8,1.3-5.3,3-7.9,4.7c-11.1,7-23.2,10.9-36.3,10.5c-4-0.1-6.1,1-7.7,4.6
	C492.2,371.7,487.2,381.4,481.9,392.2 M472.7,638.6c-1.9-0.4-3.4-0.8-4.9-0.9c-20.6-0.9-39.3-8.2-56.9-18.4
	c-11.1-6.4-21.6-13.7-31.5-22c-8.7-7.3-18.7-12.6-28.9-17.5c-4.4-2.1-5.1-1.8-8.6,2.1c-1,1.1-2,2.3-3,3.5c-0.6,0.7-1,1.5-1.5,2.3
	c0.9,2.2,3,1.7,4.6,2.1c5.5,1.3,10.2,4.2,14.5,7.5c9.9,7.7,19.9,15.1,29.2,23.5c5,4.5,10.2,8.7,15.3,13c2.6,2.2,5.5,3.7,8.9,4.5
	c13.9,3.6,27.6,7.9,40.9,13.2c3.5,1.4,6.5,1.3,9.5-0.8C465,647.4,470,644.4,472.7,638.6 M443.7,1077.2c-0.4-4.1-2.3-7.8-4.1-11.7
	c-0.9-1.9-2.6-2.5-4.5-2.5c-4.6,0-9.1,0.8-13.5,2c-19.1,5.2-38.2,10.4-57.3,15.4c-8.2,2.1-16.6,4.1-25,5.2
	c-18.6,2.4-36.4,0-52.4-10.9c-0.9-0.6-1.9-1.3-3.1-0.8c2.3,9.1,8.8,14.2,16.8,17.8c5.3,2.4,10.9,3.9,16.6,4.8
	c17.1,2.6,34,0.8,50.7-3.2c13.9-3.4,27.8-6.8,41.6-10.3c9.8-2.5,19.6-4.4,29.7-4.5C440.5,1078.4,442.1,1078.7,443.7,1077.2
	 M515.9,263.9c-8.6-1.4-17.3-1.4-25.7,0.3c-1,1.9-0.4,3.3-0.2,4.8c1.6,10.3,1.4,20.6-0.3,30.9c-2.5,15.4-6.8,30.3-12.1,44.9
	c-2.5,6.9-4.7,13.8-5.5,21.2c-0.9,7.7,0,15.2,2.9,22.4c0.5,1.2,2.3,1.4,2.9,0.2c5-9.8,9.9-19.6,14.8-29.4c0.9-1.7,0.4-3.6-0.1-5.3
	c-1.7-6.1-1-12.1,0.3-18.1c1.5-6.9,3.5-13.6,6.1-20.1c3.8-9.6,7.8-19.2,11.6-28.8c1.8-4.5,3.4-9.1,4.8-13.8
	C516.2,270.2,517.3,267.3,515.9,263.9 M142.5,989c2.3,1.1,3.9-0.1,5.5-0.8c11-5,22.4-7.4,34.5-7.8c11-0.3,21.9-1.7,32.4-5.2
	c13.6-4.6,26.3-11.2,38.3-19.1c2.4-1.5,2.2-3-0.4-4.7c-0.8-0.5-1.6-0.9-2.3-1.5c-2.9-2.4-5.8-2.3-9.2-0.6c-10,4.9-20.8,6.9-31.8,7.7
	c-4.5,0.3-9.1,0.4-13.7,0.5c-7.1,0.2-13.9,1.7-20.6,3.7c-6.7,2-13.4,3.9-20.1,6c-2.3,0.7-4.6,1.6-6.7,2.7c-2,1-3.3,2.7-3.8,4.9
	C143.4,979.6,142.2,984.3,142.5,989 M255.2,1005.3c-3.4,1.3-4.3,4-5.5,6.4c-5.5,10.7-14,18-24.4,23.7c-13.1,7.2-25.8,14.9-38.5,22.6
	c-8.2,4.9-15,11.3-20.6,19.1c-2.6,3.6-3.3,7-1.1,10.9c1.8,3.1,3.3,6.3,5.2,9.8c1-1,1.9-1.5,2.2-2.2c3.9-9.1,11-15.2,19.1-20.2
	c11.4-7,22.9-13.9,34.3-20.8c2.6-1.6,5.2-3.2,7.8-4.7c11-6.4,17.9-16.3,22.5-27.8C258.3,1016.4,256.9,1010.9,255.2,1005.3
	 M261.1,1002.9c-1,5.6,1.1,10.1,5.2,13.7c0.5,0.4,0.9,0.9,1.3,1.3c13,13.4,19.6,16.7,38.3,18.1c10.3,0.8,20.7,0.3,31-0.8
	c13.6-1.5,27.2-2.8,40.8-4.3c7.5-0.8,15-1.2,21.9-3.8c0.4-1.2,0.1-1.7-0.5-1.9c-7.2-2.4-14.4-4.8-21.6-7.3c-2.7-1-5.4-0.7-8.1-0.4
	c-13.3,1.6-26.6,2.5-39.9,4.1c-23.8,2.9-45.9-2.7-65.2-17.7C263.4,1003.3,262.4,1002.7,261.1,1002.9 M501.7,352.1
	c1.1,1.2,2.2,1.6,3.5,1.6c10.3,0,19.9-2.5,28.8-7.5c8.5-4.8,16.6-10.2,26-13c2.1-0.6,2.8-2.2,2.4-4.3c-1.6-7.4-3.3-14.8-5.1-22.2
	c-0.5-2-1.8-3.1-4-2.7c-5.7,1.1-11.4,1.9-17,3.4c-8.8,2.3-16.1,6.6-20.1,15.5c-3.8,8.6-8.6,16.8-12.9,25.2
	C502.7,349.5,502.2,350.9,501.7,352.1 M354.4,1270c1.9-14.5,6.2-27.7,10-41.2c0.3-1.2,0.7-2.3,0.9-3.5c1-4.8,1.6-9.6,1.5-14.5
	c0-3.5-0.8-6.5-3-9.3c-4.5-5.6-8.4-11.8-13.6-17c-0.4,0.9-0.8,1.4-0.8,2c-0.7,14.7-6.5,27.7-13.5,40.3c-3.1,5.6-5.3,11.6-6.2,18
	c-0.6,4.1,0.6,6.9,4,9.4c5.9,4.3,11.5,9,17.2,13.6C351.8,1268.5,352.8,1269,354.4,1270 M196.1,908.9c-3.1-6.9-6.2-13.8-9.3-20.6
	c-3.9-8.4-5.5-17.4-6.7-26.5c-1.5-11.5-2.2-23-3.4-34.5c-0.7-7-0.6-14-0.1-21c0.6-8.5,1.3-17,1.7-25.5c0.4-7.4,2.3-14.4,4.1-21.5
	c0.4-1.4,0.7-2.8,1-4.1c-1.8-1.4-2.5,0-3.2,0.9c-8.9,11.3-13.8,24.4-16,38.4c-4.4,28.2-2.2,55.9,8.4,82.6
	c4.3,10.8,9.9,20.9,18.7,28.9C192.6,907.3,193.8,908.8,196.1,908.9 M159.9,1076.9c2.9-0.8,3.6-2.6,4.6-4
	c5.6-7.4,12.4-13.4,20.3-18.1c12.8-7.7,25.5-15.4,38.6-22.6c9.9-5.4,17.9-12.4,23.3-22.4c1.7-3.2,3.9-6.2,6.3-9
	c1.9-2.3,2.8-4.7,2.5-7.5c-0.1-0.8-0.4-1.8-1-2.3c-0.8-0.7-1.7,0-2.3,0.7c-3,3.5-6.2,6.7-8.8,10.5c-6.3,9.4-14.8,15.8-24.9,20.8
	c-15.1,7.4-30.2,14.4-46.5,18.6c-6.8,1.8-13.4,4.1-19.7,7.1c-3.3,1.6-3.9,2.5-2.7,5.7C152.2,1062,155.4,1069.6,159.9,1076.9
	 M375.4,1208.3c3.2,4.4,6.2,8.5,9.3,12.5c1.3,1.7,2.8,3.2,4.3,4.7c4.8,4.4,10.7,6.9,16.9,8.7c13.2,3.7,25.9,8.8,38.3,14.5
	c6.4,2.9,12.4,6.3,17.7,11.1c2.8,2.6,3.5,2.2,4.3-1.9c0.5-3,1-6,1.4-9c1.1-8.3,2.3-6.1-5-11.8c-3.1-2.5-6.6-4.3-10.2-6
	c-12.4-5.9-25.1-10.6-38.7-13.4c-12.2-2.5-24.3-5.4-36.1-9.5C377.3,1207.8,376.7,1208.1,375.4,1208.3 M318.6,1142
	c-3.7,16.2-11,30.9-17,46.2c-4.2,10.6-6.2,21.6-7.4,32.8c-0.2,2,0,3.6,1.7,4.8c2.9,2.1,5.8,4.3,9.1,6.7c0.7-1.6,1.4-2.7,1.6-3.8
	c1.4-8.9,5.3-16.8,9.5-24.6c3.9-7.3,7.7-14.5,10.6-22.3c1-2.9,2-5.8,2.9-8.7c2.7-9,2.7-17.4-4.5-24.6
	C322.8,1146.6,322.1,1143.2,318.6,1142 M393.7,633c-4.9-4.4-9-8.5-13.5-12.1c-9-7.3-18-14.6-27.2-21.6c-4.9-3.7-10.2-6.7-16.7-6.5
	c-2.3,0.1-4.1,0.6-5.6,2.3c-4.5,5.3-8.9,10.6-13.3,15.8c0.5,0.8,0.5,1.2,0.8,1.3c11.6,4.6,22.3,11.2,33.2,17.1
	c2.2,1.2,4.4,1.8,6.9,1.9c11,0.5,21.9,1.3,32.8,2.8C391.6,634.2,392.1,633.7,393.7,633 M292.4,639.1c-3.9-0.8-6.3,1.7-8.6,4
	c-8.4,8.4-16.9,16.8-23,27c-4.7,7.8-9.2,15.8-13.5,23.8c-6.2,11.5-12.8,22.8-20.5,33.4c-5.2,7.1-10.8,13.9-18.4,18.6
	c19-7.1,35.2-17.9,45.8-35.6c10.5-17.5,21-34.9,29.9-53.4c2.2-4.6,4.8-9.1,7.2-13.7C291.9,642,293.1,640.8,292.4,639.1 M275.4,644.5
	c-0.8-0.9-1.6-0.6-2.5-0.3c-14.6,5-26.1,13.6-34,27.2c-7.4,12.6-14.1,25.5-19.7,39c-4.6,11-11.1,21-18,30.6c-0.7,1-1.3,2-2.4,3.8
	c8.5-2.5,14.8-6.8,19.8-13c9.6-11.9,17.5-24.8,24.7-38.3c2.4-4.6,4.8-9.2,7.3-13.7c6.1-10.9,12.9-21.3,21.8-30.2
	c1.3-1.3,2.2-2.8,3.3-4.3C275.7,645.1,275.4,644.7,275.4,644.5 M573,1018c-0.4-0.7-0.5-1.4-0.9-1.8c-13.1-12-23.9-26-35.4-39.3
	c-3.2-3.7-6.8-6.8-10.8-9.7c-7-4.9-13.5-10.4-20.3-15.6c-1.4-1.1-2.5-2.7-4.5-2.8c-0.5,1.7,0.7,2.8,1.5,4
	c9.8,15.8,19.7,31.5,29.3,47.3c5,8.2,11.3,15.1,18.1,21.6c4,3.8,7.9,5,13,2.2C566.4,1022,570.4,1021.1,573,1018 M148.2,964.9
	c7.4-1.6,14.2-3,20.8-5.5c10.9-4.1,22.2-5.9,33.9-5.9c10.1,0,20-1.2,29.7-4.4c1.7-0.6,3.5-1,5.1-1.8c1-0.5,2.2-1.3,2.6-2.3
	c0.5-1.3-0.9-1.9-1.9-2.7c-3.5-2.8-7.2-4-11.9-2.8c-5.4,1.3-10.9,0.7-16.3,0.2c-15.2-1.4-30.3-2.2-45.5-0.4
	c-9.7,1.1-8.7,0.1-12.3,9.3c-1.8,4.5-3.2,9.2-4.6,13.8C147.7,962.9,148,963.5,148.2,964.9 M335.1,1164.6c-1.2,4.9-2.1,9.6-3.6,14.2
	c-2.6,8.4-6.5,16.4-10.6,24.2c-2.4,4.6-4.7,9.2-6.9,13.9c-2,4.1-2.9,8.6-3.9,13.1c-0.8,4-0.3,7.2,3.5,9.4c0.5,0.3,1,0.7,1.5,1.1
	c3,2.1,6,4.1,9,6.1c3.5-2.4,2-6.6,3.6-9.7c1.9-3.8,3.3-7.8,5.1-11.7c2.3-5,4.9-9.8,7.2-14.7c3.9-8.4,5.7-17.2,5.9-26.5
	c0.1-4.2-0.5-7.8-3.4-10.9C340,1170.3,338.8,1166.7,335.1,1164.6 M363.6,1013.6c-10-4-18.6-7.9-27.6-10.7c-4.2-1.3-9.1-1-13.6-0.9
	c-7.7,0.3-15.2-0.4-22.8-1.5c-12.6-1.8-24.2-6-34.5-13.5c-0.7-0.5-1.6-0.9-2.4-1.3c-0.2-0.1-0.6-0.1-1-0.2
	c-2.5,5.7-1.6,10.6,3.5,14.5c2.9,2.2,5.7,4.7,8.8,6.5c17.8,10.1,36.9,14.2,57.2,11.4c9.7-1.3,19.3-3,29.1-2.9
	C360.8,1015,361.4,1014.6,363.6,1013.6 M541.1,968.9c0.5,1.3,0.5,1.7,0.7,1.8c13.8,9,27.5,18.3,43.2,23.7c10.2,3.5,9.2,3.3,14-5.6
	c3.6-6.8,5.5-14.2,7.1-21.7c0.5-2.6-0.2-3.7-2.6-3.5c-11,0.6-21.9,0.6-32.8,2.2c-8.1,1.2-16.4,1.6-24.6,2.4
	C544.5,968.4,543,968.7,541.1,968.9 M371.8,1212.6c-0.5,0.7-1,1.1-1,1.6c-1.1,12.5-5.5,24.3-8.6,36.3c-1.3,5-2.2,10.1-3.2,15.2
	c-1,5.6,0.4,10.1,5.3,13.5c3.5,2.4,6.5,5.4,9.6,8.1c1.7-0.7,2-1.8,2-3.1c0-6.2,1.8-12,4-17.7s4.1-11.4,5.9-17.2
	c0.9-2.9,1.6-5.9,1.8-8.9c0.3-3.7-0.1-7.3-2.4-10.5C381,1224,376.9,1218,371.8,1212.6 M396.1,1235.1c5.5,10.9,11.2,20,21.9,24.8
	c8.1,3.6,15.7,8.2,23.1,12.9c5.4,3.4,10.8,6.9,15.2,11.6c0.9,0.9,1.9,1.5,3.3,1.6c2.1-4.7,3-9.8,4.2-14.8c0.5-1.9-0.1-3.5-1.4-5
	c-4.1-5-9.2-8.8-15-11.7c-12.9-6.4-26.2-11.6-39.8-15.9C404.2,1237.4,400.7,1236.4,396.1,1235.1 M183.3,636.5
	c6.8,7.8,15.2,13.2,24.4,17.2c4.7,2,9.6,3.7,14.5,5.5c3.4,1.2,7,3.7,10.2,3.2c3.2-0.4,6.1-3.7,9-5.8c3.7-2.6,7.3-5.3,10.6-7.8
	c0.5-2.5-1.1-3.2-2.3-4c-5.3-3.7-11-6.5-17.1-8.5c-3.5-1.1-7.1-1.8-10.8-1.5C209.2,636.1,196.5,637.3,183.3,636.5 M394.8,1306.4
	c0.8-0.7,1.2-0.9,1.1-1.2c-0.2-11.4,3.4-22.1,6.1-32.9c3.9-15.1,2.9-13-3.8-23.6c-1.6-2.6-2.3-6.3-6.1-7.2c-2,2.5-1.7,5.7-2.6,8.5
	c-2.2,6.3-4.2,12.7-6.5,18.9c-2.1,5.7-3.5,11.5-3.3,17.7c0.1,4.2,1,7.7,4.5,10.4C387.9,1300.1,390.9,1303.9,394.8,1306.4 M496.7,349
	c0.4-0.4,1-0.7,1.2-1.2c6.2-11.9,12.5-23.7,18.6-35.6c0.8-1.6,1.6-3.4,1.6-5.2c0.3-11.8,4.5-22.6,8-33.6c0.4-1.2,0.8-2.3,1.2-3.5
	c0.8-2.8-0.5-4.4-3.7-4.8c-1.3-0.2-2.4,0.3-2.9,1.6c-0.3,0.8-0.4,1.8-0.6,2.6c-1.5,6.9-3.8,13.5-6.5,20c-3.9,9.6-7.8,19.2-11.6,28.8
	c-2.9,7.4-5.1,15-6.5,22.8c-0.4,2.4-0.8,4.8-0.2,7.2C495.4,348.6,496.2,348.8,496.7,349 M408.5,1266.1c-0.7,1-1.4,1.7-1.6,2.4
	c-2.1,8.2-4.3,16.5-6.2,24.8c-1,4.2-0.7,8.4-0.3,12.7c0.4,4.7,2.7,8,7.1,9.7c0.9,0.3,1.7,0.8,2.5,1.1c4.6,1.5,6.8,2.8,7-4.8
	c0.1-5.8,1.3-11.5,2.1-17.2c0.7-4.7,0-9.1-2.2-13.3c-2-3.8-3.8-7.6-5.8-11.4C410.4,1268.9,409.5,1267.7,408.5,1266.1 M235.2,669.5
	c-0.9,0-1.6-0.2-2,0c-9.6,7.5-18.3,16-23.9,27.1c-7.2,14.5-12.4,29.7-17.3,45c-0.1,0.4,0.2,1,0.3,1.9c3.7-1.4,6-4.2,7.9-7.2
	c5.6-8.7,11.2-17.3,15.3-26.9c5.3-12.6,10.7-25.2,18.3-36.6C234.5,671.8,234.7,670.6,235.2,669.5 M323,996.8
	c-8.1-4.7-15.4-9-22.7-13.3c-1.9-1.2-4.1-1.1-6.2-1.2c-9.5-0.5-18.7-2.3-27.3-6.6c-1-0.5-2.2-1.1-3.2,0.2c-0.9,1.3-1.3,2.9-0.5,4.3
	c0.7,1.3,1.9,2.3,3.1,3.3c7.5,6,16.2,9.6,25.5,11.8c8.6,2.1,17.4,3,26.2,3.2C319.4,998.5,320.9,998.4,323,996.8 M578.1,1014.9
	c4.8-3.5,9.2-7.4,12-13.2c-4.3-1.7-8.2-3.2-12.1-4.8c-3.9-1.7-7.8-3.4-11.6-5.3c-3.5-1.8-6.8-3.9-10.2-5.9
	c-3.5-2.1-6.9-4.4-11.7-6.7C552.6,991.6,569.6,1009.7,578.1,1014.9 M226.3,936.1c-7.2-6.2-14.2-7.6-21.6-7.9
	c-7.3-0.3-14.6-0.5-21.9-0.6c-5.5-0.1-11-0.1-16.2-2c-2.1-0.7-3.6-0.1-4.5,1.8c-1.1,2.4-3,4.6-2.6,8.1c10.9,0,21.7-1.7,32.5-1.1
	C202.8,935.1,213.6,937.2,226.3,936.1 M543,277.2c-10.3,7.4-13,18.8-18,29.6c3.9,0.2,6.2-2.2,9-2.7c2.7-0.4,5.4-1,8-1.5
	c3-0.6,6-1.2,8.9-2c3-0.8,3.7-2,2.8-4.5C551.4,289.2,548.5,282.6,543,277.2 M205.4,924c-5.1-4.1-8.7-6.8-12.2-9.7
	c-1.7-1.4-3.7-2-5.8-2.2c-2.4-0.2-4.9-0.4-7.2-0.8c-7.5-1.3-7.5-1.3-11.6,4.8c-0.3,0.5-0.7,1-1,1.5c-1.6,2.8-1.3,3.9,1.6,4.7
	c1.8,0.5,3.6,1,5.3,1.1c8.2,0.4,16.4,0.8,24.6,1.1C200.5,924.6,202,924.3,205.4,924 M344.9,630.3c-9.9-5.5-17.6-11-26.8-13.7
	c-4.3-1.3-7.4,0.4-9.1,4.9c-0.3,0.8,0.1,1.7,1.1,2.1c2.6,0.9,5.2,1.7,7.6,3C329,632.1,329,632.1,344.9,630.3 M429.6,1292.7
	c-1.4,2.1-0.3,3.4,0.2,4.7c1.8,4.8,3.8,9.6,5.5,14.4c1.9,5.4,2.9,5.4,7.5,1.8c1.4-1.1,2.8-2.4,3.9-3.7c1.1-1.3,1.1-2.8-0.1-4.1
	c-1-1.1-2-2.3-3.1-3.3C439,1299,434.4,1295.8,429.6,1292.7 M431.3,1317.8c-0.8-5.7-3.1-11-5-16.4c-0.5-1.4-1-3.5-2.6-3.4
	c-2.5,0.1-1.9,2.7-2,4.2c-0.5,4.5-0.8,9.1-1,13.6c-0.1,2.2,1.1,3.5,3.4,3.4C426.4,1319.1,429,1319.6,431.3,1317.8 M314.3,631.2
	c0.3-0.5,0.7-0.8,0.9-1.3c0.1-0.2-0.2-0.6-0.4-0.8c-3.2-2-6.6-3.1-10.3-1.5c-0.7,0.3-1.2,1.3-1.5,2c-0.6,1.3,0.7,1.4,1.5,1.6
	C307.7,632.4,311,631.2,314.3,631.2 M183.1,908.3c0.6-0.7,1-1,1.3-1.5c0.1-0.1-0.1-0.5-0.3-0.8c-1.3-1.9-2.9-2.9-5.2-1.8
	c-0.5,0.2-1.1,0.7-1.2,1.2c-0.1,0.4,0.2,1.3,0.6,1.4C180,907.4,181.6,907.8,183.1,908.3"/>
<path id="XMLID_2540_" class="st0" d="M3454.2,1284.3c-0.6-5.7-3.2-9-5.4-12.5c-4.4-7-9.4-13.7-13.7-20.8c-3-5-7.4-6.2-13.4-4.9
	c-9,2-18.1,4.6-27,5.5c-13.2,1.4-23.5,8.4-32.9,17.5c-8.2,7.9-16.1,16.1-23.9,24.3c-9.5,10-18.7,20.1-28,30.2
	c-16.2,17.4-35.1,32-53.2,47.3c-10.2,8.6-21.6,15.5-33.6,21.2c-23.8,11.3-47.7,22.4-70.9,35.3c-4.4,2.5-9,5.5-14.2,5.6
	c-0.7,0-1.6-0.7-2-1.3c-0.4-0.6-0.5-1.8-0.1-2.3c1.5-1.8,3.1-3.5,5-4.9c10.2-7.7,20.5-15.4,30.9-23s20.4-15.5,29.6-24.6
	c13.8-13.7,27.7-27.3,42-40.5c7.7-7.1,15.4-14.2,22.4-21.9c6.1-6.7,12.1-13.4,18.3-19.8c11.5-12,23.7-23.3,38.2-31.7
	c18.4-10.6,37-18.9,57.6-15.8c2.5,0.4,5.4-0.2,8.1-0.7c9.9-1.9,19.9-3.9,29.8-6c6.5-1.4,7.5-3.1,4-7.5
	c-10.5-13.4-21.1-26.7-31.8-39.9c-5.9-7.2-7.1-7.2-17-2.4c-8.9,4.3-17.5,9.4-26.6,13.2c-7.4,3.1-12.7,7.4-17.2,13.9
	c-12.3,17.9-27.5,33.7-43.7,48.3c-25.1,22.6-52.1,42.8-81,60.4c-16.2,9.8-32.6,19.3-47.9,30.7c-6.5,4.8-13.5,8.8-20.4,12.9
	c-1.4,0.8-3.8,0.7-4.2-1.4c-0.2-1.1,0.1-2.8,0.8-3.6c3.6-3.9,8.2-6.4,12.7-9c21.2-12.4,39.4-28.1,53.6-48c3-4.2,6.1-8.3,9.2-12.5
	c14.6-19.7,29.1-39.3,46.5-56.9c19.1-19.2,40.8-32.8,67.3-34.8c8.9-0.7,17-3.3,25.1-7.1c7.7-3.6,15.3-7.3,22.9-11.1
	c0.8-0.4,1.6-0.9,2.5-1.4c4.1-2.4,4.8-4.4,2.1-7.2c-3.2-3.3-6.4-6.6-10-9.3c-9.8-7.2-20-13.8-29.7-21c-4.3-3.2-8.4-3.2-13.6-0.6
	c-13.1,6.6-26.4,12.6-40,17.4c-4.5,1.6-6.8,4.2-8.9,8.2c-5.8,11.1-11.8,22.1-18,33c-24,42-59.5,72.6-101.2,97
	c-27.4,16.1-56.2,29.1-83.3,45.6c-2.7,1.7-6,2.5-9.1,3.4c-0.6,0.2-1.5-0.6-2.1-1.1c-1.3-1.1-0.4-2.6,0.6-3.4c1.8-1.6,3.7-3.1,5.8-4
	c9.4-4.3,16.1-11.6,22.8-19c7.3-8.1,14.4-16.3,21.2-24.7c8.1-9.9,16.2-19.7,23.6-30c16.1-22.2,33.8-42.8,54.2-61.6
	c18.2-16.8,38.4-29.3,60.4-39.5c3.8-1.8,7.9-3,11.9-3.9c20-4.5,38.7-13.5,57.6-21.8c3.3-1.5,3.8-4.2,1-5.9
	c-10.7-6.7-22.8-11.2-34.1-17c-4.6-2.4-8.9-2.3-14.1-0.4c-7.9,3-15.8,5.7-23.8,8.1c-6.9,2.1-11.4,6.4-14.2,12.6
	c-1.7,3.8-3.4,7.6-4.9,11.4c-4.1,10.6-11.2,19-20.2,26.5c-18.4,15.3-38.3,28.1-59.2,39.2c-25.6,13.5-52.1,23.9-79.2,32.8
	c-7.5,2.5-15,4.9-22.6,7.2c-1.9,0.6-3.8-0.2-3.9-2.1c-0.1-1,1-2.6,2-3.2c4.8-3,10-5,14.7-8.5c25.3-18.7,49.3-38.8,70.3-62.2
	c12.7-14.1,25.8-27.8,41.9-38.4c17.5-11.6,36.1-18.2,56.2-17.8c3.1,0,6.4,0.2,9.4-0.7c9.3-2.8,18.6-6.1,27.9-9.3
	c1.3-0.5,2.6-1.3,2.6-2.8c0-0.7-0.5-1.6-1.1-1.9c-15.5-8.6-31.1-17-46.6-25.6c-3.4-1.9-6.8-1.1-10.4,0.3
	c-13.1,4.9-26.3,9.9-39.4,14.7c-5.1,1.8-8.9,4.8-12,9.3c-11.2,16.5-26.5,28.3-44.6,36.3c-21.6,9.4-42.5,20.3-63.4,31.3
	c-24.1,12.7-49,21.5-75,26.4c-17.2,3.3-34.3,6.5-51.5,9.7c-2.7,0.5-5.4,0.9-8.1,1c-1.8,0.1-3.6-0.4-4-2.4c-0.3-2,1-3.6,2.8-4.1
	c18.9-5.6,36.1-15.7,54.2-23.5c9.5-4.1,18.8-9,27.4-14.9c14.1-9.7,28-19.6,41.8-29.8c20.3-15.1,42-27.8,64.6-38.5
	c15.7-7.5,32-10.9,48-7.6c9.9,2.1,19.2,1.2,29-3.2c3.4-1.5,7.2-2.1,10.5-3.8c5.2-2.5,11.7-2.2,15.5-7.9c-3.8-4-9.1-5.8-13.8-8.5
	c-1.7-1-4.2-0.9-6.3-1.2c-29.7-3.9-58.9-9.2-87.5-16.7c-16.8-4.4-33.2-9.5-48.6-16.9c-14.6-7-30-12.3-45.7-17
	c-16.1-4.8-32.1-10-48-15.4c-16.3-5.5-32.9-10.4-50-13.9c-6-1.2-12-2.4-17.9-3.8c-6.6-1.6-9.4-4-7.6-6.2c3-3.8,6.8-2.4,10.1-2
	c11.8,1.5,23.5,3.4,35.3,4.8c34.6,4.3,69.6,7.1,104.6,9.3c31,1.9,59.9,9.4,86,23.2c24.3,12.8,48.1,26.3,69.8,42.9
	c6.6,5.1,14.3,8.8,21.6,13c0.9,0.5,2.6,0.6,3.7,0.2c1.4-0.6,1.3-2.1,1.3-3.4c-0.4-10.8-0.7-21.7-1.1-32.5c-0.1-3-0.3-6-0.4-9.1
	c0-4.5-1.2-8.3-4.3-11.5c-6-6.2-8.1-14.5-9-23.1c-3.9-34.2-7.2-68.5-8.6-103.1c-1.4-33.4,0.9-67.2,1.5-100.8c0-1.7,0.2-3.6,0.8-5.2
	c0.4-1.1,1.9-2.5,2.8-2.6c1.1-0.1,2.2,1,3.1,1.8c0.6,0.5,0.8,1.5,1,2.3c4.6,19.8,9.8,39.5,13.5,59.6c4,21.8,8.3,43.5,16.7,63.7
	c4.2,10,7.6,20.4,10,31.3c5.9,26.8,1.3,52.7-17.9,77.1c-1.9,2.4-2.9,4.8-2.7,7.4c1,16.4-0.7,33.2,1.5,49.4c0.5,3.8,1.8,6.1,5.1,7.8
	c15.3,8.1,30.5,16.5,45.7,24.7c1,0.5,2.3,0.7,3.7,1.1c2.2-3.2,1.6-6.2,1.5-9.2c-0.6-10.8-0.4-21.7,0.6-32.7c0.5-5.6,1.8-11.3-2.4-16
	c-1.5-1.6-1.2-4.8-1.6-7.4c-2.1-17.9-4.4-35.8-6.2-53.7c-0.8-7.7-1.1-15.5-0.7-23.4c1.1-24.5,3.3-49.1,7.9-73.8
	c3.8-20.2,7.5-40.4,7.9-60.6c0-0.9,0.1-1.8,0.2-2.6c0.2-2.3,0.8-4.7,3.5-5.3c2.8-0.6,3.8,1.3,4.1,3.7c0.4,3.4,0.8,6.8,1.2,10.2
	c1.6,14.1,3.5,28.1,7.3,41.6c5.8,20.3,9.6,41.3,12.9,62.5c2.8,18.3,2.7,37.1-0.5,56.1c-2.9,17.4-9,34-20.6,49
	c-3.3,4.3-4.8,8.7-5.4,13.8c-1.9,16.3-1.6,32.4-1.3,48.5c0.1,4,1.9,6.2,5.1,7.8c13,6.3,25.9,12.7,38.8,19c0.6,0.3,1.7-0.1,3.2-0.2
	c3.6-12.9,6.9-25.9,9.2-39.1c1-5.8,1.5-11.4,0.3-16.9c-1.8-8.4-1.5-17.1-0.9-25.9c0.9-15,3.6-29.9,8.1-44.7
	c4-13.1,6.9-26.2,7.3-39.4c1-37.3,9.3-74.7,12.8-112.1c0.1-1.2,0.7-2.7,1.6-3.7c0.9-1.1,2.5-1.2,3.6-0.5c0.7,0.4,1.3,1.2,1.5,1.9
	c4.8,18,10.6,35.7,14,54c5.4,29.2,5.2,59.2-2.4,89.9c-4.8,19.2-11.1,38.2-18.2,57.1c-3.7,9.9-8.1,19.7-14.7,28.3
	c-4,5.2-5.9,10.2-6.9,16c-1,5.7-2.5,11.4-3.9,17.1c-1.2,4.8-2.3,9.6-3.8,14.4c-2,6.8-0.6,11.2,5.4,15c14.7,9,28.8,18.8,40.9,31
	c2.2,2.2,4.9,1.5,6.2-1.9c4.4-10.6,8.2-21.3,12.8-31.9c3.4-8,4-15.5,2-23.1c-2.9-11.2-3.2-22.9-1.7-34.9c1.3-11,2.7-22,5-33
	c10-47.9,16.4-95.8,22.8-143.7c0.2-1.7,0.8-3.5,1.5-5.1c0.2-0.6,1.5-1.1,2.3-1.1c0.8-0.1,1.8,0.2,2.3,0.8c1.8,2,1,4.9,1,7.4
	c0.4,28.3,1.5,56.4,6.5,83.8c1.9,10.5,3.1,21.2,4.4,31.8c1.4,11.6,0.7,23.5-2.7,35.3c-2.8,10-5.8,20-9.2,29.9
	c-4.3,12.6-10.5,24.5-18.8,35.5c-3.5,4.6-5.8,9.5-7.8,14.6c-5,12.8-9.1,25.8-15.7,38.2c-2.4,4.5-1.3,7.3,1.3,10.5
	c10.2,12.6,20.1,25.3,30.2,38c1.3,1.6,2.6,3.3,4,4.8c1.8,1.9,4.3,1.3,5.3-1.2c5.5-14.1,10.9-28.2,16.5-42.2c1.3-3.3,0.6-6.1-0.4-8.9
	c-3.4-10.2-3.5-21-2.4-32.1c2.5-26.9,8.7-53.5,16.5-80.1c12.3-42.2,28-83.8,37.6-126.3c0.3-1.2,1.1-2.5,2-3.5
	c0.5-0.6,1.7-0.9,2.5-0.8c0.8,0,1.8,0.6,2,1.2c0.4,2,0.7,4.2,0.7,6.3c-0.5,16.2,1,32.1,2.3,48c0.9,10.7,1.7,21.5,1.4,32.4
	c-0.9,32.9-6.2,65.9-14.1,98.8c-5.8,24.3-19.3,45.4-37.9,63.9c-2.1,2.1-4,4-5.1,6.6c-6.3,14.3-11.9,28.8-16.9,43.5
	c-1.3,3.7-0.7,6.8,1.4,9.7c6.4,9.2,12.4,18.7,18.7,27.9c1.1,1.6,1.8,3.9,5.5,2.8c8-11,13.7-23.6,20.5-35.7c1.2-2.1,1.1-4.3,0.6-6.4
	c-3.5-15-0.8-30.3,4.2-45.6c8.9-27.4,20.5-53.8,37.4-78.4c9.9-14.4,19.1-29,24.9-45c9.6-26.6,18.8-53.3,23.5-80.7
	c0.4-2.2,1-4.4,1.7-6.5c0.2-0.7,1.5-1.7,2-1.6c1.2,0.2,2.9,0.7,3.1,1.5c0.5,2,0.5,4.2,0.3,6.4c-1.3,15.4-2.6,30.7-4.1,46.1
	c-2.7,27.7-6.4,55.4-13.4,83c-8.9,35.4-24.9,68.5-46.3,99.8c-5.6,8.2-11.8,16-19.9,22c-4.8,3.6-8,7.9-10.8,12.8
	c-5.5,9.7-10.8,19.6-17,28.9c-4.3,6.5-3.7,11.1-0.3,16.7c7.9,12.7,15.1,25.8,22.2,39.1c15.5,29,30.8,58.2,46,87.3
	c5.6,10.7,10.7,21.7,16.1,32.5c0.9,1.9,1.9,3.8,1,6.1c-0.3,0.8-1,1.6-1.7,2c-1.3,0.9-2.8,0.8-3.4-0.4c-3.3-6.7-6.2-13.7-9.6-20.3
	c-11-21.1-22.3-41.9-33.1-63.1c-13.9-27.1-28.3-53.8-43.6-80.1c-3.6-6.1-4.3-6.5-11.6-4.2c-10.2,3.2-20.3,7.1-30.5,10.1
	c-8,2.4-13.9,6.7-19.3,13.4c-18.5,23.3-38.5,45.4-60.9,65.4c-7.8,6.9-15.8,13.8-24.2,19.8c-29.2,20.9-61.1,36.1-93.8,49.2
	c-3.7,1.5-9.3,4.9-11.2,1.2c-2.7-5.3,4.5-7.1,7.8-9.6c26-19.4,51-39.8,70.3-66c1.7-2.3,3.6-4.3,5.5-6.5c14.1-16,28.5-31.6,45.8-44.6
	c20-14.9,41.2-24.9,65.4-25.8c2.7-0.1,5.4-0.5,8.1-1.3C3427.7,1293,3440.5,1288.7,3454.2,1284.3 M3429,955.3l0.4-0.7l0.1,0.7
	c-0.9,1.3-1.8,2.7-2.6,4c0.5,10-1.8,20.1-3.5,30.1c-3.1,18-6.6,36-10,53.9c-2.7,14-5.4,28.1-6.2,42.1c-0.6,10.5-0.5,20.9,2.9,30.5
	c3,0.8,4.4-1.2,5.4-3.2c3.3-6.1,6.7-12.2,9.4-18.5c5.6-13.1,9.5-26.6,12.8-40.1c2.2-9.2,3.2-18.5,2-27.5
	c-2.8-21.2-5.9-42.4-8.9-63.5c-0.3-2.3-2-3.5-4.4-3.9C3428.9,958.8,3430,957.6,3429,955.3 M3096.8,1324.4c8.1-4.1,13.9-6.9,19.6-9.9
	c20.3-10.9,40.6-21.9,59.8-35.2c33.5-23.3,59.6-52.3,77.7-87.9c2.1-4.1,4.5-8.1,6.7-12.2c1.6-3,5.6-6.7,3.1-9.2
	c-2.4-2.3-6.9,0.4-10.3,1.7c-14,5.5-27.3,12.8-39.5,21.8c-23.8,17.5-45.1,37.7-62.7,61.2c-15.4,20.7-30.8,41.4-48.3,60.7
	C3101,1317.3,3099.7,1319.9,3096.8,1324.4 M3498.6,973.7c-4.2,12.9-8.5,25.8-12.5,38.7c-6.6,21.2-13,42.4-19.3,63.7
	c-7.3,24.4-11.7,48.9-13.6,73.5c-0.6,8.4,0,16.5,2.5,24.2c1,3.2,3.8,3.6,5.9,0.8c11.9-15.9,23.5-32,28-50.8
	c11.8-49.2,19.1-98.2,12.3-146.4c-0.2-1.2-0.7-2.3-1-3.5C3500.1,973.8,3499.4,973.8,3498.6,973.7 M2952.7,1196.8
	c2.1,2.6,4.4,1.6,6.5,1.3c29.6-4.9,58.3-13.2,85.9-27.8c21.7-11.5,43.4-22.8,65.9-32.4c15.4-6.6,28.4-16.9,38.5-30.6
	c1.6-2.2,3.5-4.4,3.2-8c-8.6-2.6-17.8-2.5-27.4-0.8c-10.1,1.8-19.6,5.6-28.9,10.4c-19.4,9.9-38.1,20.9-55.6,34.1
	c-13.3,10-27.1,19.2-40.7,28.8c-10.9,7.7-22.7,13.7-34.7,19.1C2961.2,1192.6,2957.1,1194.7,2952.7,1196.8 M3077,1236.9
	c3.9,1.3,6.4-0.1,9-1c29.1-10.5,57.2-23.3,83.8-40c13.6-8.6,26.2-18.7,38.4-29.3c4.4-3.8,7.6-8.3,9.9-13.5c1.1-2.5,2.2-5,3.3-7.6
	c7.1-16.4,6.3-17.5-11-13.8c-20.9,4.4-39.2,14.7-55.2,29.7c-5.2,4.9-10.1,10-14.9,15.2c-18.4,20.3-37.6,40-59.6,56.7
	C3079.6,1234.1,3078.7,1235.2,3077,1236.9 M2949.5,992c4.6,1.8,6.9,2.9,9.2,3.6c11.8,3.9,23.5,8.2,35.5,11.6
	c22,6.3,43.6,13.5,63.7,23.4c1.5,0.8,3.1,1.3,4.7,2c19.6,8.2,77.6,22.4,99.5,24.4c3,0.3,6,1.4,9.2-0.4c0.3-2.7-1.9-3.3-3.5-4.3
	c-20.9-13.9-42.7-26.6-65.7-37.5c-20.4-9.7-42.6-15.6-66.1-17.6c-26.9-2.4-53.8-4.3-80.8-6.3C2954.5,990.8,2953.6,991.2,2949.5,992
	 M3368.4,1253.6c-10.1-0.5-17.7,2.1-24.9,5.4c-18.1,8.2-34.8,18.8-48.7,33.7c-12.2,13.2-24.3,26.5-37.3,38.9
	c-17.4,16.7-35.2,33.2-52.3,50.2c-7.5,7.5-16.1,13.9-25.7,22.1c3.1-0.8,4.4-0.9,5.5-1.4c16.3-7.2,32.5-14.8,48.2-23.3
	c16.9-9.1,30.6-22.4,44.9-34.8c14.7-12.8,28.5-26.4,41.4-40.9C3334.7,1286.7,3350.8,1270.7,3368.4,1253.6 M3567.4,1037.5
	c-0.6,1.2-0.9,1.6-1,2c-8.2,28.6-22.6,54.8-39.7,80.2c-16,23.8-26.6,49.8-34,76.5c-2.6,9.6-4,19.3-2.8,28.8c0.2,1.7,0.8,3.4,2.5,4.1
	c1.9,0.7,3.6-0.6,4.8-1.9c4.3-5,8.9-9.8,12.7-15.1c21.3-30.2,37-62.4,46.2-96.7c6.5-24,10.2-48.1,12.7-72.3
	C3569,1041.2,3569.6,1039.4,3567.4,1037.5 M3196.9,817.8c-3,3.8-2.3,7.1-2.4,10.2c-1.1,24.5-0.8,48.8,0.6,72.9
	c1.6,28.5,4.4,56.7,7.6,84.8c0.8,6.8,1.8,13.6,5.8,19.1c3.7,5,6.3,5,9.9-0.7c8.8-14.2,14.1-29,13.9-44.7
	c-0.1-10.5-1.7-20.6-4.7-30.3c-2.1-6.8-4.5-13.6-7.1-20.2c-8.6-21.4-14.2-44-17.4-67.3C3202.1,833.6,3200.6,825.8,3196.9,817.8
	 M3282.8,861.7c-3.4,19.6-7,37.1-9,54.6c-1,8.8-1.6,17.5-2.5,26.3c-2.1,20.3-1.1,40.1,2,59.6c1.5,9.2,2.2,18.7,3.3,28.1
	c0.3,2.5,0.6,5.1,1.1,7.6c0.1,0.7,0.9,1.9,1.4,1.8c1.2-0.2,3-0.7,3.6-1.6c2.6-3.8,5.3-7.7,7.4-11.8c5.6-11.2,9.4-22.9,11.1-34.8
	c2.6-17.7,2.9-35.1,0.4-52.1c-3.6-25-8.9-49.4-15.7-73.4C3285.6,865.1,3284.9,864.6,3282.8,861.7 M3245.3,1431.1
	c14.9-3.8,28-11.1,41-18.6c26.4-15.4,50.1-34.3,71.2-56.4c14.1-14.7,27.9-29.6,40.2-45.7c0.8-1,2.2-2.3,0.8-3.4
	c-0.9-0.7-2.3-1.1-3.5-0.9c-14.8,2.1-28.4,8.3-41,17.2c-17.1,12.1-33.1,25.6-46.6,41.6C3288,1387.9,3269.3,1411.6,3245.3,1431.1
	 M3346.4,1073.2c5.6-7.9,9.1-15.9,11.8-24c5.6-16.8,11.7-33.6,16.2-50.6c10.9-41.1,9.2-80.5-2.7-118.3c-0.2-0.7-1.2-1-1.8-1.6
	c-2.5,1.3-2.1,3.7-2.4,5.6c-4,26.4-7.9,52.8-8.9,79.1c-0.5,14.5-3.6,29-8.1,43.3c-5.1,16.2-7.1,32.4-7.8,48.6
	c-0.1,4.3,0.3,8.7,0.6,12.9C3343.5,1069.9,3343.6,1071.7,3346.4,1073.2 M3325.7,1209.8c-16,1.1-29.6,5-42.1,13.4
	c-11.9,8-22.5,17.3-32.2,27.8c-19.3,20.9-34.8,44.4-52,66.7c-0.4,0.5-0.2,1.7,0,2.4c0.3,1,1.1,1.1,2.2,0.4c3.6-2.3,7.1-4.8,10.7-6.9
	c26.9-16.2,50.9-36.3,74.1-57.3C3301.3,1242.9,3317.2,1224,3325.7,1209.8"/>
<path id="XMLID_4888_" class="st0" d="M1214.5,1856.1c16.5-7.7,61.5-232.1-31.2-236.3c-65.9-3-115.5,44.6-143.8,64.6
	c-28.4,20.1-63,38.2-96.5,28.9c-43.1-12-61.4-61.5-75.9-103.8c-16.9-49.2-42.3-102.3-91.2-119.9c-50.1-18-108.2,11.1-136.9,55.9
	c-28.7,44.8-33.2,101.1-28.8,154.1c7.2,84.8,35.7,167.8,82.2,239.1"/>
<image style="overflow:visible;enable-background:new    ;" width="388" height="174" xlink:href="B84E1D7.jpg"  transform="matrix(0.9969 0 0 0.9969 2254.1597 2423.9448)">
</image>
</svg>
