<?xml version="1.0" encoding="utf-8"?>
<!-- Generator: Adobe Illustrator 26.2.0, SVG Export Plug-In . SVG Version: 6.00 Build 0)  -->
<svg version="1.1" id="Design" xmlns="http://www.w3.org/2000/svg" xmlns:xlink="http://www.w3.org/1999/xlink" x="0px" y="0px"
	 viewBox="0 0 3845.5 1920.2" style="enable-background:new 0 0 3845.5 1920.2;" xml:space="preserve">
<style type="text/css">
	.st0{fill:#F9F9F9;stroke:#F9F9F9;stroke-miterlimit:10;}
	.st1{fill:#F3D0A1;}
	.st2{fill:#E3D6CE;}
	.st3{fill:#B38F79;}
	.st4{fill:none;stroke:#E55E32;stroke-width:11.0993;stroke-miterlimit:10;}
</style>
<path id="XMLID_4892_" class="st0" d="M572.1,1389.6c-27-45.8-61.8-87.1-100.7-123.6c-32.7-30.6-78.6-59.7-119.4-41.4
	c-21.6,9.6-35.7,30.4-48.2,50.5c-40.3,64.7-75.4,132.5-105.1,202.7c-20.8,49.2-39.1,100.8-38.9,154.2
	c0.2,66.7,30.9,132.8,81.9,175.8c124.8,105.4,304.7,37.5,364.3-105.4c31.2-74.8,28.4-161.2,1.5-237.6
	C598.1,1438.5,586.2,1413.5,572.1,1389.6"/>
<path id="XMLID_4889_" class="st1" d="M2967.5,1534.3c57.5-73.1,169.3-94.3,262.7-63.4c93.4,31.3,168.3,114.5,168.8,200
	c0.5,85.4-73.1,173-167.5,204.6c-94.9,31.5-210.5,6.8-267-68C2907.9,1732.7,2910.5,1607.4,2967.5,1534.3"/>
<path id="XMLID_4893_" class="st2" d="M3227.9,1407.8c31.9-91.6,97.2-167,158.6-242c61.4-75,122.2-155.6,142-250.6
	c11.6-55.9,8.4-114,19.7-170c11.3-56,42.2-113.5,96.1-132.4c74.3-26,156.4,38.3,176.3,114.6c19.8,76.3,27.9,153.8-3.4,226.1
	s-27.2,164.3-33.7,242.8c-11.2,137.4,0,254-23.3,389.8c-16.4,95.6-91.8,178.6-185.4,204C3338.8,1854.2,3151.2,1628.4,3227.9,1407.8z
	"/>
<path id="XMLID_4891_" class="st0" d="M449.9,1361.2c46.4-35.5,64.7-97.5,66.9-155.8c2.2-58.3-9-116.5-8.7-175
	c0.3-58.4,14.4-120.7,57.2-160.5c62.6-58.2,174.7-58.3,212.3-135c21-42.8,9.4-93.7-2.5-139.8c-26.1-100.5-52.1-201-78.2-301.4
	c-16.1-61.9-40.7-133.2-101.8-152.2c-65.1-20.3-128.5,31.9-176.9,80.1C307.3,331.9,195.3,443.5,113.5,576.8
	C31.6,710-18.5,869.1,6.6,1023.4C29.8,1167.1,272,1497.4,449.9,1361.2z"/>
<path id="XMLID_3009_" class="st3" d="M3375.2,1238.4c-1.1-1.1-1.3-1.4-1.6-1.5c-2.5-1.1-5-2.4-7.5-3.3c-16-6.1-29.5-15.8-41.1-28.3
	c-4.6-4.9-9-10-13.2-15.1c-10.3-12.5-19.3-25.9-28.5-39.1c-18.4-26.3-31.6-54.8-39.3-86c-3.3-13.3-6.9-26.6-10.8-39.8
	c-5.2-17.3-8-35.1-9.1-53.1c-1.1-19.6,0.2-39.1,6.4-57.8c8.3-25.1,24-43.6,50.2-51.7c13.7-4.2,27.4-8.6,41.1-12.7
	c7.3-2.2,14.8-3.9,22.4-4.5c9.2-0.8,18.3-0.3,27.3,1.7c7.7,1.7,15.4,3.7,23,5.8c4.3,1.2,4.8-0.4,4.9-4c0.1-1.8-0.3-3.7-0.8-5.4
	c-1-3.8-1.9-7.8-3.5-11.3c-5.3-11.7-8.9-24-13.4-36c-4.4-11.7-8.2-23.6-9.7-36.1c-1-8.5-3-16.8-4.6-25.2c-3.6-18.6-6-37.3-5.2-56.3
	c0.9-18.6,3.6-37,7.1-55.3c1.4-7.5,3.7-14.8,6-22.1c2.8-8.9,7.9-16.5,14.6-22.9c3.8-3.7,8.2-6.5,13.4-7.6c13.1-2.9,25.6-1.3,36.5,7
	c5.3,4,10.3,8.6,15.3,13.1c8.2,7.3,16.2,14.8,24.5,22c12.6,11.1,25.8,21.4,39.4,31.3c15.1,10.9,29.9,22.1,44.4,33.9
	c13.2,10.8,27.1,20.8,41.2,30.5c21.1,14.5,39.4,31.9,52.1,54.4c12.7,22.5,24.6,45.6,34.6,69.6c12.6,30,14,60.9,6.3,92.4
	c-3.5,14.3-9,27.8-15.5,41c-5,10.2-10.9,19.8-19.5,27.4c-1.7,1.5-1.6,2.8-0.6,4.8c4.6,8.3,8.8,16.7,11.8,25.8
	c4.1,12.6,6.3,25.5,7,38.6c0.9,16.8,0.2,33.5-4.6,49.8c-3.5,12.2-9.3,23.4-18.1,32.5c-4.5,4.6-7.1,9.7-9.1,15.5
	c-3.8,11.6-8,23-13.1,34.2c-4.5,9.9-10.5,18.6-18.5,25.9c-1.8,1.6-3.6,3.3-5.3,5.1c-1,1.1-0.6,2.4,0.7,2.9c3.1,1.3,6.3,2.4,9.4,3.5
	c28.7,9.8,49.9,28.7,65,54.7c8.2,14.1,13.1,29.5,17.1,45.2c1.1,4.4,2.2,8.9,2.7,13.5c3.1,28.8-0.3,56.6-12.2,83.2
	c-5.7,12.8-12.1,25.3-19.4,37.4c-10.3,17-21.5,33.3-33.6,49c-10.6,13.8-22.1,26.8-35.3,38.2c-13.8,12-29.5,20.6-47.2,25.1
	c-8.9,2.3-17.8,4.2-26.7,6.2c-18.2,4-36.4,7.8-54.1,13.5c-12.5,4-25,8.1-37.4,12.2c-3.5,1.1-7,2.2-10.4,3.6
	c-16,6.1-32.3,11-48.8,15.5c-14.2,3.8-28.6,6.1-43.3,6.7c-7,0.3-14,0.1-20.9-1.3c-15-3.1-25.9-11.4-33.2-24.9
	c-3.5-6.5-6-13.4-7.7-20.5c-2.2-8.9-4.1-17.8-5.9-26.8c-4.6-23-8.4-46.2-10.4-69.6c-2.4-28.9,0.2-57.3,9.8-84.8
	c4.4-12.7,9.4-25.2,15.2-37.3c16.6-34.8,37.6-67,59.2-98.9c2.9-4.3,6.3-8.2,9.7-12.2C3360.1,1251.7,3366.8,1244.6,3375.2,1238.4
	 M3313.2,1598c0.2,0,0.4,0.1,0.7,0.1c-0.4,0.5-0.5,0.4-0.4-0.3c0.1,2.5-2.7,4.4-1.5,7.2c-3.7,4.6-7.4,9.2-11,13.9
	c-1.1,1.4-0.3,2.8,2.1,4.2c1.3,0.8,3.1,1.6,3.8-0.3c2.3-5.5,5-11,5.3-17.1c0-0.3-0.2-0.5-0.4-0.8
	C3314.5,1603.1,3313.9,1600.6,3313.2,1598 M3548.2,917.9c3.5,0.4,5.8,3.1,8.5,4.9c3.3,2.1,6.5,4.5,9.8,6.6c1.1,0.7,2.4,0.4,3.2-0.7
	c0.7-1,1.4-2,1.9-3.1c0.5-1.2,0.5-2.5-0.6-3.3c-6.2-4.1-13.1-6.2-20.5-5.9c-0.7,0-1.4,1.1-2,1.7l0.2-0.5L3548.2,917.9 M3424.4,630.7
	c-3.3-11.5-9.7-20.7-19.5-27.7c-5.9-4.2-12.2-7.9-17.1-13.1c-0.9,0.4-1.7,0.5-1.9,0.9c-6.8,10.1-6.8,12,2.7,19.4
	c10.3,8.1,21.5,14.8,33.4,20.2c0.7,0.3,1.7,0,2.5,0l0.2,0.4L3424.4,630.7 M3482.5,713.1c-5.1-12.5-14.2-20.9-27-25.1
	c-6.9-2.3-14-3.9-21.1-5.8c-3.5-0.9-7.1-1.7-10.7-2.4c-14.2-2.7-27.4-8-40.4-14c-4.7-2.2-8.6-5.6-12.9-7.9c-2.1,1-2,2.6-2.1,4.1
	c-0.5,6.1-1,12.1-1.5,18.2c-0.2,3,0.8,5.2,3.3,7c3.7,2.8,7.7,4.8,11.9,6.6c20.4,8.9,41.8,12.9,63.8,14c4.2,0.2,8.5,0.4,12.7,0.8
	c6.4,0.6,12.7,1.6,18.8,3.6c1.7,0.6,3.4,1.6,5.2,0.6c0.9,0.8-0.8,0.7,0.4,0.7c0.2,0,0.5-0.2,0.5-0.2
	C3483.4,712.6,3483.1,712.6,3482.5,713.1 M3588.4,1120c-0.6-0.6-1.4-1-2-1.7c-8-9.6-15.8-19.4-24-28.8
	c-10.6-12.1-15.9-26.5-19.9-41.7c-0.7-2.7-1.1-5.4-2.1-8c-5.3-14.3-6.4-29.1-5-44.2c0.5-5.8,1.1-11.6,1-17.3
	c-0.6-18.5-6.5-35.3-16.9-50.5c-7.3-10.8-16.2-20.6-23-31.8c-2.8-4.7-8-5.2-12.4-7c-2.1-0.9-3.4,0.2-3.5,2.7
	c-0.3,8.5,0.4,17,1.9,25.5c2.5,13.5,6.4,26.7,10.8,39.7c4.3,12.8,7.4,25.8,9.7,39c3.2,18.5,9.4,36,17.7,52.7
	c8.6,17.2,18.7,33.5,29.2,49.6c2.9,4.5,6.5,7.9,11.2,10.4c7.6,3.9,15,8.1,22.5,12.2c1.9,1,3.5,0.7,4.9-0.9c-0.3,0.4-0.6,0.8-1,1.2
	C3587.8,1120.7,3588.1,1120.4,3588.4,1120 M3507.9,1082.5c-1.4-2.8-3.5-3.6-5.2-4.6c-10.8-6.4-21.6-12.6-32.3-19
	c-2.9-1.8-5.7-1.8-8.7-0.9c-9.5,2.7-18.2,7.1-26.2,12.7c-6.3,4.3-12.4,8.9-18.5,13.5c-14.2,10.6-28.5,20.9-44.3,29
	c-16.4,8.5-33.8,14-51.8,17.4c-9.9,1.9-19.9,3-29.8,4.6c-3.3,0.5-6.6,0.7-9.4,2.2c-0.3,2.5,0.9,3.9,1.9,5.4
	c10.9,15.8,21.6,31.8,33.8,46.6c6,7.3,12.5,14.2,19.5,20.6c2.4,2.2,4.9,3,8.3,2.8c9-0.5,17.4-3.5,25.6-6.6
	c7.1-2.6,13.9-6.2,20.4-10.2c23.7-14.4,43.8-32.9,61.8-53.8c10.5-12.3,20-25.5,28.9-38.9c6.2-9.3,13.8-16.1,24.5-19.4
	C3506.7,1083.5,3507.2,1083,3507.9,1082.5 M3556.1,1112.8c-2-3.3-4.6-4.3-6.9-5.7c-10.1-6.2-20.3-12.3-30.4-18.7
	c-3.4-2.1-6.5-2.8-10.3-1.6c-8.4,2.6-15.5,6.8-20.6,14.2c-10.2,14.8-20.4,29.7-32.1,43.4c-17.1,20.1-36.3,37.7-58.5,52.1
	c-14,9.1-29,15.5-45.2,19.2c-1.5,0.3-2.9,0.8-4.2,1.2c-0.3,2.2,1.4,2.8,2.6,3.4c4.8,2.6,9.6,5.3,14.7,7.4
	c10.4,4.4,20.9,8.4,31.3,12.8c3.7,1.5,7,1.3,10.6,0c7.8-2.9,15-6.7,22-11.2c7.7-4.9,15.4-9.9,22.9-15c3.5-2.4,7-4.9,10.2-7.7
	c19-16.9,36.1-35.4,50.8-56.2c4.1-5.7,8.6-11,13.1-16.5c6.3-7.6,14-13.5,23.1-17.5C3551.3,1115.4,3553.4,1114.2,3556.1,1112.8
	 M3478.7,1337.1c-5.8,5.6-9.9,10.5-14,15.3c-2.1,2.5-2.5,5.4-2.5,8.5c0,14.5,2.6,28.5,9.2,41.5c3.9,7.6,8.3,14.9,12.7,22.2
	c9.8,16.3,18.5,33,22.8,51.6c3.4,15.1,6,30.5,6.9,46c1.1,17.5,0.1,34.7-3.8,51.7c-0.7,2.9-1.7,5.8-1.4,8.8c0.6,0.3,1.2,0.8,1.6,0.7
	c14-2.9,28.1-5.8,42.1-8.7c1.5-0.3,2.9-0.8,4.4-1.1c2.7-0.6,4.1-2.3,4.8-4.9c2.2-8.6,2.8-17.5,2.5-26.3c-0.7-24.4-7.7-47.3-17-69.7
	c-7.4-17.7-18.5-32.8-29.2-48.4c-9-13.1-17-26.7-24.1-40.9c-5.8-11.5-10.1-23.5-12.4-36.2
	C3480.6,1344.5,3479.8,1341.6,3478.7,1337.1 M3253.1,1078c17.1-0.1,33.5-0.4,50-0.3c13.4,0.1,25.9-3.5,38.5-7.2
	c19.2-5.5,36.9-14.3,54-24.5c8.4-5,17-9.7,24.7-15.6c2.6-2,2.7-3,0.5-5c-8.9-7.9-17.9-15.7-26.8-23.6c-3.2-2.9-6.8-3.8-10.9-3.9
	c-9-0.3-17.6,1.4-25.9,4.7c-7.7,3-15.2,6.4-22.8,9.5c-18.6,7.8-37.4,14.9-57.4,18.2c-6.6,1.1-13.3,1.8-20,2.5
	c-3.6,0.4-7.3,0.4-11,0.8c-4.3,0.5-5.2,1.8-4,6.1C3245.6,1052.2,3249.2,1064.8,3253.1,1078 M3649.8,1493.2c1.8,0,2.6-1.5,3.4-2.7
	c8.9-12.8,16.9-26,24.9-39.4c3-5,2.9-9.8,0.9-14.8c-4.6-11.8-11.5-22.1-19.9-31.5c-10.6-11.9-23-21.8-36.7-30
	c-8.9-5.3-18-10.3-26.9-15.6c-14.5-8.5-28.6-17.5-41-29c-12.5-11.5-22.9-24.5-28-41c-0.8-2.5-2.2-2.9-3.9-1c-3,3.4-5.9,7-8.9,10.4
	c-2.7,3.1-3,6.4-1.8,10.2c1.9,6.2,4.9,11.8,8,17.4c6.2,11,14.1,20.7,23.5,29c9.8,8.7,19.6,17.4,29.8,25.6
	c23.3,18.8,41.9,41.6,56.3,67.7c7.2,13.1,12.9,26.9,18.1,40.9C3648.2,1490.8,3648.2,1492.5,3649.8,1493.2 M3255.1,1082.3
	c-0.6,2.6,0.2,4.3,0.8,6c5.2,14.4,11.6,28.2,19.4,41.3c1.4,2.3,3,3.8,5.9,3.3c18.3-3.2,36.9-4.8,54.9-9.7
	c21.1-5.8,40.5-15.2,58.4-27.6c10-6.9,19.8-14.3,29.5-21.5c10.6-7.9,21.6-14.8,34.3-18.8c0.8-0.2,2-0.5,1.8-1.7
	c-0.2-0.8-0.7-1.7-1.3-2.2c-3-2.1-6.1-4-9.2-6c-6.6-4.4-13.2-8.8-19.8-13.2c-1.9-1.3-3.5-1.9-5.7-0.2c-15.4,11.6-32,21.2-49.3,29.6
	c-20.4,9.9-41.8,17.3-64.5,19.4c-12.7,1.2-25.6,0.4-38.4,0.6C3266.3,1081.6,3260.8,1081.1,3255.1,1082.3 M3495.2,1322.2
	c-1.5,0.1-1.9,0-2.1,0.2c-12.5,10.8-11.4,8.8-8.5,23.9c3.8,19.8,12.8,37.4,22.7,54.6c7.1,12.4,15.3,24.2,23.6,35.9
	c15.4,21.7,25.8,45.6,31.9,71.3c2.3,9.5,4.1,19,4.7,28.8c0.6,10.1-0.2,20.1-1.6,30c-0.3,2.5,0.8,3.6,3,2.8
	c11.2-4.3,21.4-10.3,30.8-17.7c2.9-2.3,4.2-5,4.4-8.6c0.7-11.1-0.5-22-3.2-32.6c-4.9-19.2-11.3-38-19.6-56.1
	c-4.1-8.9-8.9-17.4-14.2-25.5c-11.9-18.1-24.6-35.6-38.9-51.9c-3.4-3.9-6.6-8-9.8-12C3507.9,1352.4,3498.2,1339.2,3495.2,1322.2
	 M3457.8,1362.7c-1.5,0.1-2.2,1-3,2c-3.9,5-7.7,10.2-11.8,15.1c-3.4,4.1-4.1,8.5-3.1,13.6c2.2,10.8,5,21.4,9.2,31.6
	c10.8,26.2,16.8,53.4,18.4,81.6c1.1,20.7,1.5,41.4,0.4,62.1c-0.4,7.3-0.3,14.6,0.6,21.9c0.5,3.9,1.4,4.5,5.5,3.4
	c7.9-2.2,15.8-4.8,23.7-6.7c4.2-1,6.1-3.4,7-7.3c3.5-14.9,5.9-29.9,5.8-45.2c-0.3-19.9-3-39.5-7.6-58.8c-3.8-15.8-11-30.3-19.2-44.3
	c-4.6-7.9-9.2-15.8-13.8-23.7c-6.8-11.9-10.1-24.7-11.1-38.3C3458.6,1367.4,3459.2,1364.8,3457.8,1362.7 M3609.4,1543
	c1.1-0.9,2.4-1.8,3.4-2.9c11-11,20.9-23,30.2-35.5c2.4-3.3,3-6.4,2.1-10.2c-1.6-6.6-4.2-12.8-6.8-18.9
	c-14.5-34.9-35.4-65.2-64.7-89.5c-10.6-8.7-21-17.6-31.3-26.7c-10.1-8.9-18.8-19.2-25.3-31c-3.3-5.9-6.4-11.8-8.3-18.3
	c-0.7-2.5-2-2.6-3.9-0.6c-1,1.1-1.9,2.4-3,3.4c-2.7,2.6-3.4,5.7-2.7,9.2c1.1,5.7,2.6,11.2,5.4,16.4c6.7,12.5,15.5,23.4,24.7,34
	c12.6,14.6,24,29.9,35.1,45.6c16,22.6,27.3,47.5,35.1,74c3.2,10.8,6.9,21.5,7.8,32.9c0.3,4.6,0.7,9.1,0.9,13.7
	C3608.1,1540.1,3607.9,1541.6,3609.4,1543 M3534.1,1275.3c-5.1,2.9-6,7.2-4.4,12.5c1.5,5,3.6,9.7,6.2,14.2
	c8.4,14.2,19.8,25.5,32.8,35.2c9.8,7.3,20,14,30.7,19.9c8,4.5,15.9,9,23.8,13.7c14,8.3,26.6,18.3,37.7,30.3
	c8.6,9.2,15.4,19.7,20.6,31.1c0.6,1.4,0.9,2.9,2.3,3.8c1.6,0.5,2.1-0.8,2.6-1.9c8.7-17.4,14.3-35.6,16-55c0.3-3-0.4-5-2.1-7.5
	c-7.3-10.5-17.1-17.3-29.2-20.8c-11.7-3.3-23.6-6.1-35.3-9.6c-18.7-5.6-37.2-11.9-54.7-20.6c-10.8-5.3-20.3-12.4-29-20.5
	c-6.1-5.6-11.1-12.1-14.2-19.9C3537,1278.4,3536.4,1276.2,3534.1,1275.3 M3389.8,858.4c1.3,1.9,2.5,3.8,3.9,5.7
	c11.5,15.6,18.1,33.1,20.7,52.1c2.3,17.1,7.4,33.3,14.2,49c2.3,5.3,4.5,10.7,6.2,16.2c3.1,10.2,7,20.1,12.1,29.5
	c5.6,10.5,11.3,20.9,16.8,31.4c3.9,7.5,9.3,13.2,17.1,17.1c8.4,4.2,16.4,9.2,24.6,13.8c1.9-1.6,0.6-3,0-4.1
	c-2.9-5.3-5.7-10.8-9.1-15.8c-7.7-11.4-14-23.6-20-35.9c-6.2-12.9-10.9-26.5-14.4-40.4c-4.1-16-8-31.9-11.5-48
	c-1.9-8.9-2.7-18.1-5.6-26.8c-3-9.3-6.2-18.5-9.2-27.8c-0.6-2-2-2.9-3.8-3.6c-4.9-1.8-9.7-3.6-14.6-5.3c-7.5-2.6-15-5-22.5-7.5
	C3393.1,857.7,3391.7,856.8,3389.8,858.4 M3382.8,993.2c0-1.4-1-2.2-1.9-3c-9.9-8.6-19.9-17.2-29.7-25.8c-2-1.7-4.1-2.2-6.7-2.2
	c-6.5,0-12.7,1.4-18.9,3.3c-9.3,2.9-18.6,5.8-28,8.7c-13.5,4.1-27.2,6.7-41.2,8.2c-7.6,0.8-15.2,0.1-22.8-0.1
	c-3-0.1-3.8,0.9-3.5,3.9c1.5,13.4,4,26.5,7.8,39.4c1.5,4.8,2.2,4.9,7.2,4.3c11.5-1.3,23.1-1.8,34.5-4c17.8-3.4,34.6-9.8,51.3-16.5
	c6.8-2.7,13.4-5.8,20.2-8.7c8.8-3.7,17.8-6.4,27.4-6.5c1.2,0,2.4-0.3,3.6-0.6C3382.4,993.7,3382.6,993.4,3382.8,993.2
	 M3587.8,1128.5c-7.9-4.2-14.9-7.8-21.9-11.6c-3.3-1.8-6.7-1-9.8,0.1c-8.1,3-15.5,7.2-21.7,13.2c-6.5,6.4-12.4,13.4-17.7,20.9
	c-14.8,21.1-31.9,40-51.2,57.1c-2.5,2.2-5,4.6-7.8,6.4c-15,9.3-28.9,20.5-45.2,27.5c-0.3,0.1-0.5,0.3-0.8,0.4
	c-0.7,0.3-1,0.8-0.8,1.4c0.2,0.5,0.5,1.2,1,1.4c3.5,1.2,7,2.3,10.5,3.3c9.1,2.6,18.3,4.6,27.6,6.2c4.5,0.8,8.4,0,12-2.6
	c2.2-1.6,4.5-3.1,6.6-5c12.1-10.7,24.2-21.5,34-34.5c12.9-17,26.8-33.2,40.9-49.2c10-11.2,20.9-21.3,34.5-28.2
	C3581.4,1134,3584.4,1132,3587.8,1128.5 M3274.1,1412.6c1.5,1.4,3.4,1.1,5.1,1c9.8-0.3,19.5,0.3,29.2,1c12.3,0.9,24.2,0,36.1-3.9
	c17-5.5,34.5-6.9,52.4-4.6c5.4,0.7,10.9,0.9,16.4,1.3c2.3,0.2,4.1-0.6,5.5-2.6c3.5-5,7.1-9.9,10.6-14.9c1.4-1.9,0.8-3.1-1.9-3.6
	c-8.8-1.5-16.9-5-25.2-8.1c-24.5-9-49.7-14.2-76-12.4c-8.8,0.6-17.6-0.1-26.4-1.6c-6.1-1-6.2-0.9-9,4.9c-6,12.4-11,25.1-15.7,38
	C3274.4,1409,3273.6,1410.7,3274.1,1412.6 M3543.9,1096.4c-4.2-7.1-8.2-14.2-12.6-21.1c-12.6-19.7-22-40.7-28.6-63.1
	c-2.4-8.2-3.8-16.7-5.1-25.1c-1.4-8.8-4-17.2-6.7-25.6c-4.9-14.8-9.4-29.7-12.2-45c-1.6-8.7-2.3-17.5-1.8-26.4c0.1-2.4,0-4.1-2.5-5
	c-10.4-3.4-20.8-6.9-31.3-10.3c-2.3-0.7-3.4,0.5-2.6,3c1.1,3.5,2.4,6.9,3.7,10.3c4.1,10.6,6.6,21.5,8.6,32.7
	c5.6,31,12.7,61.6,25,90.7c4.2,10.1,9.6,19.8,15.2,29.2c6.7,11.2,13.6,22.4,19.3,34.2c1.7,3.4,3.8,6.1,7.1,8.1
	c6.8,4.1,13.4,8.5,20.1,12.7C3540.6,1096.4,3541.8,1097.5,3543.9,1096.4 M3465.3,1596c-3-19.5,0-39-0.5-58.4
	c-0.5-20.4-1.2-40.8-4.5-60.9c-2.5-15.4-7-30.3-12.6-44.8c-4.4-11.4-8.3-22.9-10.8-34.9c-0.2-1.2-0.5-2.4-0.9-3.5
	c-0.4-1.2-2-1.4-2.9-0.3c-1.5,1.9-3.1,3.8-4.4,5.8c-9.6,13.9-9.1,8.6-4.5,26.5c1.6,6.5,3.5,12.9,5.3,19.4c7.9,28.2,10,56.8,7.5,85.9
	c-1.5,17.9-2.9,35.8-4.4,53.7c-0.3,3.3-0.5,6.7,0.3,10c2.7,11.1,3.4,11.6,14,8C3453,1600.4,3459.3,1599.2,3465.3,1596 M3342.5,851.3
	c0,1.9,1.3,2.8,2.2,3.9c7.4,8.1,13.8,17,20.6,25.6c11.1,14,18.7,29.9,24.7,46.6c2.8,7.7,5.3,15.6,7.4,23.5c6.5,25,17,48.2,29.9,70.4
	c2.2,3.7,4.8,7,8.5,9.3c6.7,4.2,13.3,8.6,20,12.9c1.2,0.8,2.5,1.8,4.1,1.1c0.2-2-1.1-3.4-2-5c-7.8-13.8-15.4-27.7-21.5-42.3
	c-0.9-2.2-1.9-4.5-2.6-6.8c-4.2-14.3-10.4-28-15.8-41.9c-2.2-5.7-3.9-11.5-4.8-17.6c-1.1-7.5-2.3-15.1-3.9-22.5
	c-4.2-19.4-12.9-36.6-25.9-51.7c-1.3-1.4-2.5-2.7-4.3-3.1c-11.3-2.7-22.7-4.6-34.4-3.5C3344,850.4,3343.2,851,3342.5,851.3
	 M3296.3,1358.5c1.4,1.9,3,1.9,4.5,2.2c8.4,1.6,16.9,2.1,25.4,1.5c12.5-1,24.8,0,37.2,2.2c16,2.8,31.5,6.5,46.5,12.9
	c6.1,2.6,12.4,4.9,19.2,5.8c3.4,0.4,5.8-0.3,7.9-3.1c4.8-6.6,9.9-13.1,14.7-19.5c-1.1-2.5-3.2-1.7-4.8-1.9
	c-7.9-1.2-15.5-3.5-22.8-6.4c-10.5-4.1-21.1-8.1-31.2-13c-19.8-9.5-40.6-12.2-62.2-11.5c-4.9,0.2-9.7,0.7-14.6,0.9
	c-1.6,0.1-3,0.4-3.9,1.8C3306.6,1339.6,3300.9,1348.9,3296.3,1358.5 M3503,898.4c2.4,5.4,6,9.8,9.6,14.2
	c6.1,7.6,12.2,15.2,16.4,24.1c7.9,16.8,12.9,34.2,10.6,53c-0.6,4.8-0.7,9.7-1,14.6c-0.6,10.8,0.9,21.3,4.4,31.5
	c2.8,8.4,4.5,17.1,7.5,25.4c2.8,7.9,6.4,15.2,11.6,21.6c6.3,7.8,12.7,15.6,19,23.4c4.2,5.2,8.5,10.4,12.5,15.8
	c3.6,4.9,8.6,7.2,14.3,8.5c0.8-2.3-1-3.1-1.9-4.1c-9.2-11.4-17.3-23.5-24.2-36.5c-3.2-6-5.4-12.2-7.3-18.7
	c-4-13.2-5.9-26.7-6.9-40.5c-1.5-19.8-3.1-39.5-7-59c-3.9-20-11.3-38.6-23.7-54.9c-1.3-1.7-2.5-3.4-4.4-4.5
	c-8.9-5.4-17.9-10.5-27.4-14.6C3504.6,897.7,3503.9,898.1,3503,898.4 M3317.6,1324.4c2.8-0.1,5.8,0,8.8-0.3
	c12.2-1.1,24.3-0.2,36.4,1.5c9.4,1.3,18.3,4.3,27.1,8.1c11.5,4.9,23,9.8,34.6,14.4c6.2,2.4,12.7,4.2,19.1,6.1c2.9,0.9,6,1.1,9,0.5
	c2.5-0.5,4.6-1.2,6.4-3.2c5.1-6,10.3-11.9,15.3-17.6c-0.1-2.8-2.2-3.1-3.7-4c-7.1-4.2-14.3-8.2-21.2-12.6
	c-13.5-8.5-28.1-13.1-44-13.7c-7-0.3-14,0.1-21,0.1s-14,0.3-21,0c-9.1-0.4-18.2-1.4-26.8-5.2c-3.4-1.5-3.8-1.3-6,2
	c-4.2,6.4-8.2,12.8-12.3,19.3C3317.6,1321.1,3316.7,1322.4,3317.6,1324.4 M3545.4,1261.2c-3,0.6-3.8,3.2-5.4,4.9
	c-2.3,2.5-2.6,5.1-1.2,8.3c4.1,9.7,10,18,17.9,25c13,11.5,27.8,19.8,43.9,25.9c20.2,7.7,40.8,14.3,61.9,19.4
	c3.6,0.9,7.1,1.9,10.6,2.9c9,2.6,16.8,7.2,23.5,13.7c1.3,1.3,2.5,2.7,3.9,3.9c0.4,0.3,1.1,0.3,1.6,0.3c0.8,0,1-0.6,1-1.3
	c0.2-10.1-0.9-20.1-2.9-30c-0.6-2.9-2-5.1-4.4-6.7c-11.2-7.5-22.6-14.4-36.4-15.9c-15.4-1.7-30.9-3.5-46.2-5.7
	c-22.5-3.3-41.3-14.1-57.4-29.8C3551.1,1271.7,3548.4,1266.3,3545.4,1261.2 M3417.7,1415.9c-3.2,3-4.8,5.9-6.8,8.5
	c-1.4,1.8-1.5,3.8-1,6c1,4.1,1.7,8.4,2.5,12.5c2.4,11.7,2.6,23.6,1.8,35.5c-0.8,11.8-2.2,23.6-4.8,35.3c-5.8,25.7-8.8,51.6-8.2,78
	c0.1,7.3,0.2,14.6,2.5,21.7c0.7,2.2,2,3.1,4.1,2.4c7.5-2.4,15.1-4.9,22.6-7.5c2-0.7,2.7-2.3,2-4.4c-0.5-1.5-0.9-2.9-1.5-4.3
	c-2.1-4.9-2.4-10-1.9-15.2c1.5-17,2.8-34,4.2-51c1.5-18.3,1.8-36.5-0.5-54.7c-2.1-17-6.6-33.5-11.1-50
	C3420.5,1424.7,3419.5,1420.7,3417.7,1415.9 M3341.6,957.8c-0.2-0.5-0.1-1.3-0.5-1.6c-9-8.2-18.3-16.2-28-23.5
	c-4.8-3.6-9.7-5.1-16.1-4.4c-18.8,2-37.5,5.1-56.4,5.3c-2.1,0-4.3,0.3-6.4,0.5c-2.5,0.2-3.8,1.7-4.1,4.1
	c-1.5,12.4-2.2,24.9-1.1,37.4c0.2,1.7,1.1,2.7,3,2.8c11.9,1.1,23.7,0.9,35.5-1c16-2.6,31.5-7,46.9-12c8.4-2.7,16.8-5.4,25.7-6.5
	C3340.7,958.6,3341.1,958.1,3341.6,957.8 M3488.5,1318.4c-2.9-1.5-5.4-2.7-7.8-3.9c-10.1-5.1-19.5-11.2-28.3-18.3
	c-15.3-12.2-31.5-22.8-50.1-29.5c-10.1-3.6-20.3-6.5-31.1-6.9c-2.4-0.1-4.8-0.5-7.2-1c-2-0.4-3.6,0.2-4.9,1.7
	c-8.5,9.6-16,20-22.5,31c-1,1.6-0.2,2.8,1.4,3.6c5,2.4,10.3,3.6,15.8,4.2c10,1.1,20,1.2,30.1,0.8c8.5-0.3,17-0.6,25.5,0.1
	c14.9,1.2,28.5,5.7,41.2,13.6c7.8,4.8,15.6,9.5,23.5,14c3.6,2.1,3.9,2,7-1.2C3483.6,1324.2,3486.5,1322.3,3488.5,1318.4
	 M3419.2,1015.3c-3.4-7.1-6.9-14.2-10.2-21.3c-6.1-13-11-26.4-14.7-40.3c-4.4-16.8-10.1-33.2-18.1-48.8c-2.9-5.7-6.1-11.2-10-16.3
	c-7.9-10.5-15.5-21.2-24.4-30.8c-1.5-1.5-2.9-3.2-4.4-4.6c-1.1-1-2.6-1.6-4.2-1.2c-5,1.4-10,2.8-14.9,4.3c-1.4,0.4-1.5,1.8-0.7,2.9
	c0.9,1.2,1.9,2.4,3,3.4c8.3,7.9,14.3,17.4,19,27.8c6.7,14.7,13.6,29.3,19.9,44.2c6.6,15.8,15.1,30.6,23.7,45.3
	c5.3,9,11.6,17,20,23.4c5.3,4,10.1,8.6,15.1,13C3418.5,1015.9,3418.8,1015.6,3419.2,1015.3 M3406.3,1431.6c-3.1,4.3-5.1,6.9-7,9.6
	c-4.1,6.1-8,12.3-12.1,18.3c-1.7,2.5-2.1,5-0.7,7.7c0.7,1.4,1.3,2.8,1.7,4.2c2.9,8.8,4.6,17.6,3.7,27c-1,11.6-3,23-6.3,34.1
	c-1.9,6.4-3.7,12.9-5.9,19.2c-4.3,13.1-6.4,26.7-7.8,40.3c-1,10.2,0.9,20.1,3,29.9c0.4,1.6,1.7,2.6,3.4,2.4
	c6.7-0.9,13.1-2.9,19.4-5.2c2-0.7,2.5-2.5,2.2-4.5c-6-34.9-1-69.2,6.1-103.4c3.9-18.6,5.6-37.4,4.3-56.3
	C3409.8,1447.7,3408.9,1440.5,3406.3,1431.6 M3608.2,1137.4c-4.3-3.2-9.2-4.6-13.9-6.5c-1.5-0.6-3.1-0.1-4.3,1
	c-5.8,5-12.8,8.2-19.2,12.3c-9.8,6.4-17.8,14.8-25.5,23.4c-14.2,15.9-27.8,32.2-40.8,49.2c-10.2,13.4-22.9,24.4-35.5,35.4
	c-1.1,1-2.7,1.5-3,3.4c0.1,1.8,1.7,1.2,2.7,1.3c6.1,0.4,12.2,0.5,18.2,0.9c4.1,0.2,7.7-0.8,11.2-2.9c11.4-6.7,21.3-14.9,29.8-25.1
	c11.2-13.3,21.1-27.6,30.1-42.4c4.5-7.3,9.1-14.4,13.4-21.8c6.6-11.3,16.1-18.8,28.1-23.7
	C3602.5,1140.7,3605.6,1140.1,3608.2,1137.4 M3400.9,1429.7c-9.3-2.2-17.4-1.8-25.5,0.5c-4.1,1.2-8.2,2.5-12.2,3.8
	c-11.6,3.7-23.6,6-35.7,7.6c-10.1,1.3-19.6,4.5-28.5,9.2c-10.5,5.5-20.6,11.9-32,15.5c-2.1,0.6-2.8,2.4-2.7,4.2
	c0.1,6.1,0.2,12.2,0.5,18.2c0.2,3.2,1.4,4,4.9,3.6c7.9-0.9,15.5-3.2,22.8-6.4c7.3-3.2,14.2-7,20.6-11.7c8.6-6.4,18.3-9.3,28.8-10.4
	c11.5-1.2,23-2.9,34.6-2c1.9,0.1,3.6-0.4,4.7-2.2C3387.6,1450.1,3393.9,1440.4,3400.9,1429.7 M3343.2,1414.9
	c-9.6,3.8-20.5,4.4-31.6,3.8c-10.6-0.6-21.3-1.6-32-1.1c-1.2,0-2.4-0.1-3.7-0.1c-2.8,0-4.7,1.3-5.3,4.1c-1.3,5.6-2.7,11.3-3.7,17
	c-1.1,6.6-1.7,13.3-2.3,20c-0.3,3.2,0.9,4.2,3.6,3.2c3.7-1.4,7.4-2.8,11-4.6c7.9-4,15.7-8.1,23.5-12.2c6.3-3.3,13-5.4,20-6.3
	c17-2.2,33.6-5.8,49.9-11.2c8.6-2.9,17.4-3.2,26.2-1.8c3.4,0.5,5.9-0.1,7.7-3.2c1.6-2.6,3.5-5,5.2-7.5c1.4-2.1,0.8-3.6-1.6-3.8
	c-16.4-1.4-32.7-3.4-49.2-0.4C3355.2,1411.6,3349.6,1413.1,3343.2,1414.9 M3645.8,1134.1c-0.9-10.8-1.3-21.1-2.6-31.4
	c-1.7-13.6-4.1-27.1-6.3-40.6c-1.8-11.4-3.6-22.8-5.2-34.3c-3.3-23.6-11.2-45.4-26-64.5c-4.1-5.2-9.4-8.5-14.9-11.9
	c-0.4-0.3-1.2-0.3-1.7-0.1c-1.1,0.5-0.7,1.5-0.4,2.3c5.7,13.8,10.4,28,14.8,42.3c2.4,7.6,3.9,15.3,5.1,23.2
	c2.2,15.1,3.5,30.3,6.5,45.2c3.5,17.6,8.1,35,17.2,50.8c3,5.3,5.5,10.9,9.2,15.7C3642.5,1132,3643.3,1133.3,3645.8,1134.1
	 M3367.1,690.8c-0.3,9.2,0.6,17,1.7,24.8c0.4,2.7,2,4.2,4.2,5.6c12.7,8.5,26.8,13,41.8,15.2c19.2,2.8,38.3,1.9,57.4-0.5
	c7.6-0.9,15.1-1.4,22.8-0.4c1.2,0.2,2.4-0.1,3.6-0.1c-2.4-7.5-7.2-13.7-13.2-16.2c-7.3-3.2-14.9-5.5-22.9-6.2
	c-10.9-0.9-21.9-1.6-32.8-2.7c-18.1-1.7-35.3-6.7-51.9-14C3374.7,694.8,3371.5,693,3367.1,690.8 M3574.4,872.8
	c-0.4-7.6-1-14.5-7.1-19.8c-13.8-12-29.5-19.1-47.9-20.4c-21.4-1.5-42.7-0.9-63.6,4.5c-16.9,4.4-32.9,11.1-48.8,17.5
	c-0.2,2.6,1.5,2.9,2.8,3.4c5.5,1.9,10.8,4.3,16.5,5.6c5.4,1.2,10.8-1.5,16.1-2.4c13.5-2.4,27.3-3,40.9-4.6c11.5-1.3,23-3.1,34.6-3.2
	c9.2-0.1,18.3,0.3,27.3,2.2c8.7,1.7,16.1,5.5,22.2,11.8C3569.3,869.4,3570.9,871.7,3574.4,872.8 M3280.3,1524.9
	c5.4-1.5,10.2-4.1,15-6.7c10.4-5.8,21.1-11,31.9-15.8c8.8-3.9,17.7-6.5,27.5-5.3c2.2,0.3,4.1-0.1,5.5-2.3c5.1-8.7,10.3-17.3,15.5-26
	c1.2-2.1,0.4-3.5-2.1-3.5c-5.2,0-10.4,0.1-15.5,0.5c-5.8,0.4-11.5,1.3-17.3,1.9c-9,0.9-17.2,3.7-24.6,9c-9.2,6.6-19.1,12-29.9,15.5
	c-5.5,1.8-11.1,3.3-16.9,3.9c-2.1,0.2-3.6,1-3.4,3.3c0.6,8.2,1.4,16.4,3.2,24.4c0.5,2.1,2,2.9,4.1,2.5
	C3275.6,1526,3277.9,1525.4,3280.3,1524.9 M3545.3,921.1c3.9,8.4,7.1,15.2,10.3,22c4.1,8.9,6.6,18.4,8.5,27.9
	c3.9,19.4,5.3,39.2,7.1,58.9c0.9,10.3,1.9,20.6,4.1,30.8c3.4,15.1,9.5,28.9,17.9,41.8c6.8,10.5,14.1,20.6,22.6,29.8
	c3.9,4.3,8.7,5.9,14.3,6.2c0.3-3.5-2.1-4.8-3.8-6.4c-13.3-12.6-22.4-27.9-29.2-44.8c-3.3-8.3-4.1-17.2-5.4-25.9
	c-2.1-13.5-3.6-27.2-5.4-40.8c-0.7-5.1-1.9-10.2-2.9-15.3c-3.7-19.5-7.4-38.9-11-58.4c-1.1-5.7-3.5-10.2-8.5-13.4
	C3558.1,929.9,3552.7,925.5,3545.3,921.1 M3624.6,731.3c-8.1,26.8-24,47.6-40.9,67.6c-6.3,7.5-11.6,15.6-17.1,23.6
	c-1.8,2.6-1.9,5-0.6,7.7c2.1,4.7,4.2,9.4,6.2,13.9c2.4-0.2,2.8-1.8,3.5-3.1c1-1.9,2-3.8,2.8-5.7c4.7-11.6,12.7-20.5,22.5-28.2
	c12-9.4,24.3-18.3,37-26.8c4.8-3.2,9.5-6.6,12.7-11.6c1.3-1.9,1.8-3.8,0.4-5.9C3643.7,751.7,3635.9,740.9,3624.6,731.3
	 M3654.5,770.5c-5.8,7.4-12.9,12.1-20,16.8c-11.7,7.7-22.9,16.2-33.8,25c-7.8,6.2-14,13.5-18.1,22.6c-1.9,4.2-3.9,8.3-6.2,12.2
	c-1.6,2.9-1.8,5.7-0.7,8.7c1,2.9,1.8,5.8,2.7,8.7c0.1,0.4,0.8,0.9,1.2,1c0.5,0,1.2-0.3,1.5-0.7c0.6-0.7,1-1.6,1.3-2.4
	c4.6-9.7,11.9-16.9,20.9-22.4c12.2-7.4,24.5-14.8,36.8-22.2c5-3,9.9-6.1,14.1-10.1c2.2-2.1,4.2-4.3,5.8-7c3.9-6.6,6.4-13,0.6-20.2
	C3658.6,777.8,3657.5,774.1,3654.5,770.5 M3528.2,775.8c-1.5-4.2-4.6-7.6-7.1-11.3c-1.3-1.9-3.3-2.7-5.5-2.8
	c-4.9-0.3-9.7-0.8-14.6-0.7c-22.2,0.6-44.4,1.4-66.6,2c-7.3,0.2-14.6,0.2-21.9,0.1c-11-0.1-21.9-1.2-32.3-5.3
	c-2.2-0.9-3.7,0.4-3.3,2.7c1,6.6,2.4,13.2,4.4,19.6c1.2,4,3.4,5.9,7.7,6.2c11,0.8,21.9,1.1,32.8-0.7c16.8-2.8,33.6-5.7,50.4-8.8
	c9.3-1.7,18.6-2.9,28.1-3.6c7.7-0.6,15.2,0,22.6,2.2C3524.4,776.1,3526.1,777.4,3528.2,775.8 M3515.6,757.7
	c-2.9-6.5-6.9-10.7-10.1-15.4c-1-1.5-2.6-2.4-4.6-2.6c-7.6-0.8-15.1-1.8-22.7-0.7c-12.1,1.7-24.2,2.8-36.4,2.9
	c-18,0.1-35.8-1.7-52.9-8.2c-5.5-2.1-10.4-5-15.5-7.8c-1.1-0.6-2.6,0.4-2.4,1.6c1.3,7.2,2.7,14.3,4.1,21.5c0.4,2.4,1.9,3.7,4.1,4.4
	c7.8,2.8,15.5,5.2,23.9,5.6c14,0.7,28,0.4,42,0C3468,758.5,3491,756.8,3515.6,757.7 M3576.5,943.5c-0.7,3.4,0.1,6.7,0.7,10
	c3.6,18.5,7.4,37.1,10.7,55.7c2.1,12,3.4,24.1,5.2,36.2c1.7,11.2,3.2,22.3,5.4,33.4c1.8,9,6,17.3,10.6,25.2
	c7.4,12.7,17.2,23.5,27.2,34.2c0.8,0.8,2.1,1.2,3.2,1.6c0.5,0.2,1.3,0,1.7-0.4c0.3-0.3,0.5-1.2,0.3-1.6c-0.8-1.6-1.8-3.2-2.8-4.7
	c-3.1-4.5-5.8-9.3-8.6-14c-9.5-16-14.3-33.6-18.2-51.5c-2.4-11-3.4-22.3-5.1-33.4c-1-6.9-1.7-13.9-3-20.8
	c-3.2-17.1-9.1-33.5-15.2-49.8c-1.8-4.9-3.7-9.7-5.7-14.5C3581.5,945.5,3581.4,945.6,3576.5,943.5 M3544.2,800.9
	c-2.3-4.2-3.5-6.7-4.9-9c-5.6-9.3-5.9-9.5-16.7-12.6c-6.5-1.9-13-2.6-19.8-2.3c-16.5,0.7-32.6,4.4-48.8,7.2
	c-13.5,2.4-26.9,5-40.6,6.2c-7.3,0.7-14.6,0.2-21.9-0.1c-6.6-0.2-6.7-0.2-4.6,6.4c1.2,3.8,2.6,7.5,3.9,11.2c0.8,2.3,2.5,3.2,4.9,3.3
	c8.9,0.2,17.6-0.8,26.2-2.9c14.8-3.6,29.6-7.1,44.4-11c11.6-3,23.2-5,35.2-5.4C3515.6,791.7,3529.4,793.4,3544.2,800.9
	 M3382.3,1467.3c-6.1,10.1-11.2,18.7-16.4,27.3c-1,1.7-1.2,3.4-0.6,5.2c0.7,2,1.3,4.1,2,6.1c3.6,10.4,3.8,21,0.9,31.5
	c-1.3,4.7-2.9,9.3-4.5,13.9c-5.2,14.7-9.4,29.6-11.8,45.1c-1.4,9.4-1.6,18.8,0.1,28.2c0.7,4,1.5,4.6,5.5,4.1
	c3.9-0.5,7.8-1.4,11.6-2.3c1.3-0.3,2-1.4,1.8-2.7c-0.4-3-0.7-6.1-1.3-9c-1.9-10-2-19.9-0.8-30c2-17.1,7-33.4,12.1-49.7
	c4.2-13.5,6.9-27.2,7.4-41.3C3388.7,1485,3387,1476.8,3382.3,1467.3 M3377.9,979.2c-4.9-9-10.2-18-14.7-27.2
	c-5.7-11.8-10.7-23.9-16.1-35.8c-5.1-11.1-10.2-22.1-15.6-33c-4.4-8.8-11.3-15.8-18.5-22.5c-1.7-1.6-3.6-2-5.9-1.3
	c-5.5,1.7-11.1,3.3-16.6,5.1c-2.2,0.7-2.5,2.4-0.5,4.1c10.4,8.8,17.8,19.8,24.7,31.5c10.1,17,20.9,33.7,31.3,50.5
	c3.1,5,6.8,9.3,11.4,13c6.6,5.4,13.1,10.9,19.6,16.4C3377.2,979.6,3377.5,979.4,3377.9,979.2 M3682.9,1289.4
	c-4.7-10.3-10.8-17.4-17.5-24.1c-2.4-2.4-5.3-2.8-8.3-3.2c-10.9-1.3-21.9-2-32.8-0.2c-13.6,2.2-25.2-2-36.3-9.2
	c-1.3-0.8-2.6-1.6-3.7-2.6c-2.2-1.8-4.4-1.7-6.7-0.4c-1.1,0.6-2.2,1-3.3,1.6c-1.6,0.8-2.2,2.2-1.7,3.8c0.7,2,1.6,4,2.7,5.8
	c3.8,6.1,8.8,10.9,15.1,14.4c19.4,10.7,40,16.5,62.3,14C3662.3,1287.9,3671.9,1287.8,3682.9,1289.4 M3562,821.2c3-1.5,4-4.2,5.4-6.5
	c3.6-6,7.8-11.6,12.3-17c8.1-9.5,15.7-19.4,22.8-29.6c6.1-8.8,10.9-18.3,15-28.1c1.3-3.1,2-6.4,2.8-9.6c0.4-1.5,0.1-3.1-1.1-4.2
	c-4-3.3-8-6.5-12.1-9.6c-1.2-0.9-2.4-0.1-2.9,1.1c-10.8,24.8-26.7,46.2-43.6,67.1c-3.1,3.8-6,7.7-7.9,12.2c-1.3,3-1.6,5.7,0.2,8.7
	C3556.1,810.7,3558.2,816.5,3562,821.2 M3580,697.3c-3.6,15-11.5,26.6-19.3,38.1c-5.4,8.1-11,16-16.5,24.1
	c-2.9,4.3-4.8,9.1-6.1,14.2c-0.9,3.5-0.6,6.5,1.4,9.5c2.5,3.8,4.8,7.7,7.2,11.6c0.7,1.2,2.4,1.2,3,0.1c8.7-15.1,21.5-27.2,30.4-42.1
	c4.5-7.6,9.5-14.9,14.2-22.3c2.8-4.4,4.8-9.1,6.4-14.1c0.9-2.7,0.1-4.6-2.2-6.2C3592.4,706.1,3586.5,701.8,3580,697.3 M3677.2,881.3
	c-8.6,2.8-16.7,5.2-25.1,6.9c-5.7,1.2-11.3,2.5-17,3.5c-11.3,2.2-21.3,7.1-30.2,14.3c-3.8,3.1-7.5,6.2-11.2,9.4
	c-3.3,2.8-6.5,5.8-10.7,6.8c-4.8,1.1-7,4.4-9,8.3c-0.7,1.4-1.4,2.8,0.1,4.1c1.6,1.4,3.3,2.9,5.7,1.9c1.1-0.5,2.1-1.2,3.1-1.9
	c7-4.9,14.6-8.7,22.1-12.7c15.9-8.6,33.2-12,51-12.5c13.1-0.4,25.2-3.9,36.9-9.2c3-1.3,4.1-3.3,4-6.3c-0.1-5.2-0.1-10.3-0.4-15.5
	c-0.3-4.7-0.7-4.9-4.7-3.2C3686.9,877.2,3681.8,879.4,3677.2,881.3 M3533,773c0.8-0.6,1.5-0.9,1.7-1.3c2.9-10.2,9-18.5,14.9-27.1
	c6.5-9.5,13.7-18.7,19-29c1.8-3.5,3.5-7.1,5.1-10.7c1.2-2.5,1.6-5.2,1.5-8c-0.1-1.9-0.4-3.7-2-4.9c-7.9-6.1-15.9-12.2-23.8-18.3
	c-0.2-0.2-0.6-0.1-0.9-0.1c-1.1,1.8-1.2,4-1.4,6c-1.2,10-3.8,19.7-7.7,29c-3.9,9.6-7.8,19.2-11.7,28.7c-2.2,5.4-3.6,11-4.4,16.7
	c-0.3,2.5,0,4.7,1.5,6.9C3527.6,765,3530.2,769,3533,773 M3567.1,847.8c-2.7-10-5.6-17.1-12.7-22.4c-18.4-13.8-38.7-16.8-60.7-12.7
	c-18.6,3.5-36.7,9-54.9,14c-11.5,3.1-22.9,6.6-34.7,8c-0.5,0.1-1,0.5-1.8,1c0.7,4.3,1.4,8.8,2.2,13.2c0.2,1.4,1.4,2,2.7,1.5
	c7.1-2.7,14.3-5.2,21.3-8.2c31.1-13,63.5-16.6,96.8-12.7c12.4,1.4,23.7,5.4,33.8,12.8C3561.1,843.8,3563.1,845.1,3567.1,847.8
	 M3613.5,966.5c2.9,5.6,5.9,11.3,8.8,16.9c7.3,13.7,11,28.5,13.1,43.6c1.7,12.1,3.7,24.1,5.5,36.1c2.6,16.9,6.3,33.6,7.1,50.7
	c0.2,4,0.3,7.9,0.5,11.9c0.1,3,0,6.1,1.8,8.8c1.5-0.2,2-1.3,2.3-2.5c1.7-6.5,3.2-13,3.5-19.8c0.4-8.2,1-16.4,1.6-24.6
	c0.5-7.3,0.6-14.6-0.2-21.9c-1.7-15.1-2.1-30.4-5.5-45.3c-3.8-16.6-11.4-31.5-21.9-44.8C3626.3,970.3,3619.9,968.4,3613.5,966.5
	 M3558.8,1256.9c-0.3,0.1-0.6,0.2-0.9,0.2c-9.5,2.6-10,3-3.6,11.9c3.4,4.8,7.9,8.4,12.5,12c14.5,11.2,30.3,19.1,48.7,21.4
	c10.9,1.3,21.7,3.3,32.6,4c15.2,1,29.4,4.7,42.3,12.9c1,0.7,2.1,1.3,3.2,1.7c0.5,0.2,1.2,0.1,1.7-0.1c0.7-0.2,0.8-0.8,0.5-1.5
	c-2.7-7.1-5.3-14.2-8-21.4c-0.8-2.1-2.5-3.3-4.6-4.1c-4.4-1.5-8.9-2.2-13.5-2.2c-5.8,0.1-11.5,0.5-17.3,1
	c-22.9,2.2-44.1-3.5-63.9-14.6c-8.2-4.6-14.3-11.3-18.5-19.7c-2.2-4.4-2.3-4.4-6.8-3.1c-1.5,0.4-2.9,0.9-4.4,1.3V1256.9
	 M3504.2,1256.7c3.8,1.6,7.7,0.7,11.4,0.8c5.2,0.1,10.3-0.3,15.5-0.4c4.6-0.1,8.2-1.8,10.7-5.9c2.2-3.7,4.7-7.2,6.5-11
	c8.7-18.8,19.6-36.4,29.9-54.4c9.4-16.7,22.8-29.1,40.1-37.3c1.9-0.9,3.8-1.9,5.7-2.9c0.5-0.3,0.8-0.9,1.2-1.3
	c-4.8-3.6-5.6-4.1-11-3.1c-14.5,2.7-27.2,9.1-35.9,21.4c-5.8,8.2-10.9,16.9-16.1,25.5c-9.7,15.9-20.1,31.2-32.4,45.2
	c-6.5,7.4-13.3,14.2-21.6,19.5C3506.7,1253.8,3505.1,1254.7,3504.2,1256.7 M3689.9,847.5c-13.2,6.3-27.7,8.9-41.3,14.1
	c-11.9,4.6-23.4,10.3-34.6,16.5c-5.2,2.8-9.4,6.7-13,11.3c-5.4,7-10.5,14.2-17.6,19.6c-0.9,0.7-1.6,1.9-2,2.9
	c-1.5,3.2-1.5,6.4-0.3,6.6c2.3,0.4,4.1-1,5.7-2.2c2.6-2,5.1-4.3,7.7-6.4c3.3-2.7,6.5-5.5,9.9-8.1c7.8-6.1,16.4-10.5,26.1-12.7
	c6.5-1.4,13-3.1,19.6-4.3c13.2-2.5,25.9-6.8,38.2-12.2c1.6-0.7,3.2-1.8,4.7-2.8c1.4-0.9,2.1-2.1,2.2-3.8
	C3695.5,862.1,3693,853,3689.9,847.5 M3356.3,1501.4c-8.8-2.4-16.1-0.4-23.2,2.5c-8.1,3.4-16.1,7.4-24.1,11.1
	c-2.2,1-4.4,2.1-6.5,3.4c-8.9,5.4-18.3,9.7-28.6,11.9c-3.7,0.8-3.9,1.4-3.3,5.2c1.1,6.3,2.2,12.6,3.5,18.9c0.4,1.8,1.9,2.6,3.5,2
	c4-1.4,8-2.9,11.9-4.7c2.8-1.3,5.3-3,7.9-4.7c11.1-7,23.2-10.9,36.3-10.5c4,0.1,6.1-1,7.7-4.6
	C3346,1521.9,3351,1512.2,3356.3,1501.4 M3365.5,1255c1.9,0.4,3.4,0.8,4.9,0.9c20.6,0.9,39.3,8.2,56.9,18.4
	c11.1,6.4,21.6,13.7,31.5,22c8.7,7.3,18.7,12.6,28.9,17.5c4.4,2.1,5.1,1.8,8.6-2.1c1-1.1,2-2.3,3-3.5c0.6-0.7,1-1.5,1.5-2.3
	c-0.9-2.2-3-1.7-4.6-2.1c-5.5-1.3-10.2-4.2-14.5-7.5c-9.9-7.7-19.9-15.1-29.2-23.5c-5-4.5-10.2-8.7-15.3-13
	c-2.6-2.2-5.5-3.7-8.9-4.5c-13.9-3.6-27.6-7.9-40.9-13.2c-3.5-1.4-6.5-1.3-9.5,0.8C3373.2,1246.2,3368.2,1249.2,3365.5,1255
	 M3394.5,816.4c0.4,4.1,2.3,7.8,4.1,11.7c0.9,1.9,2.6,2.5,4.5,2.5c4.6,0,9.1-0.8,13.5-2c19.1-5.2,38.2-10.4,57.3-15.4
	c8.2-2.1,16.6-4.1,25-5.2c18.6-2.4,36.4,0,52.4,10.9c0.9,0.6,1.9,1.3,3.1,0.8c-2.3-9.1-8.8-14.2-16.8-17.8
	c-5.3-2.4-10.9-3.9-16.6-4.8c-17.1-2.6-34-0.8-50.7,3.2c-13.9,3.4-27.8,6.8-41.6,10.3c-9.8,2.5-19.6,4.4-29.7,4.5
	C3397.7,815.2,3396.1,814.9,3394.5,816.4 M3322.3,1629.7c8.6,1.4,17.3,1.4,25.7-0.3c1-1.9,0.4-3.3,0.2-4.8
	c-1.6-10.3-1.4-20.6,0.3-30.9c2.5-15.4,6.8-30.3,12.1-44.9c2.5-6.9,4.7-13.8,5.5-21.2c0.9-7.7,0-15.2-2.9-22.4
	c-0.5-1.2-2.3-1.4-2.9-0.2c-5,9.8-9.9,19.6-14.8,29.4c-0.9,1.7-0.4,3.6,0.1,5.3c1.7,6.1,1,12.1-0.3,18.1c-1.5,6.9-3.5,13.6-6.1,20.1
	c-3.8,9.6-7.8,19.2-11.6,28.8c-1.8,4.5-3.4,9.1-4.8,13.8C3322,1623.4,3320.9,1626.3,3322.3,1629.7 M3695.7,904.6
	c-2.3-1.1-3.9,0.1-5.5,0.8c-11,5-22.4,7.4-34.5,7.8c-11,0.3-21.9,1.7-32.4,5.2c-13.6,4.6-26.3,11.2-38.3,19.1
	c-2.4,1.5-2.2,3,0.4,4.7c0.8,0.5,1.6,0.9,2.3,1.5c2.9,2.4,5.8,2.3,9.2,0.6c10-4.9,20.8-6.9,31.8-7.7c4.5-0.3,9.1-0.4,13.7-0.5
	c7.1-0.2,13.9-1.7,20.6-3.7c6.7-2,13.4-3.9,20.1-6c2.3-0.7,4.6-1.6,6.7-2.7c2-1,3.3-2.7,3.8-4.9C3694.8,914,3696,909.3,3695.7,904.6
	 M3583,888.3c3.4-1.3,4.3-4,5.5-6.4c5.5-10.7,14-18,24.4-23.7c13.1-7.2,25.8-14.9,38.5-22.6c8.2-4.9,15-11.3,20.6-19.1
	c2.6-3.6,3.3-7,1.1-10.9c-1.8-3.1-3.3-6.3-5.2-9.8c-1,1-1.9,1.5-2.2,2.2c-3.9,9.1-11,15.2-19.1,20.2c-11.4,7-22.9,13.9-34.3,20.8
	c-2.6,1.6-5.2,3.2-7.8,4.7c-11,6.4-17.9,16.3-22.5,27.8C3579.9,877.2,3581.3,882.7,3583,888.3 M3577.1,890.7
	c1-5.6-1.1-10.1-5.2-13.7c-0.5-0.4-0.9-0.9-1.3-1.3c-13-13.4-19.6-16.7-38.3-18.1c-10.3-0.8-20.7-0.3-31,0.8
	c-13.6,1.5-27.2,2.8-40.8,4.3c-7.5,0.8-15,1.2-21.9,3.8c-0.4,1.2-0.1,1.7,0.5,1.9c7.2,2.4,14.4,4.8,21.6,7.3c2.7,1,5.4,0.7,8.1,0.4
	c13.3-1.6,26.6-2.5,39.9-4.1c23.8-2.9,45.9,2.7,65.2,17.7C3574.8,890.3,3575.8,890.9,3577.1,890.7 M3336.5,1541.5
	c-1.1-1.2-2.2-1.6-3.5-1.6c-10.3,0-19.9,2.5-28.8,7.5c-8.5,4.8-16.6,10.2-26,13c-2.1,0.6-2.8,2.2-2.4,4.3c1.6,7.4,3.3,14.8,5.1,22.2
	c0.5,2,1.8,3.1,4,2.7c5.7-1.1,11.4-1.9,17-3.4c8.8-2.3,16.1-6.6,20.1-15.5c3.8-8.6,8.6-16.8,12.9-25.2
	C3335.5,1544.1,3336,1542.7,3336.5,1541.5 M3483.8,623.6c-1.9,14.5-6.2,27.7-10,41.2c-0.3,1.2-0.7,2.3-0.9,3.5
	c-1,4.8-1.6,9.6-1.5,14.5c0,3.5,0.8,6.5,3,9.3c4.5,5.6,8.4,11.8,13.6,17c0.4-0.9,0.8-1.4,0.8-2c0.7-14.7,6.5-27.7,13.5-40.3
	c3.1-5.6,5.3-11.6,6.2-18c0.6-4.1-0.6-6.9-4-9.4c-5.9-4.3-11.5-9-17.2-13.6C3486.4,625.1,3485.4,624.6,3483.8,623.6 M3642.1,984.7
	c3.1,6.9,6.2,13.8,9.3,20.6c3.9,8.4,5.5,17.4,6.7,26.5c1.5,11.5,2.2,23,3.4,34.5c0.7,7,0.6,14,0.1,21c-0.6,8.5-1.3,17-1.7,25.5
	c-0.4,7.4-2.3,14.4-4.1,21.5c-0.4,1.4-0.7,2.8-1,4.1c1.8,1.4,2.5,0,3.2-0.9c8.9-11.3,13.8-24.4,16-38.4c4.4-28.2,2.2-55.9-8.4-82.6
	c-4.3-10.8-9.9-20.9-18.7-28.9C3645.6,986.3,3644.4,984.8,3642.1,984.7 M3678.3,816.7c-2.9,0.8-3.6,2.6-4.6,4
	c-5.6,7.4-12.4,13.4-20.3,18.1c-12.8,7.7-25.5,15.4-38.6,22.6c-9.9,5.4-17.9,12.4-23.3,22.4c-1.7,3.2-3.9,6.2-6.3,9
	c-1.9,2.3-2.8,4.7-2.5,7.5c0.1,0.8,0.4,1.8,1,2.3c0.8,0.7,1.7,0,2.3-0.7c3-3.5,6.2-6.7,8.8-10.5c6.3-9.4,14.8-15.8,24.9-20.8
	c15.1-7.4,30.2-14.4,46.5-18.6c6.8-1.8,13.4-4.1,19.7-7.1c3.3-1.6,3.9-2.5,2.7-5.7C3686,831.6,3682.8,824,3678.3,816.7
	 M3462.8,685.3c-3.2-4.4-6.2-8.5-9.3-12.5c-1.3-1.7-2.8-3.2-4.3-4.7c-4.8-4.4-10.7-6.9-16.9-8.7c-13.2-3.7-25.9-8.8-38.3-14.5
	c-6.4-2.9-12.4-6.3-17.7-11.1c-2.8-2.6-3.5-2.2-4.3,1.9c-0.5,3-1,6-1.4,9c-1.1,8.3-2.3,6.1,5,11.8c3.1,2.5,6.6,4.3,10.2,6
	c12.4,5.9,25.1,10.6,38.7,13.4c12.2,2.5,24.3,5.4,36.1,9.5C3460.9,685.8,3461.5,685.5,3462.8,685.3 M3519.6,751.6
	c3.7-16.2,11-30.9,17-46.2c4.2-10.6,6.2-21.6,7.4-32.8c0.2-2,0-3.6-1.7-4.8c-2.9-2.1-5.8-4.3-9.1-6.7c-0.7,1.6-1.4,2.7-1.6,3.8
	c-1.4,8.9-5.3,16.8-9.5,24.6c-3.9,7.3-7.7,14.5-10.6,22.3c-1,2.9-2,5.8-2.9,8.7c-2.7,9-2.7,17.4,4.5,24.6
	C3515.4,747,3516.1,750.4,3519.6,751.6 M3444.5,1260.6c4.9,4.4,9,8.5,13.5,12.1c9,7.3,18,14.6,27.2,21.6c4.9,3.7,10.2,6.7,16.7,6.5
	c2.3-0.1,4.1-0.6,5.6-2.3c4.5-5.3,8.9-10.6,13.3-15.8c-0.5-0.8-0.5-1.2-0.8-1.3c-11.6-4.6-22.3-11.2-33.2-17.1
	c-2.2-1.2-4.4-1.8-6.9-1.9c-11-0.5-21.9-1.3-32.8-2.8C3446.6,1259.4,3446.1,1259.9,3444.5,1260.6 M3545.8,1254.5
	c3.9,0.8,6.3-1.7,8.6-4c8.4-8.4,16.9-16.8,23-27c4.7-7.8,9.2-15.8,13.5-23.8c6.2-11.5,12.8-22.8,20.5-33.4
	c5.2-7.1,10.8-13.9,18.4-18.6c-19,7.1-35.2,17.9-45.8,35.6c-10.5,17.5-21,34.9-29.9,53.4c-2.2,4.6-4.8,9.1-7.2,13.7
	C3546.3,1251.6,3545.1,1252.8,3545.8,1254.5 M3562.8,1249.1c0.8,0.9,1.6,0.6,2.5,0.3c14.6-5,26.1-13.6,34-27.2
	c7.4-12.6,14.1-25.5,19.7-39c4.6-11,11.1-21,18-30.6c0.7-1,1.3-2,2.4-3.8c-8.5,2.5-14.8,6.8-19.8,13c-9.6,11.9-17.5,24.8-24.7,38.3
	c-2.4,4.6-4.8,9.2-7.3,13.7c-6.1,10.9-12.9,21.3-21.8,30.2c-1.3,1.3-2.2,2.8-3.3,4.3C3562.5,1248.5,3562.8,1248.9,3562.8,1249.1
	 M3265.2,875.6c0.4,0.7,0.5,1.4,0.9,1.8c13.1,12,23.9,26,35.4,39.3c3.2,3.7,6.8,6.8,10.8,9.7c7,4.9,13.5,10.4,20.3,15.6
	c1.4,1.1,2.5,2.7,4.5,2.8c0.5-1.7-0.7-2.8-1.5-4c-9.8-15.8-19.7-31.5-29.3-47.3c-5-8.2-11.3-15.1-18.1-21.6c-4-3.8-7.9-5-13-2.2
	C3271.8,871.6,3267.8,872.5,3265.2,875.6 M3690,928.7c-7.4,1.6-14.2,3-20.8,5.5c-10.9,4.1-22.2,5.9-33.9,5.9
	c-10.1,0-20,1.2-29.7,4.4c-1.7,0.6-3.5,1-5.1,1.8c-1,0.5-2.2,1.3-2.6,2.3c-0.5,1.3,0.9,1.9,1.9,2.7c3.5,2.8,7.2,4,11.9,2.8
	c5.4-1.3,10.9-0.7,16.3-0.2c15.2,1.4,30.3,2.2,45.5,0.4c9.7-1.1,8.7-0.1,12.3-9.3c1.8-4.5,3.2-9.2,4.6-13.8
	C3690.5,930.7,3690.2,930.1,3690,928.7 M3503.1,729c1.2-4.9,2.1-9.6,3.6-14.2c2.6-8.4,6.5-16.4,10.6-24.2c2.4-4.6,4.7-9.2,6.9-13.9
	c2-4.1,2.9-8.6,3.9-13.1c0.8-4,0.3-7.2-3.5-9.4c-0.5-0.3-1-0.7-1.5-1.1c-3-2.1-6-4.1-9-6.1c-3.5,2.4-2,6.6-3.6,9.7
	c-1.9,3.8-3.3,7.8-5.1,11.7c-2.3,5-4.9,9.8-7.2,14.7c-3.9,8.4-5.7,17.2-5.9,26.5c-0.1,4.2,0.5,7.8,3.4,10.9
	C3498.2,723.3,3499.4,726.9,3503.1,729 M3474.6,880c10,4,18.6,7.9,27.6,10.7c4.2,1.3,9.1,1,13.6,0.9c7.7-0.3,15.2,0.4,22.8,1.5
	c12.6,1.8,24.2,6,34.5,13.5c0.7,0.5,1.6,0.9,2.4,1.3c0.2,0.1,0.6,0.1,1,0.2c2.5-5.7,1.6-10.6-3.5-14.5c-2.9-2.2-5.7-4.7-8.8-6.5
	c-17.8-10.1-36.9-14.2-57.2-11.4c-9.7,1.3-19.3,3-29.1,2.9C3477.4,878.6,3476.8,879,3474.6,880 M3297.1,924.7
	c-0.5-1.3-0.5-1.7-0.7-1.8c-13.8-9-27.5-18.3-43.2-23.7c-10.2-3.5-9.2-3.3-14,5.6c-3.6,6.8-5.5,14.2-7.1,21.7
	c-0.5,2.6,0.2,3.7,2.6,3.5c11-0.6,21.9-0.6,32.8-2.2c8.1-1.2,16.4-1.6,24.6-2.4C3293.7,925.2,3295.2,924.9,3297.1,924.7 M3466.4,681
	c0.5-0.7,1-1.1,1-1.6c1.1-12.5,5.5-24.3,8.6-36.3c1.3-5,2.2-10.1,3.2-15.2c1-5.6-0.4-10.1-5.3-13.5c-3.5-2.4-6.5-5.4-9.6-8.1
	c-1.7,0.7-2,1.8-2,3.1c0,6.2-1.8,12-4,17.7c-2.2,5.7-4.1,11.4-5.9,17.2c-0.9,2.9-1.6,5.9-1.8,8.9c-0.3,3.7,0.1,7.3,2.4,10.5
	C3457.2,669.6,3461.3,675.6,3466.4,681 M3442.1,658.5c-5.5-10.9-11.2-20-21.9-24.8c-8.1-3.6-15.7-8.2-23.1-12.9
	c-5.4-3.4-10.8-6.9-15.2-11.6c-0.9-0.9-1.9-1.5-3.3-1.6c-2.1,4.7-3,9.8-4.2,14.8c-0.5,1.9,0.1,3.5,1.4,5c4.1,5,9.2,8.8,15,11.7
	c12.9,6.4,26.2,11.6,39.8,15.9C3434,656.2,3437.5,657.2,3442.1,658.5 M3654.9,1257.1c-6.8-7.8-15.2-13.2-24.4-17.2
	c-4.7-2-9.6-3.7-14.5-5.5c-3.4-1.2-7-3.7-10.2-3.2c-3.2,0.4-6.1,3.7-9,5.8c-3.7,2.6-7.3,5.3-10.6,7.8c-0.5,2.5,1.1,3.2,2.3,4
	c5.3,3.7,11,6.5,17.1,8.5c3.5,1.1,7.1,1.8,10.8,1.5C3629,1257.5,3641.7,1256.3,3654.9,1257.1 M3443.4,587.2
	c-0.8,0.7-1.2,0.9-1.1,1.2c0.2,11.4-3.4,22.1-6.1,32.9c-3.9,15.1-2.9,13,3.8,23.6c1.6,2.6,2.3,6.3,6.1,7.2c2-2.5,1.7-5.7,2.6-8.5
	c2.2-6.3,4.2-12.7,6.5-18.9c2.1-5.7,3.5-11.5,3.3-17.7c-0.1-4.2-1-7.7-4.5-10.4C3450.3,593.5,3447.3,589.7,3443.4,587.2
	 M3341.5,1544.6c-0.4,0.4-1,0.7-1.2,1.2c-6.2,11.9-12.5,23.7-18.6,35.6c-0.8,1.6-1.6,3.4-1.6,5.2c-0.3,11.8-4.5,22.6-8,33.6
	c-0.4,1.2-0.8,2.3-1.2,3.5c-0.8,2.8,0.5,4.4,3.7,4.8c1.3,0.2,2.4-0.3,2.9-1.6c0.3-0.8,0.4-1.8,0.6-2.6c1.5-6.9,3.8-13.5,6.5-20
	c3.9-9.6,7.8-19.2,11.6-28.8c2.9-7.4,5.1-15,6.5-22.8c0.4-2.4,0.8-4.8,0.2-7.2C3342.8,1545,3342,1544.8,3341.5,1544.6 M3429.7,627.5
	c0.7-1,1.4-1.7,1.6-2.4c2.1-8.2,4.3-16.5,6.2-24.8c1-4.2,0.7-8.4,0.3-12.7c-0.4-4.7-2.7-8-7.1-9.7c-0.9-0.3-1.7-0.8-2.5-1.1
	c-4.6-1.5-6.8-2.8-7,4.8c-0.1,5.8-1.3,11.5-2.1,17.2c-0.7,4.7,0,9.1,2.2,13.3c2,3.8,3.8,7.6,5.8,11.4
	C3427.8,624.7,3428.7,625.9,3429.7,627.5 M3603,1224.1c0.9,0,1.6,0.2,2,0c9.6-7.5,18.3-16,23.9-27.1c7.2-14.5,12.4-29.7,17.3-45
	c0.1-0.4-0.2-1-0.3-1.9c-3.7,1.4-6,4.2-7.9,7.2c-5.6,8.7-11.2,17.3-15.3,26.9c-5.3,12.6-10.7,25.2-18.3,36.6
	C3603.7,1221.8,3603.5,1223,3603,1224.1 M3515.2,896.8c8.1,4.7,15.4,9,22.7,13.3c1.9,1.2,4.1,1.1,6.2,1.2c9.5,0.5,18.7,2.3,27.3,6.6
	c1,0.5,2.2,1.1,3.2-0.2c0.9-1.3,1.3-2.9,0.5-4.3c-0.7-1.3-1.9-2.3-3.1-3.3c-7.5-6-16.2-9.6-25.5-11.8c-8.6-2.1-17.4-3-26.2-3.2
	C3518.8,895.1,3517.3,895.2,3515.2,896.8 M3260.1,878.7c-4.8,3.5-9.2,7.4-12,13.2c4.3,1.7,8.2,3.2,12.1,4.8
	c3.9,1.7,7.8,3.4,11.6,5.3c3.5,1.8,6.8,3.9,10.2,5.9c3.5,2.1,6.9,4.4,11.7,6.7C3285.6,902,3268.6,883.9,3260.1,878.7 M3611.9,957.5
	c7.2,6.2,14.2,7.6,21.6,7.9c7.3,0.3,14.6,0.5,21.9,0.6c5.5,0.1,11,0.1,16.2,2c2.1,0.7,3.6,0.1,4.5-1.8c1.1-2.4,3-4.6,2.6-8.1
	c-10.9,0-21.7,1.7-32.5,1.1C3635.4,958.5,3624.6,956.4,3611.9,957.5 M3295.2,1616.4c10.3-7.4,13-18.8,18-29.6
	c-3.9-0.2-6.2,2.2-9,2.7c-2.7,0.4-5.4,1-8,1.5c-3,0.6-6,1.2-8.9,2c-3,0.8-3.7,2-2.8,4.5C3286.8,1604.4,3289.7,1611,3295.2,1616.4
	 M3632.8,969.6c5.1,4.1,8.7,6.8,12.2,9.7c1.7,1.4,3.7,2,5.8,2.2c2.4,0.2,4.9,0.4,7.2,0.8c7.5,1.3,7.5,1.3,11.6-4.8
	c0.3-0.5,0.7-1,1-1.5c1.6-2.8,1.3-3.9-1.6-4.7c-1.8-0.5-3.6-1-5.3-1.1c-8.2-0.4-16.4-0.8-24.6-1.1
	C3637.7,969,3636.2,969.3,3632.8,969.6 M3493.3,1263.3c9.9,5.5,17.6,11,26.8,13.7c4.3,1.3,7.4-0.4,9.1-4.9c0.3-0.8-0.1-1.7-1.1-2.1
	c-2.6-0.9-5.2-1.7-7.6-3C3509.2,1261.5,3509.2,1261.5,3493.3,1263.3 M3408.6,600.9c1.4-2.1,0.3-3.4-0.2-4.7
	c-1.8-4.8-3.8-9.6-5.5-14.4c-1.9-5.4-2.9-5.4-7.5-1.8c-1.4,1.1-2.8,2.4-3.9,3.7c-1.1,1.3-1.1,2.8,0.1,4.1c1,1.1,2,2.3,3.1,3.3
	C3399.2,594.6,3403.8,597.8,3408.6,600.9 M3406.9,575.8c0.8,5.7,3.1,11,5,16.4c0.5,1.4,1,3.5,2.6,3.4c2.5-0.1,1.9-2.7,2-4.2
	c0.5-4.5,0.8-9.1,1-13.6c0.1-2.2-1.1-3.5-3.4-3.4S3409.2,574,3406.9,575.8 M3523.9,1262.4c-0.3,0.5-0.7,0.8-0.9,1.3
	c-0.1,0.2,0.2,0.6,0.4,0.8c3.2,2,6.6,3.1,10.3,1.5c0.7-0.3,1.2-1.3,1.5-2c0.6-1.3-0.7-1.4-1.5-1.6
	C3530.5,1261.2,3527.2,1262.4,3523.9,1262.4 M3655.1,985.3c-0.6,0.7-1,1-1.3,1.5c-0.1,0.1,0.1,0.5,0.3,0.8c1.3,1.9,2.9,2.9,5.2,1.8
	c0.5-0.2,1.1-0.7,1.2-1.2c0.1-0.4-0.2-1.3-0.6-1.4C3658.2,986.2,3656.6,985.8,3655.1,985.3"/>
<path id="XMLID_2540_" class="st0" d="M384,659.2c0.6,5.7,3.2,9,5.4,12.5c4.4,7,9.4,13.7,13.7,20.8c3,5,7.4,6.2,13.4,4.9
	c9-2,18.1-4.6,27-5.5c13.2-1.4,23.5-8.4,32.9-17.5c8.2-7.9,16.1-16.1,23.9-24.3c9.5-10,18.7-20.1,28-30.2
	c16.2-17.4,35.1-32,53.2-47.3c10.2-8.6,21.6-15.5,33.6-21.2c23.8-11.3,47.7-22.4,70.9-35.3c4.4-2.5,9-5.5,14.2-5.6
	c0.7,0,1.6,0.7,2,1.3c0.4,0.6,0.5,1.8,0.1,2.3c-1.5,1.8-3.1,3.5-5,4.9c-10.2,7.7-20.5,15.4-30.9,23s-20.4,15.5-29.6,24.6
	c-13.8,13.7-27.7,27.3-42,40.5c-7.7,7.1-15.4,14.2-22.4,21.9c-6.1,6.7-12.1,13.4-18.3,19.8c-11.5,12-23.7,23.3-38.2,31.7
	c-18.4,10.6-37,18.9-57.6,15.8c-2.5-0.4-5.4,0.2-8.1,0.7c-9.9,1.9-19.9,3.9-29.8,6c-6.5,1.4-7.5,3.1-4,7.5
	c10.5,13.4,21.1,26.7,31.8,39.9c5.9,7.2,7.1,7.2,17,2.4c8.9-4.3,17.5-9.4,26.6-13.2c7.4-3.1,12.7-7.4,17.2-13.9
	c12.3-17.9,27.5-33.7,43.7-48.3c25.1-22.6,52.1-42.8,81-60.4c16.2-9.8,32.6-19.3,47.9-30.7c6.5-4.8,13.5-8.8,20.4-12.9
	c1.4-0.8,3.8-0.7,4.2,1.4c0.2,1.1-0.1,2.8-0.8,3.6c-3.6,3.9-8.2,6.4-12.7,9c-21.2,12.4-39.4,28.1-53.6,48c-3,4.2-6.1,8.3-9.2,12.5
	c-14.6,19.7-29.1,39.3-46.5,56.9c-19.1,19.2-40.8,32.8-67.3,34.8c-8.9,0.7-17,3.3-25.1,7.1c-7.7,3.6-15.3,7.3-22.9,11.1
	c-0.8,0.4-1.6,0.9-2.5,1.4c-4.1,2.4-4.8,4.4-2.1,7.2c3.2,3.3,6.4,6.6,10,9.3c9.8,7.2,20,13.8,29.7,21c4.3,3.2,8.4,3.2,13.6,0.6
	c13.1-6.6,26.4-12.6,40-17.4c4.5-1.6,6.8-4.2,8.9-8.2c5.8-11.1,11.8-22.1,18-33c24-42,59.5-72.6,101.2-97
	c27.4-16.1,56.2-29.1,83.3-45.6c2.7-1.7,6-2.5,9.1-3.4c0.6-0.2,1.5,0.6,2.1,1.1c1.3,1.1,0.4,2.6-0.6,3.4c-1.8,1.6-3.7,3.1-5.8,4
	c-9.4,4.3-16.1,11.6-22.8,19c-7.3,8.1-14.4,16.3-21.2,24.7c-8.1,9.9-16.2,19.7-23.6,30c-16.1,22.2-33.8,42.8-54.2,61.6
	c-18.2,16.8-38.4,29.3-60.4,39.5c-3.8,1.8-7.9,3-11.9,3.9c-20,4.5-38.7,13.5-57.6,21.8c-3.3,1.5-3.8,4.2-1,5.9
	c10.7,6.7,22.8,11.2,34.1,17c4.6,2.4,8.9,2.3,14.1,0.4c7.9-3,15.8-5.7,23.8-8.1c6.9-2.1,11.4-6.4,14.2-12.6
	c1.7-3.8,3.4-7.6,4.9-11.4c4.1-10.6,11.2-19,20.2-26.5c18.4-15.3,38.3-28.1,59.2-39.2c25.6-13.5,52.1-23.9,79.2-32.8
	c7.5-2.5,15-4.9,22.6-7.2c1.9-0.6,3.8,0.2,3.9,2.1c0.1,1-1,2.6-2,3.2c-4.8,3-10,5-14.7,8.5c-25.3,18.7-49.3,38.8-70.3,62.2
	c-12.7,14.1-25.8,27.8-41.9,38.4c-17.5,11.6-36.1,18.2-56.2,17.8c-3.1,0-6.4-0.2-9.4,0.7c-9.3,2.8-18.6,6.1-27.9,9.3
	c-1.3,0.5-2.6,1.3-2.6,2.8c0,0.7,0.5,1.6,1.1,1.9c15.5,8.6,31.1,17,46.6,25.6c3.4,1.9,6.8,1.1,10.4-0.3c13.1-4.9,26.3-9.9,39.4-14.7
	c5.1-1.8,8.9-4.8,12-9.3c11.2-16.5,26.5-28.3,44.6-36.3c21.6-9.4,42.5-20.3,63.4-31.3c24.1-12.7,49-21.5,75-26.4
	c17.2-3.3,34.3-6.5,51.5-9.7c2.7-0.5,5.4-0.9,8.1-1c1.8-0.1,3.6,0.4,4,2.4c0.3,2-1,3.6-2.8,4.1c-18.9,5.6-36.1,15.7-54.2,23.5
	c-9.5,4.1-18.8,9-27.4,14.9c-14.1,9.7-28,19.6-41.8,29.8c-20.3,15.1-42,27.8-64.6,38.5c-15.7,7.5-32,10.9-48,7.6
	c-9.9-2.1-19.2-1.2-29,3.2c-3.4,1.5-7.2,2.1-10.5,3.8c-5.2,2.5-11.7,2.2-15.5,7.9c3.8,4,9.1,5.8,13.8,8.5c1.7,1,4.2,0.9,6.3,1.2
	c29.7,3.9,58.9,9.2,87.5,16.7c16.8,4.4,33.2,9.5,48.6,16.9c14.6,7,30,12.3,45.7,17c16.1,4.8,32.1,10,48,15.4
	c16.3,5.5,32.9,10.4,50,13.9c6,1.2,12,2.4,17.9,3.8c6.6,1.6,9.4,4,7.6,6.2c-3,3.8-6.8,2.4-10.1,2c-11.8-1.5-23.5-3.4-35.3-4.8
	c-34.6-4.3-69.6-7.1-104.6-9.3c-31-1.9-59.9-9.4-86-23.2c-24.3-12.8-48.1-26.3-69.8-42.9c-6.6-5.1-14.3-8.8-21.6-13
	c-0.9-0.5-2.6-0.6-3.7-0.2c-1.4,0.6-1.3,2.1-1.3,3.4c0.4,10.8,0.7,21.7,1.1,32.5c0.1,3,0.3,6,0.4,9.1c0,4.5,1.2,8.3,4.3,11.5
	c6,6.2,8.1,14.5,9,23.1c3.9,34.2,7.2,68.5,8.6,103.1c1.4,33.4-0.9,67.2-1.5,100.8c0,1.7-0.2,3.6-0.8,5.2c-0.4,1.1-1.9,2.5-2.8,2.6
	c-1.1,0.1-2.2-1-3.1-1.8c-0.6-0.5-0.8-1.5-1-2.3c-4.6-19.8-9.8-39.5-13.5-59.6c-4-21.8-8.3-43.5-16.7-63.7c-4.2-10-7.6-20.4-10-31.3
	c-5.9-26.8-1.3-52.7,17.9-77.1c1.9-2.4,2.9-4.8,2.7-7.4c-1-16.4,0.7-33.2-1.5-49.4c-0.5-3.8-1.8-6.1-5.1-7.8
	c-15.3-8.1-30.5-16.5-45.7-24.7c-1-0.5-2.3-0.7-3.7-1.1c-2.2,3.2-1.6,6.2-1.5,9.2c0.6,10.8,0.4,21.7-0.6,32.7
	c-0.5,5.6-1.8,11.3,2.4,16c1.5,1.6,1.2,4.8,1.6,7.4c2.1,17.9,4.4,35.8,6.2,53.7c0.8,7.7,1.1,15.5,0.7,23.4
	c-1.1,24.5-3.3,49.1-7.9,73.8c-3.8,20.2-7.5,40.4-7.9,60.6c0,0.9-0.1,1.8-0.2,2.6c-0.2,2.3-0.8,4.7-3.5,5.3
	c-2.8,0.6-3.8-1.3-4.1-3.7c-0.4-3.4-0.8-6.8-1.2-10.2c-1.6-14.1-3.5-28.1-7.3-41.6c-5.8-20.3-9.6-41.3-12.9-62.5
	c-2.8-18.3-2.7-37.1,0.5-56.1c2.9-17.4,9-34,20.6-49c3.3-4.3,4.8-8.7,5.4-13.8c1.9-16.3,1.6-32.4,1.3-48.5c-0.1-4-1.9-6.2-5.1-7.8
	c-13-6.3-25.9-12.7-38.8-19c-0.6-0.3-1.7,0.1-3.2,0.2c-3.6,12.9-6.9,25.9-9.2,39.1c-1,5.8-1.5,11.4-0.3,16.9
	c1.8,8.4,1.5,17.1,0.9,25.9c-0.9,15-3.6,29.9-8.1,44.7c-4,13.1-6.9,26.2-7.3,39.4c-1,37.3-9.3,74.7-12.8,112.1
	c-0.1,1.2-0.7,2.7-1.6,3.7c-0.9,1.1-2.5,1.2-3.6,0.5c-0.7-0.4-1.3-1.2-1.5-1.9c-4.8-18-10.6-35.7-14-54c-5.4-29.2-5.2-59.2,2.4-89.9
	c4.8-19.2,11.1-38.2,18.2-57.1c3.7-9.9,8.1-19.7,14.7-28.3c4-5.2,5.9-10.2,6.9-16c1-5.7,2.5-11.4,3.9-17.1c1.2-4.8,2.3-9.6,3.8-14.4
	c2-6.8,0.6-11.2-5.4-15c-14.7-9-28.8-18.8-40.9-31c-2.2-2.2-4.9-1.5-6.2,1.9c-4.4,10.6-8.2,21.3-12.8,31.9c-3.4,8-4,15.5-2,23.1
	c2.9,11.2,3.2,22.9,1.7,34.9c-1.3,11-2.7,22-5,33c-10,47.9-16.4,95.8-22.8,143.7c-0.2,1.7-0.8,3.5-1.5,5.1c-0.2,0.6-1.5,1.1-2.3,1.1
	c-0.8,0.1-1.8-0.2-2.3-0.8c-1.8-2-1-4.9-1-7.4c-0.4-28.3-1.5-56.4-6.5-83.8c-1.9-10.5-3.1-21.2-4.4-31.8
	c-1.4-11.6-0.7-23.5,2.7-35.3c2.8-10,5.8-20,9.2-29.9c4.3-12.6,10.5-24.5,18.8-35.5c3.5-4.6,5.8-9.5,7.8-14.6
	c5-12.8,9.1-25.8,15.7-38.2c2.4-4.5,1.3-7.3-1.3-10.5c-10.2-12.6-20.1-25.3-30.2-38c-1.3-1.6-2.6-3.3-4-4.8
	c-1.8-1.9-4.3-1.3-5.3,1.2c-5.5,14.1-10.9,28.2-16.5,42.2c-1.3,3.3-0.6,6.1,0.4,8.9c3.4,10.2,3.5,21,2.4,32.1
	c-2.5,26.9-8.7,53.5-16.5,80.1c-12.3,42.2-28,83.8-37.6,126.3c-0.3,1.2-1.1,2.5-2,3.5c-0.5,0.6-1.7,0.9-2.5,0.8
	c-0.8,0-1.8-0.6-2-1.2c-0.4-2-0.7-4.2-0.7-6.3c0.5-16.2-1-32.1-2.3-48c-0.9-10.7-1.7-21.5-1.4-32.4c0.9-32.9,6.2-65.9,14.1-98.8
	c5.8-24.3,19.3-45.4,37.9-63.9c2.1-2.1,4-4,5.1-6.6c6.3-14.3,11.9-28.8,16.9-43.5c1.3-3.7,0.7-6.8-1.4-9.7
	c-6.4-9.2-12.4-18.7-18.7-27.9c-1.1-1.6-1.8-3.9-5.5-2.8c-8,11-13.7,23.6-20.5,35.7c-1.2,2.1-1.1,4.3-0.6,6.4
	c3.5,15,0.8,30.3-4.2,45.6c-8.9,27.4-20.5,53.8-37.4,78.4c-9.9,14.4-19.1,29-24.9,45c-9.6,26.6-18.8,53.3-23.5,80.7
	c-0.4,2.2-1,4.4-1.7,6.5c-0.2,0.7-1.5,1.7-2,1.6c-1.2-0.2-2.9-0.7-3.1-1.5c-0.5-2-0.5-4.2-0.3-6.4c1.3-15.4,2.6-30.7,4.1-46.1
	c2.7-27.7,6.4-55.4,13.4-83c8.9-35.4,24.9-68.5,46.3-99.8c5.6-8.2,11.8-16,19.9-22c4.8-3.6,8-7.9,10.8-12.8
	c5.5-9.7,10.8-19.6,17-28.9c4.3-6.5,3.7-11.1,0.3-16.7c-7.9-12.7-15.1-25.8-22.2-39.1c-15.5-29-30.8-58.2-46-87.3
	c-5.6-10.7-10.7-21.7-16.1-32.5c-0.9-1.9-1.9-3.8-1-6.1c0.3-0.8,1-1.6,1.7-2c1.3-0.9,2.8-0.8,3.4,0.4c3.3,6.7,6.2,13.7,9.6,20.3
	c11,21.1,22.3,41.9,33.1,63.1c13.9,27.1,28.3,53.8,43.6,80.1c3.6,6.1,4.3,6.5,11.6,4.2c10.2-3.2,20.3-7.1,30.5-10.1
	c8-2.4,13.9-6.7,19.3-13.4c18.5-23.3,38.5-45.4,60.9-65.4c7.8-6.9,15.8-13.8,24.2-19.8c29.2-20.9,61.1-36.1,93.8-49.2
	c3.7-1.5,9.3-4.9,11.2-1.2c2.7,5.3-4.5,7.1-7.8,9.6c-26,19.4-51,39.8-70.3,66c-1.7,2.3-3.6,4.3-5.5,6.5
	c-14.1,16-28.5,31.6-45.8,44.6c-20,14.9-41.2,24.9-65.4,25.8c-2.7,0.1-5.4,0.5-8.1,1.3C410.5,650.5,397.7,654.8,384,659.2
	 M409.2,988.2l-0.4,0.7l-0.1-0.7c0.9-1.3,1.8-2.7,2.6-4c-0.5-10,1.8-20.1,3.5-30.1c3.1-18,6.6-36,10-53.9c2.7-14,5.4-28.1,6.2-42.1
	c0.6-10.5,0.5-20.9-2.9-30.5c-3-0.8-4.4,1.2-5.4,3.2c-3.3,6.1-6.7,12.2-9.4,18.5c-5.6,13.1-9.5,26.6-12.8,40.1
	c-2.2,9.2-3.2,18.5-2,27.5c2.8,21.2,5.9,42.4,8.9,63.5c0.3,2.3,2,3.5,4.4,3.9C409.3,984.7,408.2,985.9,409.2,988.2 M741.4,619.1
	c-8.1,4.1-13.9,6.9-19.6,9.9c-20.3,10.9-40.6,21.9-59.8,35.2c-33.5,23.3-59.6,52.3-77.7,87.9c-2.1,4.1-4.5,8.1-6.7,12.2
	c-1.6,3-5.6,6.7-3.1,9.2c2.4,2.3,6.9-0.4,10.3-1.7c14-5.5,27.3-12.8,39.5-21.8c23.8-17.5,45.1-37.7,62.7-61.2
	c15.4-20.7,30.8-41.4,48.3-60.7C737.2,626.2,738.5,623.6,741.4,619.1 M339.6,969.8c4.2-12.9,8.5-25.8,12.5-38.7
	c6.6-21.2,13-42.4,19.3-63.7c7.3-24.4,11.7-48.9,13.6-73.5c0.6-8.4,0-16.5-2.5-24.2c-1-3.2-3.8-3.6-5.9-0.8
	c-11.9,15.9-23.5,32-28,50.8c-11.8,49.2-19.1,98.2-12.3,146.4c0.2,1.2,0.7,2.3,1,3.5C338.1,969.7,338.8,969.7,339.6,969.8
	 M885.5,746.7c-2.1-2.6-4.4-1.6-6.5-1.3c-29.6,4.9-58.3,13.2-85.9,27.8c-21.7,11.5-43.4,22.8-65.9,32.4
	c-15.4,6.6-28.4,16.9-38.5,30.6c-1.6,2.2-3.5,4.4-3.2,8c8.6,2.6,17.8,2.5,27.4,0.8c10.1-1.8,19.6-5.6,28.9-10.4
	c19.4-9.9,38.1-20.9,55.6-34.1c13.3-10,27.1-19.2,40.7-28.8c10.9-7.7,22.7-13.7,34.7-19.1C877,750.9,881.1,748.8,885.5,746.7
	 M761.2,706.6c-3.9-1.3-6.4,0.1-9,1c-29.1,10.5-57.2,23.3-83.8,40c-13.6,8.6-26.2,18.7-38.4,29.3c-4.4,3.8-7.6,8.3-9.9,13.5
	c-1.1,2.5-2.2,5-3.3,7.6c-7.1,16.4-6.3,17.5,11,13.8c20.9-4.4,39.2-14.7,55.2-29.7c5.2-4.9,10.1-10,14.9-15.2
	c18.4-20.3,37.6-40,59.6-56.7C758.6,709.4,759.5,708.3,761.2,706.6 M888.7,951.5c-4.6-1.8-6.9-2.9-9.2-3.6
	c-11.8-3.9-23.5-8.2-35.5-11.6c-22-6.3-43.6-13.5-63.7-23.4c-1.5-0.8-3.1-1.3-4.7-2c-19.6-8.2-77.6-22.4-99.5-24.4
	c-3-0.3-6-1.4-9.2,0.4c-0.3,2.7,1.9,3.3,3.5,4.3c20.9,13.9,42.7,26.6,65.7,37.5c20.4,9.7,42.6,15.6,66.1,17.6
	c26.9,2.4,53.8,4.3,80.8,6.3C883.7,952.7,884.6,952.3,888.7,951.5 M469.8,689.9c10.1,0.5,17.7-2.1,24.9-5.4
	c18.1-8.2,34.8-18.8,48.7-33.7c12.2-13.2,24.3-26.5,37.3-38.9c17.4-16.7,35.2-33.2,52.3-50.2c7.5-7.5,16.1-13.9,25.7-22.1
	c-3.1,0.8-4.4,0.9-5.5,1.4c-16.3,7.2-32.5,14.8-48.2,23.3c-16.9,9.1-30.6,22.4-44.9,34.8c-14.7,12.8-28.5,26.4-41.4,40.9
	C503.5,656.8,487.4,672.8,469.8,689.9 M270.8,906c0.6-1.2,0.9-1.6,1-2c8.2-28.6,22.6-54.8,39.7-80.2c16-23.8,26.6-49.8,34-76.5
	c2.6-9.6,4-19.3,2.8-28.8c-0.2-1.7-0.8-3.4-2.5-4.1c-1.9-0.7-3.6,0.6-4.8,1.9c-4.3,5-8.9,9.8-12.7,15.1
	c-21.3,30.2-37,62.4-46.2,96.7c-6.5,24-10.2,48.1-12.7,72.3C269.2,902.3,268.6,904.1,270.8,906 M641.3,1125.7
	c3-3.8,2.3-7.1,2.4-10.2c1.1-24.5,0.8-48.8-0.6-72.9c-1.6-28.5-4.4-56.7-7.6-84.8c-0.8-6.8-1.8-13.6-5.8-19.1c-3.7-5-6.3-5-9.9,0.7
	c-8.8,14.2-14.1,29-13.9,44.7c0.1,10.5,1.7,20.6,4.7,30.3c2.1,6.8,4.5,13.6,7.1,20.2c8.6,21.4,14.2,44,17.4,67.3
	C636.1,1109.9,637.6,1117.7,641.3,1125.7 M555.4,1081.8c3.4-19.6,7-37.1,9-54.6c1-8.8,1.6-17.5,2.5-26.3c2.1-20.3,1.1-40.1-2-59.6
	c-1.5-9.2-2.2-18.7-3.3-28.1c-0.3-2.5-0.6-5.1-1.1-7.6c-0.1-0.7-0.9-1.9-1.4-1.8c-1.2,0.2-3,0.7-3.6,1.6c-2.6,3.8-5.3,7.7-7.4,11.8
	c-5.6,11.2-9.4,22.9-11.1,34.8c-2.6,17.7-2.9,35.1-0.4,52.1c3.6,25,8.9,49.4,15.7,73.4C552.6,1078.4,553.3,1078.9,555.4,1081.8
	 M592.9,512.4c-14.9,3.8-28,11.1-41,18.6c-26.4,15.4-50.1,34.3-71.2,56.4c-14.1,14.7-27.9,29.6-40.2,45.7c-0.8,1-2.2,2.3-0.8,3.4
	c0.9,0.7,2.3,1.1,3.5,0.9c14.8-2.1,28.4-8.3,41-17.2c17.1-12.1,33.1-25.6,46.6-41.6C550.2,555.6,568.9,531.9,592.9,512.4
	 M491.8,870.3c-5.6,7.9-9.1,15.9-11.8,24c-5.6,16.8-11.7,33.6-16.2,50.6c-10.9,41.1-9.2,80.5,2.7,118.3c0.2,0.7,1.2,1,1.8,1.6
	c2.5-1.3,2.1-3.7,2.4-5.6c4-26.4,7.9-52.8,8.9-79.1c0.5-14.5,3.6-29,8.1-43.3c5.1-16.2,7.1-32.4,7.8-48.6c0.1-4.3-0.3-8.7-0.6-12.9
	C494.7,873.6,494.6,871.8,491.8,870.3 M512.5,733.7c16-1.1,29.6-5,42.1-13.4c11.9-8,22.5-17.3,32.2-27.8
	c19.3-20.9,34.8-44.4,52-66.7c0.4-0.5,0.2-1.7,0-2.4c-0.3-1-1.1-1.1-2.2-0.4c-3.6,2.3-7.1,4.8-10.7,6.9
	c-26.9,16.2-50.9,36.3-74.1,57.3C536.9,700.6,521,719.5,512.5,733.7"/>
<path id="XMLID_4888_" class="st4" d="M2623.7,87.3c-16.5,7.7-61.5,232.1,31.2,236.3c65.9,3,115.5-44.6,143.8-64.6
	c28.4-20.1,63-38.2,96.5-28.9c43.1,12,61.4,61.5,75.9,103.8c16.9,49.2,42.3,102.3,91.2,119.9c50.1,18,108.2-11.1,136.9-55.9
	s33.2-101.1,28.8-154.1c-7.2-84.8-35.7-167.8-82.2-239.1"/>
</svg>
