<?xml version="1.0" encoding="UTF-8"?><svg id="a" xmlns="http://www.w3.org/2000/svg" xmlns:xlink="http://www.w3.org/1999/xlink" viewBox="0 0 3838.5 2592.68"><defs><style>.b{isolation:isolate;}.c{fill:#b38f79;}.d{fill:#f3d0a1;}.e{fill:#e3d6ce;}.f{fill:#f9f9f9;stroke:#f9f9f9;stroke-miterlimit:10;}</style></defs><path class="f" d="M3266,549.18c27,45.8,61.8,87.1,100.7,123.6,32.7,30.6,78.6,59.7,119.4,41.4,21.6-9.6,35.7-30.4,48.2-50.5,40.3-64.7,75.4-132.5,105.1-202.7,20.8-49.2,39.1-100.8,38.9-154.2-.2-66.7-30.9-132.8-81.9-175.8-124.8-105.4-304.7-37.5-364.3,105.4-31.2,74.8-28.4,161.2-1.5,237.6,9.4,26.3,21.3,51.3,35.4,75.2"/><path class="d" d="M870.6,354.58c-57.5,73.1-169.3,94.3-262.7,63.4-93.4-31.3-168.3-114.5-168.8-200-.5-85.4,73.1-173,167.5-204.6,94.9-31.5,210.5-6.8,267,68,56.6,74.8,54,200.1-3,273.2"/><path class="e" d="M610.2,481.08c-31.9,91.6-97.2,167-158.6,242s-122.2,155.6-142,250.6c-11.6,55.9-8.4,114-19.7,170-11.3,56-42.2,113.5-96.1,132.4-74.3,26-156.4-38.3-176.3-114.6-19.8-76.3-27.9-153.8,3.4-226.1,31.3-72.3,27.2-164.3,33.7-242.8,11.2-137.4,0-254,23.3-389.8,16.4-95.6,91.8-178.6,185.4-204,236-64.1,423.6,161.7,346.9,382.3Z"/><path class="f" d="M3388.2,577.58c-46.4,35.5-64.7,97.5-66.9,155.8s9,116.5,8.7,175c-.3,58.4-14.4,120.7-57.2,160.5-62.6,58.2-174.7,58.3-212.3,135-21,42.8-9.4,93.7,2.5,139.8,26.1,100.5,52.1,201,78.2,301.4,16.1,61.9,40.7,133.2,101.8,152.2,65.1,20.3,128.5-31.9,176.9-80.1,110.9-110.3,222.9-221.9,304.7-355.2,81.9-133.2,132-292.3,106.9-446.6-23.2-143.7-265.4-474-443.3-337.8Z"/><path class="c" d="M462.9,650.48c1.1,1.1,1.3,1.4,1.6,1.5,2.5,1.1,5,2.4,7.5,3.3,16,6.1,29.5,15.8,41.1,28.3,4.6,4.9,9,10,13.2,15.1,10.3,12.5,19.3,25.9,28.5,39.1,18.4,26.3,31.6,54.8,39.3,86,3.3,13.3,6.9,26.6,10.8,39.8,5.2,17.3,8,35.1,9.1,53.1,1.1,19.6-.2,39.1-6.4,57.8-8.3,25.1-24,43.6-50.2,51.7-13.7,4.2-27.4,8.6-41.1,12.7-7.3,2.2-14.8,3.9-22.4,4.5-9.2,.8-18.3,.3-27.3-1.7-7.7-1.7-15.4-3.7-23-5.8-4.3-1.2-4.8,.4-4.9,4-.1,1.8,.3,3.7,.8,5.4,1,3.8,1.9,7.8,3.5,11.3,5.3,11.7,8.9,24,13.4,36,4.4,11.7,8.2,23.6,9.7,36.1,1,8.5,3,16.8,4.6,25.2,3.6,18.6,6,37.3,5.2,56.3-.9,18.6-3.6,37-7.1,55.3-1.4,7.5-3.7,14.8-6,22.1-2.8,8.9-7.9,16.5-14.6,22.9-3.8,3.7-8.2,6.5-13.4,7.6-13.1,2.9-25.6,1.3-36.5-7-5.3-4-10.3-8.6-15.3-13.1-8.2-7.3-16.2-14.8-24.5-22-12.6-11.1-25.8-21.4-39.4-31.3-15.1-10.9-29.9-22.1-44.4-33.9-13.2-10.8-27.1-20.8-41.2-30.5-21.1-14.5-39.4-31.9-52.1-54.4-12.7-22.5-24.6-45.6-34.6-69.6-12.6-30-14-60.9-6.3-92.4,3.5-14.3,9-27.8,15.5-41,5-10.2,10.9-19.8,19.5-27.4,1.7-1.5,1.6-2.8,.6-4.8-4.6-8.3-8.8-16.7-11.8-25.8-4.1-12.6-6.3-25.5-7-38.6-.9-16.8-.2-33.5,4.6-49.8,3.5-12.2,9.3-23.4,18.1-32.5,4.5-4.6,7.1-9.7,9.1-15.5,3.8-11.6,8-23,13.1-34.2,4.5-9.9,10.5-18.6,18.5-25.9,1.8-1.6,3.6-3.3,5.3-5.1,1-1.1,.6-2.4-.7-2.9-3.1-1.3-6.3-2.4-9.4-3.5-28.7-9.8-49.9-28.7-65-54.7-8.2-14.1-13.1-29.5-17.1-45.2-1.1-4.4-2.2-8.9-2.7-13.5-3.1-28.8,.3-56.6,12.2-83.2,5.7-12.8,12.1-25.3,19.4-37.4,10.3-17,21.5-33.3,33.6-49,10.6-13.8,22.1-26.8,35.3-38.2,13.8-12,29.5-20.6,47.2-25.1,8.9-2.3,17.8-4.2,26.7-6.2,18.2-4,36.4-7.8,54.1-13.5,12.5-4,25-8.1,37.4-12.2,3.5-1.1,7-2.2,10.4-3.6,16-6.1,32.3-11,48.8-15.5,14.2-3.8,28.6-6.1,43.3-6.7,7-.3,14-.1,20.9,1.3,15,3.1,25.9,11.4,33.2,24.9,3.5,6.5,6,13.4,7.7,20.5,2.2,8.9,4.1,17.8,5.9,26.8,4.6,23,8.4,46.2,10.4,69.6,2.4,28.9-.2,57.3-9.8,84.8-4.4,12.7-9.4,25.2-15.2,37.3-16.6,34.8-37.6,67-59.2,98.9-2.9,4.3-6.3,8.2-9.7,12.2-5.7,8-12.4,15.1-20.8,21.3m62-359.6c-.2,0-.4-.1-.7-.1,.4-.5,.5-.4,.4,.3-.1-2.5,2.7-4.4,1.5-7.2,3.7-4.6,7.4-9.2,11-13.9,1.1-1.4,.3-2.8-2.1-4.2-1.3-.8-3.1-1.6-3.8,.3-2.3,5.5-5,11-5.3,17.1,0,.3,.2,.5,.4,.8-2.7,1.8-2.1,4.3-1.4,6.9m-235,680.1c-3.5-.4-5.8-3.1-8.5-4.9-3.3-2.1-6.5-4.5-9.8-6.6-1.1-.7-2.4-.4-3.2,.7-.7,1-1.4,2-1.9,3.1-.5,1.2-.5,2.5,.6,3.3,6.2,4.1,13.1,6.2,20.5,5.9,.7,0,1.4-1.1,2-1.7l-.2,.5,.5-.3m123.8,287.2c3.3,11.5,9.7,20.7,19.5,27.7,5.9,4.2,12.2,7.9,17.1,13.1,.9-.4,1.7-.5,1.9-.9,6.8-10.1,6.8-12-2.7-19.4-10.3-8.1-21.5-14.8-33.4-20.2-.7-.3-1.7,0-2.5,0l-.2-.4,.3,.1m-58.1-82.4c5.1,12.5,14.2,20.9,27,25.1,6.9,2.3,14,3.9,21.1,5.8,3.5,.9,7.1,1.7,10.7,2.4,14.2,2.7,27.4,8,40.4,14,4.7,2.2,8.6,5.6,12.9,7.9,2.1-1,2-2.6,2.1-4.1,.5-6.1,1-12.1,1.5-18.2,.2-3-.8-5.2-3.3-7-3.7-2.8-7.7-4.8-11.9-6.6-20.4-8.9-41.8-12.9-63.8-14-4.2-.2-8.5-.4-12.7-.8-6.4-.6-12.7-1.6-18.8-3.6-1.7-.6-3.4-1.6-5.2-.6-.9-.8,.8-.7-.4-.7-.2,0-.5,.2-.5,.2,0,.7,.3,.7,.9,.2m-105.9-406.9c.6,.6,1.4,1,2,1.7,8,9.6,15.8,19.4,24,28.8,10.6,12.1,15.9,26.5,19.9,41.7,.7,2.7,1.1,5.4,2.1,8,5.3,14.3,6.4,29.1,5,44.2-.5,5.8-1.1,11.6-1,17.3,.6,18.5,6.5,35.3,16.9,50.5,7.3,10.8,16.2,20.6,23,31.8,2.8,4.7,8,5.2,12.4,7,2.1,.9,3.4-.2,3.5-2.7,.3-8.5-.4-17-1.9-25.5-2.5-13.5-6.4-26.7-10.8-39.7-4.3-12.8-7.4-25.8-9.7-39-3.2-18.5-9.4-36-17.7-52.7-8.6-17.2-18.7-33.5-29.2-49.6-2.9-4.5-6.5-7.9-11.2-10.4-7.6-3.9-15-8.1-22.5-12.2-1.9-1-3.5-.7-4.9,.9,.3-.4,.6-.8,1-1.2-.3,.4-.6,.7-.9,1.1m80.5,37.5c1.4,2.8,3.5,3.6,5.2,4.6,10.8,6.4,21.6,12.6,32.3,19,2.9,1.8,5.7,1.8,8.7,.9,9.5-2.7,18.2-7.1,26.2-12.7,6.3-4.3,12.4-8.9,18.5-13.5,14.2-10.6,28.5-20.9,44.3-29,16.4-8.5,33.8-14,51.8-17.4,9.9-1.9,19.9-3,29.8-4.6,3.3-.5,6.6-.7,9.4-2.2,.3-2.5-.9-3.9-1.9-5.4-10.9-15.8-21.6-31.8-33.8-46.6-6-7.3-12.5-14.2-19.5-20.6-2.4-2.2-4.9-3-8.3-2.8-9,.5-17.4,3.5-25.6,6.6-7.1,2.6-13.9,6.2-20.4,10.2-23.7,14.4-43.8,32.9-61.8,53.8-10.5,12.3-20,25.5-28.9,38.9-6.2,9.3-13.8,16.1-24.5,19.4-.3,.4-.8,.9-1.5,1.4m-48.2-30.3c2,3.3,4.6,4.3,6.9,5.7,10.1,6.2,20.3,12.3,30.4,18.7,3.4,2.1,6.5,2.8,10.3,1.6,8.4-2.6,15.5-6.8,20.6-14.2,10.2-14.8,20.4-29.7,32.1-43.4,17.1-20.1,36.3-37.7,58.5-52.1,14-9.1,29-15.5,45.2-19.2,1.5-.3,2.9-.8,4.2-1.2,.3-2.2-1.4-2.8-2.6-3.4-4.8-2.6-9.6-5.3-14.7-7.4-10.4-4.4-20.9-8.4-31.3-12.8-3.7-1.5-7-1.3-10.6,0-7.8,2.9-15,6.7-22,11.2-7.7,4.9-15.4,9.9-22.9,15-3.5,2.4-7,4.9-10.2,7.7-19,16.9-36.1,35.4-50.8,56.2-4.1,5.7-8.6,11-13.1,16.5-6.3,7.6-14,13.5-23.1,17.5-2.1,1-4.2,2.2-6.9,3.6m77.4-224.3c5.8-5.6,9.9-10.5,14-15.3,2.1-2.5,2.5-5.4,2.5-8.5,0-14.5-2.6-28.5-9.2-41.5-3.9-7.6-8.3-14.9-12.7-22.2-9.8-16.3-18.5-33-22.8-51.6-3.4-15.1-6-30.5-6.9-46-1.1-17.5-.1-34.7,3.8-51.7,.7-2.9,1.7-5.8,1.4-8.8-.6-.3-1.2-.8-1.6-.7-14,2.9-28.1,5.8-42.1,8.7-1.5,.3-2.9,.8-4.4,1.1-2.7,.6-4.1,2.3-4.8,4.9-2.2,8.6-2.8,17.5-2.5,26.3,.7,24.4,7.7,47.3,17,69.7,7.4,17.7,18.5,32.8,29.2,48.4,9,13.1,17,26.7,24.1,40.9,5.8,11.5,10.1,23.5,12.4,36.2,.7,2.7,1.5,5.6,2.6,10.1m225.6,259.1c-17.1,.1-33.5,.4-50,.3-13.4-.1-25.9,3.5-38.5,7.2-19.2,5.5-36.9,14.3-54,24.5-8.4,5-17,9.7-24.7,15.6-2.6,2-2.7,3-.5,5,8.9,7.9,17.9,15.7,26.8,23.6,3.2,2.9,6.8,3.8,10.9,3.9,9,.3,17.6-1.4,25.9-4.7,7.7-3,15.2-6.4,22.8-9.5,18.6-7.8,37.4-14.9,57.4-18.2,6.6-1.1,13.3-1.8,20-2.5,3.6-.4,7.3-.4,11-.8,4.3-.5,5.2-1.8,4-6.1-3.6-12.5-7.2-25.1-11.1-38.3M188.3,395.68c-1.8,0-2.6,1.5-3.4,2.7-8.9,12.8-16.9,26-24.9,39.4-3,5-2.9,9.8-.9,14.8,4.6,11.8,11.5,22.1,19.9,31.5,10.6,11.9,23,21.8,36.7,30,8.9,5.3,18,10.3,26.9,15.6,14.5,8.5,28.6,17.5,41,29,12.5,11.5,22.9,24.5,28,41,.8,2.5,2.2,2.9,3.9,1,3-3.4,5.9-7,8.9-10.4,2.7-3.1,3-6.4,1.8-10.2-1.9-6.2-4.9-11.8-8-17.4-6.2-11-14.1-20.7-23.5-29-9.8-8.7-19.6-17.4-29.8-25.6-23.3-18.8-41.9-41.6-56.3-67.7-7.2-13.1-12.9-26.9-18.1-40.9-.6-1.4-.6-3.1-2.2-3.8m394.7,410.9c.6-2.6-.2-4.3-.8-6-5.2-14.4-11.6-28.2-19.4-41.3-1.4-2.3-3-3.8-5.9-3.3-18.3,3.2-36.9,4.8-54.9,9.7-21.1,5.8-40.5,15.2-58.4,27.6-10,6.9-19.8,14.3-29.5,21.5-10.6,7.9-21.6,14.8-34.3,18.8-.8,.2-2,.5-1.8,1.7,.2,.8,.7,1.7,1.3,2.2,3,2.1,6.1,4,9.2,6,6.6,4.4,13.2,8.8,19.8,13.2,1.9,1.3,3.5,1.9,5.7,.2,15.4-11.6,32-21.2,49.3-29.6,20.4-9.9,41.8-17.3,64.5-19.4,12.7-1.2,25.6-.4,38.4-.6,5.6,0,11.1,.5,16.8-.7m-240.1-239.9c1.5-.1,1.9,0,2.1-.2,12.5-10.8,11.4-8.8,8.5-23.9-3.8-19.8-12.8-37.4-22.7-54.6-7.1-12.4-15.3-24.2-23.6-35.9-15.4-21.7-25.8-45.6-31.9-71.3-2.3-9.5-4.1-19-4.7-28.8-.6-10.1,.2-20.1,1.6-30,.3-2.5-.8-3.6-3-2.8-11.2,4.3-21.4,10.3-30.8,17.7-2.9,2.3-4.2,5-4.4,8.6-.7,11.1,.5,22,3.2,32.6,4.9,19.2,11.3,38,19.6,56.1,4.1,8.9,8.9,17.4,14.2,25.5,11.9,18.1,24.6,35.6,38.9,51.9,3.4,3.9,6.6,8,9.8,12,10.5,12.9,20.2,26.1,23.2,43.1m37.4-40.5c1.5-.1,2.2-1,3-2,3.9-5,7.7-10.2,11.8-15.1,3.4-4.1,4.1-8.5,3.1-13.6-2.2-10.8-5-21.4-9.2-31.6-10.8-26.2-16.8-53.4-18.4-81.6-1.1-20.7-1.5-41.4-.4-62.1,.4-7.3,.3-14.6-.6-21.9-.5-3.9-1.4-4.5-5.5-3.4-7.9,2.2-15.8,4.8-23.7,6.7-4.2,1-6.1,3.4-7,7.3-3.5,14.9-5.9,29.9-5.8,45.2,.3,19.9,3,39.5,7.6,58.8,3.8,15.8,11,30.3,19.2,44.3,4.6,7.9,9.2,15.8,13.8,23.7,6.8,11.9,10.1,24.7,11.1,38.3,.2,2.3-.4,4.9,1,7m-151.6-180.3c-1.1,.9-2.4,1.8-3.4,2.9-11,11-20.9,23-30.2,35.5-2.4,3.3-3,6.4-2.1,10.2,1.6,6.6,4.2,12.8,6.8,18.9,14.5,34.9,35.4,65.2,64.7,89.5,10.6,8.7,21,17.6,31.3,26.7,10.1,8.9,18.8,19.2,25.3,31,3.3,5.9,6.4,11.8,8.3,18.3,.7,2.5,2,2.6,3.9,.6,1-1.1,1.9-2.4,3-3.4,2.7-2.6,3.4-5.7,2.7-9.2-1.1-5.7-2.6-11.2-5.4-16.4-6.7-12.5-15.5-23.4-24.7-34-12.6-14.6-24-29.9-35.1-45.6-16-22.6-27.3-47.5-35.1-74-3.2-10.8-6.9-21.5-7.8-32.9-.3-4.6-.7-9.1-.9-13.7,0-1.5,.2-3-1.3-4.4m75.3,267.7c5.1-2.9,6-7.2,4.4-12.5-1.5-5-3.6-9.7-6.2-14.2-8.4-14.2-19.8-25.5-32.8-35.2-9.8-7.3-20-14-30.7-19.9-8-4.5-15.9-9-23.8-13.7-14-8.3-26.6-18.3-37.7-30.3-8.6-9.2-15.4-19.7-20.6-31.1-.6-1.4-.9-2.9-2.3-3.8-1.6-.5-2.1,.8-2.6,1.9-8.7,17.4-14.3,35.6-16,55-.3,3,.4,5,2.1,7.5,7.3,10.5,17.1,17.3,29.2,20.8,11.7,3.3,23.6,6.1,35.3,9.6,18.7,5.6,37.2,11.9,54.7,20.6,10.8,5.3,20.3,12.4,29,20.5,6.1,5.6,11.1,12.1,14.2,19.9,.9,1.8,1.5,4,3.8,4.9m144.3,416.9c-1.3-1.9-2.5-3.8-3.9-5.7-11.5-15.6-18.1-33.1-20.7-52.1-2.3-17.1-7.4-33.3-14.2-49-2.3-5.3-4.5-10.7-6.2-16.2-3.1-10.2-7-20.1-12.1-29.5-5.6-10.5-11.3-20.9-16.8-31.4-3.9-7.5-9.3-13.2-17.1-17.1-8.4-4.2-16.4-9.2-24.6-13.8-1.9,1.6-.6,3,0,4.1,2.9,5.3,5.7,10.8,9.1,15.8,7.7,11.4,14,23.6,20,35.9,6.2,12.9,10.9,26.5,14.4,40.4,4.1,16,8,31.9,11.5,48,1.9,8.9,2.7,18.1,5.6,26.8,3,9.3,6.2,18.5,9.2,27.8,.6,2,2,2.9,3.8,3.6,4.9,1.8,9.7,3.6,14.6,5.3,7.5,2.6,15,5,22.5,7.5,1.6,.3,3,1.2,4.9-.4m7-134.8c0,1.4,1,2.2,1.9,3,9.9,8.6,19.9,17.2,29.7,25.8,2,1.7,4.1,2.2,6.7,2.2,6.5,0,12.7-1.4,18.9-3.3,9.3-2.9,18.6-5.8,28-8.7,13.5-4.1,27.2-6.7,41.2-8.2,7.6-.8,15.2-.1,22.8,.1,3,.1,3.8-.9,3.5-3.9-1.5-13.4-4-26.5-7.8-39.4-1.5-4.8-2.2-4.9-7.2-4.3-11.5,1.3-23.1,1.8-34.5,4-17.8,3.4-34.6,9.8-51.3,16.5-6.8,2.7-13.4,5.8-20.2,8.7-8.8,3.7-17.8,6.4-27.4,6.5-1.2,0-2.4,.3-3.6,.6-.3-.1-.5,.2-.7,.4m-205-135.3c7.9,4.2,14.9,7.8,21.9,11.6,3.3,1.8,6.7,1,9.8-.1,8.1-3,15.5-7.2,21.7-13.2,6.5-6.4,12.4-13.4,17.7-20.9,14.8-21.1,31.9-40,51.2-57.1,2.5-2.2,5-4.6,7.8-6.4,15-9.3,28.9-20.5,45.2-27.5,.3-.1,.5-.3,.8-.4,.7-.3,1-.8,.8-1.4-.2-.5-.5-1.2-1-1.4-3.5-1.2-7-2.3-10.5-3.3-9.1-2.6-18.3-4.6-27.6-6.2-4.5-.8-8.4,0-12,2.6-2.2,1.6-4.5,3.1-6.6,5-12.1,10.7-24.2,21.5-34,34.5-12.9,17-26.8,33.2-40.9,49.2-10,11.2-20.9,21.3-34.5,28.2-3.4,1.3-6.4,3.3-9.8,6.8m313.7-284.1c-1.5-1.4-3.4-1.1-5.1-1-9.8,.3-19.5-.3-29.2-1-12.3-.9-24.2,0-36.1,3.9-17,5.5-34.5,6.9-52.4,4.6-5.4-.7-10.9-.9-16.4-1.3-2.3-.2-4.1,.6-5.5,2.6-3.5,5-7.1,9.9-10.6,14.9-1.4,1.9-.8,3.1,1.9,3.6,8.8,1.5,16.9,5,25.2,8.1,24.5,9,49.7,14.2,76,12.4,8.8-.6,17.6,.1,26.4,1.6,6.1,1,6.2,.9,9-4.9,6-12.4,11-25.1,15.7-38,.8-1.9,1.6-3.6,1.1-5.5m-269.8,316.2c4.2,7.1,8.2,14.2,12.6,21.1,12.6,19.7,22,40.7,28.6,63.1,2.4,8.2,3.8,16.7,5.1,25.1,1.4,8.8,4,17.2,6.7,25.6,4.9,14.8,9.4,29.7,12.2,45,1.6,8.7,2.3,17.5,1.8,26.4-.1,2.4,0,4.1,2.5,5,10.4,3.4,20.8,6.9,31.3,10.3,2.3,.7,3.4-.5,2.6-3-1.1-3.5-2.4-6.9-3.7-10.3-4.1-10.6-6.6-21.5-8.6-32.7-5.6-31-12.7-61.6-25-90.7-4.2-10.1-9.6-19.8-15.2-29.2-6.7-11.2-13.6-22.4-19.3-34.2-1.7-3.4-3.8-6.1-7.1-8.1-6.8-4.1-13.4-8.5-20.1-12.7-1.1-.7-2.3-1.8-4.4-.7m78.6-499.6c3,19.5,0,39,.5,58.4,.5,20.4,1.2,40.8,4.5,60.9,2.5,15.4,7,30.3,12.6,44.8,4.4,11.4,8.3,22.9,10.8,34.9,.2,1.2,.5,2.4,.9,3.5,.4,1.2,2,1.4,2.9,.3,1.5-1.9,3.1-3.8,4.4-5.8,9.6-13.9,9.1-8.6,4.5-26.5-1.6-6.5-3.5-12.9-5.3-19.4-7.9-28.2-10-56.8-7.5-85.9,1.5-17.9,2.9-35.8,4.4-53.7,.3-3.3,.5-6.7-.3-10-2.7-11.1-3.4-11.6-14-8-6.1,2.1-12.4,3.3-18.4,6.5m122.8,744.7c0-1.9-1.3-2.8-2.2-3.9-7.4-8.1-13.8-17-20.6-25.6-11.1-14-18.7-29.9-24.7-46.6-2.8-7.7-5.3-15.6-7.4-23.5-6.5-25-17-48.2-29.9-70.4-2.2-3.7-4.8-7-8.5-9.3-6.7-4.2-13.3-8.6-20-12.9-1.2-.8-2.5-1.8-4.1-1.1-.2,2,1.1,3.4,2,5,7.8,13.8,15.4,27.7,21.5,42.3,.9,2.2,1.9,4.5,2.6,6.8,4.2,14.3,10.4,28,15.8,41.9,2.2,5.7,3.9,11.5,4.8,17.6,1.1,7.5,2.3,15.1,3.9,22.5,4.2,19.4,12.9,36.6,25.9,51.7,1.3,1.4,2.5,2.7,4.3,3.1,11.3,2.7,22.7,4.6,34.4,3.5,.7-.2,1.5-.8,2.2-1.1m46.2-507.2c-1.4-1.9-3-1.9-4.5-2.2-8.4-1.6-16.9-2.1-25.4-1.5-12.5,1-24.8,0-37.2-2.2-16-2.8-31.5-6.5-46.5-12.9-6.1-2.6-12.4-4.9-19.2-5.8-3.4-.4-5.8,.3-7.9,3.1-4.8,6.6-9.9,13.1-14.7,19.5,1.1,2.5,3.2,1.7,4.8,1.9,7.9,1.2,15.5,3.5,22.8,6.4,10.5,4.1,21.1,8.1,31.2,13,19.8,9.5,40.6,12.2,62.2,11.5,4.9-.2,9.7-.7,14.6-.9,1.6-.1,3-.4,3.9-1.8,5.6-9.2,11.3-18.5,15.9-28.1m-206.7,460.1c-2.4-5.4-6-9.8-9.6-14.2-6.1-7.6-12.2-15.2-16.4-24.1-7.9-16.8-12.9-34.2-10.6-53,.6-4.8,.7-9.7,1-14.6,.6-10.8-.9-21.3-4.4-31.5-2.8-8.4-4.5-17.1-7.5-25.4-2.8-7.9-6.4-15.2-11.6-21.6-6.3-7.8-12.7-15.6-19-23.4-4.2-5.2-8.5-10.4-12.5-15.8-3.6-4.9-8.6-7.2-14.3-8.5-.8,2.3,1,3.1,1.9,4.1,9.2,11.4,17.3,23.5,24.2,36.5,3.2,6,5.4,12.2,7.3,18.7,4,13.2,5.9,26.7,6.9,40.5,1.5,19.8,3.1,39.5,7,59,3.9,20,11.3,38.6,23.7,54.9,1.3,1.7,2.5,3.4,4.4,4.5,8.9,5.4,17.9,10.5,27.4,14.6,.5,0,1.2-.4,2.1-.7m185.4-426c-2.8,.1-5.8,0-8.8,.3-12.2,1.1-24.3,.2-36.4-1.5-9.4-1.3-18.3-4.3-27.1-8.1-11.5-4.9-23-9.8-34.6-14.4-6.2-2.4-12.7-4.2-19.1-6.1-2.9-.9-6-1.1-9-.5-2.5,.5-4.6,1.2-6.4,3.2-5.1,6-10.3,11.9-15.3,17.6,.1,2.8,2.2,3.1,3.7,4,7.1,4.2,14.3,8.2,21.2,12.6,13.5,8.5,28.1,13.1,44,13.7,7,.3,14-.1,21-.1s14-.3,21,0c9.1,.4,18.2,1.4,26.8,5.2,3.4,1.5,3.8,1.3,6-2,4.2-6.4,8.2-12.8,12.3-19.3,.7-1.3,1.6-2.6,.7-4.6m-227.8,63.2c3-.6,3.8-3.2,5.4-4.9,2.3-2.5,2.6-5.1,1.2-8.3-4.1-9.7-10-18-17.9-25-13-11.5-27.8-19.8-43.9-25.9-20.2-7.7-40.8-14.3-61.9-19.4-3.6-.9-7.1-1.9-10.6-2.9-9-2.6-16.8-7.2-23.5-13.7-1.3-1.3-2.5-2.7-3.9-3.9-.4-.3-1.1-.3-1.6-.3-.8,0-1,.6-1,1.3-.2,10.1,.9,20.1,2.9,30,.6,2.9,2,5.1,4.4,6.7,11.2,7.5,22.6,14.4,36.4,15.9,15.4,1.7,30.9,3.5,46.2,5.7,22.5,3.3,41.3,14.1,57.4,29.8,4.7,4.4,7.4,9.8,10.4,14.9m127.7-154.7c3.2-3,4.8-5.9,6.8-8.5,1.4-1.8,1.5-3.8,1-6-1-4.1-1.7-8.4-2.5-12.5-2.4-11.7-2.6-23.6-1.8-35.5,.8-11.8,2.2-23.6,4.8-35.3,5.8-25.7,8.8-51.6,8.2-78-.1-7.3-.2-14.6-2.5-21.7-.7-2.2-2-3.1-4.1-2.4-7.5,2.4-15.1,4.9-22.6,7.5-2,.7-2.7,2.3-2,4.4,.5,1.5,.9,2.9,1.5,4.3,2.1,4.9,2.4,10,1.9,15.2-1.5,17-2.8,34-4.2,51-1.5,18.3-1.8,36.5,.5,54.7,2.1,17,6.6,33.5,11.1,50,1.1,4,2.1,8,3.9,12.8m76.1,458.1c.2,.5,.1,1.3,.5,1.6,9,8.2,18.3,16.2,28,23.5,4.8,3.6,9.7,5.1,16.1,4.4,18.8-2,37.5-5.1,56.4-5.3,2.1,0,4.3-.3,6.4-.5,2.5-.2,3.8-1.7,4.1-4.1,1.5-12.4,2.2-24.9,1.1-37.4-.2-1.7-1.1-2.7-3-2.8-11.9-1.1-23.7-.9-35.5,1-16,2.6-31.5,7-46.9,12-8.4,2.7-16.8,5.4-25.7,6.5-.6,.3-1,.8-1.5,1.1m-146.9-360.6c2.9,1.5,5.4,2.7,7.8,3.9,10.1,5.1,19.5,11.2,28.3,18.3,15.3,12.2,31.5,22.8,50.1,29.5,10.1,3.6,20.3,6.5,31.1,6.9,2.4,.1,4.8,.5,7.2,1,2,.4,3.6-.2,4.9-1.7,8.5-9.6,16-20,22.5-31,1-1.6,.2-2.8-1.4-3.6-5-2.4-10.3-3.6-15.8-4.2-10-1.1-20-1.2-30.1-.8-8.5,.3-17,.6-25.5-.1-14.9-1.2-28.5-5.7-41.2-13.6-7.8-4.8-15.6-9.5-23.5-14-3.6-2.1-3.9-2-7,1.2-2.5,2.4-5.4,4.3-7.4,8.2m69.3,303.1c3.4,7.1,6.9,14.2,10.2,21.3,6.1,13,11,26.4,14.7,40.3,4.4,16.8,10.1,33.2,18.1,48.8,2.9,5.7,6.1,11.2,10,16.3,7.9,10.5,15.5,21.2,24.4,30.8,1.5,1.5,2.9,3.2,4.4,4.6,1.1,1,2.6,1.6,4.2,1.2,5-1.4,10-2.8,14.9-4.3,1.4-.4,1.5-1.8,.7-2.9-.9-1.2-1.9-2.4-3-3.4-8.3-7.9-14.3-17.4-19-27.8-6.7-14.7-13.6-29.3-19.9-44.2-6.6-15.8-15.1-30.6-23.7-45.3-5.3-9-11.6-17-20-23.4-5.3-4-10.1-8.6-15.1-13-.2,.4-.5,.7-.9,1m12.9-416.3c3.1-4.3,5.1-6.9,7-9.6,4.1-6.1,8-12.3,12.1-18.3,1.7-2.5,2.1-5,.7-7.7-.7-1.4-1.3-2.8-1.7-4.2-2.9-8.8-4.6-17.6-3.7-27,1-11.6,3-23,6.3-34.1,1.9-6.4,3.7-12.9,5.9-19.2,4.3-13.1,6.4-26.7,7.8-40.3,1-10.2-.9-20.1-3-29.9-.4-1.6-1.7-2.6-3.4-2.4-6.7,.9-13.1,2.9-19.4,5.2-2,.7-2.5,2.5-2.2,4.5,6,34.9,1,69.2-6.1,103.4-3.9,18.6-5.6,37.4-4.3,56.3,.5,7.2,1.4,14.4,4,23.3m-201.9,294.2c4.3,3.2,9.2,4.6,13.9,6.5,1.5,.6,3.1,.1,4.3-1,5.8-5,12.8-8.2,19.2-12.3,9.8-6.4,17.8-14.8,25.5-23.4,14.2-15.9,27.8-32.2,40.8-49.2,10.2-13.4,22.9-24.4,35.5-35.4,1.1-1,2.7-1.5,3-3.4-.1-1.8-1.7-1.2-2.7-1.3-6.1-.4-12.2-.5-18.2-.9-4.1-.2-7.7,.8-11.2,2.9-11.4,6.7-21.3,14.9-29.8,25.1-11.2,13.3-21.1,27.6-30.1,42.4-4.5,7.3-9.1,14.4-13.4,21.8-6.6,11.3-16.1,18.8-28.1,23.7-3,1.2-6.1,1.8-8.7,4.5m207.3-292.3c9.3,2.2,17.4,1.8,25.5-.5,4.1-1.2,8.2-2.5,12.2-3.8,11.6-3.7,23.6-6,35.7-7.6,10.1-1.3,19.6-4.5,28.5-9.2,10.5-5.5,20.6-11.9,32-15.5,2.1-.6,2.8-2.4,2.7-4.2-.1-6.1-.2-12.2-.5-18.2-.2-3.2-1.4-4-4.9-3.6-7.9,.9-15.5,3.2-22.8,6.4-7.3,3.2-14.2,7-20.6,11.7-8.6,6.4-18.3,9.3-28.8,10.4-11.5,1.2-23,2.9-34.6,2-1.9-.1-3.6,.4-4.7,2.2-6.4,9.5-12.7,19.2-19.7,29.9m57.7,14.8c9.6-3.8,20.5-4.4,31.6-3.8,10.6,.6,21.3,1.6,32,1.1,1.2,0,2.4,.1,3.7,.1,2.8,0,4.7-1.3,5.3-4.1,1.3-5.6,2.7-11.3,3.7-17,1.1-6.6,1.7-13.3,2.3-20,.3-3.2-.9-4.2-3.6-3.2-3.7,1.4-7.4,2.8-11,4.6-7.9,4-15.7,8.1-23.5,12.2-6.3,3.3-13,5.4-20,6.3-17,2.2-33.6,5.8-49.9,11.2-8.6,2.9-17.4,3.2-26.2,1.8-3.4-.5-5.9,.1-7.7,3.2-1.6,2.6-3.5,5-5.2,7.5-1.4,2.1-.8,3.6,1.6,3.8,16.4,1.4,32.7,3.4,49.2,.4,5.7-.8,11.3-2.3,17.7-4.1M192.3,754.78c.9,10.8,1.3,21.1,2.6,31.4,1.7,13.6,4.1,27.1,6.3,40.6,1.8,11.4,3.6,22.8,5.2,34.3,3.3,23.6,11.2,45.4,26,64.5,4.1,5.2,9.4,8.5,14.9,11.9,.4,.3,1.2,.3,1.7,.1,1.1-.5,.7-1.5,.4-2.3-5.7-13.8-10.4-28-14.8-42.3-2.4-7.6-3.9-15.3-5.1-23.2-2.2-15.1-3.5-30.3-6.5-45.2-3.5-17.6-8.1-35-17.2-50.8-3-5.3-5.5-10.9-9.2-15.7-1-1.2-1.8-2.5-4.3-3.3m278.7,443.3c.3-9.2-.6-17-1.7-24.8-.4-2.7-2-4.2-4.2-5.6-12.7-8.5-26.8-13-41.8-15.2-19.2-2.8-38.3-1.9-57.4,.5-7.6,.9-15.1,1.4-22.8,.4-1.2-.2-2.4,.1-3.6,.1,2.4,7.5,7.2,13.7,13.2,16.2,7.3,3.2,14.9,5.5,22.9,6.2,10.9,.9,21.9,1.6,32.8,2.7,18.1,1.7,35.3,6.7,51.9,14,3.1,1.5,6.3,3.3,10.7,5.5m-207.3-182c.4,7.6,1,14.5,7.1,19.8,13.8,12,29.5,19.1,47.9,20.4,21.4,1.5,42.7,.9,63.6-4.5,16.9-4.4,32.9-11.1,48.8-17.5,.2-2.6-1.5-2.9-2.8-3.4-5.5-1.9-10.8-4.3-16.5-5.6-5.4-1.2-10.8,1.5-16.1,2.4-13.5,2.4-27.3,3-40.9,4.6-11.5,1.3-23,3.1-34.6,3.2-9.2,.1-18.3-.3-27.3-2.2-8.7-1.7-16.1-5.5-22.2-11.8-1.9-2-3.5-4.3-7-5.4M557.8,363.98c-5.4,1.5-10.2,4.1-15,6.7-10.4,5.8-21.1,11-31.9,15.8-8.8,3.9-17.7,6.5-27.5,5.3-2.2-.3-4.1,.1-5.5,2.3-5.1,8.7-10.3,17.3-15.5,26-1.2,2.1-.4,3.5,2.1,3.5,5.2,0,10.4-.1,15.5-.5,5.8-.4,11.5-1.3,17.3-1.9,9-.9,17.2-3.7,24.6-9,9.2-6.6,19.1-12,29.9-15.5,5.5-1.8,11.1-3.3,16.9-3.9,2.1-.2,3.6-1,3.4-3.3-.6-8.2-1.4-16.4-3.2-24.4-.5-2.1-2-2.9-4.1-2.5-2.3,.3-4.6,.9-7,1.4M292.8,967.78c-3.9-8.4-7.1-15.2-10.3-22-4.1-8.9-6.6-18.4-8.5-27.9-3.9-19.4-5.3-39.2-7.1-58.9-.9-10.3-1.9-20.6-4.1-30.8-3.4-15.1-9.5-28.9-17.9-41.8-6.8-10.5-14.1-20.6-22.6-29.8-3.9-4.3-8.7-5.9-14.3-6.2-.3,3.5,2.1,4.8,3.8,6.4,13.3,12.6,22.4,27.9,29.2,44.8,3.3,8.3,4.1,17.2,5.4,25.9,2.1,13.5,3.6,27.2,5.4,40.8,.7,5.1,1.9,10.2,2.9,15.3,3.7,19.5,7.4,38.9,11,58.4,1.1,5.7,3.5,10.2,8.5,13.4,5.8,3.6,11.2,8,18.6,12.4m-79.3,189.8c8.1-26.8,24-47.6,40.9-67.6,6.3-7.5,11.6-15.6,17.1-23.6,1.8-2.6,1.9-5,.6-7.7-2.1-4.7-4.2-9.4-6.2-13.9-2.4,.2-2.8,1.8-3.5,3.1-1,1.9-2,3.8-2.8,5.7-4.7,11.6-12.7,20.5-22.5,28.2-12,9.4-24.3,18.3-37,26.8-4.8,3.2-9.5,6.6-12.7,11.6-1.3,1.9-1.8,3.8-.4,5.9,7.4,11.1,15.2,21.9,26.5,31.5m-29.9-39.2c5.8-7.4,12.9-12.1,20-16.8,11.7-7.7,22.9-16.2,33.8-25,7.8-6.2,14-13.5,18.1-22.6,1.9-4.2,3.9-8.3,6.2-12.2,1.6-2.9,1.8-5.7,.7-8.7-1-2.9-1.8-5.8-2.7-8.7-.1-.4-.8-.9-1.2-1-.5,0-1.2,.3-1.5,.7-.6,.7-1,1.6-1.3,2.4-4.6,9.7-11.9,16.9-20.9,22.4-12.2,7.4-24.5,14.8-36.8,22.2-5,3-9.9,6.1-14.1,10.1-2.2,2.1-4.2,4.3-5.8,7-3.9,6.6-6.4,13-.6,20.2,2,2.7,3.1,6.4,6.1,10m126.3-5.3c1.5,4.2,4.6,7.6,7.1,11.3,1.3,1.9,3.3,2.7,5.5,2.8,4.9,.3,9.7,.8,14.6,.7,22.2-.6,44.4-1.4,66.6-2,7.3-.2,14.6-.2,21.9-.1,11,.1,21.9,1.2,32.3,5.3,2.2,.9,3.7-.4,3.3-2.7-1-6.6-2.4-13.2-4.4-19.6-1.2-4-3.4-5.9-7.7-6.2-11-.8-21.9-1.1-32.8,.7-16.8,2.8-33.6,5.7-50.4,8.8-9.3,1.7-18.6,2.9-28.1,3.6-7.7,.6-15.2,0-22.6-2.2-1.5-.7-3.2-2-5.3-.4m12.6,18.1c2.9,6.5,6.9,10.7,10.1,15.4,1,1.5,2.6,2.4,4.6,2.6,7.6,.8,15.1,1.8,22.7,.7,12.1-1.7,24.2-2.8,36.4-2.9,18-.1,35.8,1.7,52.9,8.2,5.5,2.1,10.4,5,15.5,7.8,1.1,.6,2.6-.4,2.4-1.6-1.3-7.2-2.7-14.3-4.1-21.5-.4-2.4-1.9-3.7-4.1-4.4-7.8-2.8-15.5-5.2-23.9-5.6-14-.7-28-.4-42,0-22.9,.5-45.9,2.2-70.5,1.3m-60.9-185.8c.7-3.4-.1-6.7-.7-10-3.6-18.5-7.4-37.1-10.7-55.7-2.1-12-3.4-24.1-5.2-36.2-1.7-11.2-3.2-22.3-5.4-33.4-1.8-9-6-17.3-10.6-25.2-7.4-12.7-17.2-23.5-27.2-34.2-.8-.8-2.1-1.2-3.2-1.6-.5-.2-1.3,0-1.7,.4-.3,.3-.5,1.2-.3,1.6,.8,1.6,1.8,3.2,2.8,4.7,3.1,4.5,5.8,9.3,8.6,14,9.5,16,14.3,33.6,18.2,51.5,2.4,11,3.4,22.3,5.1,33.4,1,6.9,1.7,13.9,3,20.8,3.2,17.1,9.1,33.5,15.2,49.8,1.8,4.9,3.7,9.7,5.7,14.5,1.4,3.6,1.5,3.5,6.4,5.6m32.3,142.6c2.3,4.2,3.5,6.7,4.9,9,5.6,9.3,5.9,9.5,16.7,12.6,6.5,1.9,13,2.6,19.8,2.3,16.5-.7,32.6-4.4,48.8-7.2,13.5-2.4,26.9-5,40.6-6.2,7.3-.7,14.6-.2,21.9,.1,6.6,.2,6.7,.2,4.6-6.4-1.2-3.8-2.6-7.5-3.9-11.2-.8-2.3-2.5-3.2-4.9-3.3-8.9-.2-17.6,.8-26.2,2.9-14.8,3.6-29.6,7.1-44.4,11-11.6,3-23.2,5-35.2,5.4-14.1,.2-27.9-1.5-42.7-9M455.8,421.58c6.1-10.1,11.2-18.7,16.4-27.3,1-1.7,1.2-3.4,.6-5.2-.7-2-1.3-4.1-2-6.1-3.6-10.4-3.8-21-.9-31.5,1.3-4.7,2.9-9.3,4.5-13.9,5.2-14.7,9.4-29.6,11.8-45.1,1.4-9.4,1.6-18.8-.1-28.2-.7-4-1.5-4.6-5.5-4.1-3.9,.5-7.8,1.4-11.6,2.3-1.3,.3-2,1.4-1.8,2.7,.4,3,.7,6.1,1.3,9,1.9,10,2,19.9,.8,30-2,17.1-7,33.4-12.1,49.7-4.2,13.5-6.9,27.2-7.4,41.3-.4,8.7,1.3,16.9,6,26.4m4.4,488.1c4.9,9,10.2,18,14.7,27.2,5.7,11.8,10.7,23.9,16.1,35.8,5.1,11.1,10.2,22.1,15.6,33,4.4,8.8,11.3,15.8,18.5,22.5,1.7,1.6,3.6,2,5.9,1.3,5.5-1.7,11.1-3.3,16.6-5.1,2.2-.7,2.5-2.4,.5-4.1-10.4-8.8-17.8-19.8-24.7-31.5-10.1-17-20.9-33.7-31.3-50.5-3.1-5-6.8-9.3-11.4-13-6.6-5.4-13.1-10.9-19.6-16.4-.2,.4-.5,.6-.9,.8M155.2,599.48c4.7,10.3,10.8,17.4,17.5,24.1,2.4,2.4,5.3,2.8,8.3,3.2,10.9,1.3,21.9,2,32.8,.2,13.6-2.2,25.2,2,36.3,9.2,1.3,.8,2.6,1.6,3.7,2.6,2.2,1.8,4.4,1.7,6.7,.4,1.1-.6,2.2-1,3.3-1.6,1.6-.8,2.2-2.2,1.7-3.8-.7-2-1.6-4-2.7-5.8-3.8-6.1-8.8-10.9-15.1-14.4-19.4-10.7-40-16.5-62.3-14-9.6,1.4-19.2,1.5-30.2-.1m120.9,468.2c-3,1.5-4,4.2-5.4,6.5-3.6,6-7.8,11.6-12.3,17-8.1,9.5-15.7,19.4-22.8,29.6-6.1,8.8-10.9,18.3-15,28.1-1.3,3.1-2,6.4-2.8,9.6-.4,1.5-.1,3.1,1.1,4.2,4,3.3,8,6.5,12.1,9.6,1.2,.9,2.4,.1,2.9-1.1,10.8-24.8,26.7-46.2,43.6-67.1,3.1-3.8,6-7.7,7.9-12.2,1.3-3,1.6-5.7-.2-8.7-3.2-5-5.3-10.8-9.1-15.5m-18,123.9c3.6-15,11.5-26.6,19.3-38.1,5.4-8.1,11-16,16.5-24.1,2.9-4.3,4.8-9.1,6.1-14.2,.9-3.5,.6-6.5-1.4-9.5-2.5-3.8-4.8-7.7-7.2-11.6-.7-1.2-2.4-1.2-3-.1-8.7,15.1-21.5,27.2-30.4,42.1-4.5,7.6-9.5,14.9-14.2,22.3-2.8,4.4-4.8,9.1-6.4,14.1-.9,2.7-.1,4.6,2.2,6.2,6.1,4.1,12,8.4,18.5,12.9m-97.2-184c8.6-2.8,16.7-5.2,25.1-6.9,5.7-1.2,11.3-2.5,17-3.5,11.3-2.2,21.3-7.1,30.2-14.3,3.8-3.1,7.5-6.2,11.2-9.4,3.3-2.8,6.5-5.8,10.7-6.8,4.8-1.1,7-4.4,9-8.3,.7-1.4,1.4-2.8-.1-4.1-1.6-1.4-3.3-2.9-5.7-1.9-1.1,.5-2.1,1.2-3.1,1.9-7,4.9-14.6,8.7-22.1,12.7-15.9,8.6-33.2,12-51,12.5-13.1,.4-25.2,3.9-36.9,9.2-3,1.3-4.1,3.3-4,6.3,.1,5.2,.1,10.3,.4,15.5,.3,4.7,.7,4.9,4.7,3.2,4.9-2,10-4.2,14.6-6.1m144.2,108.3c-.8,.6-1.5,.9-1.7,1.3-2.9,10.2-9,18.5-14.9,27.1-6.5,9.5-13.7,18.7-19,29-1.8,3.5-3.5,7.1-5.1,10.7-1.2,2.5-1.6,5.2-1.5,8,.1,1.9,.4,3.7,2,4.9,7.9,6.1,15.9,12.2,23.8,18.3,.2,.2,.6,.1,.9,.1,1.1-1.8,1.2-4,1.4-6,1.2-10,3.8-19.7,7.7-29,3.9-9.6,7.8-19.2,11.7-28.7,2.2-5.4,3.6-11,4.4-16.7,.3-2.5,0-4.7-1.5-6.9-2.8-4.1-5.4-8.1-8.2-12.1m-34.1-74.8c2.7,10,5.6,17.1,12.7,22.4,18.4,13.8,38.7,16.8,60.7,12.7,18.6-3.5,36.7-9,54.9-14,11.5-3.1,22.9-6.6,34.7-8,.5-.1,1-.5,1.8-1-.7-4.3-1.4-8.8-2.2-13.2-.2-1.4-1.4-2-2.7-1.5-7.1,2.7-14.3,5.2-21.3,8.2-31.1,13-63.5,16.6-96.8,12.7-12.4-1.4-23.7-5.4-33.8-12.8-2-1.5-4-2.8-8-5.5m-46.4-118.7c-2.9-5.6-5.9-11.3-8.8-16.9-7.3-13.7-11-28.5-13.1-43.6-1.7-12.1-3.7-24.1-5.5-36.1-2.6-16.9-6.3-33.6-7.1-50.7-.2-4-.3-7.9-.5-11.9-.1-3,0-6.1-1.8-8.8-1.5,.2-2,1.3-2.3,2.5-1.7,6.5-3.2,13-3.5,19.8-.4,8.2-1,16.4-1.6,24.6-.5,7.3-.6,14.6,.2,21.9,1.7,15.1,2.1,30.4,5.5,45.3,3.8,16.6,11.4,31.5,21.9,44.8,3.8,5.3,10.2,7.2,16.6,9.1m54.7-290.4c.3-.1,.6-.2,.9-.2,9.5-2.6,10-3,3.6-11.9-3.4-4.8-7.9-8.4-12.5-12-14.5-11.2-30.3-19.1-48.7-21.4-10.9-1.3-21.7-3.3-32.6-4-15.2-1-29.4-4.7-42.3-12.9-1-.7-2.1-1.3-3.2-1.7-.5-.2-1.2-.1-1.7,.1-.7,.2-.8,.8-.5,1.5,2.7,7.1,5.3,14.2,8,21.4,.8,2.1,2.5,3.3,4.6,4.1,4.4,1.5,8.9,2.2,13.5,2.2,5.8-.1,11.5-.5,17.3-1,22.9-2.2,44.1,3.5,63.9,14.6,8.2,4.6,14.3,11.3,18.5,19.7,2.2,4.4,2.3,4.4,6.8,3.1,1.5-.4,2.9-.9,4.4-1.3v-.3m54.6,.2c-3.8-1.6-7.7-.7-11.4-.8-5.2-.1-10.3,.3-15.5,.4-4.6,.1-8.2,1.8-10.7,5.9-2.2,3.7-4.7,7.2-6.5,11-8.7,18.8-19.6,36.4-29.9,54.4-9.4,16.7-22.8,29.1-40.1,37.3-1.9,.9-3.8,1.9-5.7,2.9-.5,.3-.8,.9-1.2,1.3,4.8,3.6,5.6,4.1,11,3.1,14.5-2.7,27.2-9.1,35.9-21.4,5.8-8.2,10.9-16.9,16.1-25.5,9.7-15.9,20.1-31.2,32.4-45.2,6.5-7.4,13.3-14.2,21.6-19.5,1.5-1,3.1-1.9,4-3.9m-185.7,409.2c13.2-6.3,27.7-8.9,41.3-14.1,11.9-4.6,23.4-10.3,34.6-16.5,5.2-2.8,9.4-6.7,13-11.3,5.4-7,10.5-14.2,17.6-19.6,.9-.7,1.6-1.9,2-2.9,1.5-3.2,1.5-6.4,.3-6.6-2.3-.4-4.1,1-5.7,2.2-2.6,2-5.1,4.3-7.7,6.4-3.3,2.7-6.5,5.5-9.9,8.1-7.8,6.1-16.4,10.5-26.1,12.7-6.5,1.4-13,3.1-19.6,4.3-13.2,2.5-25.9,6.8-38.2,12.2-1.6,.7-3.2,1.8-4.7,2.8-1.4,.9-2.1,2.1-2.2,3.8-.3,3.9,2.2,13,5.3,18.5M481.8,387.48c8.8,2.4,16.1,.4,23.2-2.5,8.1-3.4,16.1-7.4,24.1-11.1,2.2-1,4.4-2.1,6.5-3.4,8.9-5.4,18.3-9.7,28.6-11.9,3.7-.8,3.9-1.4,3.3-5.2-1.1-6.3-2.2-12.6-3.5-18.9-.4-1.8-1.9-2.6-3.5-2-4,1.4-8,2.9-11.9,4.7-2.8,1.3-5.3,3-7.9,4.7-11.1,7-23.2,10.9-36.3,10.5-4-.1-6.1,1-7.7,4.6-4.6,10-9.6,19.7-14.9,30.5m-9.2,246.4c-1.9-.4-3.4-.8-4.9-.9-20.6-.9-39.3-8.2-56.9-18.4-11.1-6.4-21.6-13.7-31.5-22-8.7-7.3-18.7-12.6-28.9-17.5-4.4-2.1-5.1-1.8-8.6,2.1-1,1.1-2,2.3-3,3.5-.6,.7-1,1.5-1.5,2.3,.9,2.2,3,1.7,4.6,2.1,5.5,1.3,10.2,4.2,14.5,7.5,9.9,7.7,19.9,15.1,29.2,23.5,5,4.5,10.2,8.7,15.3,13,2.6,2.2,5.5,3.7,8.9,4.5,13.9,3.6,27.6,7.9,40.9,13.2,3.5,1.4,6.5,1.3,9.5-.8,4.7-3.3,9.7-6.3,12.4-12.1m-29,438.6c-.4-4.1-2.3-7.8-4.1-11.7-.9-1.9-2.6-2.5-4.5-2.5-4.6,0-9.1,.8-13.5,2-19.1,5.2-38.2,10.4-57.3,15.4-8.2,2.1-16.6,4.1-25,5.2-18.6,2.4-36.4,0-52.4-10.9-.9-.6-1.9-1.3-3.1-.8,2.3,9.1,8.8,14.2,16.8,17.8,5.3,2.4,10.9,3.9,16.6,4.8,17.1,2.6,34,.8,50.7-3.2,13.9-3.4,27.8-6.8,41.6-10.3,9.8-2.5,19.6-4.4,29.7-4.5,1.3-.1,2.9,.2,4.5-1.3m72.2-813.3c-8.6-1.4-17.3-1.4-25.7,.3-1,1.9-.4,3.3-.2,4.8,1.6,10.3,1.4,20.6-.3,30.9-2.5,15.4-6.8,30.3-12.1,44.9-2.5,6.9-4.7,13.8-5.5,21.2-.9,7.7,0,15.2,2.9,22.4,.5,1.2,2.3,1.4,2.9,.2,5-9.8,9.9-19.6,14.8-29.4,.9-1.7,.4-3.6-.1-5.3-1.7-6.1-1-12.1,.3-18.1,1.5-6.9,3.5-13.6,6.1-20.1,3.8-9.6,7.8-19.2,11.6-28.8,1.8-4.5,3.4-9.1,4.8-13.8,.8-2.9,1.9-5.8,.5-9.2M142.4,984.28c2.3,1.1,3.9-.1,5.5-.8,11-5,22.4-7.4,34.5-7.8,11-.3,21.9-1.7,32.4-5.2,13.6-4.6,26.3-11.2,38.3-19.1,2.4-1.5,2.2-3-.4-4.7-.8-.5-1.6-.9-2.3-1.5-2.9-2.4-5.8-2.3-9.2-.6-10,4.9-20.8,6.9-31.8,7.7-4.5,.3-9.1,.4-13.7,.5-7.1,.2-13.9,1.7-20.6,3.7-6.7,2-13.4,3.9-20.1,6-2.3,.7-4.6,1.6-6.7,2.7-2,1-3.3,2.7-3.8,4.9-1.2,4.8-2.4,9.5-2.1,14.2m112.7,16.3c-3.4,1.3-4.3,4-5.5,6.4-5.5,10.7-14,18-24.4,23.7-13.1,7.2-25.8,14.9-38.5,22.6-8.2,4.9-15,11.3-20.6,19.1-2.6,3.6-3.3,7-1.1,10.9,1.8,3.1,3.3,6.3,5.2,9.8,1-1,1.9-1.5,2.2-2.2,3.9-9.1,11-15.2,19.1-20.2,11.4-7,22.9-13.9,34.3-20.8,2.6-1.6,5.2-3.2,7.8-4.7,11-6.4,17.9-16.3,22.5-27.8,2.1-5.7,.7-11.2-1-16.8m5.9-2.4c-1,5.6,1.1,10.1,5.2,13.7,.5,.4,.9,.9,1.3,1.3,13,13.4,19.6,16.7,38.3,18.1,10.3,.8,20.7,.3,31-.8,13.6-1.5,27.2-2.8,40.8-4.3,7.5-.8,15-1.2,21.9-3.8,.4-1.2,.1-1.7-.5-1.9-7.2-2.4-14.4-4.8-21.6-7.3-2.7-1-5.4-.7-8.1-.4-13.3,1.6-26.6,2.5-39.9,4.1-23.8,2.9-45.9-2.7-65.2-17.7-.9-.6-1.9-1.2-3.2-1M501.6,347.38c1.1,1.2,2.2,1.6,3.5,1.6,10.3,0,19.9-2.5,28.8-7.5,8.5-4.8,16.6-10.2,26-13,2.1-.6,2.8-2.2,2.4-4.3-1.6-7.4-3.3-14.8-5.1-22.2-.5-2-1.8-3.1-4-2.7-5.7,1.1-11.4,1.9-17,3.4-8.8,2.3-16.1,6.6-20.1,15.5-3.8,8.6-8.6,16.8-12.9,25.2-.6,1.4-1.1,2.8-1.6,4m-147.3,917.9c1.9-14.5,6.2-27.7,10-41.2,.3-1.2,.7-2.3,.9-3.5,1-4.8,1.6-9.6,1.5-14.5,0-3.5-.8-6.5-3-9.3-4.5-5.6-8.4-11.8-13.6-17-.4,.9-.8,1.4-.8,2-.7,14.7-6.5,27.7-13.5,40.3-3.1,5.6-5.3,11.6-6.2,18-.6,4.1,.6,6.9,4,9.4,5.9,4.3,11.5,9,17.2,13.6,.9,.7,1.9,1.2,3.5,2.2m-158.3-361.1c-3.1-6.9-6.2-13.8-9.3-20.6-3.9-8.4-5.5-17.4-6.7-26.5-1.5-11.5-2.2-23-3.4-34.5-.7-7-.6-14-.1-21,.6-8.5,1.3-17,1.7-25.5,.4-7.4,2.3-14.4,4.1-21.5,.4-1.4,.7-2.8,1-4.1-1.8-1.4-2.5,0-3.2,.9-8.9,11.3-13.8,24.4-16,38.4-4.4,28.2-2.2,55.9,8.4,82.6,4.3,10.8,9.9,20.9,18.7,28.9,1.3,1.3,2.5,2.8,4.8,2.9m-36.2,168c2.9-.8,3.6-2.6,4.6-4,5.6-7.4,12.4-13.4,20.3-18.1,12.8-7.7,25.5-15.4,38.6-22.6,9.9-5.4,17.9-12.4,23.3-22.4,1.7-3.2,3.9-6.2,6.3-9,1.9-2.3,2.8-4.7,2.5-7.5-.1-.8-.4-1.8-1-2.3-.8-.7-1.7,0-2.3,.7-3,3.5-6.2,6.7-8.8,10.5-6.3,9.4-14.8,15.8-24.9,20.8-15.1,7.4-30.2,14.4-46.5,18.6-6.8,1.8-13.4,4.1-19.7,7.1-3.3,1.6-3.9,2.5-2.7,5.7,2.6,7.6,5.8,15.2,10.3,22.5m215.5,131.4c3.2,4.4,6.2,8.5,9.3,12.5,1.3,1.7,2.8,3.2,4.3,4.7,4.8,4.4,10.7,6.9,16.9,8.7,13.2,3.7,25.9,8.8,38.3,14.5,6.4,2.9,12.4,6.3,17.7,11.1,2.8,2.6,3.5,2.2,4.3-1.9,.5-3,1-6,1.4-9,1.1-8.3,2.3-6.1-5-11.8-3.1-2.5-6.6-4.3-10.2-6-12.4-5.9-25.1-10.6-38.7-13.4-12.2-2.5-24.3-5.4-36.1-9.5-.3-.4-.9-.1-2.2,.1m-56.8-66.3c-3.7,16.2-11,30.9-17,46.2-4.2,10.6-6.2,21.6-7.4,32.8-.2,2,0,3.6,1.7,4.8,2.9,2.1,5.8,4.3,9.1,6.7,.7-1.6,1.4-2.7,1.6-3.8,1.4-8.9,5.3-16.8,9.5-24.6,3.9-7.3,7.7-14.5,10.6-22.3,1-2.9,2-5.8,2.9-8.7,2.7-9,2.7-17.4-4.5-24.6-2.3-1.9-3-5.3-6.5-6.5m75.1-509c-4.9-4.4-9-8.5-13.5-12.1-9-7.3-18-14.6-27.2-21.6-4.9-3.7-10.2-6.7-16.7-6.5-2.3,.1-4.1,.6-5.6,2.3-4.5,5.3-8.9,10.6-13.3,15.8,.5,.8,.5,1.2,.8,1.3,11.6,4.6,22.3,11.2,33.2,17.1,2.2,1.2,4.4,1.8,6.9,1.9,11,.5,21.9,1.3,32.8,2.8,.5,.2,1-.3,2.6-1m-101.3,6.1c-3.9-.8-6.3,1.7-8.6,4-8.4,8.4-16.9,16.8-23,27-4.7,7.8-9.2,15.8-13.5,23.8-6.2,11.5-12.8,22.8-20.5,33.4-5.2,7.1-10.8,13.9-18.4,18.6,19-7.1,35.2-17.9,45.8-35.6,10.5-17.5,21-34.9,29.9-53.4,2.2-4.6,4.8-9.1,7.2-13.7,.6-1.2,1.8-2.4,1.1-4.1m-17,5.4c-.8-.9-1.6-.6-2.5-.3-14.6,5-26.1,13.6-34,27.2-7.4,12.6-14.1,25.5-19.7,39-4.6,11-11.1,21-18,30.6-.7,1-1.3,2-2.4,3.8,8.5-2.5,14.8-6.8,19.8-13,9.6-11.9,17.5-24.8,24.7-38.3,2.4-4.6,4.8-9.2,7.3-13.7,6.1-10.9,12.9-21.3,21.8-30.2,1.3-1.3,2.2-2.8,3.3-4.3,0-.2-.3-.6-.3-.8m297.6,373.5c-.4-.7-.5-1.4-.9-1.8-13.1-12-23.9-26-35.4-39.3-3.2-3.7-6.8-6.8-10.8-9.7-7-4.9-13.5-10.4-20.3-15.6-1.4-1.1-2.5-2.7-4.5-2.8-.5,1.7,.7,2.8,1.5,4,9.8,15.8,19.7,31.5,29.3,47.3,5,8.2,11.3,15.1,18.1,21.6,4,3.8,7.9,5,13,2.2,3.4-1.9,7.4-2.8,10-5.9m-424.8-53.1c7.4-1.6,14.2-3,20.8-5.5,10.9-4.1,22.2-5.9,33.9-5.9,10.1,0,20-1.2,29.7-4.4,1.7-.6,3.5-1,5.1-1.8,1-.5,2.2-1.3,2.6-2.3,.5-1.3-.9-1.9-1.9-2.7-3.5-2.8-7.2-4-11.9-2.8-5.4,1.3-10.9,.7-16.3,.2-15.2-1.4-30.3-2.2-45.5-.4-9.7,1.1-8.7,.1-12.3,9.3-1.8,4.5-3.2,9.2-4.6,13.8-.1,.5,.2,1.1,.4,2.5m186.9,199.7c-1.2,4.9-2.1,9.6-3.6,14.2-2.6,8.4-6.5,16.4-10.6,24.2-2.4,4.6-4.7,9.2-6.9,13.9-2,4.1-2.9,8.6-3.9,13.1-.8,4-.3,7.2,3.5,9.4,.5,.3,1,.7,1.5,1.1,3,2.1,6,4.1,9,6.1,3.5-2.4,2-6.6,3.6-9.7,1.9-3.8,3.3-7.8,5.1-11.7,2.3-5,4.9-9.8,7.2-14.7,3.9-8.4,5.7-17.2,5.9-26.5,.1-4.2-.5-7.8-3.4-10.9-2.5-2.8-3.7-6.4-7.4-8.5m28.5-151c-10-4-18.6-7.9-27.6-10.7-4.2-1.3-9.1-1-13.6-.9-7.7,.3-15.2-.4-22.8-1.5-12.6-1.8-24.2-6-34.5-13.5-.7-.5-1.6-.9-2.4-1.3-.2-.1-.6-.1-1-.2-2.5,5.7-1.6,10.6,3.5,14.5,2.9,2.2,5.7,4.7,8.8,6.5,17.8,10.1,36.9,14.2,57.2,11.4,9.7-1.3,19.3-3,29.1-2.9,.5,0,1.1-.4,3.3-1.4m177.5-44.7c.5,1.3,.5,1.7,.7,1.8,13.8,9,27.5,18.3,43.2,23.7,10.2,3.5,9.2,3.3,14-5.6,3.6-6.8,5.5-14.2,7.1-21.7,.5-2.6-.2-3.7-2.6-3.5-11,.6-21.9,.6-32.8,2.2-8.1,1.2-16.4,1.6-24.6,2.4-1.6,.2-3.1,.5-5,.7m-169.3,243.7c-.5,.7-1,1.1-1,1.6-1.1,12.5-5.5,24.3-8.6,36.3-1.3,5-2.2,10.1-3.2,15.2-1,5.6,.4,10.1,5.3,13.5,3.5,2.4,6.5,5.4,9.6,8.1,1.7-.7,2-1.8,2-3.1,0-6.2,1.8-12,4-17.7s4.1-11.4,5.9-17.2c.9-2.9,1.6-5.9,1.8-8.9,.3-3.7-.1-7.3-2.4-10.5-4.2-5.9-8.3-11.9-13.4-17.3m24.3,22.5c5.5,10.9,11.2,20,21.9,24.8,8.1,3.6,15.7,8.2,23.1,12.9,5.4,3.4,10.8,6.9,15.2,11.6,.9,.9,1.9,1.5,3.3,1.6,2.1-4.7,3-9.8,4.2-14.8,.5-1.9-.1-3.5-1.4-5-4.1-5-9.2-8.8-15-11.7-12.9-6.4-26.2-11.6-39.8-15.9-3.4-1.2-6.9-2.2-11.5-3.5M183.2,631.78c6.8,7.8,15.2,13.2,24.4,17.2,4.7,2,9.6,3.7,14.5,5.5,3.4,1.2,7,3.7,10.2,3.2,3.2-.4,6.1-3.7,9-5.8,3.7-2.6,7.3-5.3,10.6-7.8,.5-2.5-1.1-3.2-2.3-4-5.3-3.7-11-6.5-17.1-8.5-3.5-1.1-7.1-1.8-10.8-1.5-12.6,1.3-25.3,2.5-38.5,1.7m211.5,669.9c.8-.7,1.2-.9,1.1-1.2-.2-11.4,3.4-22.1,6.1-32.9,3.9-15.1,2.9-13-3.8-23.6-1.6-2.6-2.3-6.3-6.1-7.2-2,2.5-1.7,5.7-2.6,8.5-2.2,6.3-4.2,12.7-6.5,18.9-2.1,5.7-3.5,11.5-3.3,17.7,.1,4.2,1,7.7,4.5,10.4,3.7,3.1,6.7,6.9,10.6,9.4m101.9-957.4c.4-.4,1-.7,1.2-1.2,6.2-11.9,12.5-23.7,18.6-35.6,.8-1.6,1.6-3.4,1.6-5.2,.3-11.8,4.5-22.6,8-33.6,.4-1.2,.8-2.3,1.2-3.5,.8-2.8-.5-4.4-3.7-4.8-1.3-.2-2.4,.3-2.9,1.6-.3,.8-.4,1.8-.6,2.6-1.5,6.9-3.8,13.5-6.5,20-3.9,9.6-7.8,19.2-11.6,28.8-2.9,7.4-5.1,15-6.5,22.8-.4,2.4-.8,4.8-.2,7.2,.1,.5,.9,.7,1.4,.9m-88.2,917.1c-.7,1-1.4,1.7-1.6,2.4-2.1,8.2-4.3,16.5-6.2,24.8-1,4.2-.7,8.4-.3,12.7,.4,4.7,2.7,8,7.1,9.7,.9,.3,1.7,.8,2.5,1.1,4.6,1.5,6.8,2.8,7-4.8,.1-5.8,1.3-11.5,2.1-17.2,.7-4.7,0-9.1-2.2-13.3-2-3.8-3.8-7.6-5.8-11.4-.7-1.2-1.6-2.4-2.6-4M235.1,664.78c-.9,0-1.6-.2-2,0-9.6,7.5-18.3,16-23.9,27.1-7.2,14.5-12.4,29.7-17.3,45-.1,.4,.2,1,.3,1.9,3.7-1.4,6-4.2,7.9-7.2,5.6-8.7,11.2-17.3,15.3-26.9,5.3-12.6,10.7-25.2,18.3-36.6,.7-1,.9-2.2,1.4-3.3m87.8,327.3c-8.1-4.7-15.4-9-22.7-13.3-1.9-1.2-4.1-1.1-6.2-1.2-9.5-.5-18.7-2.3-27.3-6.6-1-.5-2.2-1.1-3.2,.2-.9,1.3-1.3,2.9-.5,4.3,.7,1.3,1.9,2.3,3.1,3.3,7.5,6,16.2,9.6,25.5,11.8,8.6,2.1,17.4,3,26.2,3.2,1.5,0,3-.1,5.1-1.7m255.1,18.1c4.8-3.5,9.2-7.4,12-13.2-4.3-1.7-8.2-3.2-12.1-4.8-3.9-1.7-7.8-3.4-11.6-5.3-3.5-1.8-6.8-3.9-10.2-5.9-3.5-2.1-6.9-4.4-11.7-6.7,8.1,12.6,25.1,30.7,33.6,35.9m-351.8-78.8c-7.2-6.2-14.2-7.6-21.6-7.9-7.3-.3-14.6-.5-21.9-.6-5.5-.1-11-.1-16.2-2-2.1-.7-3.6-.1-4.5,1.8-1.1,2.4-3,4.6-2.6,8.1,10.9,0,21.7-1.7,32.5-1.1,10.8,.7,21.6,2.8,34.3,1.7M542.9,272.48c-10.3,7.4-13,18.8-18,29.6,3.9,.2,6.2-2.2,9-2.7,2.7-.4,5.4-1,8-1.5,3-.6,6-1.2,8.9-2,3-.8,3.7-2,2.8-4.5-2.3-6.9-5.2-13.5-10.7-18.9M205.3,919.28c-5.1-4.1-8.7-6.8-12.2-9.7-1.7-1.4-3.7-2-5.8-2.2-2.4-.2-4.9-.4-7.2-.8q-7.5-1.3-11.6,4.8c-.3,.5-.7,1-1,1.5-1.6,2.8-1.3,3.9,1.6,4.7,1.8,.5,3.6,1,5.3,1.1,8.2,.4,16.4,.8,24.6,1.1,1.4,.1,2.9-.2,6.3-.5m139.5-293.7c-9.9-5.5-17.6-11-26.8-13.7-4.3-1.3-7.4,.4-9.1,4.9-.3,.8,.1,1.7,1.1,2.1,2.6,.9,5.2,1.7,7.6,3q11.3,5.5,27.2,3.7m84.7,662.4c-1.4,2.1-.3,3.4,.2,4.7,1.8,4.8,3.8,9.6,5.5,14.4,1.9,5.4,2.9,5.4,7.5,1.8,1.4-1.1,2.8-2.4,3.9-3.7,1.1-1.3,1.1-2.8-.1-4.1-1-1.1-2-2.3-3.1-3.3-4.5-3.5-9.1-6.7-13.9-9.8m1.7,25.1c-.8-5.7-3.1-11-5-16.4-.5-1.4-1-3.5-2.6-3.4-2.5,.1-1.9,2.7-2,4.2-.5,4.5-.8,9.1-1,13.6-.1,2.2,1.1,3.5,3.4,3.4,2.3-.1,4.9,.4,7.2-1.4m-117-686.6c.3-.5,.7-.8,.9-1.3,.1-.2-.2-.6-.4-.8-3.2-2-6.6-3.1-10.3-1.5-.7,.3-1.2,1.3-1.5,2-.6,1.3,.7,1.4,1.5,1.6,3.2,1.2,6.5,0,9.8,0m-131.2,277.1c.6-.7,1-1,1.3-1.5,.1-.1-.1-.5-.3-.8-1.3-1.9-2.9-2.9-5.2-1.8-.5,.2-1.1,.7-1.2,1.2-.1,.4,.2,1.3,.6,1.4,1.7,.6,3.3,1,4.8,1.5"/><path class="f" d="M3454.1,1279.58c-.6-5.7-3.2-9-5.4-12.5-4.4-7-9.4-13.7-13.7-20.8-3-5-7.4-6.2-13.4-4.9-9,2-18.1,4.6-27,5.5-13.2,1.4-23.5,8.4-32.9,17.5-8.2,7.9-16.1,16.1-23.9,24.3-9.5,10-18.7,20.1-28,30.2-16.2,17.4-35.1,32-53.2,47.3-10.2,8.6-21.6,15.5-33.6,21.2-23.8,11.3-47.7,22.4-70.9,35.3-4.4,2.5-9,5.5-14.2,5.6-.7,0-1.6-.7-2-1.3-.4-.6-.5-1.8-.1-2.3,1.5-1.8,3.1-3.5,5-4.9,10.2-7.7,20.5-15.4,30.9-23s20.4-15.5,29.6-24.6c13.8-13.7,27.7-27.3,42-40.5,7.7-7.1,15.4-14.2,22.4-21.9,6.1-6.7,12.1-13.4,18.3-19.8,11.5-12,23.7-23.3,38.2-31.7,18.4-10.6,37-18.9,57.6-15.8,2.5,.4,5.4-.2,8.1-.7,9.9-1.9,19.9-3.9,29.8-6,6.5-1.4,7.5-3.1,4-7.5-10.5-13.4-21.1-26.7-31.8-39.9-5.9-7.2-7.1-7.2-17-2.4-8.9,4.3-17.5,9.4-26.6,13.2-7.4,3.1-12.7,7.4-17.2,13.9-12.3,17.9-27.5,33.7-43.7,48.3-25.1,22.6-52.1,42.8-81,60.4-16.2,9.8-32.6,19.3-47.9,30.7-6.5,4.8-13.5,8.8-20.4,12.9-1.4,.8-3.8,.7-4.2-1.4-.2-1.1,.1-2.8,.8-3.6,3.6-3.9,8.2-6.4,12.7-9,21.2-12.4,39.4-28.1,53.6-48,3-4.2,6.1-8.3,9.2-12.5,14.6-19.7,29.1-39.3,46.5-56.9,19.1-19.2,40.8-32.8,67.3-34.8,8.9-.7,17-3.3,25.1-7.1,7.7-3.6,15.3-7.3,22.9-11.1,.8-.4,1.6-.9,2.5-1.4,4.1-2.4,4.8-4.4,2.1-7.2-3.2-3.3-6.4-6.6-10-9.3-9.8-7.2-20-13.8-29.7-21-4.3-3.2-8.4-3.2-13.6-.6-13.1,6.6-26.4,12.6-40,17.4-4.5,1.6-6.8,4.2-8.9,8.2-5.8,11.1-11.8,22.1-18,33-24,42-59.5,72.6-101.2,97-27.4,16.1-56.2,29.1-83.3,45.6-2.7,1.7-6,2.5-9.1,3.4-.6,.2-1.5-.6-2.1-1.1-1.3-1.1-.4-2.6,.6-3.4,1.8-1.6,3.7-3.1,5.8-4,9.4-4.3,16.1-11.6,22.8-19,7.3-8.1,14.4-16.3,21.2-24.7,8.1-9.9,16.2-19.7,23.6-30,16.1-22.2,33.8-42.8,54.2-61.6,18.2-16.8,38.4-29.3,60.4-39.5,3.8-1.8,7.9-3,11.9-3.9,20-4.5,38.7-13.5,57.6-21.8,3.3-1.5,3.8-4.2,1-5.9-10.7-6.7-22.8-11.2-34.1-17-4.6-2.4-8.9-2.3-14.1-.4-7.9,3-15.8,5.7-23.8,8.1-6.9,2.1-11.4,6.4-14.2,12.6-1.7,3.8-3.4,7.6-4.9,11.4-4.1,10.6-11.2,19-20.2,26.5-18.4,15.3-38.3,28.1-59.2,39.2-25.6,13.5-52.1,23.9-79.2,32.8-7.5,2.5-15,4.9-22.6,7.2-1.9,.6-3.8-.2-3.9-2.1-.1-1,1-2.6,2-3.2,4.8-3,10-5,14.7-8.5,25.3-18.7,49.3-38.8,70.3-62.2,12.7-14.1,25.8-27.8,41.9-38.4,17.5-11.6,36.1-18.2,56.2-17.8,3.1,0,6.4,.2,9.4-.7,9.3-2.8,18.6-6.1,27.9-9.3,1.3-.5,2.6-1.3,2.6-2.8,0-.7-.5-1.6-1.1-1.9-15.5-8.6-31.1-17-46.6-25.6-3.4-1.9-6.8-1.1-10.4,.3-13.1,4.9-26.3,9.9-39.4,14.7-5.1,1.8-8.9,4.8-12,9.3-11.2,16.5-26.5,28.3-44.6,36.3-21.6,9.4-42.5,20.3-63.4,31.3-24.1,12.7-49,21.5-75,26.4-17.2,3.3-34.3,6.5-51.5,9.7-2.7,.5-5.4,.9-8.1,1-1.8,.1-3.6-.4-4-2.4-.3-2,1-3.6,2.8-4.1,18.9-5.6,36.1-15.7,54.2-23.5,9.5-4.1,18.8-9,27.4-14.9,14.1-9.7,28-19.6,41.8-29.8,20.3-15.1,42-27.8,64.6-38.5,15.7-7.5,32-10.9,48-7.6,9.9,2.1,19.2,1.2,29-3.2,3.4-1.5,7.2-2.1,10.5-3.8,5.2-2.5,11.7-2.2,15.5-7.9-3.8-4-9.1-5.8-13.8-8.5-1.7-1-4.2-.9-6.3-1.2-29.7-3.9-58.9-9.2-87.5-16.7-16.8-4.4-33.2-9.5-48.6-16.9-14.6-7-30-12.3-45.7-17-16.1-4.8-32.1-10-48-15.4-16.3-5.5-32.9-10.4-50-13.9-6-1.2-12-2.4-17.9-3.8-6.6-1.6-9.4-4-7.6-6.2,3-3.8,6.8-2.4,10.1-2,11.8,1.5,23.5,3.4,35.3,4.8,34.6,4.3,69.6,7.1,104.6,9.3,31,1.9,59.9,9.4,86,23.2,24.3,12.8,48.1,26.3,69.8,42.9,6.6,5.1,14.3,8.8,21.6,13,.9,.5,2.6,.6,3.7,.2,1.4-.6,1.3-2.1,1.3-3.4-.4-10.8-.7-21.7-1.1-32.5-.1-3-.3-6-.4-9.1,0-4.5-1.2-8.3-4.3-11.5-6-6.2-8.1-14.5-9-23.1-3.9-34.2-7.2-68.5-8.6-103.1-1.4-33.4,.9-67.2,1.5-100.8,0-1.7,.2-3.6,.8-5.2,.4-1.1,1.9-2.5,2.8-2.6,1.1-.1,2.2,1,3.1,1.8,.6,.5,.8,1.5,1,2.3,4.6,19.8,9.8,39.5,13.5,59.6,4,21.8,8.3,43.5,16.7,63.7,4.2,10,7.6,20.4,10,31.3,5.9,26.8,1.3,52.7-17.9,77.1-1.9,2.4-2.9,4.8-2.7,7.4,1,16.4-.7,33.2,1.5,49.4,.5,3.8,1.8,6.1,5.1,7.8,15.3,8.1,30.5,16.5,45.7,24.7,1,.5,2.3,.7,3.7,1.1,2.2-3.2,1.6-6.2,1.5-9.2-.6-10.8-.4-21.7,.6-32.7,.5-5.6,1.8-11.3-2.4-16-1.5-1.6-1.2-4.8-1.6-7.4-2.1-17.9-4.4-35.8-6.2-53.7-.8-7.7-1.1-15.5-.7-23.4,1.1-24.5,3.3-49.1,7.9-73.8,3.8-20.2,7.5-40.4,7.9-60.6,0-.9,.1-1.8,.2-2.6,.2-2.3,.8-4.7,3.5-5.3,2.8-.6,3.8,1.3,4.1,3.7,.4,3.4,.8,6.8,1.2,10.2,1.6,14.1,3.5,28.1,7.3,41.6,5.8,20.3,9.6,41.3,12.9,62.5,2.8,18.3,2.7,37.1-.5,56.1-2.9,17.4-9,34-20.6,49-3.3,4.3-4.8,8.7-5.4,13.8-1.9,16.3-1.6,32.4-1.3,48.5,.1,4,1.9,6.2,5.1,7.8,13,6.3,25.9,12.7,38.8,19,.6,.3,1.7-.1,3.2-.2,3.6-12.9,6.9-25.9,9.2-39.1,1-5.8,1.5-11.4,.3-16.9-1.8-8.4-1.5-17.1-.9-25.9,.9-15,3.6-29.9,8.1-44.7,4-13.1,6.9-26.2,7.3-39.4,1-37.3,9.3-74.7,12.8-112.1,.1-1.2,.7-2.7,1.6-3.7,.9-1.1,2.5-1.2,3.6-.5,.7,.4,1.3,1.2,1.5,1.9,4.8,18,10.6,35.7,14,54,5.4,29.2,5.2,59.2-2.4,89.9-4.8,19.2-11.1,38.2-18.2,57.1-3.7,9.9-8.1,19.7-14.7,28.3-4,5.2-5.9,10.2-6.9,16-1,5.7-2.5,11.4-3.9,17.1-1.2,4.8-2.3,9.6-3.8,14.4-2,6.8-.6,11.2,5.4,15,14.7,9,28.8,18.8,40.9,31,2.2,2.2,4.9,1.5,6.2-1.9,4.4-10.6,8.2-21.3,12.8-31.9,3.4-8,4-15.5,2-23.1-2.9-11.2-3.2-22.9-1.7-34.9,1.3-11,2.7-22,5-33,10-47.9,16.4-95.8,22.8-143.7,.2-1.7,.8-3.5,1.5-5.1,.2-.6,1.5-1.1,2.3-1.1,.8-.1,1.8,.2,2.3,.8,1.8,2,1,4.9,1,7.4,.4,28.3,1.5,56.4,6.5,83.8,1.9,10.5,3.1,21.2,4.4,31.8,1.4,11.6,.7,23.5-2.7,35.3-2.8,10-5.8,20-9.2,29.9-4.3,12.6-10.5,24.5-18.8,35.5-3.5,4.6-5.8,9.5-7.8,14.6-5,12.8-9.1,25.8-15.7,38.2-2.4,4.5-1.3,7.3,1.3,10.5,10.2,12.6,20.1,25.3,30.2,38,1.3,1.6,2.6,3.3,4,4.8,1.8,1.9,4.3,1.3,5.3-1.2,5.5-14.1,10.9-28.2,16.5-42.2,1.3-3.3,.6-6.1-.4-8.9-3.4-10.2-3.5-21-2.4-32.1,2.5-26.9,8.7-53.5,16.5-80.1,12.3-42.2,28-83.8,37.6-126.3,.3-1.2,1.1-2.5,2-3.5,.5-.6,1.7-.9,2.5-.8,.8,0,1.8,.6,2,1.2,.4,2,.7,4.2,.7,6.3-.5,16.2,1,32.1,2.3,48,.9,10.7,1.7,21.5,1.4,32.4-.9,32.9-6.2,65.9-14.1,98.8-5.8,24.3-19.3,45.4-37.9,63.9-2.1,2.1-4,4-5.1,6.6-6.3,14.3-11.9,28.8-16.9,43.5-1.3,3.7-.7,6.8,1.4,9.7,6.4,9.2,12.4,18.7,18.7,27.9,1.1,1.6,1.8,3.9,5.5,2.8,8-11,13.7-23.6,20.5-35.7,1.2-2.1,1.1-4.3,.6-6.4-3.5-15-.8-30.3,4.2-45.6,8.9-27.4,20.5-53.8,37.4-78.4,9.9-14.4,19.1-29,24.9-45,9.6-26.6,18.8-53.3,23.5-80.7,.4-2.2,1-4.4,1.7-6.5,.2-.7,1.5-1.7,2-1.6,1.2,.2,2.9,.7,3.1,1.5,.5,2,.5,4.2,.3,6.4-1.3,15.4-2.6,30.7-4.1,46.1-2.7,27.7-6.4,55.4-13.4,83-8.9,35.4-24.9,68.5-46.3,99.8-5.6,8.2-11.8,16-19.9,22-4.8,3.6-8,7.9-10.8,12.8-5.5,9.7-10.8,19.6-17,28.9-4.3,6.5-3.7,11.1-.3,16.7,7.9,12.7,15.1,25.8,22.2,39.1,15.5,29,30.8,58.2,46,87.3,5.6,10.7,10.7,21.7,16.1,32.5,.9,1.9,1.9,3.8,1,6.1-.3,.8-1,1.6-1.7,2-1.3,.9-2.8,.8-3.4-.4-3.3-6.7-6.2-13.7-9.6-20.3-11-21.1-22.3-41.9-33.1-63.1-13.9-27.1-28.3-53.8-43.6-80.1-3.6-6.1-4.3-6.5-11.6-4.2-10.2,3.2-20.3,7.1-30.5,10.1-8,2.4-13.9,6.7-19.3,13.4-18.5,23.3-38.5,45.4-60.9,65.4-7.8,6.9-15.8,13.8-24.2,19.8-29.2,20.9-61.1,36.1-93.8,49.2-3.7,1.5-9.3,4.9-11.2,1.2-2.7-5.3,4.5-7.1,7.8-9.6,26-19.4,51-39.8,70.3-66,1.7-2.3,3.6-4.3,5.5-6.5,14.1-16,28.5-31.6,45.8-44.6,20-14.9,41.2-24.9,65.4-25.8,2.7-.1,5.4-.5,8.1-1.3,11.8-3.9,24.6-8.2,38.3-12.6m-25.2-329l.4-.7,.1,.7c-.9,1.3-1.8,2.7-2.6,4,.5,10-1.8,20.1-3.5,30.1-3.1,18-6.6,36-10,53.9-2.7,14-5.4,28.1-6.2,42.1-.6,10.5-.5,20.9,2.9,30.5,3,.8,4.4-1.2,5.4-3.2,3.3-6.1,6.7-12.2,9.4-18.5,5.6-13.1,9.5-26.6,12.8-40.1,2.2-9.2,3.2-18.5,2-27.5-2.8-21.2-5.9-42.4-8.9-63.5-.3-2.3-2-3.5-4.4-3.9,2.5-.4,3.6-1.6,2.6-3.9m-332.2,369.1c8.1-4.1,13.9-6.9,19.6-9.9,20.3-10.9,40.6-21.9,59.8-35.2,33.5-23.3,59.6-52.3,77.7-87.9,2.1-4.1,4.5-8.1,6.7-12.2,1.6-3,5.6-6.7,3.1-9.2-2.4-2.3-6.9,.4-10.3,1.7-14,5.5-27.3,12.8-39.5,21.8-23.8,17.5-45.1,37.7-62.7,61.2-15.4,20.7-30.8,41.4-48.3,60.7-1.9,1.9-3.2,4.5-6.1,9m401.8-350.7c-4.2,12.9-8.5,25.8-12.5,38.7-6.6,21.2-13,42.4-19.3,63.7-7.3,24.4-11.7,48.9-13.6,73.5-.6,8.4,0,16.5,2.5,24.2,1,3.2,3.8,3.6,5.9,.8,11.9-15.9,23.5-32,28-50.8,11.8-49.2,19.1-98.2,12.3-146.4-.2-1.2-.7-2.3-1-3.5-.8-.1-1.5-.1-2.3-.2m-545.9,223.1c2.1,2.6,4.4,1.6,6.5,1.3,29.6-4.9,58.3-13.2,85.9-27.8,21.7-11.5,43.4-22.8,65.9-32.4,15.4-6.6,28.4-16.9,38.5-30.6,1.6-2.2,3.5-4.4,3.2-8-8.6-2.6-17.8-2.5-27.4-.8-10.1,1.8-19.6,5.6-28.9,10.4-19.4,9.9-38.1,20.9-55.6,34.1-13.3,10-27.1,19.2-40.7,28.8-10.9,7.7-22.7,13.7-34.7,19.1-4.2,1.7-8.3,3.8-12.7,5.9m124.3,40.1c3.9,1.3,6.4-.1,9-1,29.1-10.5,57.2-23.3,83.8-40,13.6-8.6,26.2-18.7,38.4-29.3,4.4-3.8,7.6-8.3,9.9-13.5,1.1-2.5,2.2-5,3.3-7.6,7.1-16.4,6.3-17.5-11-13.8-20.9,4.4-39.2,14.7-55.2,29.7-5.2,4.9-10.1,10-14.9,15.2-18.4,20.3-37.6,40-59.6,56.7-1.1,.8-2,1.9-3.7,3.6m-127.5-244.9c4.6,1.8,6.9,2.9,9.2,3.6,11.8,3.9,23.5,8.2,35.5,11.6,22,6.3,43.6,13.5,63.7,23.4,1.5,.8,3.1,1.3,4.7,2,19.6,8.2,77.6,22.4,99.5,24.4,3,.3,6,1.4,9.2-.4,.3-2.7-1.9-3.3-3.5-4.3-20.9-13.9-42.7-26.6-65.7-37.5-20.4-9.7-42.6-15.6-66.1-17.6-26.9-2.4-53.8-4.3-80.8-6.3-.7-.1-1.6,.3-5.7,1.1m418.9,261.6c-10.1-.5-17.7,2.1-24.9,5.4-18.1,8.2-34.8,18.8-48.7,33.7-12.2,13.2-24.3,26.5-37.3,38.9-17.4,16.7-35.2,33.2-52.3,50.2-7.5,7.5-16.1,13.9-25.7,22.1,3.1-.8,4.4-.9,5.5-1.4,16.3-7.2,32.5-14.8,48.2-23.3,16.9-9.1,30.6-22.4,44.9-34.8,14.7-12.8,28.5-26.4,41.4-40.9,15.2-16.8,31.3-32.8,48.9-49.9m199-216.1c-.6,1.2-.9,1.6-1,2-8.2,28.6-22.6,54.8-39.7,80.2-16,23.8-26.6,49.8-34,76.5-2.6,9.6-4,19.3-2.8,28.8,.2,1.7,.8,3.4,2.5,4.1,1.9,.7,3.6-.6,4.8-1.9,4.3-5,8.9-9.8,12.7-15.1,21.3-30.2,37-62.4,46.2-96.7,6.5-24,10.2-48.1,12.7-72.3,.2-1.9,.8-3.7-1.4-5.6m-370.5-219.7c-3,3.8-2.3,7.1-2.4,10.2-1.1,24.5-.8,48.8,.6,72.9,1.6,28.5,4.4,56.7,7.6,84.8,.8,6.8,1.8,13.6,5.8,19.1,3.7,5,6.3,5,9.9-.7,8.8-14.2,14.1-29,13.9-44.7-.1-10.5-1.7-20.6-4.7-30.3-2.1-6.8-4.5-13.6-7.1-20.2-8.6-21.4-14.2-44-17.4-67.3-1-8-2.5-15.8-6.2-23.8m85.9,43.9c-3.4,19.6-7,37.1-9,54.6-1,8.8-1.6,17.5-2.5,26.3-2.1,20.3-1.1,40.1,2,59.6,1.5,9.2,2.2,18.7,3.3,28.1,.3,2.5,.6,5.1,1.1,7.6,.1,.7,.9,1.9,1.4,1.8,1.2-.2,3-.7,3.6-1.6,2.6-3.8,5.3-7.7,7.4-11.8,5.6-11.2,9.4-22.9,11.1-34.8,2.6-17.7,2.9-35.1,.4-52.1-3.6-25-8.9-49.4-15.7-73.4-.3-.9-1-1.4-3.1-4.3m-37.5,569.4c14.9-3.8,28-11.1,41-18.6,26.4-15.4,50.1-34.3,71.2-56.4,14.1-14.7,27.9-29.6,40.2-45.7,.8-1,2.2-2.3,.8-3.4-.9-.7-2.3-1.1-3.5-.9-14.8,2.1-28.4,8.3-41,17.2-17.1,12.1-33.1,25.6-46.6,41.6-19.4,23-38.1,46.7-62.1,66.2m101.1-357.9c5.6-7.9,9.1-15.9,11.8-24,5.6-16.8,11.7-33.6,16.2-50.6,10.9-41.1,9.2-80.5-2.7-118.3-.2-.7-1.2-1-1.8-1.6-2.5,1.3-2.1,3.7-2.4,5.6-4,26.4-7.9,52.8-8.9,79.1-.5,14.5-3.6,29-8.1,43.3-5.1,16.2-7.1,32.4-7.8,48.6-.1,4.3,.3,8.7,.6,12.9,.2,1.7,.3,3.5,3.1,5m-20.7,136.6c-16,1.1-29.6,5-42.1,13.4-11.9,8-22.5,17.3-32.2,27.8-19.3,20.9-34.8,44.4-52,66.7-.4,.5-.2,1.7,0,2.4,.3,1,1.1,1.1,2.2,.4,3.6-2.3,7.1-4.8,10.7-6.9,26.9-16.2,50.9-36.3,74.1-57.3,14.9-13.4,30.8-32.3,39.3-46.5"/><image class="b" transform="translate(2254.06 2419.22)" xlink:href="B84E1D7.jpg"/></svg>